<svg xmlns="http://www.w3.org/2000/svg" width="1200" height="627" viewBox="0 0 1200 627">
  <rect width="1200" height="627" fill="#060A0E"/>
  <g opacity="0.02" stroke="#10B981" stroke-width="0.5" fill="none"><line x1="0" y1="0" x2="0" y2="627"/><line x1="60" y1="0" x2="60" y2="627"/><line x1="120" y1="0" x2="120" y2="627"/><line x1="180" y1="0" x2="180" y2="627"/><line x1="240" y1="0" x2="240" y2="627"/><line x1="300" y1="0" x2="300" y2="627"/><line x1="360" y1="0" x2="360" y2="627"/><line x1="420" y1="0" x2="420" y2="627"/><line x1="480" y1="0" x2="480" y2="627"/><line x1="540" y1="0" x2="540" y2="627"/><line x1="600" y1="0" x2="600" y2="627"/><line x1="660" y1="0" x2="660" y2="627"/><line x1="720" y1="0" x2="720" y2="627"/><line x1="780" y1="0" x2="780" y2="627"/><line x1="840" y1="0" x2="840" y2="627"/><line x1="900" y1="0" x2="900" y2="627"/><line x1="960" y1="0" x2="960" y2="627"/><line x1="1020" y1="0" x2="1020" y2="627"/><line x1="1080" y1="0" x2="1080" y2="627"/><line x1="1140" y1="0" x2="1140" y2="627"/><line x1="1200" y1="0" x2="1200" y2="627"/><line x1="0" y1="0" x2="1200" y2="0"/><line x1="0" y1="60" x2="1200" y2="60"/><line x1="0" y1="120" x2="1200" y2="120"/><line x1="0" y1="180" x2="1200" y2="180"/><line x1="0" y1="240" x2="1200" y2="240"/><line x1="0" y1="300" x2="1200" y2="300"/><line x1="0" y1="360" x2="1200" y2="360"/><line x1="0" y1="420" x2="1200" y2="420"/><line x1="0" y1="480" x2="1200" y2="480"/><line x1="0" y1="540" x2="1200" y2="540"/><line x1="0" y1="600" x2="1200" y2="600"/><line x1="0" y1="660" x2="1200" y2="660"/></g>
  <defs><filter id="g"><feGaussianBlur stdDeviation="25" result="b"/><feMerge><feMergeNode in="b"/><feMergeNode in="SourceGraphic"/></feMerge></filter></defs>
  <circle cx="250" cy="300" r="200" fill="#10B981" opacity="0.04" filter="url(#g)"/>
  <g>
    <rect x="60" y="60" width="162" height="32" rx="16" fill="#10B981" opacity="0.12"/>
    <text x="141" y="81" font-family="Syne, sans-serif" font-weight="700" font-size="11" fill="#34D399" text-anchor="middle" letter-spacing="0.12em">SOCIAL PROOF</text>
  </g>
  <g transform="translate(1132, 64) scale(0.3)">
  <defs>
    <linearGradient id="grad1" x1="0%" y1="0%" x2="100%" y2="100%">
      <stop offset="0%" stop-color="#34D399"/>
      <stop offset="100%" stop-color="#10B981"/>
    </linearGradient>
  </defs>
  <polygon points="-20,-30 -5,-35 -5,20 -20,25" fill="url(#grad1)"/>
  <polygon points="-20,-30 -5,-35 -20,-15 -35,-10" fill="#34D399"/>
  <polygon points="-20,25 -5,20 -20,40 -35,35" fill="#059669"/>
  <polygon points="-5,-35 10,-15 10,20 -5,20" fill="#10B981"/>
  <polygon points="10,-15 25,-20 25,25 10,20" fill="#059669"/>
  <polygon points="10,-15 25,-20 10,0 -5,5" fill="#34D399"/>
  <polygon points="10,20 25,25 10,45 -5,40" fill="#059669"/>
</g>

  <text x="60" y="140" font-family="Syne, sans-serif" font-weight="800" font-size="40" fill="#F0F4F8" letter-spacing="-0.02em">Nuestro trabajo habla.</text>

  <g transform="translate(60, 185)">
    
      <g transform="translate(0, 0)">
        <rect x="0" y="0" width="250" height="80" rx="12" fill="#0B1117" stroke="#10B981" stroke-opacity="0.1" stroke-width="1"/>
        <text x="125" y="35" font-family="Syne, sans-serif" font-weight="800" font-size="26" fill="#34D399" text-anchor="middle">100%</text>
        <text x="125" y="58" font-family="DM Sans, sans-serif" font-weight="400" font-size="12" fill="#5E7085" text-anchor="middle">Proyectos a tiempo</text>
      </g>
    
      <g transform="translate(270, 0)">
        <rect x="0" y="0" width="250" height="80" rx="12" fill="#0B1117" stroke="#10B981" stroke-opacity="0.1" stroke-width="1"/>
        <text x="125" y="35" font-family="Syne, sans-serif" font-weight="800" font-size="26" fill="#34D399" text-anchor="middle">0</text>
        <text x="125" y="58" font-family="DM Sans, sans-serif" font-weight="400" font-size="12" fill="#5E7085" text-anchor="middle">Proyectos abandonados</text>
      </g>
    
      <g transform="translate(540, 0)">
        <rect x="0" y="0" width="250" height="80" rx="12" fill="#0B1117" stroke="#10B981" stroke-opacity="0.1" stroke-width="1"/>
        <text x="125" y="35" font-family="Syne, sans-serif" font-weight="800" font-size="26" fill="#34D399" text-anchor="middle">&lt;24h</text>
        <text x="125" y="58" font-family="DM Sans, sans-serif" font-weight="400" font-size="12" fill="#5E7085" text-anchor="middle">Tiempo de respuesta</text>
      </g>
    
      <g transform="translate(810, 0)">
        <rect x="0" y="0" width="250" height="80" rx="12" fill="#0B1117" stroke="#10B981" stroke-opacity="0.1" stroke-width="1"/>
        <text x="125" y="35" font-family="Syne, sans-serif" font-weight="800" font-size="26" fill="#34D399" text-anchor="middle">5/5</text>
        <text x="125" y="58" font-family="DM Sans, sans-serif" font-weight="400" font-size="12" fill="#5E7085" text-anchor="middle">Satisfacción</text>
      </g>
    
  </g>

  <rect x="60" y="315" width="1080" height="2" rx="1" fill="#10B981" opacity="0.15"/>

  <text x="60" y="365" font-family="DM Sans, sans-serif" font-weight="400" font-size="15" fill="#8A9BB0">Desarrollo de software profesional. Web, móvil, APIs, SaaS.</text>
  <text x="60" y="395" font-family="DM Sans, sans-serif" font-weight="400" font-size="15" fill="#8A9BB0">Soluciones escalables para empresas que quieren crecer.</text>

  <text x="60" y="465" font-family="Syne, sans-serif" font-weight="700" font-size="16" fill="#34D399" letter-spacing="0.5">nexa.design</text>

  <rect x="60" y="495" width="180" height="36" rx="18" fill="#10B981" opacity="0.12"/>
  <text x="150" y="519" font-family="Syne, sans-serif" font-weight="700" font-size="12" fill="#34D399" text-anchor="middle" letter-spacing="0.1em">VER PORTFOLIO</text>

  <text x="1140" y="602" font-family="Syne, sans-serif" font-weight="700" font-size="13" fill="#5E7085" text-anchor="end" letter-spacing="1">NEXA</text>
</svg>