<svg xmlns="http://www.w3.org/2000/svg" width="1600" height="900" viewBox="0 0 1600 900">
  <rect width="1600" height="900" fill="#060A0E"/>
  <g opacity="0.015" stroke="#10B981" stroke-width="0.5" fill="none"><line x1="0" y1="0" x2="0" y2="900"/><line x1="60" y1="0" x2="60" y2="900"/><line x1="120" y1="0" x2="120" y2="900"/><line x1="180" y1="0" x2="180" y2="900"/><line x1="240" y1="0" x2="240" y2="900"/><line x1="300" y1="0" x2="300" y2="900"/><line x1="360" y1="0" x2="360" y2="900"/><line x1="420" y1="0" x2="420" y2="900"/><line x1="480" y1="0" x2="480" y2="900"/><line x1="540" y1="0" x2="540" y2="900"/><line x1="600" y1="0" x2="600" y2="900"/><line x1="660" y1="0" x2="660" y2="900"/><line x1="720" y1="0" x2="720" y2="900"/><line x1="780" y1="0" x2="780" y2="900"/><line x1="840" y1="0" x2="840" y2="900"/><line x1="900" y1="0" x2="900" y2="900"/><line x1="960" y1="0" x2="960" y2="900"/><line x1="1020" y1="0" x2="1020" y2="900"/><line x1="1080" y1="0" x2="1080" y2="900"/><line x1="1140" y1="0" x2="1140" y2="900"/><line x1="1200" y1="0" x2="1200" y2="900"/><line x1="1260" y1="0" x2="1260" y2="900"/><line x1="1320" y1="0" x2="1320" y2="900"/><line x1="1380" y1="0" x2="1380" y2="900"/><line x1="1440" y1="0" x2="1440" y2="900"/><line x1="1500" y1="0" x2="1500" y2="900"/><line x1="1560" y1="0" x2="1560" y2="900"/><line x1="1620" y1="0" x2="1620" y2="900"/><line x1="0" y1="0" x2="1600" y2="0"/><line x1="0" y1="60" x2="1600" y2="60"/><line x1="0" y1="120" x2="1600" y2="120"/><line x1="0" y1="180" x2="1600" y2="180"/><line x1="0" y1="240" x2="1600" y2="240"/><line x1="0" y1="300" x2="1600" y2="300"/><line x1="0" y1="360" x2="1600" y2="360"/><line x1="0" y1="420" x2="1600" y2="420"/><line x1="0" y1="480" x2="1600" y2="480"/><line x1="0" y1="540" x2="1600" y2="540"/><line x1="0" y1="600" x2="1600" y2="600"/><line x1="0" y1="660" x2="1600" y2="660"/><line x1="0" y1="720" x2="1600" y2="720"/><line x1="0" y1="780" x2="1600" y2="780"/><line x1="0" y1="840" x2="1600" y2="840"/><line x1="0" y1="900" x2="1600" y2="900"/></g>
  <g opacity="0.04" stroke="#34D399" stroke-width="0.8" fill="none"><path d="M0,180 Q270,150 540,198 T1080,171"/><path d="M0,220 Q270,180 540,244 T1080,208"/><path d="M0,260 Q270,210 540,290 T1080,245"/><path d="M0,580 Q300,555 600,600 T1080,565"/><path d="M0,540 Q300,515 600,560 T1080,525"/></g>
  <defs><filter id="g"><feGaussianBlur stdDeviation="40" result="b"/><feMerge><feMergeNode in="b"/><feMergeNode in="SourceGraphic"/></feMerge></filter></defs>
  <circle cx="800" cy="450" r="320" fill="#10B981" opacity="0.04" filter="url(#g)"/>
  <g>
    <rect x="60" y="60" width="151.5" height="32" rx="16" fill="#10B981" opacity="0.12"/>
    <text x="135.75" y="81" font-family="Syne, sans-serif" font-weight="700" font-size="11" fill="#34D399" text-anchor="middle" letter-spacing="0.12em">BRAND STORY</text>
  </g>
  <g transform="translate(1532, 64) scale(0.3)">
  <defs>
    <linearGradient id="grad1" x1="0%" y1="0%" x2="100%" y2="100%">
      <stop offset="0%" stop-color="#34D399"/>
      <stop offset="100%" stop-color="#10B981"/>
    </linearGradient>
  </defs>
  <polygon points="-20,-30 -5,-35 -5,20 -20,25" fill="url(#grad1)"/>
  <polygon points="-20,-30 -5,-35 -20,-15 -35,-10" fill="#34D399"/>
  <polygon points="-20,25 -5,20 -20,40 -35,35" fill="#059669"/>
  <polygon points="-5,-35 10,-15 10,20 -5,20" fill="#10B981"/>
  <polygon points="10,-15 25,-20 25,25 10,20" fill="#059669"/>
  <polygon points="10,-15 25,-20 10,0 -5,5" fill="#34D399"/>
  <polygon points="10,20 25,25 10,45 -5,40" fill="#059669"/>
</g>

  <text x="540" y="180" font-family="Syne, sans-serif" font-weight="800" font-size="68" fill="#10B981" opacity="0.06" text-anchor="middle">"</text>

  <text x="60" y="260" font-family="Syne, sans-serif" font-weight="800" font-size="42" fill="#F0F4F8" letter-spacing="-0.02em">No somos una agencia más.</text>
  <text x="60" y="330" font-family="Syne, sans-serif" font-weight="800" font-size="42" fill="#34D399" letter-spacing="-0.02em">Somos ingenieros que construyen.</text>

  <rect x="60" y="365" width="90" height="3" rx="1.5" fill="#10B981" opacity="0.5"/>

  <text x="60" y="415" font-family="DM Sans, sans-serif" font-weight="400" font-size="16" fill="#8A9BB0">NEXA existe para resolver problemas reales con tecnología que funciona. Sin atajos. Sin humo. Solo código que escala.</text>

  <g transform="translate(60, 465)">
    
      <g transform="translate(0, 0)">
        <rect x="0" y="0" width="240" height="80" rx="12" fill="#0B1117" stroke="#10B981" stroke-opacity="0.1" stroke-width="1"/>
        <text x="120" y="35" font-family="Syne, sans-serif" font-weight="800" font-size="26" fill="#34D399" text-anchor="middle">2</text>
        <text x="120" y="58" font-family="DM Sans, sans-serif" font-weight="400" font-size="12" fill="#5E7085" text-anchor="middle">Fundadores</text>
      </g>
    
      <g transform="translate(260, 0)">
        <rect x="0" y="0" width="240" height="80" rx="12" fill="#0B1117" stroke="#10B981" stroke-opacity="0.1" stroke-width="1"/>
        <text x="120" y="35" font-family="Syne, sans-serif" font-weight="800" font-size="26" fill="#34D399" text-anchor="middle">30+</text>
        <text x="120" y="58" font-family="DM Sans, sans-serif" font-weight="400" font-size="12" fill="#5E7085" text-anchor="middle">Proyectos</text>
      </g>
    
      <g transform="translate(520, 0)">
        <rect x="0" y="0" width="240" height="80" rx="12" fill="#0B1117" stroke="#10B981" stroke-opacity="0.1" stroke-width="1"/>
        <text x="120" y="35" font-family="Syne, sans-serif" font-weight="800" font-size="26" fill="#34D399" text-anchor="middle">99.9%</text>
        <text x="120" y="58" font-family="DM Sans, sans-serif" font-weight="400" font-size="12" fill="#5E7085" text-anchor="middle">Uptime</text>
      </g>
    
      <g transform="translate(780, 0)">
        <rect x="0" y="0" width="240" height="80" rx="12" fill="#0B1117" stroke="#10B981" stroke-opacity="0.1" stroke-width="1"/>
        <text x="120" y="35" font-family="Syne, sans-serif" font-weight="800" font-size="26" fill="#34D399" text-anchor="middle">24/7</text>
        <text x="120" y="58" font-family="DM Sans, sans-serif" font-weight="400" font-size="12" fill="#5E7085" text-anchor="middle">Compromiso</text>
      </g>
    
  </g>

  <text x="60" y="650" font-family="DM Sans, sans-serif" font-weight="400" font-size="14" fill="#5E7085" letter-spacing="0.5">nexa.design</text>
  <text x="1540" y="870" font-family="Syne, sans-serif" font-weight="700" font-size="13" fill="#5E7085" text-anchor="end" letter-spacing="1">NEXA</text>
</svg>