<svg xmlns="http://www.w3.org/2000/svg" width="1080" height="1080" viewBox="0 0 1080 1080">
  <defs>
    <linearGradient id="emGrad2" x1="0%" y1="0%" x2="100%" y2="100%">
      <stop offset="0%" stop-color="#6EE7B7" stop-opacity="0.12"/>
      <stop offset="100%" stop-color="#10B981" stop-opacity="0.03"/>
    </linearGradient>
    <filter id="glow2">
      <feGaussianBlur stdDeviation="30" result="blur"/>
      <feMerge><feMergeNode in="blur"/><feMergeNode in="SourceGraphic"/></feMerge>
    </filter>
  </defs>

  <!-- Background -->
  <rect width="1080" height="1080" fill="#060A0E"/>

  <!-- Grid -->
  <g opacity="0.03" stroke="#10B981" stroke-width="0.5" fill="none">
    <line x1="0" y1="0" x2="0" y2="1080"/>
    <line x1="50" y1="0" x2="50" y2="1080"/>
    <line x1="100" y1="0" x2="100" y2="1080"/>
    <line x1="150" y1="0" x2="150" y2="1080"/>
    <line x1="200" y1="0" x2="200" y2="1080"/>
    <line x1="250" y1="0" x2="250" y2="1080"/>
    <line x1="300" y1="0" x2="300" y2="1080"/>
    <line x1="350" y1="0" x2="350" y2="1080"/>
    <line x1="400" y1="0" x2="400" y2="1080"/>
    <line x1="450" y1="0" x2="450" y2="1080"/>
    <line x1="500" y1="0" x2="500" y2="1080"/>
    <line x1="550" y1="0" x2="550" y2="1080"/>
    <line x1="600" y1="0" x2="600" y2="1080"/>
    <line x1="650" y1="0" x2="650" y2="1080"/>
    <line x1="700" y1="0" x2="700" y2="1080"/>
    <line x1="750" y1="0" x2="750" y2="1080"/>
    <line x1="800" y1="0" x2="800" y2="1080"/>
    <line x1="850" y1="0" x2="850" y2="1080"/>
    <line x1="900" y1="0" x2="900" y2="1080"/>
    <line x1="950" y1="0" x2="950" y2="1080"/>
    <line x1="1000" y1="0" x2="1000" y2="1080"/>
    <line x1="1050" y1="0" x2="1050" y2="1080"/>
    <line x1="0" y1="0" x2="1080" y2="0"/>
    <line x1="0" y1="50" x2="1080" y2="50"/>
    <line x1="0" y1="100" x2="1080" y2="100"/>
    <line x1="0" y1="150" x2="1080" y2="150"/>
    <line x1="0" y1="200" x2="1080" y2="200"/>
    <line x1="0" y1="250" x2="1080" y2="250"/>
    <line x1="0" y1="300" x2="1080" y2="300"/>
    <line x1="0" y1="350" x2="1080" y2="350"/>
    <line x1="0" y1="400" x2="1080" y2="400"/>
    <line x1="0" y1="450" x2="1080" y2="450"/>
    <line x1="0" y1="500" x2="1080" y2="500"/>
    <line x1="0" y1="550" x2="1080" y2="550"/>
    <line x1="0" y1="600" x2="1080" y2="600"/>
    <line x1="0" y1="650" x2="1080" y2="650"/>
    <line x1="0" y1="700" x2="1080" y2="700"/>
    <line x1="0" y1="750" x2="1080" y2="750"/>
    <line x1="0" y1="800" x2="1080" y2="800"/>
    <line x1="0" y1="850" x2="1080" y2="850"/>
    <line x1="0" y1="900" x2="1080" y2="900"/>
    <line x1="0" y1="950" x2="1080" y2="950"/>
    <line x1="0" y1="1000" x2="1080" y2="1000"/>
    <line x1="0" y1="1050" x2="1080" y2="1050"/>
  </g>

  <!-- Glow -->
  <circle cx="200" cy="300" r="250" fill="#10B981" opacity="0.04" filter="url(#glow2)"/>

  <!-- Badge -->
  <rect x="60" y="60" width="160" height="36" rx="18" fill="#10B981" opacity="0.15"/>
  <text x="140" y="84" font-family="Syne, sans-serif" font-weight="700" font-size="13" fill="#34D399" text-anchor="middle" letter-spacing="0.1em">TECH AUTHORITY</text>

  <!-- Isotipo -->
  <g transform="translate(920, 55) scale(0.35)">
    <polygon points="20,0 40,10 40,30 20,20" fill="#10B981" opacity="0.8"/>
    <polygon points="40,10 60,0 60,20 40,30" fill="#34D399" opacity="0.6"/>
    <polygon points="0,20 20,30 20,50 0,40" fill="#059669" opacity="0.7"/>
    <polygon points="20,30 40,20 40,40 20,50" fill="#10B981" opacity="0.5"/>
    <polygon points="40,20 60,10 60,30 40,40" fill="#6EE7B7" opacity="0.6"/>
    <polygon points="60,20 80,10 80,30 60,40" fill="#34D399" opacity="0.4"/>
  </g>

  <!-- Title -->
  <text x="60" y="150" font-family="Syne, sans-serif" font-weight="800" font-size="48" fill="#F0F4F8">Cómo escalamos</text>
  <text x="60" y="210" font-family="Syne, sans-serif" font-weight="800" font-size="48" fill="#34D399">10K pedidos/día</text>

  <!-- Code block -->
  <rect x="60" y="260" width="960" height="520" rx="16" fill="#0B1117" stroke="#10B981" stroke-opacity="0.12" stroke-width="1"/>

  <!-- Code header -->
  <rect x="60" y="260" width="960" height="44" rx="16" fill="#111820"/>
  <rect x="60" y="288" width="960" height="16" fill="#111820"/>
  <circle cx="90" cy="282" r="6" fill="#FF5F56"/>
  <circle cx="110" cy="282" r="6" fill="#FFBD2E"/>
  <circle cx="130" cy="282" r="6" fill="#27C93F"/>
  <text x="160" y="287" font-family="DM Mono, monospace" font-size="12" fill="#5E7085">services/order-processor.ts</text>

  <!-- Code content -->
  <g font-family="DM Mono, monospace" font-size="13" fill="#8A9BB0">
    <!-- Line numbers -->
    <g fill="#5E7085" opacity="0.3">
      <text x="80" y="330">1</text>
      <text x="80" y="352">2</text>
      <text x="80" y="374">3</text>
      <text x="80" y="396">4</text>
      <text x="80" y="418">5</text>
      <text x="80" y="440">6</text>
      <text x="80" y="462">7</text>
      <text x="80" y="484">8</text>
      <text x="80" y="506">9</text>
      <text x="80" y="528">10</text>
      <text x="80" y="550">11</text>
      <text x="80" y="572">12</text>
      <text x="80" y="594">13</text>
      <text x="80" y="616">14</text>
      <text x="80" y="638">15</text>
      <text x="80" y="660">16</text>
      <text x="80" y="682">17</text>
    </g>

    <!-- Code -->
    <text x="110" y="330" fill="#34D399">export class</text> <text x="215" y="330" fill="#F0F4F8">OrderProcessor</text> <text x="355" y="330" fill="#F0F4F8">{</text>
    <text x="110" y="352" fill="#5E7085">  // Batch processing para alta concurrencia</text>
    <text x="110" y="374" fill="#34D399">  private</text> <text x="195" y="374" fill="#F0F4F8">queue = </text> <text x="275" y="374" fill="#34D399">new</text> <text x="310" y="374" fill="#F0F4F8">BullQueue(</text> <text x="410" y="374" fill="#6EE7B7">'orders'</text> <text x="495" y="374" fill="#F0F4F8">);</text>

    <text x="110" y="406" fill="#34D399">  async</text> <text x="175" y="406" fill="#F0F4F8">processBatch(</text> <text x="325" y="406" fill="#34D399">orders</text> <text x="395" y="406" fill="#F0F4F8">: </text> <text x="415" y="406" fill="#6EE7B7">Order[]</text> <text x="495" y="406" fill="#F0F4F8">) {</text>
    <text x="110" y="428" fill="#5E7085">    // Pool de conexiones para throughput masivo</text>
    <text x="110" y="450" fill="#34D399">    const</text> <text x="180" y="450" fill="#F0F4F8"> batch = </text> <text x="275" y="450" fill="#34D399">this</text> <text x="310" y="450" fill="#F0F4F8">.chunk(orders, </text> <text x="455" y="450" fill="#6EE7B7">100</text> <text x="490" y="450" fill="#F0F4F8">);</text>

    <text x="110" y="482" fill="#34D399">    await</text> <text x="180" y="482" fill="#F0F4F8"> Promise.</text> <text x="275" y="482" fill="#34D399">allSettled</text> <text x="380" y="482" fill="#F0F4F8">(</text>
    <text x="130" y="504" fill="#F0F4F8">batch.</text> <text x="180" y="504" fill="#34D399">map</text> <text x="220" y="504" fill="#F0F4F8">(</text> <text x="230" y="504" fill="#34D399">async</text> <text x="285" y="504" fill="#F0F4F8">(chunk) =&gt; {</text>
    <text x="150" y="526" fill="#34D399">        const</text> <text x="230" y="526" fill="#F0F4F8"> conn = </text> <text x="325" y="526" fill="#34D399">await</text> <text x="385" y="526" fill="#F0F4F8"> </text> <text x="390" y="526" fill="#34D399">this</text> <text x="425" y="526" fill="#F0F4F8">.pool.</text> <text x="465" y="526" fill="#34D399">acquire</text> <text x="545" y="526" fill="#F0F4F8">();</text>
    <text x="150" y="548" fill="#34D399">        try</text> <text x="195" y="548" fill="#F0F4F8"> {</text>
    <text x="170" y="570" fill="#34D399">          await</text> <text x="260" y="570" fill="#F0F4F8"> conn.</text> <text x="305" y="570" fill="#34D399">execute</text> <text x="380" y="570" fill="#F0F4F8">(chunk);</text>
    <text x="150" y="592" fill="#F0F4F8">        } </text> <text x="175" y="592" fill="#34D399">finally</text> <text x="245" y="592" fill="#F0F4F8"> {</text>
    <text x="170" y="614" fill="#34D399">          await</text> <text x="260" y="614" fill="#F0F4F8"> conn.</text> <text x="305" y="614" fill="#34D399">release</text> <text x="375" y="614" fill="#F0F4F8">();</text>
    <text x="150" y="636" fill="#F0F4F8">        }</text>
    <text x="130" y="658" fill="#F0F4F8">      })</text>
    <text x="110" y="680" fill="#F0F4F8">    );</text>
    <text x="110" y="702" fill="#F0F4F8">  }</text>
    <text x="110" y="724" fill="#F0F4F8">}</text>
  </g>

  <!-- Bottom bar -->
  <rect x="0" y="1000" width="1080" height="80" fill="#0B1117" opacity="0.8"/>
  <line x1="0" y1="1000" x2="1080" y2="1000" stroke="#10B981" stroke-opacity="0.12" stroke-width="1"/>
  <text x="60" y="1035" font-family="Syne, sans-serif" font-weight="700" font-size="16" fill="#F0F4F8">NEXA</text>
  <text x="130" y="1035" font-family="DM Sans, sans-serif" font-size="14" fill="#5E7085">Tecnología que trasciende</text>
  <text x="1020" y="1035" font-family="DM Sans, sans-serif" font-size="13" fill="#5E7085" text-anchor="end">nexapanel.com</text>
</svg>