<svg xmlns="http://www.w3.org/2000/svg" width="1080" height="1920" viewBox="0 0 1080 1920">
  <rect width="1080" height="1920" fill="#060A0E"/>
  <g opacity="0.015" stroke="#10B981" stroke-width="0.5" fill="none"><line x1="0" y1="0" x2="0" y2="1920"/><line x1="60" y1="0" x2="60" y2="1920"/><line x1="120" y1="0" x2="120" y2="1920"/><line x1="180" y1="0" x2="180" y2="1920"/><line x1="240" y1="0" x2="240" y2="1920"/><line x1="300" y1="0" x2="300" y2="1920"/><line x1="360" y1="0" x2="360" y2="1920"/><line x1="420" y1="0" x2="420" y2="1920"/><line x1="480" y1="0" x2="480" y2="1920"/><line x1="540" y1="0" x2="540" y2="1920"/><line x1="600" y1="0" x2="600" y2="1920"/><line x1="660" y1="0" x2="660" y2="1920"/><line x1="720" y1="0" x2="720" y2="1920"/><line x1="780" y1="0" x2="780" y2="1920"/><line x1="840" y1="0" x2="840" y2="1920"/><line x1="900" y1="0" x2="900" y2="1920"/><line x1="960" y1="0" x2="960" y2="1920"/><line x1="1020" y1="0" x2="1020" y2="1920"/><line x1="1080" y1="0" x2="1080" y2="1920"/><line x1="0" y1="0" x2="1080" y2="0"/><line x1="0" y1="60" x2="1080" y2="60"/><line x1="0" y1="120" x2="1080" y2="120"/><line x1="0" y1="180" x2="1080" y2="180"/><line x1="0" y1="240" x2="1080" y2="240"/><line x1="0" y1="300" x2="1080" y2="300"/><line x1="0" y1="360" x2="1080" y2="360"/><line x1="0" y1="420" x2="1080" y2="420"/><line x1="0" y1="480" x2="1080" y2="480"/><line x1="0" y1="540" x2="1080" y2="540"/><line x1="0" y1="600" x2="1080" y2="600"/><line x1="0" y1="660" x2="1080" y2="660"/><line x1="0" y1="720" x2="1080" y2="720"/><line x1="0" y1="780" x2="1080" y2="780"/><line x1="0" y1="840" x2="1080" y2="840"/><line x1="0" y1="900" x2="1080" y2="900"/><line x1="0" y1="960" x2="1080" y2="960"/><line x1="0" y1="1020" x2="1080" y2="1020"/><line x1="0" y1="1080" x2="1080" y2="1080"/><line x1="0" y1="1140" x2="1080" y2="1140"/><line x1="0" y1="1200" x2="1080" y2="1200"/><line x1="0" y1="1260" x2="1080" y2="1260"/><line x1="0" y1="1320" x2="1080" y2="1320"/><line x1="0" y1="1380" x2="1080" y2="1380"/><line x1="0" y1="1440" x2="1080" y2="1440"/><line x1="0" y1="1500" x2="1080" y2="1500"/><line x1="0" y1="1560" x2="1080" y2="1560"/><line x1="0" y1="1620" x2="1080" y2="1620"/><line x1="0" y1="1680" x2="1080" y2="1680"/><line x1="0" y1="1740" x2="1080" y2="1740"/><line x1="0" y1="1800" x2="1080" y2="1800"/><line x1="0" y1="1860" x2="1080" y2="1860"/><line x1="0" y1="1920" x2="1080" y2="1920"/></g>
  <defs><filter id="g"><feGaussianBlur stdDeviation="31.25" result="b"/><feMerge><feMergeNode in="b"/><feMergeNode in="SourceGraphic"/></feMerge></filter></defs>
  <circle cx="540" cy="350" r="250" fill="#10B981" opacity="0.04" filter="url(#g)"/>
  <g>
    <rect x="60" y="100" width="130.5" height="32" rx="16" fill="#10B981" opacity="0.12"/>
    <text x="125.25" y="121" font-family="Syne, sans-serif" font-weight="700" font-size="11" fill="#34D399" text-anchor="middle" letter-spacing="0.12em">EDUCACIÓN</text>
  </g>
  <g transform="translate(1014, 109) scale(0.35)">
  <defs>
    <linearGradient id="grad1" x1="0%" y1="0%" x2="100%" y2="100%">
      <stop offset="0%" stop-color="#34D399"/>
      <stop offset="100%" stop-color="#10B981"/>
    </linearGradient>
  </defs>
  <polygon points="-20,-30 -5,-35 -5,20 -20,25" fill="url(#grad1)"/>
  <polygon points="-20,-30 -5,-35 -20,-15 -35,-10" fill="#34D399"/>
  <polygon points="-20,25 -5,20 -20,40 -35,35" fill="#059669"/>
  <polygon points="-5,-35 10,-15 10,20 -5,20" fill="#10B981"/>
  <polygon points="10,-15 25,-20 25,25 10,20" fill="#059669"/>
  <polygon points="10,-15 25,-20 10,0 -5,5" fill="#34D399"/>
  <polygon points="10,20 25,25 10,45 -5,40" fill="#059669"/>
</g>

  <text x="60" y="240" font-family="Syne, sans-serif" font-weight="800" font-size="50" fill="#F0F4F8" letter-spacing="-0.02em">5 prácticas que</text>
  <text x="60" y="318" font-family="Syne, sans-serif" font-weight="800" font-size="50" fill="#34D399" letter-spacing="-0.02em">todo dev debería</text>
  <text x="60" y="396" font-family="Syne, sans-serif" font-weight="800" font-size="50" fill="#34D399" letter-spacing="-0.02em">seguir</text>

  <g>
      <rect x="60" y="450" width="960" height="148" rx="12" fill="#0B1117" stroke="#10B981" stroke-opacity="0.08" stroke-width="1"/>
      <rect x="60" y="450" width="3" height="148" rx="1.5" fill="#10B981" opacity="0.5"/>
      <text x="100" y="505" font-family="Syne, sans-serif" font-weight="800" font-size="30" fill="#10B981" opacity="0.18">01</text>
      <text x="160" y="500" font-family="Syne, sans-serif" font-weight="700" font-size="22" fill="#F0F4F8">TypeScript SIEMPRE</text>
      <text x="160" y="535" font-family="DM Sans, sans-serif" font-weight="400" font-size="16" fill="#8A9BB0">Tipos fuertes = menos bugs en producción.</text>
    </g><g>
      <rect x="60" y="625" width="960" height="148" rx="12" fill="#0B1117" stroke="#10B981" stroke-opacity="0.08" stroke-width="1"/>
      <rect x="60" y="625" width="3" height="148" rx="1.5" fill="#10B981" opacity="0.5"/>
      <text x="100" y="680" font-family="Syne, sans-serif" font-weight="800" font-size="30" fill="#10B981" opacity="0.18">02</text>
      <text x="160" y="675" font-family="Syne, sans-serif" font-weight="700" font-size="22" fill="#F0F4F8">Tests antes de feature</text>
      <text x="160" y="710" font-family="DM Sans, sans-serif" font-weight="400" font-size="16" fill="#8A9BB0">TDD no es lento, es inversión en velocidad.</text>
    </g><g>
      <rect x="60" y="800" width="960" height="148" rx="12" fill="#0B1117" stroke="#10B981" stroke-opacity="0.08" stroke-width="1"/>
      <rect x="60" y="800" width="3" height="148" rx="1.5" fill="#10B981" opacity="0.5"/>
      <text x="100" y="855" font-family="Syne, sans-serif" font-weight="800" font-size="30" fill="#10B981" opacity="0.18">03</text>
      <text x="160" y="850" font-family="Syne, sans-serif" font-weight="700" font-size="22" fill="#F0F4F8">Modular el código</text>
      <text x="160" y="885" font-family="DM Sans, sans-serif" font-weight="400" font-size="16" fill="#8A9BB0">Si un archivo tiene +300 líneas, separalo.</text>
    </g><g>
      <rect x="60" y="975" width="960" height="148" rx="12" fill="#0B1117" stroke="#10B981" stroke-opacity="0.08" stroke-width="1"/>
      <rect x="60" y="975" width="3" height="148" rx="1.5" fill="#10B981" opacity="0.5"/>
      <text x="100" y="1030" font-family="Syne, sans-serif" font-weight="800" font-size="30" fill="#10B981" opacity="0.18">04</text>
      <text x="160" y="1025" font-family="Syne, sans-serif" font-weight="700" font-size="22" fill="#F0F4F8">Code Review obligatorio</text>
      <text x="160" y="1060" font-family="DM Sans, sans-serif" font-weight="400" font-size="16" fill="#8A9BB0">Un segundo par de ojos previene errores críticos.</text>
    </g><g>
      <rect x="60" y="1150" width="960" height="148" rx="12" fill="#0B1117" stroke="#10B981" stroke-opacity="0.08" stroke-width="1"/>
      <rect x="60" y="1150" width="3" height="148" rx="1.5" fill="#10B981" opacity="0.5"/>
      <text x="100" y="1205" font-family="Syne, sans-serif" font-weight="800" font-size="30" fill="#10B981" opacity="0.18">05</text>
      <text x="160" y="1200" font-family="Syne, sans-serif" font-weight="700" font-size="22" fill="#F0F4F8">Documentar desde día 1</text>
      <text x="160" y="1235" font-family="DM Sans, sans-serif" font-weight="400" font-size="16" fill="#8A9BB0">Tu futuro yo te lo va a agradecer.</text>
    </g>

  <g>
    <rect x="0" y="1848" width="1080" height="72" fill="#0B1117" opacity="0.85"/>
    <line x1="0" y1="1848" x2="1080" y2="1848" stroke="#10B981" stroke-opacity="0.1" stroke-width="1"/>
    <g transform="translate(60, 1872)">
      <g transform="translate(15.2, -1.9000000000000021) scale(0.38)">
  <defs>
    <linearGradient id="grad1" x1="0%" y1="0%" x2="100%" y2="100%">
      <stop offset="0%" stop-color="#34D399"/>
      <stop offset="100%" stop-color="#10B981"/>
    </linearGradient>
  </defs>
  <polygon points="-20,-30 -5,-35 -5,20 -20,25" fill="url(#grad1)"/>
  <polygon points="-20,-30 -5,-35 -20,-15 -35,-10" fill="#34D399"/>
  <polygon points="-20,25 -5,20 -20,40 -35,35" fill="#059669"/>
  <polygon points="-5,-35 10,-15 10,20 -5,20" fill="#10B981"/>
  <polygon points="10,-15 25,-20 25,25 10,20" fill="#059669"/>
  <polygon points="10,-15 25,-20 10,0 -5,5" fill="#34D399"/>
  <polygon points="10,20 25,25 10,45 -5,40" fill="#059669"/>
</g>
      <text x="44.4" y="6" font-family="Syne, sans-serif" font-weight="800" font-size="15" fill="#F0F4F8" letter-spacing="2">NEXA</text>
      <circle cx="136.4" cy="2" r="2" fill="#5E7085" opacity="0.5"/>
      <text x="154.4" y="6" font-family="DM Sans, sans-serif" font-weight="400" font-size="12" fill="#5E7085" letter-spacing="0.5">Tecnología que trasciende</text>
    </g>
    <text x="1020" y="1878" font-family="DM Sans, sans-serif" font-size="12" fill="#5E7085" text-anchor="end" letter-spacing="0.5">nexa.design</text>
  </g>
</svg>