<svg xmlns="http://www.w3.org/2000/svg" width="1080" height="1080" viewBox="0 0 1080 1080">
  <rect width="1080" height="1080" fill="#060A0E"/>
  <g><line x1="0" y1="0" x2="0" y2="1080" stroke="#F0F4F8" stroke-opacity="0.015" stroke-width="0.5"/><line x1="80" y1="0" x2="80" y2="1080" stroke="#F0F4F8" stroke-opacity="0.015" stroke-width="0.5"/><line x1="160" y1="0" x2="160" y2="1080" stroke="#F0F4F8" stroke-opacity="0.015" stroke-width="0.5"/><line x1="240" y1="0" x2="240" y2="1080" stroke="#F0F4F8" stroke-opacity="0.015" stroke-width="0.5"/><line x1="320" y1="0" x2="320" y2="1080" stroke="#F0F4F8" stroke-opacity="0.015" stroke-width="0.5"/><line x1="400" y1="0" x2="400" y2="1080" stroke="#F0F4F8" stroke-opacity="0.015" stroke-width="0.5"/><line x1="480" y1="0" x2="480" y2="1080" stroke="#F0F4F8" stroke-opacity="0.015" stroke-width="0.5"/><line x1="560" y1="0" x2="560" y2="1080" stroke="#F0F4F8" stroke-opacity="0.015" stroke-width="0.5"/><line x1="640" y1="0" x2="640" y2="1080" stroke="#F0F4F8" stroke-opacity="0.015" stroke-width="0.5"/><line x1="720" y1="0" x2="720" y2="1080" stroke="#F0F4F8" stroke-opacity="0.015" stroke-width="0.5"/><line x1="800" y1="0" x2="800" y2="1080" stroke="#F0F4F8" stroke-opacity="0.015" stroke-width="0.5"/><line x1="880" y1="0" x2="880" y2="1080" stroke="#F0F4F8" stroke-opacity="0.015" stroke-width="0.5"/><line x1="960" y1="0" x2="960" y2="1080" stroke="#F0F4F8" stroke-opacity="0.015" stroke-width="0.5"/><line x1="1040" y1="0" x2="1040" y2="1080" stroke="#F0F4F8" stroke-opacity="0.015" stroke-width="0.5"/><line x1="0" y1="0" x2="1080" y2="0" stroke="#F0F4F8" stroke-opacity="0.015" stroke-width="0.5"/><line x1="0" y1="80" x2="1080" y2="80" stroke="#F0F4F8" stroke-opacity="0.015" stroke-width="0.5"/><line x1="0" y1="160" x2="1080" y2="160" stroke="#F0F4F8" stroke-opacity="0.015" stroke-width="0.5"/><line x1="0" y1="240" x2="1080" y2="240" stroke="#F0F4F8" stroke-opacity="0.015" stroke-width="0.5"/><line x1="0" y1="320" x2="1080" y2="320" stroke="#F0F4F8" stroke-opacity="0.015" stroke-width="0.5"/><line x1="0" y1="400" x2="1080" y2="400" stroke="#F0F4F8" stroke-opacity="0.015" stroke-width="0.5"/><line x1="0" y1="480" x2="1080" y2="480" stroke="#F0F4F8" stroke-opacity="0.015" stroke-width="0.5"/><line x1="0" y1="560" x2="1080" y2="560" stroke="#F0F4F8" stroke-opacity="0.015" stroke-width="0.5"/><line x1="0" y1="640" x2="1080" y2="640" stroke="#F0F4F8" stroke-opacity="0.015" stroke-width="0.5"/><line x1="0" y1="720" x2="1080" y2="720" stroke="#F0F4F8" stroke-opacity="0.015" stroke-width="0.5"/><line x1="0" y1="800" x2="1080" y2="800" stroke="#F0F4F8" stroke-opacity="0.015" stroke-width="0.5"/><line x1="0" y1="880" x2="1080" y2="880" stroke="#F0F4F8" stroke-opacity="0.015" stroke-width="0.5"/><line x1="0" y1="960" x2="1080" y2="960" stroke="#F0F4F8" stroke-opacity="0.015" stroke-width="0.5"/><line x1="0" y1="1040" x2="1080" y2="1040" stroke="#F0F4F8" stroke-opacity="0.015" stroke-width="0.5"/></g>
  <g><path d="M -20 200 L 0 241.62632307165418 L 10 241.3788629187793 L 20 241.07419925896332 L 30 240.71275326931334 L 40 240.2950246247048 L 50 239.82159080701467 L 60 239.29310630679112 L 70 238.71030171846436 L 80 238.07398273034875 L 90 237.38502901083254 L 100 236.64439299229537 L 110 235.85309855443427 L 120 235.01223960881848 L 130 234.12297858662993 L 140 233.18654483168015 L 150 232.2042329009246 L 160 231.17740077482446 L 170 230.10746798002955 L 180 228.99591362697782 L 190 227.84427436512422 L 200 226.65414225862568 L 210 225.42716258541918 L 220 224.16503156273495 L 230 222.86949400218998 L 240 221.54234089770264 L 250 220.18540694956357 L 260 218.80056802808548 L 270 217.3897385803379 L 280 215.9548689835525 L 290 214.49794284885695 L 300 213.02097427906565 L 310 211.52600508431723 L 320 210.01510195940892 L 330 208.4903536267293 L 340 206.95386794873951 L 350 205.40776901399462 L 360 203.8541942007333 L 370 202.2952912220957 L 380 200.73321515705376 L 390 199.17012547115885 L 400 197.60818303122534 L 410 196.04954711807687 L 420 194.49637244148525 L 430 192.95080616142837 L 440 191.41498491978558 L 450 189.89103188657313 L 460 188.38105382480393 L 470 186.88713817802872 L 480 185.41135018458522 L 490 183.9557300225443 L 500 182.5222899893006 L 510 181.11301171970598 L 520 179.72984344659216 L 530 178.37469730746923 L 540 177.0494467011236 L 550 175.75592369776965 L 560 174.49591650633536 L 570 173.27116700238324 L 580 172.08336832008388 L 590 170.93416251157154 L 600 169.82513827691693 L 610 168.7578287678557 L 620 167.73370946830894 L 630 166.75419615462545 L 640 165.82064293836575 L 650 164.93434039433347 L 660 164.09651377644212 L 670 163.30832132388372 L 680 162.5708526599405 L 690 161.8851272856539 L 700 161.2520931704325 L 710 160.67262544154767 L 720 160.14752517432913 L 730 159.6775182847316 L 740 159.26325452580465 L 750 158.90530658945275 L 760 158.604169314727 L 770 158.3602590037432 L 780 158.1739128461723 L 790 158.0453884530979 L 800 157.97486350088647 L 810 157.96243548556157 L 820 158.0081215880221 L 830 158.1118586502909 L 840 158.2735032628264 L 850 158.49283196277676 L 860 158.76954154290218 L 870 159.10324947073872 L 880 159.4934944174238 L 890 159.93973689545237 L 900 160.4413600044824 L 910 160.99767028415812 L 920 161.60789867277265 L 930 162.27120157044433 L 940 162.9866620053369 L 950 163.75329090131186 L 960 164.57002844525977 L 970 165.4357455522211 L 980 166.34924542627056 L 990 167.30926521500712 L 1000 168.31447775536316 L 1010 169.36349340831825 L 1020 170.45486197998233 L 1030 171.58707472639142 L 1040 172.75856643924521 L 1050 173.96771760970267 L 1060 175.21285666724464 L 1070 176.49226229050805 L 1080 177.80416578689756 L 1090 179.14675353768442 L 1100 180.51816950521305 L 1110 181.91651779874883 L 1120 183.33986529542005 L 1130 184.7862443126307 L 1140 186.25365532825015 L 1150 187.7400697448182 L 1160 189.24343269394566 L 1170 190.761665877032 L 1180 192.29267043837407 L 1190 193.8343298666935 L 1200 195.384512921072 L 1210 196.9410765772489 L 1220 198.50186899020895 L 1230 200.06473246896374 L 1240 201.62750645941517 L 1250 203.1880305311767 L 1260 204.7441473642237 L 1270 206.29370573124393 L 1280 207.83456347156525 L 1290 209.3645904525492 L 1300 210.8816715143569 L 1310 212.38370939401563 L 1320 213.86862762474476 L 1330 215.33437340653168 L 1340 216.77892044399061 L 1350 218.2002717475802 L 1360 219.59646239430762 L 1370 220.96556224410347 L 1380 222.3056786081107 L 1390 223.61495886520052 L 1400 224.89159302309685 L 1410 226.13381622056957 L 1420 227.3399111672369 L 1430 228.50821051760437 L 1440 229.6370991760584 L 1450 230.7250165296276 L 1460 231.77045860542592 L 1470 232.77198014979433 L 1480 233.72819662626728 L 1490 234.63778612960158 L 1500 235.4994912132219 L 1510 236.31212062755648 L 1520 237.0745509668599 L 1530 237.78572822224618 L 1540 238.44466923878562 L 1550 239.05046307465057 L 1560 239.60227226043148 L 1570 240.09933395688242 L 1580 240.54096100949505 L 1590 240.92654289844384 L 1600 241.25554658258883 L 1610 241.5275172363693 L 1620 241.74207887856963 L 1630 241.8989348920881 L 1640 241.9978684339904 L 1650 242.0387427352801 L 1660 242.02150128997295 L 1670 241.9461679332125 L 1680 241.81284680831953 L 1690 241.62172222282103 L 1700 241.37305839365732 L 1710 241.06719908191974 L 1720 240.70456711762412 L 1730 240.28566381517646 L 1740 239.81106828033953 L 1750 239.28143660965762 L 1760 238.6975009834473 L 1770 238.06006865360703 L 1780 237.37002082764548 L 1790 236.6283114504712 L 1800 235.83596588562762 L 1810 234.99407949779658 L 1820 234.1038161385302 L 1830 233.16640653730374 L 1840 232.18314660011492 L 1850 231.15539561798025 L 1860 230.08457438780655 L 1870 228.97216324823415 L 1880 227.81970003316798 L 1890 226.62877794582514 L 1900 225.40104335623815 L 1910 224.13819352525869 L 1920 222.84197425820793 L 1930 221.51417749141797 L 1940 220.1566388149994 L 1950 218.77123493526136 L 1960 217.3598810802903 L 1970 215.92452835227573 L 1980 214.46716103024195 L 1990 212.98979382691525 L 2000 211.49446910351844 L 2010 209.98325404634323 L 2020 208.4582378090038 L 2030 206.92152862432147 L 2040 205.37525088983438 L 2050 203.82154223095986 L 2060 202.26255054587065 L 2070 200.70043103616942 L 2080 199.13734322746689 L 2090 197.5754479839823 L 2100 196.0169045212933 L 2110 194.46386742136522 L 2120 192.91848365398542 L 2130 191.38288960872174 L 2140 189.8592081415066 L 2150 188.34954563993108 L 2160 186.85598911130515 L 2170 185.38060329750965 L 2180 183.92542782062904 L 2190 182.49247436331058 L 2200 181.08372388774745 L 2210 179.70112389713145 L 2220 178.3465857433602 L 2230 177.021981984721 L 2240 175.72914379720476 L 2250 174.4698584430273 L 2260 173.24586679985947 L 2270 172.05886095418003 L 2280 170.91048186207988 L 2290 169.80231708074948 L 2300 168.7358985737879 L 2310 167.7127005933655 L 2320 166.734137642169 L 2330 165.80156251794656 L 2340 164.91626444335495 L 2350 164.07946728369603 L 2360 163.29232785500466 L 2370 162.55593432482823 L 2380 161.87130470790765 L 2390 161.23938545884027 L 2400 160.66105016366984 L 2410 160.13709833221213 L 2420 159.6682542927864 L 2430 159.25516619087972 L 2440 158.89840509312947 L 2450 158.59846419786186 L 2460 158.35575815327826 L 2470 158.17062248423184 L 2480 158.04331312838698 L 2490 157.97400608240255 L 2500 157.96279715862826 L 2510 158.0097018526506 L 2520 158.1146553218712 L 2530 158.27751247514735 L 2540 158.49804817337076 L 2550 158.77595754070742 L 2560 159.11085638606792 L 2570 159.5022817342259 L 2580 159.9496924658504 L 2590 160.45247006556696 L 2600 161.0099194770138 L 2610 161.6212700637106 L 2620 162.28567667441203 L 2630 163.00222081147248 L 2640 163.76991190060778 L 2650 164.58768866029757 L 2660 165.45442056893617 L 2670 166.36890942770287 L 2680 167.32989101699155 L 2690 168.33603684410977 L 2700 169.38595597983058 L 2710 170.47819698125954 L 2720 171.6112498983569 L 2730 172.78354836134272 L 2740 173.99347174609787 L 2750 175.23934741456864 L 2760 176.51945302707674 L 2770 177.83201892333847 L 2780 179.17523056890172 L 2790 180.5472310636181 L 2800 181.94612370868336 L 2810 183.36997462869616 L 2820 184.8168154451116 L 2830 186.2846459973923 L 2840 187.77143710809693 L 2850 189.27513338808185 L 2860 190.79365607793892 L 2870 192.32490592174133 L 2880 193.86676606912408 L 2890 195.41710500168813 L 2900 196.97377947968178 L 2910 198.53463750488606 L 2920 200.0975212956079 L 2930 201.66027026966933 L 2940 203.2207240312673 L 2950 204.77672535757628 L 2960 206.32612318096443 L 2970 207.86677556270027 L 2980 209.3965526540399 L 2990 210.91333964060016 L 3000 212.41503966594766 L 3010 213.89957673036278 L 3020 215.36489856076975 L 3030 216.80897944786716 L 3040 218.22982304653527 L 3050 219.62546513564956 L 3060 220.9939763334845 L 3070 222.33346476495512 L 3080 223.64207867700722 L 3090 224.91800899854218 L 3100 226.15949184133655 L 3110 227.36481093849918 L 3120 228.5323000170957 L 3130 229.66034510165892 L 3140 230.74738674540194 L 3150 231.7919221860488 L 3160 232.7925074233029 L 3170 233.7477592150806 L 3180 234.65635698975066 L 3190 235.51704467173627 L 3200 236.32863241795525 L 3210 237.08999826269854 L 3220 237.8000896686727 L 3230 238.45792498206208 L 3240 239.06259478959964 L 3250 239.61326317576965 L 3260 240.10916887840523 L 3270 240.54962634108216 L 3280 240.9340266608546 L 3290 241.26183843002292 L 3300 241.53260847076896" fill="none" stroke="#10B981" stroke-opacity="0.04" stroke-width="1"/><path d="M -20 260 L 0 235.81372550758226 L 10 237.46498602643015 L 20 239.16109799597837 L 30 240.8986856436415 L 40 242.67429064776908 L 50 244.48437902074534 L 60 246.32534814268638 L 70 248.19353393173677 L 80 250.08521813669344 L 90 251.9966357374434 L 100 253.92398243848498 L 110 255.8634222406196 L 120 257.8110950757428 L 130 259.76312448954013 L 140 261.71562535679607 L 150 263.6647116139613 L 160 265.6065039935865 L 170 267.5371377452311 L 180 269.45277032747777 L 190 271.349589055745 L 200 273.22381869067505 L 210 275.0717289519952 L 220 276.8896419428964 L 230 278.6739394701535 L 240 280.4210702454171 L 250 282.12755695334465 L 260 283.79000317250325 L 270 285.4051001352689 L 280 286.9696333132688 L 290 288.4804888152585 L 300 289.934659584702 L 310 291.3292513847173 L 320 292.6614885584782 L 330 293.92871955360533 L 340 295.12842219955246 L 350 296.2582087274838 L 360 297.3158305226517 L 370 298.29918259981577 L 380 299.2063077927963 L 390 300.0354006498229 L 400 300.7848110269266 L 410 301.45304737222165 L 420 302.0387796945428 L 430 302.5408422105269 L 440 302.9582356648723 L 450 303.2901293191574 L 460 303.5358626052597 L 470 303.6949464400846 L 480 303.76706419898835 L 490 303.75207234595564 L 500 303.6500007192799 L 510 303.46105247217577 L 520 303.1856036684433 L 530 302.82420253398806 L 540 302.37756836568656 L 550 301.8465900997696 L 560 301.23232454257175 L 570 300.53599426716903 L 580 299.7589851800916 L 590 298.9028437629525 L 600 297.9692739944849 L 610 296.96013395911234 L 620 295.877432148802 L 630 294.72332346556203 L 640 293.5001049325392 L 650 292.21021112225236 L 660 290.8562093110612 L 670 289.44079436951483 L 680 287.96678339874956 L 690 286.4371101236109 L 700 284.8548190536593 L 710 283.22305942368115 L 720 281.54507892576504 L 730 279.8242172454185 L 740 278.06389941458986 L 750 276.26762899482577 L 760 274.43898110413 L 770 272.5815953014047 L 780 270.6991683426343 L 790 268.7954468232296 L 800 266.8742197211774 L 810 264.9393108558349 L 820 262.9945712773806 L 830 261.04387160206676 L 840 259.09109430852936 L 850 257.1401260104894 L 860 255.19484972122297 L 870 253.25913712519804 L 880 251.3368408722587 L 890 249.4317869096939 L 900 247.54776686745262 L 910 245.68853051166082 L 920 243.8577782814594 L 930 242.05915392401863 L 940 240.29623724238596 L 950 238.57253697060202 L 960 236.89148379026534 L 970 235.256423502445 L 980 233.67061036853056 L 990 232.13720063327443 L 1000 230.65924624291551 L 1010 229.2396887708896 L 1020 227.88135356321357 L 1030 226.58694411519807 L 1040 225.3590366906791 L 1050 224.20007519447873 L 1060 223.11236630829995 L 1070 222.09807489973696 L 1080 221.15921971353777 L 1090 220.29766935369562 L 1100 219.51513856436537 L 1110 218.8131848170072 L 1120 218.19320521055042 L 1130 217.65643369074658 L 1140 217.20393859424664 L 1150 216.83662052228988 L 1160 216.55521054823694 L 1170 216.36026876251378 L 1180 216.25218315786378 L 1190 216.23116885712525 L 1200 216.2972676850725 L 1210 216.45034808517198 L 1220 216.69010538141916 L 1230 217.01606238473553 L 1240 217.42757034271818 L 1250 217.92381023085215 L 1260 218.50379438261524 L 1270 219.16636845523135 L 1280 219.91021372715952 L 1290 220.73384972274607 L 1300 221.6356371588162 L 1310 222.61378120734014 L 1320 223.66633506768034 L 1330 224.79120384130997 L 1340 225.98614870129046 L 1350 227.24879134821006 L 1360 228.57661874371445 L 1370 229.9669881122084 L 1380 231.41713220077335 L 1390 232.92416478683273 L 1400 234.4850864226019 L 1410 236.09679040489118 L 1420 237.7560689583785 L 1430 239.45961962004668 L 1440 241.20405181207727 L 1450 242.98589359011945 L 1460 244.80159855350277 L 1470 246.64755290364042 L 1480 248.52008263657456 L 1490 250.41546085534821 L 1500 252.3299151876507 L 1510 254.25963529397185 L 1520 256.2007804513232 L 1530 258.149487197431 L 1540 260.101877020187 L 1550 262.0540640770536 L 1560 264.00216292905856 L 1570 265.9422962739855 L 1580 267.87060266337164 L 1590 269.7832441879499 L 1600 271.67641411624254 L 1610 273.54634447110044 L 1620 275.3893135291103 L 1630 277.2016532279428 L 1640 278.9797564668991 L 1650 280.7200842861251 L 1660 282.4191729102054 L 1670 284.0736406421176 L 1680 285.6801945938251 L 1690 287.2356372401147 L 1700 288.7368727826324 L 1710 290.18091331145257 L 1720 291.5648847519168 L 1730 292.8860325849064 L 1740 294.14172732916296 L 1750 295.3294697747467 L 1760 296.44689595721525 L 1770 297.4917818626233 L 1780 298.4620478539789 L 1790 299.35576281034594 L 1800 300.1711479703556 L 1810 300.90658047247547 L 1820 301.5605965849925 L 1830 302.13189461927817 L 1840 302.61933752054097 L 1850 303.0219551309064 L 1860 303.3389461203232 L 1870 303.569679581451 L 1880 303.7136962853552 L 1890 303.77070959551077 L 1900 303.74060603829525 L 1910 303.62344552883513 L 1920 303.41946125175673 L 1930 303.1290591970789 L 1940 302.7528173521707 L 1950 302.29148455138295 L 1960 301.7459789856426 L 1970 301.11738637497706 L 1980 300.40695780760495 L 1990 299.61610724989436 L 2000 298.7464087321452 L 2010 297.7995932157954 L 2020 296.77754514828774 L 2030 295.68229871245273 L 2040 294.5160337778739 L 2050 293.2810715622915 L 2060 291.9798700116824 L 2070 290.61501890820784 L 2080 289.1892347157695 L 2090 287.70535517342944 L 2100 286.16633364745655 L 2110 284.57523325324007 L 2120 282.93522075876933 L 2130 281.2495602818136 L 2140 279.52160679334713 L 2150 277.75479944014756 L 2160 275.9526546998615 L 2170 274.11875938215627 L 2180 272.2567634898909 L 2190 270.3703729545133 L 2200 268.46334226014324 L 2210 266.53946697102003 L 2220 264.60257617718946 L 2230 262.65652487346296 L 2240 260.7051862868204 L 2250 258.75244416752344 L 2260 256.80218505928576 L 2270 254.8582905638826 L 2280 252.9246296155968 L 2290 251.00505078087684 L 2300 249.10337459853267 L 2310 247.2233859757157 L 2320 245.3688266548151 L 2330 243.543387766267 L 2340 241.75070248209477 L 2350 239.9943387848051 L 2360 238.27779236603024 L 2370 236.60447966905116 L 2380 234.97773108904855 L 2390 233.40078434461566 L 2400 231.87677803372463 L 2410 230.40874538697392 L 2420 228.9996082305475 L 2430 227.65217117090242 L 2440 226.36911601275926 L 2450 225.15299642150467 L 2460 224.00623284062965 L 2470 222.93110767431978 L 2480 221.92976074478443 L 2490 221.00418503336803 L 2500 220.15622271391788 L 2510 219.38756148630452 L 2520 218.69973121739187 L 2530 218.09410089614227 L 2540 217.57187590891704 L 2550 217.1340956403954 L 2560 216.7816314048864 L 2570 216.51518471215178 L 2580 216.33528587119054 L 2590 216.24229293476478 L 2600 216.23639098676696 L 2610 216.31759177384743 L 2620 216.48573368203506 L 2630 216.7404820583975 L 2640 217.08132987710124 L 2650 217.50759874854535 L 2660 218.01844026956064 L 2670 218.61283771198697 L 2680 219.28960804626797 L 2690 220.0474042960352 L 2700 220.88471821899617 L 2710 221.79988330878973 L 2720 222.7910781118344 L 2730 223.85632985256893 L 2740 224.9935183598681 L 2750 226.20038028682058 L 2760 227.47451361546973 L 2770 228.81338243755104 L 2780 230.2143220017119 L 2790 231.6745440171676 L 2800 233.19114220323783 L 2810 234.7610980737194 L 2820 236.38128694458007 L 2830 238.04848415301942 L 2840 239.75937147551699 L 2850 241.51054373209422 L 2860 243.29851556364613 L 2870 245.11972836885343 L 2880 246.97055738686873 L 2890 248.8473189116798 L 2900 250.7462776237923 L 2910 252.66365402463748 L 2920 254.59563195891062 L 2930 256.538366209867 L 2940 258.48799015245896 L 2950 260.44062344908167 L 2960 262.3923797726115 L 2970 264.33937454136446 L 2980 266.2777326505823 L 2990 268.20359618505455 L 3000 270.1131320975297 L 3010 272.00253983763133 L 3020 273.8680589160957 L 3030 275.70597638927535 L 3040 277.51263424901293 L 3050 279.284436703177 L 3060 281.0178573323691 L 3070 282.70944610855787 L 3080 284.3558362616722 L 3090 285.9537509804852 L 3100 287.5000099344535 L 3110 288.991535603531 L 3120 290.4253594033585 L 3130 291.7986275936391 L 3140 293.1086069579385 L 3150 294.3526902436079 L 3160 295.528401351 L 3170 296.6334002616513 L 3180 297.66548769562235 L 3190 298.622609488726 L 3200 299.50286068093135 L 3210 300.30448930780653 L 3220 301.0258998874547 L 3230 301.6656565960028 L 3240 302.2224861253219 L 3250 302.69528021729377 L 3260 303.0830978695773 L 3270 303.38516720848577 L 3280 303.60088702524797 L 3290 303.729827972594 L 3300 303.77173341928557" fill="none" stroke="#10B981" stroke-opacity="0.04" stroke-width="1"/><path d="M -20 320 L 0 296.8491233869046 L 10 296.4504599172003 L 20 296.0874398277699 L 30 295.7606125672671 L 40 295.4704728047296 L 50 295.21745968087316 L 60 295.00195614343073 L 70 294.82428836754247 L 80 294.6847252620735 L 90 294.58347806260736 L 100 294.5207000117304 L 110 294.496486127092 L 120 294.5108730575904 L 130 294.5638390279028 L 140 294.65530387144366 L 150 294.7851291517005 L 160 294.95311837176433 L 170 295.1590172717374 L 180 295.4025142135681 L 190 295.68324065273015 L 200 296.00077169603287 L 210 296.3546267447179 L 220 296.7442702218687 L 230 297.1691123830326 L 240 297.6285102088278 L 250 298.12176837818447 L 260 298.6481403207476 L 270 299.20682934684714 L 280 299.7969898533274 L 290 300.41772860340825 L 300 301.06810607864304 L 310 301.7471379009254 L 320 302.4537963223938 L 330 303.1870117809783 L 340 303.94567451923456 L 350 304.7286362640167 L 360 305.5347119644441 L 370 306.3626815855346 L 380 307.21129195478625 L 390 308.079258658916 L 400 308.9652679878814 L 410 309.86797892324535 L 420 310.7860251678727 L 430 311.7180172138881 L 440 312.66254444576407 L 450 313.61817727535623 L 460 314.58346930565534 L 470 315.55695951997944 L 480 316.53717449329434 L 490 317.5226306223144 L 500 318.5118363710084 L 510 319.5032945281126 L 520 320.49550447323287 L 530 321.4869644481072 L 540 322.4761738295903 L 550 323.46163540091993 L 560 324.44185761782774 L 570 325.4153568660645 L 580 326.38065970692264 L 590 327.33630510735816 L 600 328.28084665133497 L 610 329.21285472904685 L 620 330.1309187007014 L 630 331.0336490315926 L 640 331.9196793952292 L 650 332.78766874133714 L 660 333.6363033256043 L 670 334.46429869809674 L 680 335.2704016473369 L 690 336.05339209709985 L 700 336.8120849530588 L 710 337.5453318964831 L 720 338.25202312227475 L 730 338.9310890187128 L 740 339.5815017863627 L 750 340.2022769937014 L 760 340.7924750671024 L 770 341.3512027129261 L 780 341.8776142695641 L 790 342.37091298738846 L 800 342.83035223467203 L 810 343.25523662765164 L 820 343.64492308302545 L 830 343.9988217912912 L 840 344.31639710945154 L 850 344.59716837173585 L 860 344.84071061711137 L 870 345.0466552324829 L 880 345.2146905106062 L 890 345.34456212187234 L 900 345.43607349924827 L 910 345.4890861357902 L 920 345.50351979428086 L 930 345.4793526286724 L 940 345.41662121715166 L 950 345.3154205067769 L 960 345.17590366977106 L 970 344.99828187168805 L 980 344.78282395180344 L 990 344.52985601621276 L 1000 344.2397609442545 L 1010 343.912977809003 L 1020 343.55000121271024 L 1030 343.1513805382009 L 1040 342.7177191173549 L 1050 342.24967331793465 L 1060 341.74795155014084 L 1070 341.21331319439867 L 1080 340.6465674519985 L 1090 340.0485721203301 L 1100 339.42023229456464 L 1110 338.7624989977484 L 1120 338.0763677413833 L 1130 337.3628770186715 L 1140 336.623106732705 L 1150 335.8581765619797 L 1160 335.06924426570697 L 1170 334.25750393148905 L 1180 333.4241841680084 L 1190 332.57054624546885 L 1200 331.6978821866012 L 1210 330.80751281112407 L 1220 329.90078573661805 L 1230 328.9790733388412 L 1240 328.0437706745709 L 1250 327.0962933701174 L 1260 326.13807547870385 L 1270 325.17056730995716 L 1280 324.1952332347932 L 1290 323.21354946901954 L 1300 322.22700183901105 L 1310 321.23708353283916 L 1320 320.2452928402582 L 1330 319.2531308849708 L 1340 318.2620993526042 L 1350 317.27369821783503 L 1360 316.28942347410447 L 1370 315.3107648693593 L 1380 314.33920365124544 L 1390 313.3762103251669 L 1400 312.4232424286043 L 1410 311.4817423250607 L 1420 310.5531350209735 L 1430 309.63882600889787 L 1440 308.74019914022506 L 1450 307.8586145306556 L 1460 306.9954065015973 L 1470 306.1518815606054 L 1480 305.3293164239186 L 1490 304.52895608408744 L 1500 303.7520119256164 L 1510 302.99965989147495 L 1520 302.27303870325 L 1530 301.573248137635 L 1540 300.90134736186445 L 1550 300.2583533306123 L 1560 299.64523924678144 L 1570 299.06293308851343 L 1580 298.5123162046483 L 1590 297.99422198075996 L 1600 297.5094345777864 L 1610 297.05868774516364 L 1620 296.6426637102603 L 1630 296.261992145793 L 1640 295.917249216786 L 1650 295.60895670851704 L 1660 295.33758123677023 L 1670 295.10353354158974 L 1680 294.90716786560506 L 1690 294.74878141786735 L 1700 294.62861392400885 L 1710 294.5468472634066 L 1720 294.50360519389915 L 1730 294.49895316447277 L 1740 294.53289821620143 L 1750 294.60538897158983 L 1760 294.7163157123355 L 1770 294.8655105453929 L 1780 295.0527476570881 L 1790 295.27774365489825 L 1800 295.54015799638046 L 1810 295.8395935045992 L 1820 296.1755969692731 L 1830 296.5476598327308 L 1840 296.9552189596381 L 1850 297.39765748933036 L 1860 297.8743057694617 L 1870 298.38444236955644 L 1880 298.92729517292923 L 1890 299.5020425453216 L 1900 300.10781457848555 L 1910 300.74369440683205 L 1920 301.4087195951522 L 1930 302.1018835953098 L 1940 302.82213726970116 L 1950 303.5683904791763 L 1960 304.3395137330176 L 1970 305.1343398984794 L 1980 305.9516659673007 L 1990 306.79025487651637 L 2000 307.6488373808129 L 2010 308.5261139735932 L 2020 309.4207568538433 L 2030 310.33141193582395 L 2040 311.25670089854583 L 2050 312.19522327192567 L 2060 313.14555855646614 L 2070 314.1062683732513 L 2080 315.07589864100345 L 2090 316.0529817769063 L 2100 317.03603891786304 L 2110 318.0235821588285 L 2120 319.01411680482533 L 2130 320.0061436332388 L 2140 320.9981611629631 L 2150 321.9886679269661 L 2160 322.97616474483397 L 2170 323.9591569918531 L 2180 324.9361568611982 L 2190 325.9056856158007 L 2200 326.86627582648924 L 2210 327.8164735930159 L 2220 328.7548407446051 L 2230 329.6799570166951 L 2240 330.5904222005783 L 2250 331.4848582626856 L 2260 332.36191143030703 L 2270 333.2202542405936 L 2280 334.05858754973667 L 2290 334.875642499286 L 2300 335.6701824366289 L 2310 336.4410047867244 L 2320 337.18694287225946 L 2330 337.90686767947204 L 2340 338.59968956696855 L 2350 339.26435991494964 L 2360 339.89987271234725 L 2370 340.50526607947177 L 2380 341.07962372386373 L 2390 341.62207632714757 L 2400 342.1318028607872 L 2410 342.608031828753 L 2420 343.0500424352186 L 2430 343.45716567552074 L 2440 343.8287853487308 L 2450 344.16433899030443 L 2460 344.4633187233996 L 2470 344.7252720275728 L 2480 344.9498024236912 L 2490 345.13657007402264 L 2500 345.28529229659716 L 2510 345.39574399305974 L 2520 345.4677579893676 L 2530 345.50122528881667 L 2540 345.4960952370128 L 2550 345.45237559854036 L 2560 345.3701325452096 L 2570 345.2494905559026 L 2580 345.0906322281686 L 2590 344.8937980018533 L 2600 344.6592857951817 L 2610 344.387450553844 L 2620 344.07870371376833 L 2630 343.733512578392 L 2640 343.3523996113751 L 2650 342.9359416458263 L 2660 342.4847690112373 L 2670 341.99956457944893 L 2680 341.4810627310907 L 2690 340.9300482440601 L 2700 340.347355105723 L 2710 339.73386525063256 L 2720 339.0905072256786 L 2730 338.41825478468616 L 2740 337.7181254145918 L 2750 336.9911787954271 L 2760 336.2385151964412 L 2770 335.4612738107897 L 2780 334.6606310313097 L 2790 333.8377986699922 L 2800 332.994022123845 L 2810 332.1305784899237 L 2820 331.24877463238295 L 2830 330.3499452044731 L 2840 329.435450628478 L 2850 328.5066750366489 L 2860 327.56502417625273 L 2870 326.6119232819048 L 2880 325.6488149184068 L 2890 324.67715679735403 L 2900 323.698419570818 L 2910 322.7140846054424 L 2920 321.7256417403224 L 2930 320.7345870320602 L 2940 319.7424204904104 L 2950 318.7506438079416 L 2960 317.76075808715166 L 2970 316.77426156847537 L 2980 315.79264736262456 L 2990 314.81740119069167 L 3000 313.84999913543874 L 3010 312.89190540717345 L 3020 311.9445701275956 L 3030 311.00942713496704 L 3040 310.08789181392706 L 3050 309.1813589532387 L 3060 308.2912006347078 L 3070 307.41876415647033 L 3080 306.56536999379006 L 3090 305.73230980045554 L 3100 304.9208444537985 L 3110 304.1322021462943 L 3120 303.3675765266329 L 3130 302.6281248930728 L 3140 301.9149664418138 L 3150 301.22918057303906 L 3160 300.5718052571895 L 3170 299.94383546394545 L 3180 299.34622165629094 L 3190 298.77986835194173 L 3200 298.2456327543135 L 3210 297.7443234551025 L 3220 297.2766992104426 L 3230 296.8434677924907 L 3240 296.44528491817886 L 3250 296.0827532567549 L 3260 295.7564215176129 L 3270 295.4667836197948 L 3280 295.21427794441945 L 3290 294.9992866711719 L 3300 294.82213519985527" fill="none" stroke="#10B981" stroke-opacity="0.04" stroke-width="1"/><path d="M -20 380 L 0 398.51201941961534 L 10 397.93992526446533 L 20 397.341527886241 L 30 396.71770464532676 L 40 396.06937018108823 L 50 395.39747507084337 L 60 394.70300443614116 L 70 393.98697649839306 L 80 393.25044108597325 L 90 392.49447809497775 L 100 391.7201959058983 L 110 390.92872975853356 L 120 390.1212400875185 L 130 389.2989108209151 L 140 388.4629476443558 L 150 387.61457623328744 L 160 386.7550404559061 L 170 385.8856005494178 L 180 385.00753127229973 L 190 384.1221200352701 L 200 383.23066501370806 L 210 382.33447324428994 L 220 381.43485870863395 L 230 380.5331404067617 L 240 379.63064042320224 L 250 378.72868198857344 L 260 377.82858753948307 L 270 376.9316767795939 L 280 376.0392647446961 L 290 375.1526598746233 L 300 374.2731620948397 L 310 373.4020609105105 L 320 372.54063351585125 L 330 371.6901429215261 L 340 370.85183610284264 L 350 370.0269421714572 L 360 369.21667057327164 L 370 368.4222093151635 L 380 367.6447232231502 L 390 366.88535223453977 L 400 366.1452097265741 L 410 365.4253808840133 L 420 364.7269211080556 L 430 364.0508544689257 L 440 363.3981722043996 L 450 362.7698312664684 L 460 362.16675291827073 L 470 361.58982138335216 L 480 361.039882549231 L 490 360.51774272717216 L 500 360.0241674699866 L 510 359.55988044959065 L 520 359.1255623959699 L 530 358.72185009910436 L 540 358.3493354753173 L 550 358.0085646994172 L 560 357.70003740390575 L 570 357.4242059464241 L 580 357.1814747465142 L 590 356.97219969266524 L 600 356.79668762051585 L 610 356.6551958629767 L 620 356.5479318729333 L 630 356.4750529190819 L 640 356.43666585534487 L 650 356.4328269642031 L 660 356.4635418741755 L 670 356.5287655515669 L 680 356.6284023664951 L 690 356.7623062331025 L 700 356.93028082374434 L 710 357.1320798568412 L 720 357.36740745797306 L 730 357.63591859368535 L 740 357.9372195773715 L 750 358.2708686464895 L 760 358.6363766102671 L 770 359.03320756694546 L 780 359.4607796895088 L 790 359.9184660787503 L 800 360.40559568242105 L 810 360.9214542791158 L 820 361.4652855254527 L 830 362.03629206501176 L 840 362.6336366974051 L 850 363.25644360576695 L 860 363.9037996408617 L 870 364.57475565992814 L 880 365.2683279182973 L 890 365.98349951174237 L 900 366.71922186744695 L 910 367.4744162814055 L 920 368.2479755000012 L 930 369.03876534344295 L 940 369.8456263686813 L 950 370.6673755693645 L 960 371.50280811034304 L 970 372.3506990941794 L 980 373.2098053570719 L 990 374.07886729156166 L 1000 374.9566106933477 L 1010 375.841748629505 L 1020 376.73298332536353 L 1030 377.629008067285 L 1040 378.52850911854404 L 1050 379.43016764550805 L 1060 380.33266165128896 L 1070 381.2346679140334 L 1080 382.13486392700895 L 1090 383.0319298376413 L 1100 383.924550382661 L 1110 384.8114168165202 L 1120 385.6912288302543 L 1130 386.56269645797335 L 1140 387.4245419681886 L 1150 388.27550173720164 L 1160 389.11432810180884 L 1170 389.9397911886041 L 1180 390.7506807171993 L 1190 391.54580777471745 L 1200 392.32400655895714 L 1210 393.0841360876725 L 1220 393.8250818714628 L 1230 394.54575754781814 L 1240 395.2451064739264 L 1250 395.92210327590567 L 1260 396.57575535219047 L 1270 397.20510432886766 L 1280 397.80922746482884 L 1290 398.3872390046777 L 1300 398.9382914774106 L 1310 399.461576938964 L 1320 399.95632815680915 L 1330 400.4218197348556 L 1340 400.85736917701513 L 1350 401.2623378878661 L 1360 401.63613210895187 L 1370 401.97820378933926 L 1380 402.2880513891621 L 1390 402.56522061497054 L 1400 402.80930508580883 L 1410 403.0199469290443 L 1420 403.1968373050741 L 1430 403.3397168601412 L 1440 403.44837610659414 L 1450 403.5226557300347 L 1460 403.56244682290185 L 1470 403.5676910441503 L 1480 403.53838070478923 L 1490 403.4745587791556 L 1500 403.37631884190614 L 1510 403.24380493081946 L 1520 403.0772113356104 L 1530 402.8767823130656 L 1540 402.6428117289182 L 1550 402.3756426269868 L 1560 402.07566672621016 L 1570 401.7433238463155 L 1580 401.3791012629618 L 1590 400.9835329933046 L 1600 400.5571990130285 L 1610 400.1007244059966 L 1620 399.61477844776266 L 1630 399.1000736242904 L 1640 398.55736458731843 L 1650 397.987447047902 L 1660 397.3911566097546 L 1670 396.76936754409996 L 1680 396.12299150782945 L 1690 395.4529762068461 L 1700 394.76030400655344 L 1710 394.04599049152813 L 1720 393.311082976486 L 1730 392.5566589707266 L 1740 391.783824598307 L 1750 390.99371297626067 L 1760 390.18748255324016 L 1770 389.3663154110186 L 1780 388.53141553134077 L 1790 387.68400703066527 L 1800 386.82533236538467 L 1810 385.9566505101567 L 1820 385.07923511201614 L 1830 384.1943726229748 L 1840 383.3033604138464 L 1850 382.4075048720631 L 1860 381.5081194862716 L 1870 380.60652292051776 L 1880 379.7040370808432 L 1890 378.80198517712813 L 1900 377.9016897830233 L 1910 377.00447089681364 L 1920 376.1116440060592 L 1930 375.22451815884824 L 1940 374.34439404449313 L 1950 373.47256208648065 L 1960 372.61030055047456 L 1970 371.7588736701433 L 1980 370.9195297935617 L 1990 370.0934995529032 L 2000 369.28199406010765 L 2010 368.4862031311687 L 2020 367.70729354164484 L 2030 366.94640731595314 L 2040 366.20466005295094 L 2050 365.48313929026386 L 2060 364.78290290975553 L 2070 364.1049775864789 L 2080 363.45035728338223 L 2090 362.8200017939768 L 2100 362.2148353351034 L 2110 361.63574519186113 L 2120 361.0835804166843 L 2130 360.5591505844759 L 2140 360.0632246056222 L 2150 359.59652959862876 L 2160 359.1597498240316 L 2170 358.75352568114545 L 2180 358.3784527691208 L 2190 358.03508101368647 L 2200 357.7239138608572 L 2210 357.44540753878965 L 2220 357.1999703888682 L 2230 356.9879622670014 L 2240 356.80969401600714 L 2250 356.6654270098602 L 2260 356.55537277046983 L 2270 356.47969265755006 L 2280 356.4384976320365 L 2290 356.4318480933973 L 2300 356.45975379107665 L 2310 356.52217381019994 L 2320 356.6190166315628 L 2330 356.7501402658148 L 2340 356.91535246164227 L 2350 357.1144109876435 L 2360 357.3470239874849 L 2370 357.61285040781553 L 2380 357.9115004983143 L 2390 358.2425363831353 L 2400 358.605472702914 L 2410 358.9997773263936 L 2420 359.42487213062657 L 2430 359.8801338486093 L 2440 360.36489498310607 L 2450 360.87844478532213 L 2460 361.42003029699214 L 2470 361.98885745435507 L 2480 362.58409225239757 L 2490 363.20486196765825 L 2500 363.85025643780034 L 2510 364.519329396077 L 2520 365.2110998587319 L 2530 365.9245535633015 L 2540 366.65864445570986 L 2550 367.41229622397594 L 2560 368.18440387628465 L 2570 368.97383536110755 L 2580 369.77943322699815 L 2590 370.60001631962814 L 2600 371.4343815135766 L 2610 372.2813054763325 L 2620 373.1395464619246 L 2630 374.0078461315493 L 2640 374.8849313985259 L 2650 375.7695162948757 L 2660 376.66030385678664 L 2670 377.55598802620074 L 2680 378.4552555657346 L 2690 379.3567879841265 L 2700 380.2592634693868 L 2710 381.1613588268166 L 2720 382.0617514190542 L 2730 382.9591211053041 L 2740 383.85215217690603 L 2750 384.73953528640493 L 2760 385.61996936729474 L 2770 386.49216354162087 L 2780 387.354839012644 L 2790 388.20673093979093 L 2800 389.0465902931428 L 2810 389.87318568474274 L 2820 390.68530517403576 L 2830 391.4817580447969 L 2840 392.2613765509391 L 2850 393.02301762864363 L 2860 393.7655645723015 L 2870 394.4879286718086 L 2880 395.1890508088146 L 2890 395.86790300958495 L 2900 396.523489952199 L 2910 397.15485042587443 L 2920 397.76105874027905 L 2930 398.3412260827624 L 2940 398.8945018215183 L 2950 399.4200747527672 L 2960 399.91717429013005 L 2970 400.3850715944489 L 2980 400.82308064239936 L 2990 401.23055923232624 L 3000 401.6069099258294 L 3010 401.951580923718 L 3020 402.2640668750493 L 3030 402.543909618066 L 3040 402.79069885194536 L 3050 403.0040727383756 L 3060 403.1837184320773 L 3070 403.3293725394918 L 3080 403.44082150496484 L 3090 403.51790192385806 L 3100 403.56050078213013 L 3110 403.5685556220365 L 3120 403.54205463370346 L 3130 403.48103667244385 L 3140 403.38559120178786 L 3150 403.2558581623132 L 3160 403.09202776646663 L 3170 402.8943402196773 L 3180 402.6630853681718 L 3190 402.3986022740062 L 3200 402.10127871793884 L 3210 401.7715506308728 L 3220 401.409901454701 L 3230 401.01686143349156 L 3240 400.593006836053 L 3250 400.138959111018 L 3260 399.6553839756859 L 3270 399.14299043995896 L 3280 398.60252976680374 L 3290 398.03479437076135 L 3300 397.44061665612287" fill="none" stroke="#10B981" stroke-opacity="0.04" stroke-width="1"/><path d="M -20 440 L 0 400.9429203086407 L 10 401.93802795492167 L 20 402.9746658899803 L 30 404.0517030144414 L 40 405.1679641484494 L 50 406.32223131393465 L 60 407.5132450635764 L 70 408.7397058550152 L 80 410.0002754688129 L 90 411.2935784686147 L 100 412.6182037019193 L 110 413.9727058398194 L 120 415.3556069540336 L 130 416.76539812950716 L 140 418.20054111082453 L 150 419.65946998063424 L 160 421.14059286825767 L 170 422.64229368661546 L 180 424.16293389557705 L 190 425.70085428980934 L 200 427.2543768091736 L 210 428.82180636969537 L 220 430.4014327131092 L 230 431.99153227296085 L 240 433.59037005522976 L 250 435.196201531421 L 260 436.8072745420602 L 270 438.4218312085146 L 280 440.03810985105514 L 290 441.654346911065 L 300 443.2687788752991 L 310 444.87964420009376 L 320 446.485185233427 L 330 448.0836501327333 L 340 449.6732947763789 L 350 451.2523846667127 L 360 452.8191968226166 L 370 454.3720216594897 L 380 455.90916485461463 L 390 457.4289491958725 L 400 458.92971641178707 L 410 460.40982898090266 L 420 461.86767191852175 L 430 463.3016545388509 L 440 464.71021219063545 L 450 466.0918079643854 L 460 467.4449343693331 L 470 468.7681149782908 L 480 470.05990603861386 L 490 471.31889804751273 L 500 472.54371728999354 L 510 473.7330273377496 L 520 474.8855305073697 L 530 475.9999692762694 L 540 477.07512765480305 L 550 478.1098325130581 L 560 479.1029548608836 L 570 480.0534110797573 L 580 480.960164105147 L 590 481.82222455807477 L 600 482.63865182465156 L 610 483.40855508240213 L 620 484.1310942722621 L 630 484.8054810151856 L 640 485.43097947236345 L 650 486.006907148114 L 660 486.53263563456966 L 670 487.0075912973472 L 680 487.4312559014531 L 690 487.80316717674197 L 700 488.1229193223098 L 710 488.3901634492729 L 720 488.60460796144815 L 730 488.7660188735206 L 740 488.87422006635006 L 750 488.9290934791387 L 760 488.9305792382501 L 770 488.87867572253845 L 780 488.7734395651176 L 790 488.61498559156735 L 800 488.4034866946445 L 810 488.13917364563594 L 820 487.82233484255835 L 830 487.4533159954809 L 840 487.03251974931305 L 850 486.56040524446917 L 860 486.03748761589014 L 870 485.46433743096804 L 880 484.8415800669865 L 890 484.1698950287579 L 900 483.45001520719927 L 910 482.68272607965906 L 920 481.86886485286436 L 930 481.0093195494256 L 940 480.1050280388948 L 950 479.1569770144344 L 960 478.1662009162143 L 970 477.1337808027098 L 980 476.0608431711347 L 990 474.9485587282938 L 1000 473.79814111319814 L 1010 472.6108455728359 L 1020 471.38796759254336 L 1030 470.1308414824714 L 1040 468.8408389216889 L 1050 467.519367461513 L 1060 466.16786898969656 L 1070 464.78781815715257 L 1080 463.3807207689278 L 1090 461.9481121411852 L 1100 460.491555425985 L 1110 459.0126399056935 L 1120 457.51297925888116 L 1130 455.9942097996005 L 1140 454.45798869196716 L 1150 452.9059921419891 L 1160 451.3399135686207 L 1170 449.7614617560345 L 1180 448.17235898912725 L 1190 446.57433917429586 L 1200 444.96914594753224 L 1210 443.35853077190245 L 1220 441.74425102648456 L 1230 440.1280680888531 L 1240 438.51174541319904 L 1250 436.89704660618446 L 1260 435.28573350263156 L 1270 433.67956424314366 L 1280 432.08029135575856 L 1290 430.48965984372404 L 1300 428.90940528148604 L 1310 427.3412519209626 L 1320 425.786910810174 L 1330 424.2480779262786 L 1340 422.7264323250534 L 1350 421.223634308838 L 1360 419.74132361494054 L 1370 418.28111762648336 L 1380 416.84460960763806 L 1390 415.43336696518 L 1400 414.04892953825356 L 1410 412.6928079182194 L 1420 411.36648180041294 L 1430 410.0713983696155 L 1440 408.8089707209975 L 1450 407.5805763182578 L 1460 406.3875554906423 L 1470 405.23120997047903 L 1480 404.1128014728292 L 1490 403.0335503188001 L 1500 401.9946341040255 L 1510 400.9971864137638 L 1520 400.0422955860172 L 1530 399.13100352402137 L 1540 398.26430455940067 L 1550 397.4431443672308 L 1560 396.66841893419 L 1570 395.94097358092876 L 1580 395.26160203972006 L 1590 394.6310455884006 L 1600 394.04999224154506 L 1610 393.5190759997582 L 1620 393.0388761579018 L 1630 392.6099166730132 L 1640 392.23266559260327 L 1650 391.9075345439597 L 1660 391.6348782850105 L 1670 391.4149943172397 L 1680 391.2481225610768 L 1690 391.134445094114 L 1700 391.07408595243714 L 1710 391.06711099528695 L 1720 391.1135278331988 L 1730 391.2132858196987 L 1740 391.36627610656444 L 1750 391.5723317625927 L 1760 391.83122795574144 L 1770 392.1426821984493 L 1780 392.50635465586413 L 1790 392.9218485166448 L 1800 393.3887104259308 L 1810 393.90643098000845 L 1820 394.4744452821327 L 1830 395.09213355889904 L 1840 395.7588218364924 L 1850 396.47378267607536 L 1860 397.2362359675135 L 1870 398.045349780571 L 1880 398.90024127264934 L 1890 399.79997765207656 L 1900 400.74357719589784 L 1910 401.73001032105594 L 1920 402.75820070779264 L 1930 403.8270264740461 L 1940 404.93532139956153 L 1950 406.08187619838185 L 1960 407.2654398383259 L 1970 408.4847209060195 L 1980 409.7383890159854 L 1990 411.0250762622575 L 2000 412.34337871093476 L 2010 413.6918579320447 L 2020 415.06904256904835 L 2030 416.4734299442701 L 2040 417.9034876985045 L 2050 419.3576554630077 L 2060 420.8343465620521 L 2070 422.3319497441842 L 2080 423.8488309402982 L 2090 425.383335046606 L 2100 426.9337877305586 L 2110 428.4984972577494 L 2120 430.0757563378035 L 2130 431.6638439872418 L 2140 433.2610274072854 L 2150 434.86556387455175 L 2160 436.4757026425804 L 2170 438.08968685211204 L 2180 439.70575544803853 L 2190 441.32214510092956 L 2200 442.93709213104273 L 2210 444.5488344327139 L 2220 446.15561339703174 L 2230 447.75567583069585 L 2240 449.34727586896616 L 2250 450.92867688061585 L 2260 452.4981533628093 L 2270 454.0539928238383 L 2280 455.59449765166005 L 2290 457.1179869662013 L 2300 458.6227984534046 L 2310 460.10729017901747 L 2320 461.5698423801444 L 2330 463.00885923260677 L 2340 464.42277059218407 L 2350 465.8100337078331 L 2360 467.16913490502 L 2370 468.49859123732415 L 2380 469.79695210451575 L 2390 471.0628008353386 L 2400 472.2947562332725 L 2410 473.49147408358846 L 2420 474.6516486200521 L 2430 475.77401394967524 L 2440 476.8573454339603 L 2450 477.9004610251321 L 2460 478.9022225558964 L 2470 479.86153698132074 L 2480 480.77735757148116 L 2490 481.6486850535722 L 2500 482.4745687022372 L 2510 483.254107376926 L 2520 483.98645050515046 L 2530 484.67079901056286 L 2540 485.3064061848472 L 2550 485.8925785024693 L 2560 486.4286763773982 L 2570 486.91411486097365 L 2580 487.3483642801565 L 2590 487.7309508154674 L 2600 488.06145701798175 L 2610 488.33952226481824 L 2620 488.5648431526222 L 2630 488.7371738286163 L 2640 488.85632625885603 L 2650 488.92217043339787 L 2660 488.9346345081561 L 2670 488.8937048832934 L 2680 488.7994262180603 L 2690 488.65190138206606 L 2700 488.4512913430354 L 2710 488.19781499117306 L 2720 487.89174890032757 L 2730 487.5334270262152 L 2740 487.12324034203334 L 2750 486.66163641186046 L 2760 486.14911890230906 L 2770 485.5862470329631 L 2780 484.97363496620113 L 2790 484.3119511370691 L 2800 483.6019175239364 L 2810 482.8443088607279 L 2820 482.0399517915945 L 2830 481.18972396894276 L 2840 480.294553095808 L 2850 479.35541591361687 L 2860 478.3733371364415 L 2870 477.3493883329114 L 2880 476.2846867570002 L 2890 475.1803941289637 L 2900 474.0377153677612 L 2910 472.85789727633994 L 2920 471.64222718122085 L 2930 470.39203152786604 L 2940 469.1086744333649 L 2950 467.7935561980136 L 2960 466.4481117774165 L 2970 465.07380921677253 L 2980 463.6721480490575 L 2990 462.24465765884986 L 3000 460.79289561358337 L 3010 459.31844596405074 L 3020 457.82291751600815 L 3030 456.30794207477186 L 3040 454.7751726647174 L 3050 453.2262817256264 L 3060 451.6629592878505 L 3070 450.08691112827916 L 3080 448.4998569091287 L 3090 446.9035283015784 L 3100 445.29966709630554 L 3110 443.6900233029765 L 3120 442.07635324077245 L 3130 440.4604176220285 L 3140 438.84397963107995 L 3150 437.22880300041254 L 3160 435.6166500862123 L 3170 434.0092799454198 L 3180 432.4084464163811 L 3190 430.8158962051964 L 3200 429.2333669798481 L 3210 427.6625854741911 L 3220 426.1052656038751 L 3230 424.5631065962509 L 3240 423.03779113630566 L 3250 421.5309835306453 L 3260 420.0443278915334 L 3270 418.57944634296064 L 3280 417.13793725070997 L 3290 415.7213734783421 L 3300 414.3313006710081" fill="none" stroke="#10B981" stroke-opacity="0.04" stroke-width="1"/><path d="M -20 500 L 0 485.590550759613 L 10 486.49948673150794 L 20 487.4255726259464 L 30 488.36763202088855 L 40 489.3244682028959 L 50 490.29486568733597 L 60 491.2775917624324 L 70 492.27139805519846 L 80 493.2750221172661 L 90 494.2871890285945 L 100 495.3066130170219 L 110 496.33199909160294 L 120 497.3620446876568 L 130 498.39544132143646 L 140 499.43087625231686 L 150 500.4670341503909 L 160 501.5025987673544 L 170 502.53625460855795 L 180 503.56668860410105 L 190 504.5925917768465 L 200 505.61266090523526 L 210 506.6256001787901 L 220 507.6301228442048 L 230 508.62495283992814 L 240 509.6088264171654 L 250 510.58049374523927 L 260 511.53872049927026 L 270 512.4822894281593 L 280 513.4100019008827 L 290 514.3206794291311 L 300 515.2131651643645 L 310 516.0863253673738 L 320 516.9390508484896 L 330 517.7702583766036 L 340 518.5788920552144 L 350 519.3639246637508 L 360 520.1243589624661 L 370 520.8592289592485 L 380 521.5676011367366 L 390 522.2485756381817 L 400 522.9012874105504 L 410 523.524907303416 L 420 524.1186431222412 L 430 524.6817406347167 L 440 525.2134845288734 L 450 525.7131993217565 L 460 526.1802502175016 L 470 526.6140439137259 L 480 527.0140293552112 L 490 527.379698433917 L 500 527.7105866344392 L 510 528.0062736240916 L 520 528.2663837868607 L 530 528.4905867005581 L 540 528.6785975565597 L 550 528.830177521604 L 560 528.9451340411854 L 570 529.0233210841589 L 580 529.0646393282467 L 590 529.0690362862085 L 600 529.0365063725167 L 610 528.9670909104519 L 620 528.8608780796098 L 630 528.7180028038842 L 640 528.538646580072 L 650 528.3230372473141 L 660 528.071448697668 L 670 527.7842005281781 L 680 527.4616576348866 L 690 527.1042297492996 L 700 526.7123709178992 L 710 526.28657892536 L 720 525.8273946622056 L 730 525.3354014377067 L 740 524.8112242388931 L 750 524.2555289366236 L 760 523.669021439718 L 770 523.0524467982304 L 780 522.4065882570004 L 790 521.7322662606831 L 800 521.0303374115259 L 810 520.3016933812123 L 820 519.5472597781569 L 830 518.7679949716896 L 840 517.964888874624 L 850 517.1389616857541 L 860 516.2912625938802 L 870 515.4228684450063 L 880 514.5348823744054 L 890 513.6284324052887 L 900 512.7046700158593 L 910 511.7647686765707 L 920 510.8099223594482 L 930 509.8413440213662 L 940 508.86026406320985 L 950 507.8679287668766 L 960 506.8655987121037 L 970 505.85454717513335 L 980 504.8360585112491 L 990 503.8114265232382 L 1000 502.781952817853 L 1010 501.7489451523585 L 1020 500.713715773267 L 1030 499.67757974936967 L 1040 498.64185330118374 L 1050 497.60785212893535 L 1060 496.5768897412047 L 1070 495.55027578635423 L 1080 494.5293143888611 L 1090 493.51530249266665 L 1100 492.5095282136469 L 1110 491.51326920329853 L 1120 490.5277910257168 L 1130 489.55434554992894 L 1140 488.59416935962474 L 1150 487.6484821823038 L 1160 486.71848533983575 L 1170 485.8053602224016 L 1180 484.9102667877544 L 1190 484.0343420877061 L 1200 483.1786988237119 L 1210 482.3444239333875 L 1220 481.5325772097544 L 1230 480.7441899549675 L 1240 479.9802636702355 L 1250 479.24176878359697 L 1260 478.5296434171702 L 1270 477.8447921954411 L 1280 477.1880850961039 L 1290 476.56035634491485 L 1300 475.96240335596076 L 1310 475.39498571869143 L 1320 474.8588242330005 L 1330 474.3545999935818 L 1340 473.8829535247235 L 1350 473.44448396663955 L 1360 473.0397483143722 L 1370 472.6692607102322 L 1380 472.3334917906751 L 1390 472.03286808844456 L 1400 471.7677714907402 L 1410 471.5385387541007 L 1420 471.345461076616 L 1430 471.1887837280139 L 1440 471.0687057380897 L 1450 470.9853796438756 L 1460 470.9389112958702 L 1470 470.92935972357503 L 1480 470.95673706050843 L 1490 471.02100852879215 L 1500 471.12209248333005 L 1510 471.2598605155234 L 1520 471.43413761639044 L 1530 471.644702398883 L 1540 471.8912873791181 L 1550 472.1735793161674 L 1560 472.4912196099718 L 1570 472.84380475687715 L 1580 473.2308868622118 L 1590 473.65197420925404 L 1600 474.1065318838683 L 1610 474.59398245401496 L 1620 475.1137067032721 L 1630 475.66504441743575 L 1640 476.2472952232013 L 1650 476.8597194778588 L 1660 477.5015392088732 L 1670 478.1719391021558 L 1680 478.87006753777064 L 1690 479.59503767176176 L 1700 480.345928562725 L 1710 481.1217863416956 L 1720 481.9216254238627 L 1730 482.7444297605743 L 1740 483.58915413004064 L 1750 484.4547254650961 L 1760 485.34004421633415 L 1770 486.24398574888295 L 1780 487.1654017710472 L 1790 488.1031217930022 L 1800 489.0559546136858 L 1810 490.02268983400086 L 1820 491.00209939440475 L 1830 491.9929391349338 L 1840 492.9939503756796 L 1850 494.0038615157111 L 1860 495.02138964840947 L 1870 496.04524219116587 L 1880 497.07411852737005 L 1890 498.10671165860487 L 1900 499.1417098649477 L 1910 500.1777983712698 L 1920 501.21366101741637 L 1930 502.24798193014664 L 1940 503.27944719470906 L 1950 504.3067465239284 L 1960 505.3285749226852 L 1970 506.3436343456724 L 1980 507.35063534632343 L 1990 508.34829871481725 L 2000 509.33535710307945 L 2010 510.31055663471517 L 2020 511.272658497829 L 2030 512.2204405187077 L 2040 513.1526987143678 L 2050 514.0682488219942 L 2060 514.965927803329 L 2070 515.8445953220984 L 2080 516.7031351925997 L 2090 517.5404567976105 L 2100 518.3554964738181 L 2110 519.1472188630074 L 2120 519.9146182272943 L 2130 520.6567197267306 L 2140 521.3725806576587 L 2150 522.0612916502441 L 2160 522.7219778236624 L 2170 523.3537998974749 L 2180 523.95595525778 L 2190 524.527678976787 L 2200 525.0682447845163 L 2210 525.5769659913917 L 2220 526.0531963605539 L 2230 526.4963309287856 L 2240 526.9058067750058 L 2250 527.281103735358 L 2260 527.6217450639828 L 2270 527.927298038636 L 2280 528.1973745103824 L 2290 528.431631396668 L 2300 528.6297711171436 L 2310 528.7915419716854 L 2320 528.9167384601345 L 2330 529.0052015433463 L 2340 529.0568188452211 L 2350 529.0715247954571 L 2360 529.0493007128456 L 2370 528.9901748290016 L 2380 528.8942222525014 L 2390 528.7615648734703 L 2400 528.592371208744 L 2410 528.3868561877985 L 2420 528.1452808797221 L 2430 527.8679521615751 L 2440 527.5552223285583 L 2450 527.2074886464875 L 2460 526.8251928471391 L 2470 526.4088205671122 L 2480 525.9589007309158 L 2490 525.4760048790675 L 2500 524.9607464420563 L 2510 524.4137799610919 L 2520 523.8358002566297 L 2530 523.2275415457303 L 2540 522.5897765093703 L 2550 521.9233153108935 L 2560 521.2290045668474 L 2570 520.5077262715122 L 2580 519.7603966764889 L 2590 518.9879651267702 L 2600 518.1914128547718 L 2610 517.3717517338567 L 2620 516.5300229929368 L 2630 515.6672958937816 L 2640 514.7846663727183 L 2650 513.8832556484459 L 2660 512.9642087977323 L 2670 512.0286933008052 L 2680 511.07789755828264 L 2690 510.113029381528 L 2700 509.1353144583479 L 2710 508.14599479598076 L 2720 507.1463271433549 L 2730 506.1375813946195 L 2740 505.1210389759776 L 2750 504.0979912178695 L 2760 503.0697377145742 L 2770 502.03758467331426 L 2780 501.0028432549587 L 2790 499.9668279084343 L 2800 498.9308547009598 L 2810 497.8962396462236 L 2820 496.86429703263104 L 2830 495.8363377537414 L 2840 494.813667643019 L 2850 493.79758581501136 L 2860 492.7893830150628 L 2870 491.7903399796598 L 2880 490.8017258094901 L 2890 489.8247963572837 L 2900 488.86079263248234 L 2910 487.9109392247651 L 2920 486.9764427484325 L 2930 486.0584903096237 L 2940 485.15824799831717 L 2950 484.2768594070267 L 2960 483.415444178078 L 2970 482.57509658130806 L 2980 481.7568841239966 L 2990 480.96184619479413 L 3000 480.19099274336935 L 3010 479.4453029974542 L 3020 478.725724218914 L 3030 478.03317050042597 L 3040 477.36852160429186 L 3050 476.73262184486185 L 3060 476.12627901598825 L 3070 475.55026336487145 L 3080 475.00530661360256 L 3090 474.492101029645 L 3100 474.01129854643546 L 3110 473.56350993522267 L 3120 473.14930402919424 L 3130 472.76920700087896 L 3140 472.4237016937409 L 3150 472.11322700881584 L 3160 471.8381773471678 L 3170 471.598902108875 L 3180 471.39570524918145 L 3190 471.2288448923772 L 3200 471.09853300389943 L 3210 471.0049351210687 L 3220 470.94817014280454 L 3230 470.9283101785862 L 3240 470.9453804568505 L 3250 470.9993592929443 L 3260 471.09017811667013 L 3270 471.2177215593928 L 3280 471.3818276005935 L 3290 471.58228777368726 L 3300 471.81884743084163" fill="none" stroke="#10B981" stroke-opacity="0.04" stroke-width="1"/><path d="M -20 560 L 0 550.1271821810053 L 10 548.9380938002414 L 20 547.7711683195504 L 30 546.6287437132697 L 40 545.5131088674135 L 50 544.4264989938125 L 60 543.3710911517918 L 70 542.3489998863598 L 80 541.3622729916465 L 90 540.4128874080787 L 100 539.5027452615145 L 110 538.6336700522694 L 120 537.8074030016727 L 130 537.0255995634722 L 140 536.2898261070768 L 150 535.6015567792836 L 160 534.9621705507741 L 170 534.3729484533015 L 180 533.8350710130998 L 190 533.34961588566 L 200 532.9175556966115 L 210 532.5397560930339 L 220 532.2169740091038 L 230 531.9498561495519 L 240 531.7389376939688 L 250 531.5846412245539 L 260 531.4872758794588 L 270 531.4470367334179 L 280 531.4640044069098 L 290 531.5381449046316 L 300 531.6693096836095 L 310 531.8572359508098 L 320 532.1015471896533 L 330 532.4017539143791 L 340 532.7572546507457 L 350 533.1673371411048 L 360 533.6311797714334 L 370 534.1478532174648 L 380 534.7163223066215 L 390 535.3354480920176 L 400 536.0039901343774 L 410 536.720608987297 L 420 537.4838688808704 L 430 538.2922405983018 L 440 539.1441045397437 L 450 540.037753967219 L 460 540.9713984241282 L 470 541.9431673224884 L 480 542.95111369072 L 490 543.9932180744692 L 500 545.0673925826521 L 510 546.1714850706154 L 520 547.3032834520296 L 530 548.4605201308786 L 540 549.6408765446641 L 550 550.8419878097236 L 560 552.0614474593536 L 570 553.2968122652475 L 580 554.5456071325837 L 590 555.8053300589629 L 600 557.0734571472525 L 610 558.3474476623 L 620 559.6247491213804 L 630 560.9028024081816 L 640 562.1790469000792 L 650 563.4509255984302 L 660 564.7158902516053 L 670 565.9714064604967 L 680 567.2149587562715 L 690 568.4440556401979 L 700 569.656234575447 L 710 570.8490669208669 L 720 572.0201627968477 L 730 573.1671758735248 L 740 574.2878080717297 L 750 575.3798141672692 L 760 576.441006289306 L 770 577.4692583038327 L 780 578.4625100734523 L 790 579.4187715849317 L 800 580.3361269362612 L 810 581.2127381752273 L 820 582.0468489818124 L 830 582.8367881870407 L 840 583.580973121221 L 850 584.2779127848785 L 860 584.9262108360228 L 870 585.5245683877654 L 880 586.0717866106831 L 890 586.5667691347136 L 900 587.0085242457687 L 910 587.3961668726677 L 920 587.7289203604064 L 930 588.0061180262121 L 940 588.2272044952646 L 950 588.3917368134081 L 960 588.4993853346251 L 970 588.5499343814929 L 980 588.5432826773007 L 990 588.4794435489611 L 1000 588.3585449003086 L 1010 588.1808289558408 L 1020 587.9466517754124 L 1030 587.6564825408589 L 1040 587.3109026159732 L 1050 586.9106043817253 L 1060 586.4563898490528 L 1070 585.949169052006 L 1080 585.3899582244629 L 1090 584.7798777640719 L 1100 584.1201499874967 L 1110 583.4120966814638 L 1120 582.6571364545193 L 1130 581.8567818947981 L 1140 581.0126365395034 L 1150 580.1263916621662 L 1160 579.1998228841214 L 1170 578.234786616992 L 1180 577.233216343305 L 1190 576.1971187426952 L 1200 575.1285696714548 L 1210 574.0297100034855 L 1220 572.9027413409866 L 1230 571.7499216034703 L 1240 570.5735605039448 L 1250 569.3760149213266 L 1260 568.1596841783545 L 1270 566.9270052344662 L 1280 565.6804478032681 L 1290 564.4225094043816 L 1300 563.1557103595783 L 1310 561.8825887432312 L 1320 560.6056952971977 L 1330 559.3275883203219 L 1340 558.0508285427982 L 1350 556.7779739956616 L 1360 555.5115748856872 L 1370 554.254168485965 L 1380 553.0082740523887 L 1390 551.7763877762417 L 1400 550.5609777829937 L 1410 549.3644791873298 L 1420 548.1892892143153 L 1430 547.0377623964753 L 1440 545.9122058564101 L 1450 544.8148746843973 L 1460 543.7479674202432 L 1470 542.713621648434 L 1480 541.7139097154142 L 1490 540.7508345775706 L 1500 539.8263257882421 L 1510 538.9422356317949 L 1520 538.1003354125087 L 1530 537.302311905709 L 1540 536.5497639782562 L 1550 535.8441993851626 L 1560 535.1870317487541 L 1570 534.5795777264308 L 1580 534.0230543726994 L 1590 533.5185767007645 L 1600 533.067155448561 L 1610 532.669695053708 L 1620 532.3269918414367 L 1630 532.0397324291268 L 1640 531.8084923506451 L 1650 531.6337349032444 L 1660 531.5158102193317 L 1670 531.4549545649661 L 1680 531.4512898664923 L 1690 531.5048234662565 L 1700 531.6154481078962 L 1710 531.7829421512316 L 1720 532.0069700163294 L 1730 532.2870828558483 L 1740 532.6227194543197 L 1750 533.0132073525618 L 1760 533.457764194974 L 1770 533.9554992970126 L 1780 534.5054154297073 L 1790 535.1064108176429 L 1800 535.757281346403 L 1810 536.456722975054 L 1820 537.2033343488346 L 1830 537.9956196068168 L 1840 538.8319913789145 L 1850 539.710773966231 L 1860 540.6302066983798 L 1870 541.5884474610453 L 1880 542.5835763867215 L 1890 543.6135997012304 L 1900 544.6764537183159 L 1910 545.7700089743079 L 1920 546.8920744945748 L 1930 548.0404021832142 L 1940 549.2126913271884 L 1950 550.4065932058804 L 1960 551.6197157968345 L 1970 552.8496285682531 L 1980 554.0938673486493 L 1990 555.3499392638961 L 2000 556.6153277317845 L 2010 557.8874975040798 L 2020 559.1638997459761 L 2030 560.441977142773 L 2040 561.7191690235411 L 2050 562.9929164915118 L 2060 564.2606675509134 L 2070 565.5198822199796 L 2080 566.7680376198887 L 2090 568.0026330294354 L 2100 569.22119489531 L 2110 570.4212817879452 L 2120 571.6004892930025 L 2130 572.7564548286963 L 2140 573.8868623793065 L 2150 574.9894471353929 L 2160 576.0620000314175 L 2170 577.1023721716812 L 2180 578.1084791357081 L 2190 579.0783051544527 L 2200 580.0099071489592 L 2210 580.9014186233875 L 2220 581.7510534045981 L 2230 582.5571092208113 L 2240 583.3179711121654 L 2250 584.0321146663426 L 2260 584.698109072781 L 2270 585.3146199893504 L 2280 585.8804122157526 L 2290 586.3943521682861 L 2300 586.8554101510192 L 2310 587.2626624188202 L 2320 587.6152930281119 L 2330 587.9125954716418 L 2340 588.153974093993 L 2350 588.3389452850004 L 2360 588.4671384486788 L 2370 588.5382967457257 L 2380 588.5522776081061 L 2390 588.5090530246935 L 2400 588.4087095973904 L 2410 588.2514483676188 L 2420 588.0375844135269 L 2430 587.7675462187194 L 2440 587.4418748137763 L 2450 587.06122269228 L 2460 586.6263525035225 L 2470 586.138135524512 L 2480 585.5975499143399 L 2490 585.005678754407 L 2500 584.3637078784325 L 2510 583.6729234965974 L 2520 582.9347096185787 L 2530 582.1505452806396 L 2540 581.3220015823312 L 2550 580.4507385387411 L 2560 579.5385017545982 L 2570 578.5871189268947 L 2580 577.5984961830342 L 2590 576.5746142618408 L 2600 575.5175245450836 L 2610 574.429344947463 L 2620 573.3122556732995 L 2630 572.1684948484192 L 2640 571.0003540359951 L 2650 569.8101736453226 L 2660 568.6003382427316 L 2670 567.3732717740276 L 2680 566.1314327080345 L 2690 564.8773091109708 L 2700 563.613413661525 L 2710 562.3422786166192 L 2720 561.066450737948 L 2730 559.7884861894561 L 2740 558.5109454159775 L 2750 557.2363880132989 L 2760 555.9673675999235 L 2770 554.7064267008108 L 2780 553.4560916533421 L 2790 552.2188675457202 L 2800 550.9972331979391 L 2810 549.7936361953867 L 2820 548.6104879850247 L 2830 547.4501590439736 L 2840 546.3149741301829 L 2850 545.2072076246997 L 2860 544.129078974871 L 2870 543.0827482476057 L 2880 542.0703118016081 L 2890 541.0937980872538 L 2900 540.1551635825205 L 2910 539.2562888731189 L 2920 538.3989748846764 L 2930 537.5849392745217 L 2940 536.8158129903019 L 2950 536.0931370023225 L 2960 535.4183592161633 L 2970 534.7928315717497 L 2980 534.217807334697 L 2990 533.6944385853494 L 3000 533.2237739105494 L 3010 532.8067563027586 L 3020 532.4442212707401 L 3030 532.1368951655896 L 3040 531.8853937254662 L 3050 531.6902208419401 L 3060 531.5517675504293 L 3070 531.4703112467469 L 3080 531.4460151313293 L 3090 531.4789278822585 L 3100 531.5689835577342 L 3110 531.7160017281902 L 3120 531.9196878377915 L 3130 532.1796337945856 L 3140 532.4953187881302 L 3150 532.8661103329532 L 3160 533.2912655357584 L 3170 533.7699325838379 L 3180 534.301152451707 L 3190 534.8838608225442 L 3200 535.5168902205852 L 3210 536.1989723501998 L 3220 536.9287406369657 L 3230 537.7047329656444 L 3240 538.52539460958 L 3250 539.3890813456449 L 3260 540.2940627484962 L 3270 541.2385256575419 L 3280 542.2205778096674 L 3290 543.2382516304492 L 3300 544.2895081762563" fill="none" stroke="#10B981" stroke-opacity="0.04" stroke-width="1"/><path d="M -20 620 L 0 637.5805151751244 L 10 636.3429040250886 L 20 635.0853539790721 L 30 633.8093992906886 L 40 632.516596667838 L 50 631.208523373471 L 60 629.886775301274 L 70 628.5529650286251 L 80 627.2087198491951 L 90 625.8556797875945 L 100 624.4954955984873 L 110 623.1298267526153 L 120 621.7603394121867 L 130 620.3887043981025 L 140 619.0165951514981 L 150 617.645685692089 L 160 616.2776485758094 L 170 614.9141528542376 L 180 613.5568620382969 L 190 612.2074320687155 L 200 610.8675092957234 L 210 609.5387284704486 L 220 608.2227107504661 L 230 606.9210617219305 L 240 605.6353694407064 L 250 604.3672024948868 L 260 603.1181080910624 L 270 601.8896101666772 L 280 600.6832075307734 L 290 599.5003720353933 L 300 598.3425467798704 L 310 597.2111443501991 L 320 596.1075450956321 L 330 595.0330954446073 L 340 593.9891062620604 L 350 592.9768512501241 L 360 591.9975653941696 L 370 591.0524434560814 L 380 590.1426385166086 L 390 589.2692605685667 L 400 588.4333751626087 L 410 587.6360021072177 L 420 586.8781142245055 L 430 586.1606361633371 L 440 585.4844432712281 L 450 584.85036052639 L 460 584.2591615312299 L 470 583.7115675685292 L 480 583.2082467214536 L 490 582.7498130584701 L 500 582.3368258841613 L 510 581.969789056856 L 520 581.649150373905 L 530 581.3753010253521 L 540 581.1485751166701 L 550 580.9692492611405 L 560 580.8375422423755 L 570 580.7536147473953 L 580 580.717569170584 L 590 580.7294494887653 L 600 580.7892412075487 L 610 580.896871379014 L 620 581.0522086907096 L 630 581.2550636258584 L 640 581.5051886945745 L 650 581.8022787358094 L 660 582.145971289659 L 670 582.5358470395762 L 680 582.9714303239523 L 690 583.4521897164395 L 700 583.9775386743092 L 710 584.5468362540544 L 720 585.1593878933614 L 730 585.814446258501 L 740 586.5112121560992 L 750 587.2488355081813 L 760 588.0264163892955 L 770 588.8430061244521 L 780 589.6976084465398 L 790 590.5891807118041 L 800 591.5166351719095 L 810 592.478840301028 L 820 593.4746221763395 L 830 594.5027659102572 L 840 595.5620171326318 L 850 596.6510835211252 L 860 597.7686363778876 L 870 598.9133122506141 L 880 600.0837145960022 L 890 601.2784154835823 L 900 602.4959573378409 L 910 603.7348547165122 L 920 604.9935961228682 L 930 606.270645849795 L 940 607.5644458534084 L 950 608.8734176539198 L 960 610.1959642614349 L 970 611.5304721243353 L 980 612.8753130978665 L 990 614.2288464305291 L 1000 615.5894207658516 L 1010 616.9553761571009 L 1020 618.3250460924734 L 1030 619.6967595282962 L 1040 621.0688429277567 L 1050 622.4396223026739 L 1060 623.8074252558212 L 1070 625.1705830213069 L 1080 626.5274325005258 L 1090 627.8763182911954 L 1100 629.2155947070023 L 1110 630.5436277853962 L 1120 631.8587972810786 L 1130 633.1594986427573 L 1140 634.4441449707533 L 1150 635.7111689530719 L 1160 636.9590247775766 L 1170 638.186190017932 L 1180 639.3911674910156 L 1190 640.5724870835319 L 1200 641.7287075456003 L 1210 642.8584182491286 L 1220 643.9602409088275 L 1230 645.0328312637645 L 1240 646.0748807174085 L 1250 647.0851179341614 L 1260 648.0623103904309 L 1270 649.0052658783502 L 1280 649.9128339603132 L 1290 650.7839073725462 L 1300 651.6174233760078 L 1310 652.4123650529664 L 1320 653.1677625476738 L 1330 653.8826942496225 L 1340 654.5562879179421 L 1350 655.1877217455615 L 1360 655.7762253618422 L 1370 656.3210807724565 L 1380 656.8216232353647 L 1390 657.2772420718229 L 1400 657.6873814114316 L 1410 658.051540870317 L 1420 658.3692761616152 L 1430 658.6401996375183 L 1440 658.8639807622172 L 1450 659.0403465151668 L 1460 659.1690817241797 L 1470 659.2500293279445 L 1480 659.2830905676451 L 1490 659.2682251074503 L 1500 659.2054510837246 L 1510 659.0948450829013 L 1520 658.9365420480445 L 1530 658.730735114214 L 1540 658.4776753728339 L 1550 658.1776715653525 L 1560 657.8310897065676 L 1570 657.4383526380759 L 1580 656.9999395123917 L 1590 656.5163852083651 L 1600 655.988279678611 L 1610 655.416267229748 L 1620 654.8010457363212 L 1630 654.1433657893728 L 1640 653.4440297806949 L 1650 652.703890923885 L 1660 651.9238522133957 L 1670 651.1048653228517 L 1680 650.2479294439751 L 1690 649.3540900675383 L 1700 648.4244377078296 L 1710 647.4601065721887 L 1720 646.4622731772357 L 1730 645.4321549134805 L 1740 644.3710085600659 L 1750 643.2801287514541 L 1760 642.1608463979283 L 1770 641.0145270618385 L 1780 639.842569291568 L 1790 638.6464029152572 L 1800 637.4274872963657 L 1810 636.1873095531984 L 1820 634.9273827445717 L 1830 633.64924402383 L 1840 632.3544527634667 L 1850 631.0445886526376 L 1860 629.7212497698857 L 1870 628.3860506334316 L 1880 627.0406202314076 L 1890 625.6866000344352 L 1900 624.3256419929771 L 1910 622.959406521901 L 1920 621.589560474717 L 1930 620.2177751099606 L 1940 618.8457240522002 L 1950 617.4750812501587 L 1960 616.1075189344393 L 1970 614.7447055773476 L 1980 613.3883038572993 L 1990 612.0399686302954 L 2000 610.7013449109429 L 2010 609.3740658654804 L 2020 608.0597508192607 L 2030 606.7600032811187 L 2040 605.4764089870365 L 2050 604.2105339654918 L 2060 602.96392262685 L 2070 601.7380958791318 L 2080 600.5345492724532 L 2090 599.3547511744042 L 2100 598.200140978591 L 2110 597.0721273485261 L 2120 595.972086499012 L 2130 594.9013605171124 L 2140 593.8612557247601 L 2150 592.8530410850007 L 2160 591.8779466538143 L 2170 590.9371620794058 L 2180 590.0318351507934 L 2190 589.163070397468 L 2200 588.3319277418288 L 2210 587.5394212060432 L 2220 586.7865176749042 L 2230 586.0741357161995 L 2240 585.4031444600269 L 2250 584.774362538426 L 2260 584.1885570866206 L 2270 583.646442807086 L 2280 583.1486810975898 L 2290 582.6958792442623 L 2300 582.2885896806881 L 2310 581.9273093139183 L 2320 581.6124789182263 L 2330 581.3444825973497 L 2340 581.123647315869 L 2350 580.9502425003012 L 2360 580.8244797103896 L 2370 580.7465123809939 L 2380 580.7164356348944 L 2390 580.7342861667393 L 2400 580.8000421982756 L 2410 580.9136235049195 L 2420 581.0748915136332 L 2430 581.2836494719885 L 2440 581.5396426882114 L 2450 581.8425588419151 L 2460 582.1920283651407 L 2470 582.5876248932433 L 2480 583.028865785071 L 2490 583.5152127118035 L 2500 584.0460723137314 L 2510 584.6207969241754 L 2520 585.2386853596607 L 2530 585.8989837753861 L 2540 586.6008865849387 L 2550 587.3435374431374 L 2560 588.1260302908025 L 2570 588.9474104601792 L 2580 589.806675839664 L 2590 590.702778096415 L 2600 591.6346239553534 L 2610 592.6010765329962 L 2620 593.6009567244923 L 2630 594.6330446421707 L 2640 595.696081103844 L 2650 596.7887691690544 L 2660 597.9097757213838 L 2670 599.0577330949018 L 2680 600.2312407427639 L 2690 601.4288669459265 L 2700 602.6491505598922 L 2710 603.8906027973552 L 2720 605.1517090445734 L 2730 606.4309307092473 L 2740 607.7267070976549 L 2750 609.0374573187514 L 2760 610.361582212909 L 2770 611.6974663029464 L 2780 613.0434797650654 L 2790 614.3979804172908 L 2800 615.7593157229884 L 2810 617.1258248070155 L 2820 618.4958404820447 L 2830 619.8676912825891 L 2840 621.2397035042462 L 2850 622.6102032456747 L 2860 623.97751845081 L 2870 625.3399809488295 L 2880 626.695928489378 L 2890 628.0437067705685 L 2900 629.381671457287 L 2910 630.7081901873366 L 2920 632.0216445629754 L 2930 633.3204321254157 L 2940 634.6029683098781 L 2950 635.8676883788144 L 2960 637.1130493309406 L 2970 638.33753178375 L 2980 639.5396418272117 L 2990 640.7179128463912 L 3000 641.8709073107707 L 3010 642.9972185280845 L 3020 644.0954723605312 L 3030 645.1643289012685 L 3040 646.202484109145 L 3050 647.2086713996741 L 3060 648.1816631903106 L 3070 649.120272398142 L 3080 650.023353888171 L 3090 650.8898058704177 L 3100 651.718571244142 L 3110 652.508638887541 L 3120 653.2590448913527 L 3130 653.9688737348573 L 3140 654.6372594028442 L 3150 655.2633864421791 L 3160 655.846490956685 L 3170 656.3858615391208 L 3180 656.8808401391228 L 3190 657.3308228660484 L 3200 657.7352607257423 L 3210 658.0936602903289 L 3220 658.4055843002106 L 3230 658.6706521975394 L 3240 658.8885405905103 L 3250 659.05898364791 L 3260 659.1817734234405 L 3270 659.2567601094203 L 3280 659.2838522195548 L 3290 659.2630167005526 L 3300 659.1942789724524" fill="none" stroke="#10B981" stroke-opacity="0.04" stroke-width="1"/><path d="M -20 680 L 0 678.6535752979934 L 10 677.5483378857335 L 20 676.4474046591079 L 30 675.3527084378761 L 40 674.26617109199 L 50 673.1897001675213 L 60 672.1251855377368 L 70 671.0744960851999 L 80 670.0394764207246 L 90 669.0219436449399 L 100 668.0236841581543 L 110 667.0464505241148 L 120 666.0919583931734 L 130 665.1618834902573 L 140 664.2578586729339 L 150 663.3814710647343 L 160 662.5342592687683 L 170 661.717710666523 L 180 660.9332588065869 L 190 660.1822808878843 L 200 659.4660953418379 L 210 658.785959517705 L 220 658.1430674751509 L 230 657.5385478879347 L 240 656.9734620623871 L 250 656.4488020741608 L 260 655.9654890265233 L 270 655.52437143325 L 280 655.1262237289569 L 290 654.7717449094882 L 300 654.4615573047456 L 310 654.1962054861135 L 320 653.9761553103997 L 330 653.8017931019673 L 340 653.6734249744967 L 350 653.5912762935661 L 360 653.5554912809956 L 370 653.5661327616485 L 380 653.6231820531345 L 390 653.7265389986095 L 400 653.8760221426119 L 410 654.0713690496303 L 420 654.31223676484 L 430 654.5982024162008 L 440 654.9287639568602 L 450 655.3033410465557 L 460 655.7212760704721 L 470 656.1818352937624 L 480 656.6842101497074 L 490 657.2275186592508 L 500 657.8108069794187 L 510 658.4330510779052 L 520 659.0931585308832 L 530 659.7899704408849 L 540 660.5222634713845 L 550 661.2887519945122 L 560 662.0880903481266 L 570 662.9188751982863 L 580 663.7796480029691 L 590 664.6688975727178 L 600 665.5850627237128 L 610 666.5265350186174 L 620 667.4916615903817 L 630 668.4787480440473 L 640 669.4860614314608 L 650 670.5118332936712 L 660 671.5542627656703 L 670 672.6115197380265 L 680 673.6817480698606 L 690 674.763068847523 L 700 675.8535836832503 L 710 676.9513780480124 L 720 678.0545246326965 L 730 679.1610867317287 L 740 680.2691216431915 L 750 681.3766840794696 L 760 682.481829582434 L 770 683.582617937171 L 780 684.6771165782608 L 790 685.7634039826272 L 800 686.8395730430007 L 810 687.903734416073 L 820 688.9540198394649 L 830 689.9885854116841 L 840 691.0056148293143 L 850 692.0033225757529 L 860 692.9799570558986 L 870 693.9338036712857 L 880 694.8631878302666 L 890 695.7664778879575 L 900 696.6420880107856 L 910 697.4884809606095 L 920 698.3041707935242 L 930 699.0877254686134 L 940 699.8377693620679 L 950 700.5529856822578 L 960 701.2321187815177 L 970 701.8739763605854 L 980 702.4774315618262 L 990 703.0414249475659 L 1000 703.5649663600606 L 1010 704.0471366598357 L 1020 704.4870893393464 L 1030 704.8840520091219 L 1040 705.2373277537876 L 1050 705.5462963555834 L 1060 705.81041538323 L 1070 706.0292211442314 L 1080 706.2023294989433 L 1090 706.3294365349752 L 1100 706.4103191007454 L 1110 706.4448351972502 L 1120 706.4329242273601 L 1130 706.3746071022052 L 1140 706.2699862044634 L 1150 706.119245208615 L 1160 705.9226487584807 L 1170 705.6805420026076 L 1180 705.3933499883193 L 1190 705.0615769154953 L 1200 704.6858052513873 L 1210 704.2666947080286 L 1220 703.8049810840308 L 1230 703.3014749728017 L 1240 702.7570603394512 L 1250 702.1726929688855 L 1260 701.5493987878126 L 1270 700.8882720636049 L 1280 700.1904734831826 L 1290 699.4572281152891 L 1300 698.6898232597364 L 1310 697.8896061873967 L 1320 697.0579817749074 L 1330 696.1964100382423 L 1340 695.3064035694794 L 1350 694.3895248812646 L 1360 693.4473836636346 L 1370 692.4816339580132 L 1380 691.4939712533443 L 1390 690.4861295094589 L 1400 689.459878112901 L 1410 688.4170187705588 L 1420 687.3593823465521 L 1430 686.2888256479331 L 1440 685.2072281648386 L 1450 684.1164887708213 L 1460 683.0185223891502 L 1470 681.9152566309343 L 1480 680.8086284109709 L 1490 679.7005805472606 L 1500 678.5930583501583 L 1510 677.4880062071479 L 1520 676.3873641692386 L 1530 675.2930645449737 L 1540 674.2070285080315 L 1550 673.1311627243759 L 1560 672.067356004877 L 1570 671.0174759892769 L 1580 669.9833658673263 L 1590 668.9668411428441 L 1600 667.969686446384 L 1610 666.9936524021018 L 1620 666.0404525543264 L 1630 665.1117603592276 L 1640 664.209206246864 L 1650 663.3343747587685 L 1660 662.4888017660962 L 1670 661.6739717732195 L 1680 660.8913153115026 L 1690 660.142206427834 L 1700 659.4279602723223 L 1710 658.7498307893928 L 1720 658.1090085163396 L 1730 657.5066184931937 L 1740 656.9437182875822 L 1750 656.4212961380409 L 1760 655.9402692190442 L 1770 655.5014820307957 L 1780 655.105704916607 L 1790 654.7536327104682 L 1800 654.4458835171838 L 1810 654.1829976272161 L 1820 653.9654365681401 L 1830 653.7935822943778 L 1840 653.6677365166305 L 1850 653.5881201721904 L 1860 653.5548730370584 L 1870 653.5680534805509 L 1880 653.6276383628251 L 1890 653.7335230755043 L 1900 653.8855217253299 L 1910 654.0833674605196 L 1920 654.3267129392573 L 1930 654.6151309394932 L 1940 654.9481151089832 L 1950 655.3250808542507 L 1960 655.7453663669104 L 1970 656.2082337855517 L 1980 656.7128704911427 L 1990 657.2583905336797 L 2000 657.843836187579 L 2010 658.4681796330773 L 2020 659.1303247606932 L 2030 659.8291090955776 L 2040 660.5633058383776 L 2050 661.3316260190288 L 2060 662.1327207596967 L 2070 662.9651836428919 L 2080 663.8275531806056 L 2090 664.7183153801245 L 2100 665.6359064020271 L 2110 666.5787153056901 L 2120 667.5450868774868 L 2130 668.5333245367132 L 2140 669.5416933141368 L 2150 670.5684228979432 L 2160 671.6117107417297 L 2170 672.6697252290905 L 2180 673.7406088892386 L 2190 674.8224816580168 L 2200 675.9134441785758 L 2210 677.0115811359211 L 2220 678.1149646194777 L 2230 679.2216575077676 L 2240 680.329716869257 L 2250 681.4371973734056 L 2260 682.5421547059262 L 2270 683.6426489822607 L 2280 684.736748153279 L 2290 685.8225313972224 L 2300 686.8980924919352 L 2310 687.9615431614656 L 2320 689.011016391159 L 2330 690.0446697054265 L 2340 691.0606884024292 L 2350 692.0572887400056 L 2360 693.0327210672427 L 2370 693.9852728961979 L 2380 694.9132719083759 L 2390 695.8150888906833 L 2400 696.6891405957073 L 2410 697.5338925212948 L 2420 698.3478616045551 L 2430 699.1296188255532 L 2440 699.8777917161254 L 2450 700.5910667694109 L 2460 701.2681917458698 L 2470 701.9079778717395 L 2480 702.5093019260689 L 2490 703.0711082126668 L 2500 703.5924104135025 L 2510 704.0722933203054 L 2520 704.509914441322 L 2530 704.9045054804111 L 2540 705.2553736858788 L 2550 705.5619030666878 L 2560 705.8235554739022 L 2570 706.0398715454731 L 2580 706.2104715127031 L 2590 706.3350558669756 L 2600 706.413405885578 L 2610 706.4453840156955 L 2620 706.4309341159019 L 2630 706.3700815547218 L 2640 706.2629331660937 L 2650 706.1096770618104 L 2660 705.9105823012655 L 2670 705.6659984190885 L 2680 705.3763548114941 L 2690 705.0421599824266 L 2700 704.6640006508198 L 2710 704.2425407205428 L 2720 703.7785201148364 L 2730 703.2727534772902 L 2740 702.726128741638 L 2750 702.1396055728848 L 2760 701.5142136824994 L 2770 700.8510510206336 L 2780 700.1512818485394 L 2790 699.416134694569 L 2800 698.6469001973472 L 2810 697.8449288399006 L 2820 697.0116285787235 L 2830 696.1484623719423 L 2840 695.2569456109177 L 2850 694.3386434597941 L 2860 693.3951681076671 L 2870 692.4281759381931 L 2880 691.4393646216099 L 2890 690.4304701342735 L 2900 689.4032637109451 L 2910 688.359548735176 L 2920 687.3011575732532 L 2930 686.2299483572612 L 2940 685.1478017229088 L 2950 684.0566175078495 L 2960 682.9583114162888 L 2970 681.8548116557369 L 2980 680.7480555518101 L 2990 679.6399861470248 L 3000 678.5325487895535 L 3010 677.4276877179343 L 3020 676.3273426477277 L 3030 675.2334453661144 L 3040 674.1479163404126 L 3050 673.0726613464672 L 3060 672.0095681228338 L 3070 670.9605030566277 L 3080 669.9273079068583 L 3090 668.9117965710019 L 3100 667.9157519004871 L 3110 666.9409225706867 L 3120 665.9890200109095 L 3130 665.0617153997812 L 3140 664.1606367312911 L 3150 663.2873659566542 L 3160 662.4434362070067 L 3170 661.6303291018115 L 3180 660.8494721476981 L 3190 660.1022362323041 L 3200 659.3899332175185 L 3210 658.7138136363517 L 3220 658.0750644974744 L 3230 657.4748072012835 L 3240 656.914095571149 L 3250 656.393914003301 L 3260 655.9151757386055 L 3270 655.4787212592597 L 3280 655.0853168132265 L 3290 654.7356530689935 L 3300 654.4303439030228" fill="none" stroke="#10B981" stroke-opacity="0.04" stroke-width="1"/><path d="M -20 740 L 0 693.7983512789938 L 10 694.3235711872125 L 20 694.9112877027235 L 30 695.5606966845461 L 40 696.270909581207 L 50 697.0409546464981 L 60 697.8697782690649 L 70 698.7562464140054 L 80 699.6991461745107 L 90 700.6971874314188 L 100 701.7490046184167 L 110 702.8531585904707 L 120 704.0081385929318 L 130 705.2123643286199 L 140 706.4641881200599 L 150 707.7618971639107 L 160 709.1037158745013 L 170 710.4878083132702 L 180 711.9122807007811 L 190 713.3751840078803 L 200 714.8745166224483 L 210 716.408227088098 L 220 717.9742169110733 L 230 719.570343431505 L 240 721.1944227550972 L 250 722.844232741233 L 260 724.5175160434104 L 270 726.211983197848 L 280 727.925315756036 L 290 729.6551694569442 L 300 731.3991774345498 L 310 733.1549534562917 L 320 734.9200951880258 L 330 736.6921874810093 L 340 738.4688056764194 L 350 740.2475189228835 L 360 742.0258935024832 L 370 743.8014961606798 L 380 745.571897435606 L 390 747.3346749821684 L 400 749.0874168864116 L 410 750.8277249656117 L 420 752.5532180495804 L 430 754.2615352386929 L 440 755.9503391341796 L 450 757.617319036264 L 460 759.2601941057692 L 470 760.8767164848672 L 480 762.4646743727031 L 490 764.0218950516829 L 500 765.5462478602865 L 510 767.0356471083379 L 520 768.4880549307427 L 530 769.9014840757903 L 540 771.2740006242028 L 550 772.603726635214 L 560 773.8888427160545 L 570 775.1275905113291 L 580 776.3182751088806 L 590 777.4592673588469 L 600 778.5490061027393 L 610 779.5860003094924 L 620 780.568831115561 L 630 781.496153766276 L 640 782.3666994557994 L 650 783.1792770631635 L 660 783.9327747820178 L 670 784.626161641854 L 680 785.2584889186274 L 690 785.828891432846 L 700 786.3365887333478 L 710 786.7808861651513 L 720 787.1611758199143 L 730 787.4769373677025 L 740 787.7277387689285 L 750 787.9132368654889 L 760 788.0331778502891 L 770 788.0873976145136 L 780 788.0758219721677 L 790 787.9984667615815 L 800 787.8554378237405 L 810 787.6469308574674 L 820 787.3732311516592 L 830 787.0347131949411 L 840 786.6318401632739 L 850 786.1651632862153 L 860 785.6353210927017 L 870 785.0430385373841 L 880 784.3891260087105 L 890 783.6744782201156 L 900 782.9000729858324 L 910 782.0669698830008 L 920 781.1763088019056 L 930 780.2293083863261 L 940 779.22726436613 L 950 778.1715477843969 L 960 777.0636031214931 L 970 775.9049463186666 L 980 774.6971627038661 L 990 773.4419048226216 L 1000 772.1408901769555 L 1010 770.7958988754162 L 1020 769.4087711974513 L 1030 767.9814050754519 L 1040 766.5157534979137 L 1050 765.013821837267 L 1060 763.477665106034 L 1070 761.9093851450651 L 1080 760.3111277477024 L 1090 758.6850797238064 L 1100 757.0334659076609 L 1110 755.3585461138518 L 1120 753.6626120452844 L 1130 751.9479841575682 L 1140 750.2170084840633 L 1150 748.4720534259275 L 1160 746.7155065115613 L 1170 744.9497711298799 L 1180 743.1772632418854 L 1190 741.4004080750371 L 1200 739.6216368049429 L 1210 737.8433832289118 L 1220 736.0680804359196 L 1230 734.2981574775441 L 1240 732.5360360444243 L 1250 730.7841271527905 L 1260 729.0448278455999 L 1270 727.3205179127925 L 1280 725.6135566351506 L 1290 723.9262795562231 L 1300 722.2609952867252 L 1310 720.6199823457906 L 1320 719.0054860433969 L 1330 717.4197154082266 L 1340 715.8648401651735 L 1350 714.3429877666235 L 1360 712.8562404815755 L 1370 711.4066325465852 L 1380 709.9961473824277 L 1390 708.6267148802895 L 1400 707.3002087612018 L 1410 706.0184440123287 L 1420 704.7831744036175 L 1430 703.5960900882094 L 1440 702.4588152898936 L 1450 701.3729060807689 L 1460 700.3398482521541 L 1470 699.361055281659 L 1480 698.437866399199 L 1490 697.5715447545989 L 1500 696.7632756892923 L 1510 696.0141651144825 L 1520 695.3252379979841 L 1530 694.697436961814 L 1540 694.1316209924524 L 1550 693.6285642655379 L 1560 693.1889550866039 L 1570 692.8133949493077 L 1580 692.5023977124388 L 1590 692.2563888968334 L 1600 692.0757051031569 L 1610 691.9605935513518 L 1620 691.9112117423795 L 1630 691.9276272427201 L 1640 692.009817591925 L 1650 692.1576703333483 L 1660 692.3709831680155 L 1670 692.6494642314177 L 1680 692.9927324928547 L 1690 693.4003182767784 L 1700 693.8716639054252 L 1710 694.406124461856 L 1720 695.002968672362 L 1730 695.6613799070268 L 1740 696.3804572970777 L 1750 697.1592169674958 L 1760 697.9965933831995 L 1770 698.8914408069595 L 1780 699.8425348670484 L 1790 700.8485742324841 L 1800 701.9081823935707 L 1810 703.0199095453024 L 1820 704.1822345710549 L 1830 705.3935671238467 L 1840 706.6522498023262 L 1850 707.9565604185049 L 1860 709.3047143541345 L 1870 710.6948670025051 L 1880 712.1251162923206 L 1890 713.5935052902018 L 1900 715.0980248782525 L 1910 716.6366165030287 L 1920 718.2071749921456 L 1930 719.8075514346732 L 1940 721.4355561213753 L 1950 723.0889615407713 L 1960 724.7655054269204 L 1970 726.4628938547596 L 1980 728.1788043787568 L 1990 729.9108892105901 L 2000 731.6567784314996 L 2010 733.4140832349198 L 2020 735.1803991949569 L 2030 736.9533095562343 L 2040 738.7303885406103 L 2050 740.5092046662396 L 2060 742.2873240744394 L 2070 744.062313859809 L 2080 745.8317453990416 L 2090 747.5931976738809 L 2100 749.3442605836703 L 2110 751.0825382429637 L 2120 752.8056522596875 L 2130 754.5112449893667 L 2140 756.1969827609637 L 2150 757.8605590699148 L 2160 759.4996977339968 L 2170 761.112156007705 L 2180 762.695727650882 L 2190 764.2482459473968 L 2200 765.7675866697471 L 2210 767.2516709855256 L 2220 768.6984683017748 L 2230 770.1059990433383 L 2240 771.4723373614079 L 2250 772.795613768558 L 2260 774.0740176966664 L 2270 775.3057999742164 L 2280 776.4892752195949 L 2290 777.62282414711 L 2300 778.7048957825716 L 2310 779.7340095854073 L 2320 780.7087574744062 L 2330 781.6278057543209 L 2340 782.4898969406909 L 2350 783.2938514803918 L 2360 784.038569365554 L 2370 784.7230316386447 L 2380 785.3463017866526 L 2390 785.9075270224688 L 2400 786.4059394517093 L 2410 786.8408571233838 L 2420 787.2116849629726 L 2430 787.5179155866358 L 2440 787.7591299954379 L 2450 787.9349981486432 L 2460 788.045279415292 L 2470 788.0898229034428 L 2480 788.0685676666303 L 2490 787.981542787255 L 2500 787.8288673367907 L 2510 787.6107502128665 L 2520 787.3274898534423 L 2530 786.9794738284728 L 2540 786.5671783096161 L 2550 786.0911674187136 L 2560 785.5520924559323 L 2570 784.9506910086259 L 2580 784.2877859421333 L 2590 783.5642842738962 L 2600 782.7811759324362 L 2610 781.9395324028878 L 2620 781.040505260944 L 2630 780.0853245972156 L 2640 779.0752973341656 L 2650 778.0118054379163 L 2660 776.8963040273798 L 2670 775.7303193832965 L 2680 774.5154468599073 L 2690 773.2533487021155 L 2700 771.9457517711269 L 2710 770.5944451816779 L 2720 769.2012778540857 L 2730 767.76815598447 L 2740 766.2970404366072 L 2750 764.789944058985 L 2760 763.2489289307313 L 2770 761.6761035401797 L 2780 760.0736198999405 L 2790 758.4436706024151 L 2800 756.7884858197908 L 2810 755.1103302526158 L 2820 753.41150003113 L 2830 751.6943195735939 L 2840 749.9611384059117 L 2850 748.2143279469009 L 2860 746.4562782636073 L 2870 744.6893948011041 L 2880 742.916095091251 L 2890 741.1388054449145 L 2900 739.3599576321776 L 2910 737.5819855550784 L 2920 735.807321917433 L 2930 734.0383948962971 L 2940 732.2776248196221 L 2950 730.5274208546499 L 2960 728.790177711578 L 2970 727.0682723670072 L 2980 725.3640608116511 L 2990 723.6798748267606 L 3000 722.0180187936728 L 3010 720.38076654085 L 3020 718.7703582327214 L 3030 717.1889973045862 L 3040 715.6388474477732 L 3050 714.1220296491751 L 3060 712.6406192892183 L 3070 711.19664330223 L 3080 709.7920774030929 L 3090 708.4288433839806 L 3100 707.1088064848728 L 3110 705.8337728414468 L 3120 704.6054870138394 L 3130 703.4256295996586 L 3140 702.2958149345125 L 3150 701.2175888831999 L 3160 700.1924267245868 L 3170 699.2217311330613 L 3180 698.3068302593298 L 3190 697.4489759131789 L 3200 696.649341850692 L 3210 695.9090221682617 L 3220 695.2290298055958 L 3230 694.6102951597669 L 3240 694.0536648121996 L 3250 693.5599003703389 L 3260 693.1296774255832 L 3270 692.763584628909 L 3280 692.4621228854515 L 3290 692.2257046691427 L 3300 692.0546534583457" fill="none" stroke="#10B981" stroke-opacity="0.04" stroke-width="1"/></g>
  
  <defs><radialGradient id="center-glow" cx="50%" cy="50%" r="50%">
    <stop offset="0%" stop-color="#10B981" stop-opacity="0.12"/>
    <stop offset="100%" stop-color="#10B981" stop-opacity="0"/>
  </radialGradient></defs><ellipse cx="540" cy="540" rx="600" ry="600" fill="url(#center-glow)"/>
  
  <g transform="translate(540, 527) scale(2.5)">
    <g transform="translate(-200, -50)">
      
  <defs>
    <linearGradient id="grad1" x1="0%" y1="0%" x2="100%" y2="100%">
      <stop offset="0%" stop-color="#34D399"/>
      <stop offset="100%" stop-color="#10B981"/>
    </linearGradient>
  </defs>
  <g transform="translate(10, 45)">
    <polygon points="-20,-30 -5,-35 -5,20 -20,25" fill="url(#grad1)"/>
    <polygon points="-20,-30 -5,-35 -20,-15 -35,-10" fill="#34D399"/>
    <polygon points="-20,25 -5,20 -20,40 -35,35" fill="#059669"/>
    <polygon points="-5,-35 10,-15 10,20 -5,20" fill="#10B981"/>
    <polygon points="10,-15 25,-20 25,25 10,20" fill="#059669"/>
    <polygon points="10,-15 25,-20 10,0 -5,5" fill="#34D399"/>
    <polygon points="10,20 25,25 10,45 -5,40" fill="#059669"/>
  </g>
  <text x="55" y="58" font-family="Syne, sans-serif" font-size="48" font-weight="800" fill="#F0F4F8" letter-spacing="4">NEXA</text>

    </g>
  </g>
  
  <text x="540" y="620" font-family="Syne, sans-serif" font-weight="700" font-size="28" fill="#8A9BB0" text-anchor="middle" letter-spacing="8">TECNOLOGÍA QUE TRASCIENDE</text>
  
  <rect x="440" y="650" width="200" height="2" rx="1" fill="#10B981" opacity="0.4"/>
  
  <!-- Subtle corner decorations -->
  <line x1="80" y1="80" x2="180" y2="80" stroke="#10B981" stroke-opacity="0.15" stroke-width="1"/>
  <line x1="80" y1="80" x2="80" y2="180" stroke="#10B981" stroke-opacity="0.15" stroke-width="1"/>
  <line x1="1000" y1="1000" x2="900" y2="1000" stroke="#10B981" stroke-opacity="0.15" stroke-width="1"/>
  <line x1="1000" y1="1000" x2="1000" y2="900" stroke="#10B981" stroke-opacity="0.15" stroke-width="1"/>
  
  <text x="540" y="980" font-family="DM Mono, monospace" font-weight="400" font-size="10" fill="#5E7085" text-anchor="middle" opacity="0.5">2/3</text>
</svg>