<svg xmlns="http://www.w3.org/2000/svg" width="1080" height="1080" viewBox="0 0 1080 1080">
  <rect width="1080" height="1080" fill="#060A0E"/>
  <g><line x1="0" y1="0" x2="0" y2="1080" stroke="#F0F4F8" stroke-opacity="0.015" stroke-width="0.5"/><line x1="80" y1="0" x2="80" y2="1080" stroke="#F0F4F8" stroke-opacity="0.015" stroke-width="0.5"/><line x1="160" y1="0" x2="160" y2="1080" stroke="#F0F4F8" stroke-opacity="0.015" stroke-width="0.5"/><line x1="240" y1="0" x2="240" y2="1080" stroke="#F0F4F8" stroke-opacity="0.015" stroke-width="0.5"/><line x1="320" y1="0" x2="320" y2="1080" stroke="#F0F4F8" stroke-opacity="0.015" stroke-width="0.5"/><line x1="400" y1="0" x2="400" y2="1080" stroke="#F0F4F8" stroke-opacity="0.015" stroke-width="0.5"/><line x1="480" y1="0" x2="480" y2="1080" stroke="#F0F4F8" stroke-opacity="0.015" stroke-width="0.5"/><line x1="560" y1="0" x2="560" y2="1080" stroke="#F0F4F8" stroke-opacity="0.015" stroke-width="0.5"/><line x1="640" y1="0" x2="640" y2="1080" stroke="#F0F4F8" stroke-opacity="0.015" stroke-width="0.5"/><line x1="720" y1="0" x2="720" y2="1080" stroke="#F0F4F8" stroke-opacity="0.015" stroke-width="0.5"/><line x1="800" y1="0" x2="800" y2="1080" stroke="#F0F4F8" stroke-opacity="0.015" stroke-width="0.5"/><line x1="880" y1="0" x2="880" y2="1080" stroke="#F0F4F8" stroke-opacity="0.015" stroke-width="0.5"/><line x1="960" y1="0" x2="960" y2="1080" stroke="#F0F4F8" stroke-opacity="0.015" stroke-width="0.5"/><line x1="1040" y1="0" x2="1040" y2="1080" stroke="#F0F4F8" stroke-opacity="0.015" stroke-width="0.5"/><line x1="0" y1="0" x2="1080" y2="0" stroke="#F0F4F8" stroke-opacity="0.015" stroke-width="0.5"/><line x1="0" y1="80" x2="1080" y2="80" stroke="#F0F4F8" stroke-opacity="0.015" stroke-width="0.5"/><line x1="0" y1="160" x2="1080" y2="160" stroke="#F0F4F8" stroke-opacity="0.015" stroke-width="0.5"/><line x1="0" y1="240" x2="1080" y2="240" stroke="#F0F4F8" stroke-opacity="0.015" stroke-width="0.5"/><line x1="0" y1="320" x2="1080" y2="320" stroke="#F0F4F8" stroke-opacity="0.015" stroke-width="0.5"/><line x1="0" y1="400" x2="1080" y2="400" stroke="#F0F4F8" stroke-opacity="0.015" stroke-width="0.5"/><line x1="0" y1="480" x2="1080" y2="480" stroke="#F0F4F8" stroke-opacity="0.015" stroke-width="0.5"/><line x1="0" y1="560" x2="1080" y2="560" stroke="#F0F4F8" stroke-opacity="0.015" stroke-width="0.5"/><line x1="0" y1="640" x2="1080" y2="640" stroke="#F0F4F8" stroke-opacity="0.015" stroke-width="0.5"/><line x1="0" y1="720" x2="1080" y2="720" stroke="#F0F4F8" stroke-opacity="0.015" stroke-width="0.5"/><line x1="0" y1="800" x2="1080" y2="800" stroke="#F0F4F8" stroke-opacity="0.015" stroke-width="0.5"/><line x1="0" y1="880" x2="1080" y2="880" stroke="#F0F4F8" stroke-opacity="0.015" stroke-width="0.5"/><line x1="0" y1="960" x2="1080" y2="960" stroke="#F0F4F8" stroke-opacity="0.015" stroke-width="0.5"/><line x1="0" y1="1040" x2="1080" y2="1040" stroke="#F0F4F8" stroke-opacity="0.015" stroke-width="0.5"/></g>
  <g><path d="M -20 200 L 0 175.59578062759545 L 10 175.51930380749124 L 20 175.47874237902462 L 30 175.47415584947336 L 40 175.50555094769044 L 50 175.57288161423216 L 60 175.67604906893152 L 70 175.81490195581765 L 80 175.98923656516868 L 90 176.19879713237228 L 100 176.4432762131555 L 110 176.7223151346332 L 120 177.0355045215136 L 130 177.3823848966887 L 140 177.76244735532893 L 150 178.1751343114922 L 160 178.619840316153 L 170 179.0959129454506 L 180 179.60265375785406 L 190 180.13931931883874 L 200 180.70512229157202 L 210 181.2992325920074 L 220 181.9207786066929 L 230 182.56884847150653 L 240 183.24249140944346 L 250 183.94071912549157 L 260 184.66250725654956 L 270 185.40679687426004 L 280 186.1724960385531 L 290 186.95848139962098 L 300 187.7635998459736 L 310 188.58667019615734 L 320 189.4264849316547 L 330 190.28181196842323 L 340 191.15139646447383 L 350 192.0339626608374 L 360 192.92821575321838 L 370 193.83284379158957 L 380 194.74651960494123 L 390 195.6679027483608 L 400 196.59564146958675 L 410 197.52837469215092 L 420 198.46473401220086 L 430 199.4033457060716 L 440 200.34283274566252 L 450 201.2818168186617 L 460 202.2189203506547 L 470 203.15276852615054 L 480 204.08199130556002 L 490 205.00522543516774 L 500 205.92111644714822 L 510 206.82832064669253 L 520 207.72550708332992 L 530 208.61135950355228 L 540 209.484578281877 L 550 210.34388232751465 L 560 211.1880109638452 L 570 212.015725777944 L 580 212.82581243744576 L 590 213.61708247207957 L 600 214.3883750172621 L 610 215.13855851719077 L 620 215.86653238493832 L 630 216.57122861711315 L 640 217.2516133607168 L 650 217.90668842989948 L 660 218.53549277038903 L 670 219.13710386944425 L 680 219.7106391092643 L 690 220.25525706186875 L 700 220.77015872354843 L 710 221.25458868707602 L 720 221.70783624995667 L 730 222.12923645709256 L 740 222.51817107633227 L 750 222.8740695054731 L 760 223.19640960938602 L 770 223.48471848603498 L 780 223.738573160267 L 790 223.95760120435486 L 800 224.14148128438217 L 810 224.2899436316693 L 820 224.40277043854834 L 830 224.47979617790665 L 840 224.52090784603004 L 850 224.5260451283895 L 860 224.49520048812798 L 870 224.4284191771176 L 880 224.32579916957124 L 890 224.18749101830537 L 900 224.01369763386546 L 910 223.80467398683808 L 920 223.56072673378583 L 930 223.28221376735448 L 940 222.96954369121235 L 950 222.6231752205916 L 960 222.24361650931166 L 970 221.8314244042718 L 980 221.3872036285062 L 990 220.91160589400096 L 1000 220.40532894557356 L 1010 219.86911553721822 L 1020 219.30375234241893 L 1030 218.71006880002818 L 1040 218.0889358974054 L 1050 217.4412648925998 L 1060 216.7680059774527 L 1070 216.07014688358004 L 1080 215.34871143328112 L 1090 214.6047580374988 L 1100 213.8393781430351 L 1110 213.05369463130006 L 1120 212.24886017094357 L 1130 211.42605552678617 L 1140 210.5864878275306 L 1150 209.73138879479484 L 1160 208.8620129360655 L 1170 207.97963570422186 L 1180 207.08555162633152 L 1190 206.18107240446213 L 1200 205.2675249912962 L 1210 204.34624964337155 L 1220 203.4185979548041 L 1230 202.4859308743772 L 1240 201.5496167089068 L 1250 200.61102911581202 L 1260 199.67154508783548 L 1270 198.73254293287079 L 1280 197.79540025186026 L 1290 196.86149191773006 L 1300 195.9321880583274 L 1310 195.0088520463195 L 1320 194.09283849900248 L 1330 193.18549129095567 L 1340 192.28814158245618 L 1350 191.40210586654666 L 1360 190.52868403762113 L 1370 189.66915748436247 L 1380 188.82478720982962 L 1390 187.99681198145217 L 1400 187.1864465136467 L 1410 186.3948796857211 L 1420 185.62327279768124 L 1430 184.87275786649906 L 1440 184.14443596534136 L 1450 183.43937560819623 L 1460 182.75861118226632 L 1470 182.10314143042967 L 1480 181.47392798599347 L 1490 180.87189396189143 L 1500 180.29792259639362 L 1510 179.75285595731617 L 1520 179.23749370663182 L 1530 178.75259192729357 L 1540 178.29886201399268 L 1550 177.8769696294785 L 1560 177.4875337279712 L 1570 177.1311256470998 L 1580 176.8082682696984 L 1590 176.51943525669 L 1600 176.26505035218293 L 1610 176.04548676180008 L 1620 175.86106660515264 L 1630 175.71206044326138 L 1640 175.59868688161936 L 1650 175.5211122494778 L 1660 175.47945035582612 L 1670 175.47376232242394 L 1680 175.5040564941298 L 1690 175.5702884266586 L 1700 175.67236095178535 L 1710 175.8101243198997 L 1720 175.9833764197022 L 1730 176.19186307471983 L 1740 176.4352784162057 L 1750 176.71326533187627 L 1760 177.02541598982725 L 1770 177.37127243685987 L 1780 177.75032727033945 L 1790 178.1620243826011 L 1800 178.60575977680955 L 1810 179.08088245307744 L 1820 179.5866953635405 L 1830 180.12245643499014 L 1840 180.68737965756145 L 1850 181.28063623788094 L 1860 181.9013558149811 L 1870 182.5486277371985 L 1880 183.2215023981821 L 1890 183.9189926300515 L 1900 184.64007515166116 L 1910 185.3836920698466 L 1920 186.1487524314488 L 1930 186.9341338238412 L 1940 187.7386840216103 L 1950 188.56122267697447 L 1960 189.40054305146052 L 1970 190.25541378629825 L 1980 191.12458070893467 L 1990 192.0067686730186 L 2000 192.90068342915538 L 2010 193.8050135236876 L 2020 194.71843222271605 L 2030 195.63959945853813 L 2040 196.56716379564818 L 2050 197.49976441341536 L 2060 198.4360331025304 L 2070 199.37459627229202 L 2080 200.31407696578896 L 2090 201.25309688001954 L 2100 202.190278387987 L 2110 203.12424655980257 L 2120 204.05363117983163 L 2130 204.97706875692393 L 2140 205.8932045247782 L 2150 206.80069442950656 L 2160 207.69820710148295 L 2170 208.58442580858255 L 2180 209.4580503879468 L 2190 210.31779915343958 L 2200 211.16241077599656 L 2210 211.99064613410883 L 2220 212.801290131726 L 2230 213.59315348091175 L 2240 214.36507444663675 L 2250 215.1159205511488 L 2260 215.84459023541984 L 2270 216.55001447523267 L 2280 217.23115834953578 L 2290 217.8870225587662 L 2300 218.5166448909121 L 2310 219.11910163316455 L 2320 219.6935089270878 L 2330 220.23902406531943 L 2340 220.7548467278979 L 2350 221.24022015640438 L 2360 221.69443226419568 L 2370 222.11681668109958 L 2380 222.50675373104005 L 2390 222.86367134115804 L 2400 223.18704588109398 L 2410 223.47640293120082 L 2420 223.73131797856047 L 2430 223.95141703978257 L 2440 224.1363772096719 L 2450 224.28592713495948 L 2460 224.3998474124023 L 2470 224.47797091066766 L 2480 224.52018301552997 L 2490 224.5264217980201 L 2500 224.4966781052809 L 2510 224.43099557399506 L 2520 224.3294705663664 L 2530 224.19225202874765 L 2540 224.0195412731227 L 2550 223.81159168176387 L 2560 223.5687083354971 L 2570 223.2912475661209 L 2580 222.97961643363547 L 2590 222.63427212904884 L 2600 222.2557213036364 L 2610 221.8445193256378 L 2620 221.40126946548153 L 2630 220.9266220107328 L 2640 220.42127331206285 L 2650 219.8859647616398 L 2660 219.32148170543923 L 2670 218.7286522910709 L 2680 218.1083462528113 L 2690 217.461473635625 L 2700 216.78898346004655 L 2710 216.09186232988154 L 2720 215.37113298476987 L 2730 214.6278527997344 L 2740 213.86311223391613 L 2750 213.07803323077232 L 2760 212.27376757208413 L 2770 211.4514951881887 L 2780 210.6124224269149 L 2790 209.75778028376203 L 2800 208.8888225959184 L 2810 208.0068242027689 L 2820 207.11307907559052 L 2830 206.2088984191796 L 2840 205.2956087481962 L 2850 204.37454994104704 L 2860 203.44707327416322 L 2870 202.51453943955545 L 2880 201.57831654855607 L 2890 200.6397781246763 L 2900 199.70030108852305 L 2910 198.76126373773226 L 2920 197.8240437248818 L 2930 196.89001603635052 L 2940 195.96055097508943 L 2950 195.03701215026334 L 2960 194.1207544767131 L 2970 193.21312218717327 L 2980 192.31544686016127 L 2990 191.4290454664315 L 3000 190.55521843686034 L 3010 189.69524775459664 L 3020 188.85039507427666 L 3030 188.02189987106283 L 3040 187.21097762222178 L 3050 186.41881802390944 L 3060 185.6465832457794 L 3070 184.89540622597497 L 3080 184.16638900900682 L 3090 183.46060112895407 L 3100 182.7790780403611 L 3110 182.12281959913267 L 3120 181.49278859565456 L 3130 180.88990934229332 L 3140 180.3150663173467 L 3150 179.7691028674339 L 3160 179.25281997023012 L 3170 178.76697505935996 L 3180 178.31228091317382 L 3190 177.88940460903777 L 3200 177.49896654467076 L 3210 177.14153952796534 L 3220 176.81764793662643 L 3230 176.52776694886222 L 3240 176.27232184625473 L 3250 176.0516873898331 L 3260 175.86618727026573 L 3270 175.71609363297645 L 3280 175.60162667888298 L 3290 175.52295434134192 L 3300 175.4801920397757" fill="none" stroke="#10B981" stroke-opacity="0.04" stroke-width="1"/><path d="M -20 260 L 0 222.7888028155248 L 10 221.8240215298115 L 20 220.91194907660102 L 30 220.05384473662667 L 40 219.2508932778955 L 50 218.50420331990176 L 60 217.8148058029777 L 70 217.18365256489417 L 80 216.61161502667673 L 90 216.09948298945147 L 100 215.64796354398212 L 110 215.25768009440327 L 120 214.9291714974986 L 130 214.6628913187118 L 140 214.4592072059173 L 150 214.31840038181628 L 160 214.24066525565786 L 170 214.2261091548219 L 180 214.2747521766343 L 190 214.38652716061898 L 200 214.561279781225 L 210 214.798768760901 L 220 215.09866620322217 L 230 215.46055804561075 L 240 215.883944631024 L 250 216.3682413978212 L 260 216.9127796868562 L 270 217.51680766468257 L 280 218.17949136159504 L 290 218.89991582307556 L 300 219.67708637305313 L 310 220.50992998723382 L 320 221.39729677460446 L 330 222.33796156506492 L 340 223.3306256009967 L 350 224.3739183304324 L 360 225.46639929935012 L 370 226.60656014048038 L 380 227.79282665587965 L 390 229.02356099039474 L 400 230.29706389301782 L 410 231.61157706300904 L 420 232.96528557754846 L 430 234.35632039756467 L 440 235.78276094828072 L 450 237.2426377709146 L 460 238.7339352418725 L 470 240.25459435568138 L 480 241.80251556781784 L 490 243.37556169350844 L 500 244.97156085849926 L 510 246.58830949772042 L 520 248.2235753977059 L 530 249.87510077856695 L 540 251.54060541126535 L 550 253.21778976588104 L 560 254.90433818652863 L 570 256.59792208853855 L 580 258.2962031734888 L 590 259.9968366576478 L 600 261.6974745093721 L 610 263.39576869098823 L 620 265.08937440068246 L 630 266.77595330992307 L 640 268.45317679194557 L 650 270.11872913684203 L 660 271.7703107488173 L 670 273.4056413211958 L 680 275.0224629847969 L 690 276.61854342533115 L 700 278.19167896551323 L 710 279.73969760763634 L 720 281.26046203240736 L 730 282.75187254990203 L 740 284.2118699985661 L 750 285.6384385882599 L 760 287.02960868342035 L 770 288.38345952249887 L 780 289.6981218699192 L 790 290.971780596895 L 800 292.2026771875429 L 810 293.3891121668311 L 820 294.5294474470116 L 830 295.6221085892962 L 840 296.66558697765356 L 850 297.65844190172623 L 860 298.5993025459912 L 870 299.48686988241826 L 880 300.3199184640133 L 890 301.0972981167686 L 900 301.817935527686 L 910 302.48083572667935 L 920 303.0850834603104 L 930 303.62984445546135 L 940 304.1143665711997 L 950 304.53798083724445 L 960 304.90010237760055 L 970 305.20023121808583 L 980 305.43795297663553 L 990 305.61293943543166 L 1000 305.72494899406684 L 1010 305.77382700311756 L 1020 305.7595059776654 L 1030 305.6820056904723 L 1040 305.54143314468047 L 1050 305.3379824260755 L 1060 305.07193443511574 L 1070 304.74365649909845 L 1080 304.35360186499827 L 1090 303.90230907367777 L 1100 303.3904012163346 L 1110 302.8185850742117 L 1120 302.1876501427577 L 1130 301.4984675415867 L 1140 300.7519888117393 L 1150 299.9492446019093 L 1160 299.0913432454464 L 1170 298.17946923010214 L 1180 297.21488156263075 L 1190 296.1989120305024 L 1200 295.1329633631311 L 1210 294.0185072951524 L 1220 292.8570825344284 L 1230 291.6502926375839 L 1240 290.3998037960063 L 1250 289.10734253536805 L 1260 287.7746933318459 L 1270 286.4036961483293 L 1280 284.99624389401936 L 1290 283.5542798109258 L 1300 282.0797947908706 L 1310 280.57482462670225 L 1320 279.04144720151567 L 1330 277.4817796197603 L 1340 275.8979752841938 L 1350 274.29222092272187 L 1360 272.6667335692248 L 1370 271.02375750254157 L 1380 269.3655611478388 L 1390 267.69443394463855 L 1400 266.01268318583493 L 1410 264.32263083205896 L 1420 262.6266103057926 L 1430 260.92696326965785 L 1440 259.22603639332846 L 1450 257.52617811352854 L 1460 255.82973539159215 L 1470 254.1390504730584 L 1480 252.45645765377924 L 1490 250.78428005700232 L 1500 249.12482642587938 L 1510 247.4803879358303 L 1520 245.85323503116058 L 1530 244.24561429030382 L 1540 242.65974532401407 L 1550 241.09781771079219 L 1560 239.56198797377806 L 1570 238.05437660327988 L 1580 236.5770651290552 L 1590 235.13209324638294 L 1600 233.72145599989534 L 1610 232.3471010290592 L 1620 231.01092587910742 L 1630 229.71477538113507 L 1640 228.46043910497752 L 1650 227.24964888838522 L 1660 226.08407644590963 L 1670 224.96533106079912 L 1680 223.8949573630926 L 1690 222.8744331969795 L 1700 221.90516758036807 L 1710 220.98849875948238 L 1720 220.12569236117156 L 1730 219.31793964548314 L 1740 218.56635586091377 L 1750 217.87197870460705 L 1760 217.23576688962524 L 1770 216.6585988212729 L 1780 216.14127138429947 L 1790 215.68449884265624 L 1800 215.28891185332577 L 1810 214.95505659558614 L 1820 214.68339401691182 L 1830 214.47429919655238 L 1840 214.3280608276679 L 1850 214.2448808187359 L 1860 214.22487401478023 L 1870 214.2680680388068 L 1880 214.37440325366504 L 1890 214.54373284438765 L 1900 214.7758230208953 L 1910 215.070353340786 L 1920 215.42691715176377 L 1930 215.84502215309539 L 1940 216.32409107532078 L 1950 216.8634624772773 L 1960 217.46239165933923 L 1970 218.12005169160966 L 1980 218.8355345556468 L 1990 219.60785239814743 L 2000 220.4359388948564 L 2010 221.3186507228205 L 2020 222.25476913895167 L 2030 223.24300166272215 L 2040 224.28198386066748 L 2050 225.37028123023273 L 2060 226.50639118036304 L 2070 227.68874510610138 L 2080 228.91571055433113 L 2090 230.18559347767263 L 2100 231.4966405734212 L 2110 232.84704170429825 L 2120 234.23493239767294 L 2130 235.65839641980278 L 2140 237.1154684215411 L 2150 238.60413665185587 L 2160 240.12234573541556 L 2170 241.6679995104059 L 2180 243.23896392266005 L 2190 244.8330699721053 L 2200 246.44811670745983 L 2210 248.08187426504298 L 2220 249.73208694750537 L 2230 251.39647633822577 L 2240 253.07274444707718 L 2250 254.75857688321696 L 2260 256.4516460505214 L 2270 258.1496143612527 L 2280 259.85013746352064 L 2290 261.55086747808394 L 2300 263.2494562400215 L 2310 264.9435585407984 L 2320 266.6308353662493 L 2330 268.3089571260102 L 2340 269.9756068699387 L 2350 271.6284834870819 L 2360 273.26530488277587 L 2370 274.8838111294892 L 2380 276.48176758706114 L 2390 278.05696798802603 L 2400 279.6072374837639 L 2410 281.1304356472718 L 2420 282.6244594284095 L 2430 284.0872460575406 L 2440 285.51677589355774 L 2450 286.91107521236285 L 2460 288.2682189319488 L 2470 289.5863332703232 L 2480 290.8635983326028 L 2490 292.09825062370703 L 2500 293.28858548318146 L 2510 294.43295943878906 L 2520 295.529792475621 L 2530 296.57757021759204 L 2540 297.57484601831067 L 2550 298.52024295843523 L 2560 299.41245574676003 L 2570 300.2502525224055 L 2580 301.03247655562467 L 2590 301.75804784487724 L 2600 302.4259646079671 L 2610 303.03530466518316 L 2620 303.5852267125354 L 2630 304.07497148332675 L 2640 304.50386279645767 L 2650 304.87130849001665 L 2660 305.1768012388665 L 2670 305.4199192550983 L 2680 305.60032687038586 L 2690 305.71777499943624 L 2700 305.7721014838973 L 2710 305.7632313162464 L 2720 305.69117674335183 L 2730 305.5560372495639 L 2740 305.3579994193586 L 2750 305.09733667972444 L 2760 304.7744089226466 L 2770 304.38966200821164 L 2780 303.9436271490165 L 2790 303.436920176734 L 2800 302.87024069184605 L 2810 302.24437109771844 L 2820 301.56017552035206 L 2830 300.81859861530086 L 2840 300.0206642634041 L 2850 299.167474157134 L 2860 298.26020627951044 L 2870 297.30011327768256 L 2880 296.2885207334233 L 2890 295.226825332924 L 2900 294.1164929384174 L 2910 292.9590565642898 L 2920 291.75611426047783 L 2930 290.5093269060721 L 2940 289.2204159161733 L 2950 287.89116086516844 L 2960 286.52339702970636 L 2970 285.11901285476745 L 2980 283.6799473463236 L 2990 282.2081873941912 L 3000 280.7057650287701 L 3010 279.17475461545934 L 3020 277.61726999062057 L 3030 276.0354615430455 L 3040 274.4315132449559 L 3050 272.8076396366353 L 3060 271.1660827688565 L 3070 269.50910910732506 L 3080 267.83900640341477 L 3090 266.15808053551336 L 3100 264.4686523253409 L 3110 262.7730543336366 L 3120 261.0736276396369 L 3130 259.3727186087936 L 3140 257.672675653192 L 3150 255.9758459891443 L 3160 254.28457239643305 L 3170 252.60118998368128 L 3180 250.92802296431296 L 3190 249.26738144755663 L 3200 247.62155824892253 L 3210 245.99282572455655 L 3220 244.38343263384255 L 3230 242.7956010345834 L 3240 241.23152321504972 L 3250 239.69335866712888 L 3260 238.18323110475774 L 3270 236.7032255317509 L 3280 235.25538536307707 L 3290 233.84170960355536 L 3300 232.46415008786855" fill="none" stroke="#10B981" stroke-opacity="0.04" stroke-width="1"/><path d="M -20 320 L 0 356.09309517385265 L 10 356.78238525064285 L 20 357.41839653451257 L 30 358.0002077716263 L 40 358.5269762161913 L 50 358.99793885116327 L 60 359.41241349346643 L 70 359.76979978212677 L 80 360.06958004788663 L 90 360.3113200630419 L 100 360.49466967041485 L 110 360.61936329055226 L 120 360.6852203064136 L 130 360.6921453249926 L 140 360.64012831549246 L 150 360.5292446238555 L 160 360.35965486362545 L 170 360.1316046833012 L 180 359.84542441051775 L 190 359.50152857357136 L 200 359.1004153009809 L 210 358.6426655999552 L 220 358.12894251481185 L 230 357.55999016656654 L 240 356.9366326750837 L 250 356.2597729653497 L 260 355.5303914595984 L 270 354.74954465718235 L 280 353.9183636042479 L 290 353.03805225542965 L 300 352.1098857299387 L 310 351.13520846456913 L 320 350.11543226629965 L 330 349.05203426730964 L 340 347.94655478537334 L 350 346.8005950927301 L 360 345.6158150966627 L 370 344.3939309351443 L 380 343.13671249103504 L 390 341.8459808284308 L 400 340.52360555487604 L 410 339.17150211326236 L 420 337.79162900733496 L 430 336.3859849648263 L 440 334.9566060423258 L 450 333.50556267607885 L 460 332.0349566829878 L 470 330.54691821615825 L 480 329.04360267940086 L 490 327.5271876051576 L 500 325.9998695003752 L 510 324.4638606648943 L 520 322.9213859869628 L 530 321.3746797205146 L 540 319.8259822488833 L 550 318.27753683963624 L 560 316.73158639523194 L 570 315.19037020420575 L 580 313.6561206975903 L 590 312.131060215269 L 600 310.6173977869466 L 610 309.11732593239907 L 620 307.6330174856381 L 630 306.16662244759016 L 640 304.7202648718488 L 650 303.29603978801157 L 660 301.89601016705745 L 670 300.5222039331614 L 680 299.17661102627284 L 690 297.8611805197146 L 700 296.5778177969762 L 710 295.3283817917913 L 720 294.11468229549695 L 730 292.9384773355755 L 740 291.8014706291748 L 750 290.70530911529687 L 760 289.65158056922894 L 770 288.6418113026721 L 780 287.6774639528992 L 790 286.75993536414416 L 800 285.89055456429213 L 810 285.07058083980024 L 820 284.30120191163786 L 830 283.5835322148888 L 840 282.9186112845071 L 850 282.30740224956435 L 860 281.75079043817027 L 870 281.2495820950866 L 880 280.8045032138927 L 890 280.4161984853932 L 900 280.0852303637921 L 910 279.81207825198555 L 920 279.59713780715293 L 930 279.4407203676529 L 940 279.34305250205387 L 950 279.3042756809524 L 960 279.3244460720551 L 970 279.4035344588203 L 980 279.5414262827779 L 990 279.7379218094657 L 1000 279.99273641774244 L 1010 280.305501012057 L 1020 280.67576255707905 L 1030 281.1029847339145 L 1040 281.586548716956 L 1050 282.1257540702437 L 1060 282.71981976203756 L 1070 283.367885296131 L 1080 284.06901195826845 L 1090 284.8221841758601 L 1100 285.6263109890258 L 1110 286.480227630835 L 1120 287.38269721445664 L 1130 288.33241252477313 L 1140 289.32799791186386 L 1150 290.36801128361554 L 1160 291.45094619457376 L 1170 292.5752340280086 L 1180 293.7392462680353 L 1190 294.9412968584976 L 1200 296.1796446451976 L 1210 297.45249589793417 L 1220 298.75800690869744 L 1230 300.09428666225483 L 1240 301.4593995752614 L 1250 302.8513682999268 L 1260 304.2681765881765 L 1270 305.70777221216076 L 1280 307.1680699368786 L 1290 308.6469545406132 L 1300 310.14228387880235 L 1310 311.6518919869056 L 1320 313.17359221777576 L 1330 314.7051804089873 L 1340 316.2444380755365 L 1350 317.7891356232873 L 1360 319.33703557850833 L 1370 320.8858958288241 L 1380 322.4334728708843 L 1390 323.9775250600486 L 1400 325.5158158573792 L 1410 327.04611706923697 L 1420 328.56621207479066 L 1430 330.0738990367622 L 1440 331.5669940907586 L 1450 333.04333450857047 L 1460 334.5007818308547 L 1470 335.93722496466427 L 1480 337.3505832413382 L 1490 338.73880943032214 L 1500 340.09989270455463 L 1510 341.43186155312287 L 1520 342.73278663697045 L 1530 344.00078358351846 L 1540 345.23401571615443 L 1550 346.430696714634 L 1560 347.5890932025411 L 1570 348.70752725806153 L 1580 349.7843788444294 L 1590 350.81808815652914 L 1600 351.80715788025236 L 1610 352.75015536133697 L 1620 353.64571468054817 L 1630 354.4925386321938 L 1640 355.2894006031097 L 1650 356.0351463493922 L 1660 356.72869566830536 L 1670 357.36904396293966 L 1680 357.9552636973577 L 1690 358.48650574011714 L 1700 358.9620005942267 L 1710 359.38105951175186 L 1720 359.7430754914572 L 1730 360.0475241580396 L 1740 360.2939645216787 L 1750 360.48203961680497 L 1760 360.61147701915934 L 1770 360.6820892403963 L 1780 360.69377399965816 L 1790 360.64651437172733 L 1800 360.5403788115427 L 1810 360.3755210550432 L 1820 360.15217989648335 L 1830 359.87067884254327 L 1840 359.5314256437335 L 1850 359.1349117037734 L 1860 358.6817113678002 L 1870 358.172481090437 L 1880 357.6079584849275 L 1890 356.9889612547132 L 1900 356.3163860090002 L 1910 355.59120696403363 L 1920 354.8144745319578 L 1930 353.98731379930854 L 1940 353.1109228973406 L 1950 352.18657126655 L 1960 351.21559781790705 L 1970 350.1994089934613 L 1980 349.1394767291293 L 1990 348.03733632261503 L 2000 346.8945842095516 L 2010 345.71287565108594 L 2020 344.4939223362547 L 2030 343.2394899026258 L 2040 341.9513953787964 L 2050 340.6315045524506 L 2060 339.2817292677915 L 2070 337.90402465626005 L 2080 336.5003863045537 L 2090 335.0728473640454 L 2100 333.6234756057914 L 2110 332.1543704253921 L 2120 330.6676598020462 L 2130 329.1654972162006 L 2140 327.6500585302635 L 2150 326.1235388368961 L 2160 324.5881492794509 L 2170 323.04611384915967 L 2180 321.49966616371216 L 2190 319.9510462318908 L 2200 318.40249720894747 L 2210 316.8562621474239 L 2220 315.3145807481194 L 2230 313.77968611591456 L 2240 312.25380152514873 L 2250 310.7391371992365 L 2260 309.2378871091892 L 2270 307.75222579567696 L 2280 306.2843052192355 L 2290 304.83625164318045 L 2300 303.4101625537429 L 2310 302.0081036218893 L 2320 300.63210571122414 L 2330 299.2841619363113 L 2340 297.96622477567456 L 2350 296.68020324365824 L 2360 295.4279601252457 L 2370 294.2113092778401 L 2380 293.0320130039161 L 2390 291.8917794983488 L 2400 290.7922603741155 L 2410 289.73504826995713 L 2420 288.7216745434621 L 2430 287.7536070529151 L 2440 286.8322480311244 L 2450 285.9589320543061 L 2460 285.1349241089684 L 2470 284.3614177595957 L 2480 283.63953341978623 L 2490 282.97031672934804 L 2500 282.35473703970376 L 2510 281.79368600979785 L 2520 281.28797631454086 L 2530 280.8383404676603 L 2540 280.44542976066487 L 2550 280.10981331945663 L 2560 279.8319772799606 L 2570 279.61232408396273 L 2580 279.45117189617866 L 2590 279.3487541433963 L 2600 279.30521917636037 L 2610 279.32063005488806 L 2620 279.3949644565281 L 2630 279.52811470889424 L 2640 279.71988794562725 L 2650 279.97000638575963 L 2660 280.27810773607706 L 2670 280.6437457158958 L 2680 281.06639070349405 L 2690 281.54543050326174 L 2700 282.0801712324581 L 2710 282.66983832629126 L 2720 283.3135776598649 L 2730 284.0104567853672 L 2740 284.7594662827083 L 2750 285.5595212216524 L 2760 286.4094627333245 L 2770 287.30805968881634 L 2780 288.2540104824604 L 2790 289.2459449171879 L 2800 290.2824261892415 L 2810 291.3619529693657 L 2820 292.48296157746256 L 2830 293.64382824756143 L 2840 294.84287147982195 L 2850 296.0783544761643 L 2860 297.348487655998 L 2870 298.6514312484052 L 2880 299.9852979570245 L 2890 301.34815569377446 L 2900 302.7380303774572 L 2910 304.1529087931887 L 2920 305.5907415085134 L 2930 307.0494458419803 L 2940 308.5269088798783 L 2950 310.02099053676426 L 2960 311.52952665534764 L 2970 313.05033214124336 L 2980 314.58120412805226 L 2990 316.1199251681831 L 3000 317.66426644479594 L 3010 319.2119910002135 L 3020 320.7608569761244 L 3030 322.30862086088496 L 3040 323.8530407392157 L 3050 325.39187953958606 L 3060 326.9229082745817 L 3070 328.44390926956385 L 3080 329.95267937494094 L 3090 331.4470331574012 L 3100 332.924806065484 L 3110 334.38385756490317 L 3120 335.82207423908255 L 3130 337.23737285041165 L 3140 338.62770335778737 L 3150 339.9910518860712 L 3160 341.32544364316027 L 3170 342.62894578044734 L 3180 343.8996701925263 L 3190 345.1357762520873 L 3200 346.3354734760411 L 3210 347.4970241190097 L 3220 348.6187456904272 L 3230 349.6990133916051 L 3240 350.7362624692312 L 3250 351.72899048189396 L 3260 352.67575947634896 L 3270 353.5751980703745 L 3280 354.42600343920094 L 3290 355.22694320263446 L 3300 355.97685721014363" fill="none" stroke="#10B981" stroke-opacity="0.04" stroke-width="1"/><path d="M -20 380 L 0 395.17968978760814 L 10 396.4716122409709 L 20 397.72607890576853 L 30 398.940237174893 L 40 400.1113261009187 L 50 401.2366826743865 L 60 402.313747879381 L 70 403.34007251263074 L 80 404.3133227528982 L 90 405.23128546799654 L 100 406.09187324736365 L 110 406.8931291487503 L 120 407.63323114822896 L 130 408.31049628340327 L 140 408.9233844803973 L 150 409.47050205592234 L 160 409.9506048864566 L 170 410.36260123733274 L 180 410.7055542452989 L 190 410.97868404890824 L 200 411.1813695618928 L 210 411.31314988548866 L 220 411.3737253565017 L 230 411.36295822872955 L 240 411.2808729861907 L 250 411.1276562874493 L 260 410.90365654116073 L 270 410.6093831138043 L 280 410.2455051714042 L 290 409.8128501578726 L 300 409.3124019134356 L 310 408.7452984374193 L 320 408.1128293004851 L 330 407.4164327121975 L 340 406.6576922505928 L 350 405.8383332611861 L 360 404.9602189336044 L 370 404.0253460647675 L 380 403.03584051825214 L 390 401.9939523901626 L 400 400.90205089250196 L 410 399.76261896567905 L 420 398.57824763240086 L 430 397.3516301057901 L 440 396.08555566512655 L 450 394.78290331313707 L 460 393.4466352292583 L 470 392.07979003375914 L 480 390.6854758780395 L 490 389.2668633768178 L 500 387.8271783982802 L 510 386.3696947285848 L 520 384.89772662740285 L 530 383.4146212914243 L 540 381.92375124296643 L 550 380.4285066609927 L 560 378.9322876719811 L 570 377.4384966181723 L 580 375.9505303207792 L 590 374.4717723557514 L 600 373.0055853596581 L 610 371.55530338318727 L 620 370.1242243096471 L 630 368.7156023557115 L 640 367.3326406714609 L 650 365.97848405654696 L 660 364.65621180904395 L 670 363.3688307232475 L 680 362.11926825234497 L 690 360.91036585150306 L 700 359.7448725165129 L 710 358.6254385326829 L 720 357.5546094481961 L 730 356.5348202856351 L 740 355.5683900048378 L 750 354.6575162296757 L 760 353.8042702507445 L 770 353.0105923153322 L 780 352.27828721537446 L 790 351.6090201834294 L 800 351.00431310600544 L 810 350.46554106285225 L 820 349.9939292000841 L 830 349.59054994424656 L 840 349.2563205636616 L 850 348.9920010825956 L 860 348.798192552995 L 870 348.6753356877176 L 880 348.6237098583699 L 890 348.6434324600265 L 900 348.73445864427856 L 910 348.89658142121766 L 920 349.1294321301222 L 930 349.4324812777773 L 940 349.8050397425211 L 950 350.2462603412802 L 960 350.7551397560299 L 970 351.3305208152993 L 980 351.9710951255331 L 990 352.6754060463265 L 1000 353.44185200276695 L 1010 354.2686901273519 L 1020 355.15404022319944 L 1030 356.09588903954165 L 1040 357.0920948497758 L 1050 358.14039232166544 L 1060 359.23839766861545 L 1070 360.38361407030743 L 1080 361.5734373503697 L 1090 362.8051618981701 L 1100 364.0759868212666 L 1110 365.383022314525 L 1120 366.72329623142036 L 1130 368.09376084257946 L 1140 369.49129976619577 L 1150 370.9127350545573 L 1160 372.3548344205727 L 1170 373.8143185878631 L 1180 375.2878687477058 L 1190 376.77213410587234 L 1200 378.2637395022015 L 1210 379.759293085578 L 1220 381.25539402686707 L 1230 382.7486402522638 L 1240 384.2356361794734 L 1250 385.71300043912925 L 1260 387.1773735638926 L 1270 388.6254256277465 L 1280 390.0538638181148 L 1290 391.4594399235867 L 1300 392.83895772021947 L 1310 394.1892802396244 L 1320 395.5073369023073 L 1330 396.7901305000441 L 1340 398.0347440114122 L 1350 399.23834723498123 L 1360 400.3982032250776 L 1370 401.51167451549003 L 1380 402.57622911696234 L 1390 403.5894462748357 L 1400 404.54902197374855 L 1410 405.45277417687487 L 1420 406.29864778778943 L 1430 407.0847193236747 L 1440 407.80920128924384 L 1450 408.47044624143405 L 1460 409.0669505356259 L 1470 409.59735774487126 L 1480 410.06046174435426 L 1490 410.45520945407065 L 1500 410.78070323348976 L 1510 411.03620292275343 L 1520 411.22112752576976 L 1530 411.3350565313751 L 1540 411.37773086955946 L 1550 411.34905350058176 L 1560 411.2490896356341 L 1570 411.07806658855407 L 1580 410.8363732589221 L 1590 410.5245592477196 L 1600 410.1433336075581 L 1610 409.69356323032196 L 1620 409.1762708758907 L 1630 408.5926328464241 L 1640 407.9439763114981 L 1650 407.2317762901736 L 1660 406.457652296863 L 1670 405.623364658618 L 1680 404.73081051221703 L 1690 403.78201949015147 L 1700 402.7791491053227 L 1710 401.7244798449436 L 1720 400.6204099848019 L 1730 399.4694501356768 L 1740 398.27421753431037 L 1750 397.0374300919152 L 1760 395.7619002137536 L 1770 394.4505284038397 L 1780 393.1062966693094 L 1790 391.73226173945517 L 1800 390.3315481148457 L 1810 388.90734096233626 L 1820 387.46287887212657 L 1830 386.001446493336 L 1840 384.52636706484253 L 1850 383.0409948583703 L 1860 381.5487075510095 L 1870 380.0528985445138 L 1880 378.55696924884 L 1890 377.0643213474777 L 1900 375.5783490621568 L 1910 374.102431434523 L 1920 372.6399246423317 L 1930 371.1941543676341 L 1940 369.7684082343088 L 1950 368.3659283321365 L 1960 366.98990384441714 L 1970 365.64346379589455 L 1980 364.3296699374791 L 1990 363.0515097839481 L 2000 361.8118898204571 L 2010 360.6136288933081 L 2020 359.45945180000575 L 2030 358.3519830931767 L 2040 357.293741112442 L 2050 356.2871322578127 L 2060 355.33444551763284 L 2070 354.4378472635112 L 2080 353.5993763240786 L 2090 352.8209393487734 L 2100 352.10430647219624 L 2110 351.4511072888952 L 2120 350.86282714773233 L 2130 350.3408037742601 L 2140 349.8862242287868 L 2150 349.50012220704843 L 2160 349.1833756896264 L 2170 348.9367049454545 L 2180 348.7606708939559 L 2190 348.6556738295351 L 2200 348.62195251132437 L 2210 348.659583620255 L 2220 348.7684815846876 L 2230 348.9483987749992 L 2240 349.1989260666827 L 2250 349.5194937706797 L 2260 349.9093729288308 L 2270 350.3676769714973 L 2280 350.89336373358503 L 2290 351.4852378243865 L 2300 352.1419533458513 L 2310 352.8620169531045 L 2320 353.64379125025374 L 2330 354.4854985137615 L 2340 355.3852247349179 L 2350 356.3409239722199 L 2360 357.35042300376057 L 2370 358.411426269049 L 2380 359.5215210890231 L 2390 360.6781831523857 L 2400 361.8787822557873 L 2410 363.1205882848038 L 2420 364.40077742210735 L 2430 365.71643856871464 L 2440 367.06457996370926 L 2450 368.442135987387 L 2460 369.84597413235247 L 2470 371.2729021267158 L 2480 372.71967519319145 L 2490 374.18300342759244 L 2500 375.65955927994077 L 2510 377.1459851211834 L 2520 378.63890087830674 L 2530 380.1349117204874 L 2540 381.63061577880245 L 2550 383.12261188194293 L 2560 384.60750729034197 L 2570 386.08192541112925 L 2580 387.5425134763679 L 2590 388.9859501671152 L 2600 390.40895316596936 L 2610 391.80828662092784 L 2620 393.18076850358614 L 2630 394.52327784494275 L 2640 395.83276183235864 L 2650 397.10624275153083 L 2660 398.3408247576961 L 2670 399.5337004606662 L 2680 400.6821573087212 L 2690 401.78358375684365 L 2700 402.8354752052678 L 2710 403.8354396948393 L 2720 404.78120334623503 L 2730 405.6706155306737 L 2740 406.5016537603599 L 2750 407.27242828754066 L 2760 407.9811864017163 L 2770 408.62631641523416 L 2780 409.2063513282019 L 2790 409.71997216438683 L 2800 410.16601097051506 L 2810 410.5434534721507 L 2820 410.8514413801154 L 2830 411.08927434220357 L 2840 411.2564115357556 L 2850 411.35247289746667 L 2860 411.37723998763573 L 2870 411.33065648688864 L 2880 411.2128283242462 L 2890 411.02402343624556 L 2900 410.7646711576636 L 2910 410.43536124522643 L 2920 410.03684253652654 L 2930 409.57002124719554 L 2940 409.0359589102064 L 2950 408.4358699619895 L 2960 407.77111898085326 L 2970 407.04321758398675 L 2980 406.2538209901031 L 2990 405.4047242555383 L 3000 404.4978581923644 L 3010 403.5352849778 L 3020 402.5191934649019 L 3030 401.45189420520046 L 3040 400.33581419459756 L 3050 399.17349135447495 L 3060 397.96756876056253 L 3070 396.7207886326892 L 3080 395.43598609908497 L 3090 394.11608274941227 L 3100 392.7640799911877 L 3110 391.38305222470143 L 3120 389.97613985195335 L 3130 388.5465421355046 L 3140 387.09750992348194 L 3150 385.6323382572794 L 3160 384.15435887876515 L 3170 382.6669326540339 L 3180 381.1734419309314 L 3190 379.6772828477306 L 3200 378.1818576104488 L 3210 376.6905667563668 L 3220 375.20680142134347 L 3230 373.73393562850737 L 3240 372.2753186158635 L 3250 370.83426722025973 L 3260 369.41405833503194 L 3270 368.0179214584799 L 3280 366.64903135011633 L 3290 365.3105008113915 L 3300 364.005373607306" fill="none" stroke="#10B981" stroke-opacity="0.04" stroke-width="1"/><path d="M -20 440 L 0 477.6375873873972 L 10 478.54634539270415 L 20 479.41596744225274 L 30 480.2455706121312 L 40 481.0343126094419 L 50 481.78139262747806 L 60 482.48605215877984 L 70 483.1475757652437 L 80 483.7652918045044 L 90 484.3385731118504 L 100 484.86683763698227 L 110 485.3495490349658 L 120 485.7862172107809 L 130 486.17639881691343 L 140 486.5196977034842 L 150 486.8157653204581 L 160 487.0643010715259 L 170 487.26505261929844 L 180 487.4178161415038 L 190 487.52243653792726 L 200 487.578807587884 L 210 487.5868720580645 L 220 487.5466217606433 L 230 487.458097561592 L 240 487.3213893391885 L 250 487.1366358927634 L 260 486.9040248017782 L 270 486.62379223537596 L 280 486.29622271260024 L 290 485.92164881352375 L 300 485.5004508415809 L 310 485.0330564374477 L 320 484.51994014485933 L 330 483.9616229288079 L 340 483.35867164660885 L 350 482.71169847237263 L 360 482.0213602754669 L 370 481.28835795359964 L 380 480.5134357212001 L 390 479.697380353821 L 400 478.8410203893285 L 410 477.94522528669035 L 420 477.01090454321826 L 430 476.0390067711583 L 440 475.0305187345686 L 450 473.98646434746183 L 460 472.9079036342291 L 470 471.7959316534012 L 480 470.6516773858401 L 490 469.476302588489 L 500 468.2710006148447 L 510 467.0369952033508 L 520 465.77553923494065 L 530 464.487913460992 L 540 463.1754252029852 L 550 461.8394070251848 L 560 460.4812153816922 L 570 459.10222923924283 L 580 457.70384867714677 L 590 456.28749346579343 L 600 454.85460162516443 L 610 453.4066279648171 L 620 451.9450426068224 L 630 450.4713294931551 L 640 448.9869848790537 L 650 447.49351581387805 L 660 445.9924386110079 L 670 444.48527730833587 L 680 442.9735621209178 L 690 441.4588278873508 L 700 439.94261251145826 L 710 438.4264554008614 L 720 436.9118959040251 L 730 435.4004717473629 L 740 433.8937174739898 L 750 432.3931628857062 L 760 430.90033148979614 L 770 429.4167389522164 L 780 427.94389155874626 L 790 426.4832846856619 L 800 425.0364012814862 L 810 423.6047103613571 L 820 422.18966551554206 L 830 420.79270343361367 L 840 419.41524244578386 L 850 418.058681082879 L 860 416.7243966564172 L 870 415.4137438602285 L 880 414.12805339504035 L 890 412.86863061742145 L 900 411.63675421445896 L 910 410.43367490551196 L 920 409.26061417236104 L 930 408.11876301904283 L 940 407.0092807626278 L 950 405.93329385617017 L 960 404.89189474502484 L 970 403.8861407576914 L 980 402.91705303231277 L 990 401.9856154799177 L 1000 401.0927737854595 L 1010 400.23943444766564 L 1020 399.4264638586736 L 1030 398.65468742438577 L 1040 397.92488872643816 L 1050 397.23780872663315 L 1060 396.59414501464363 L 1070 395.99455109975304 L 1080 395.4396357473498 L 1090 394.92996236085037 L 1100 394.46604840967746 L 1110 394.0483649038759 L 1120 393.6773359158977 L 1130 393.3533381500427 L 1140 393.0767005599927 L 1150 392.84770401482547 L 1160 392.66658101384985 L 1170 392.5335154505499 L 1180 392.4486424258786 L 1190 392.4120481110905 L 1200 392.4237696602522 L 1210 392.4837951725201 L 1220 392.59206370422316 L 1230 392.7484653307389 L 1240 392.9528412580992 L 1250 393.2049839842137 L 1260 393.50463750954526 L 1270 393.8514975970258 L 1280 394.24521208094677 L 1290 394.6853812245116 L 1300 395.1715581256871 L 1310 395.7032491709413 L 1320 396.2799145364073 L 1330 396.90096873596445 L 1340 397.56578121568003 L 1350 398.2736769940084 L 1360 399.02393734709693 L 1370 399.8158005385038 L 1380 400.64846259258604 L 1390 401.5210781107726 L 1400 402.4327611298945 L 1410 403.38258602170004 L 1420 404.3695884326411 L 1430 405.39276626297783 L 1440 406.4510806842067 L 1450 407.54345719377915 L 1460 408.6687867060394 L 1470 409.8259266782755 L 1480 411.01370227073807 L 1490 412.2309075394507 L 1500 413.4763066606003 L 1510 414.7486351852642 L 1520 416.0466013232001 L 1530 417.368887254396 L 1540 418.7141504670475 L 1550 420.08102512060515 L 1560 421.4681234325068 L 1570 422.874037087188 L 1580 424.2973386659396 L 1590 425.73658309615985 L 1600 427.19030911853173 L 1610 428.6570407706335 L 1620 430.13528888547756 L 1630 431.62355260345635 L 1640 433.12032089615906 L 1650 434.62407410051276 L 1660 436.1332854616909 L 1670 437.6464226832214 L 1680 439.16194948272096 L 1690 440.6783271516774 L 1700 442.19401611769393 L 1710 443.70747750761103 L 1720 445.21717470991877 L 1730 446.72157493487236 L 1740 448.2191507707276 L 1750 449.7083817345163 L 1760 451.1877558157867 L 1770 452.65577101174176 L 1780 454.1109368522168 L 1790 455.5517759129484 L 1800 456.9768253155971 L 1810 458.38463821300263 L 1820 459.7737852581618 L 1830 461.1428560554392 L 1840 462.4904605925365 L 1850 463.8152306517665 L 1860 465.11582119919933 L 1870 466.39091175027 L 1880 467.6392077104615 L 1890 468.8594416897018 L 1900 470.0503747891394 L 1910 471.2107978589935 L 1920 472.33953272619834 L 1930 473.43543339059806 L 1940 474.4973871884763 L 1950 475.5243159222393 L 1960 476.51517695510574 L 1970 477.46896426969187 L 1980 478.3847094894171 L 1990 479.2614828616929 L 2000 480.09839420189724 L 2010 480.8945937971753 L 2020 481.64927326914983 L 2030 482.3616663946648 L 2040 483.0310498837282 L 2050 483.65674411386635 L 2060 484.23811382014134 L 2070 484.77456874013353 L 2080 485.2655642132322 L 2090 485.7106017336281 L 2100 486.10922945644364 L 2110 486.4610426564899 L 2120 486.76568413918216 L 2130 487.02284460319845 L 2140 487.23226295451184 L 2150 487.3937265714782 L 2160 487.5070715207102 L 2170 487.5721827235182 L 2180 487.58899407274913 L 2190 487.55748849990505 L 2200 487.47769799247243 L 2210 487.3497035614457 L 2220 487.17363515907687 L 2230 486.9496715469355 L 2240 486.6780401144129 L 2250 486.35901664785456 L 2260 485.9929250505552 L 2270 485.5801370139011 L 2280 485.12107163999326 L 2290 484.61619501613467 L 2300 484.0660197416136 L 2310 483.4711044072637 L 2320 482.8320530283284 L 2330 482.1495144312074 L 2340 481.424181594705 L 2350 480.65679094645145 L 2360 479.8481216152113 L 2370 478.99899463983655 L 2380 478.1102721356692 L 2390 477.1828564192389 L 2400 476.2176890921444 L 2410 475.2157500850491 L 2420 474.17805666276126 L 2430 473.1056623914089 L 2440 471.99965606875816 L 2450 470.86116061876135 L 2460 469.6913319514563 L 2470 468.4913577893755 L 2480 467.2624564616561 L 2490 466.00587566707463 L 2500 464.72289120726384 L 2510 463.4148056913956 L 2520 462.0829472136477 L 2530 460.72866800479363 L 2540 459.3533430592894 L 2550 457.9583687392457 L 2560 456.5451613567078 L 2570 455.1151557356787 L 2580 453.66980375534814 L 2590 452.2105728760053 L 2600 450.7389446491322 L 2610 449.25641321318955 L 2620 447.76448377662456 L 2630 446.2646710896379 L 2640 444.7584979062642 L 2650 443.24749343832536 L 2660 441.73319180282806 L 2670 440.2171304643804 L 2680 438.7008486742099 L 2690 437.1858859073681 L 2700 435.67378029970723 L 2710 434.16606708621663 L 2720 432.6642770423051 L 2730 431.16993492960995 L 2740 429.68455794791277 L 2750 428.2096541947322 L 2760 426.74672113415846 L 2770 425.2972440764836 L 2780 423.8626946701719 L 2790 422.444529407701 L 2800 421.04418814679025 L 2810 419.66309264851907 L 2820 418.3026451338183 L 2830 416.9642268598009 L 2840 415.6491967173764 L 2850 414.358889851575 L 2860 413.09461630597923 L 2870 411.8576596926421 L 2880 410.64927588884075 L 2890 409.470691761989 L 2900 408.3231039240036 L 2910 407.20767751638897 L 2920 406.1255450272732 L 2930 405.07780514159737 L 2940 404.06552162562514 L 2950 403.0897222469046 L 2960 402.15139773078016 L 2970 401.25150075451285 L 2980 400.3909449800308 L 2990 399.57060412629147 L 3000 398.7913110821988 L 3010 398.05385706097366 L 3020 397.3589907968386 L 3030 396.7074177848308 L 3040 396.09979956451537 L 3050 395.5367530483271 L 3060 395.01884989522154 L 3070 394.5466159302719 L 3080 394.12053061080076 L 3090 393.74102653958914 L 3100 393.4084890256563 L 3110 393.12325569305716 L 3120 392.88561613809384 L 3130 392.6958116352896 L 3140 392.5540348924239 L 3150 392.4604298548767 L 3160 392.41509155948154 L 3170 392.41806603803474 L 3180 392.46935027055974 L 3190 392.5688921883731 L 3200 392.7165907269498 L 3210 392.9122959285334 L 3220 393.1558090943878 L 3230 393.4468829865352 L 3240 393.785222078776 L 3250 394.1704828567351 L 3260 394.60227416663116 L 3270 395.08015761241313 L 3280 395.6036480008623 L 3290 396.1722138342069 L 3300 396.78527784975006" fill="none" stroke="#10B981" stroke-opacity="0.04" stroke-width="1"/><path d="M -20 500 L 0 454.4977028293993 L 10 455.0102922550891 L 20 455.61132479059256 L 30 456.2996188948595 L 40 457.0738214835046 L 50 457.93241058877135 L 60 458.8736983514953 L 70 459.89583433918557 L 80 460.99680918370143 L 90 462.17445853137275 L 100 463.42646729779915 L 110 464.7503742189635 L 120 466.14357668971263 L 130 467.60333588009433 L 140 469.12678211949185 L 150 470.7109205379715 L 160 472.35263695375426 L 170 474.04870399523617 L 180 475.7957874455237 L 190 477.5904527970106 L 200 479.4291720031121 L 210 481.3083304138825 L 220 483.224233881882 L 230 485.1731160243242 L 240 487.15114562722766 L 250 489.15443417701545 L 260 491.17904350475783 L 270 493.2209935280299 L 280 495.2762700751644 L 290 497.34083277651985 L 300 499.41062300724917 L 310 501.48157186595597 L 320 503.5496081735526 L 330 505.6106664765961 L 340 507.6606950393681 L 350 509.69566380898783 L 360 511.7115723379002 L 370 513.7044576481634 L 380 515.6704020220776 L 390 517.6055407038384 L 400 519.5060694970747 L 410 521.3682522433363 L 420 523.1884281668287 L 430 524.9630190709562 L 440 526.688536372528 L 450 528.3615879597959 L 460 529.9788848608443 L 470 531.5372477092229 L 480 533.0336129941103 L 490 534.465039082723 L 500 535.8287120031309 L 510 537.1219509761094 L 520 538.3422136851543 L 530 539.487101274301 L 540 540.5543630639199 L 550 541.5419009752192 L 560 542.4477736547581 L 570 543.27020029086 L 580 544.0075641144252 L 590 544.6584155772597 L 600 545.2214752016718 L 610 545.695636095737 L 620 546.0799661292833 L 630 546.373709766321 L 640 546.5762895503151 L 650 546.6873072393792 L 660 546.7065445891601 L 670 546.6339637818741 L 680 546.4697075006509 L 690 546.21409864904 L 700 545.8676397162297 L 710 545.4310117892283 L 720 544.9050732139467 L 730 544.2908579078189 L 740 543.5895733272719 L 750 542.8025980940454 L 760 541.9314792850258 L 770 540.9779293909215 L 780 539.9438229497597 L 790 538.8311928618216 L 800 537.6422263932619 L 810 536.3792608762661 L 820 535.0447791142026 L 830 533.6414045007969 L 840 532.171895862929 L 850 530.6391420371871 L 860 529.0461561908427 L 870 527.3960698984091 L 880 525.6921269854297 L 890 523.9376771515962 L 900 522.136169385735 L 910 520.2911451856055 L 920 518.4062315958388 L 930 516.4851340777053 L 940 514.5316292247254 L 950 512.5495573384459 L 960 510.54281487897435 L 970 508.51534680511645 L 980 506.47113881916874 L 990 504.41420953161935 L 1000 502.34860256115263 L 1010 500.2783785854945 L 1020 498.2076073587196 L 1030 496.14035971071735 L 1040 494.0806995445428 L 1050 492.03267584738404 L 1060 490.00031473085255 L 1070 487.9876115162433 L 1080 485.9985228803244 L 1090 484.03695907709533 L 1100 482.10677625080694 L 1110 480.21176885535124 L 1120 478.35566219492756 L 1130 476.54210510064433 L 1140 474.77466275745826 L 1150 473.05680969554675 L 1160 471.39192295989693 L 1170 469.7832754715336 L 1180 468.23402959344156 L 1190 466.74723091382737 L 1200 465.32580225894355 L 1210 463.9725379472447 L 1220 462.69009829617056 L 1230 461.4810043923559 L 1240 460.3476331355464 L 1250 459.29221256596645 L 1260 458.3168174843206 L 1270 457.42336537304305 L 1280 456.6136126268105 L 1290 455.88915109973027 L 1300 455.2514049759903 L 1310 454.70162797012404 L 1320 454.2409008623931 L 1330 453.87012937413294 L 1340 453.59004238723895 L 1350 453.4011905112923 L 1360 453.303945001143 L 1370 453.29849702707793 L 1380 453.3848572990081 L 1390 453.5628560454148 L 1400 453.8321433470949 L 1410 454.19218982505083 L 1420 454.64228768117084 L 1430 455.18155208965567 L 1440 455.80892293645496 L 1450 456.5231669032949 L 1460 457.32287989219935 L 1470 458.20648978573865 L 1480 459.1722595375802 L 1490 460.21829058726433 L 1500 461.3425265924933 L 1510 462.54275747159625 L 1520 463.8166237482226 L 1530 465.1616211897235 L 1540 466.5751057301033 L 1550 468.05429866786096 L 1560 469.5962921285075 L 1570 471.198054781016 L 1580 472.85643779697074 L 1590 474.5681810406972 L 1600 476.32991947820744 L 1610 478.1381897923584 L 1620 479.9894371912214 L 1630 481.8800223962769 L 1640 483.8062287966982 L 1650 485.7642697556579 L 1660 487.7502960542961 L 1670 489.7604034587152 L 1680 491.7906403951259 L 1690 493.83701571805733 L 1700 495.89550655635753 L 1710 497.9620662215643 L 1720 500.03263216309495 L 1730 502.10313395462055 L 1740 504.1695012959211 L 1750 506.22767201449483 L 1760 508.273600051187 L 1770 510.3032634141447 L 1780 512.3126720854573 L 1790 514.2978758649415 L 1800 516.2549721356506 L 1810 518.1801135358423 L 1820 520.0695155223219 L 1830 521.9194638102955 L 1840 523.7263216751032 L 1850 525.4865371014829 L 1860 527.1966497663061 L 1870 528.8532978410617 L 1880 530.453224600713 L 1890 531.9932848259381 L 1900 533.4704509861649 L 1910 534.881819191249 L 1920 536.2246149000916 L 1930 537.4961983749779 L 1940 538.6940698709093 L 1950 539.8158745497337 L 1960 540.8594071094082 L 1970 541.8226161192966 L 1980 542.7036080529795 L 1990 543.5006510106457 L 2000 544.2121781237522 L 2010 544.8367906352553 L 2020 545.3732606493603 L 2030 545.8205335453828 L 2040 546.1777300509772 L 2050 546.4441479706559 L 2060 546.6192635662015 L 2070 546.7027325862595 L 2080 546.6943909430842 L 2090 546.5942550351122 L 2100 546.4025217147247 L 2110 546.1195679012654 L 2120 545.7459498400725 L 2130 545.2824020089824 L 2140 544.7298356744556 L 2150 544.089337100161 L 2160 543.3621654115428 L 2170 542.5497501205656 L 2180 541.6536883155057 L 2190 540.6757415213119 L 2200 539.6178322367076 L 2210 538.482040154843 L 2220 537.2705980749263 L 2230 535.9858875128702 L 2240 534.6304340195844 L 2250 533.2069022161159 L 2260 531.718090555398 L 2270 530.1669258209065 L 2280 528.5564573730358 L 2290 526.8898511545075 L 2300 525.1703834665957 L 2310 523.4014345284031 L 2320 521.5864818318502 L 2330 519.729093305441 L 2340 517.8329203002432 L 2350 515.9016904118722 L 2360 513.9392001525893 L 2370 511.9493074879207 L 2380 509.93592425246766 L 2390 507.9030084598186 L 2400 505.8545565216797 L 2410 503.7945953915208 L 2420 501.7271746481808 L 2430 499.6563585349943 L 2440 497.58621797009096 L 2450 495.5208225435724 L 2460 493.46423251730005 L 2470 491.4204908430211 L 2480 489.3936152145236 L 2490 487.38759016944454 L 2500 485.40635925625867 L 2510 483.45381728184503 L 2520 481.5338026548735 L 2530 479.650089840061 L 2540 477.80638193813166 L 2550 476.00630340606915 L 2560 474.2533929319706 L 2570 472.55109647850907 L 2580 470.9027605086804 L 2590 469.3116254071524 L 2600 467.7808191101482 L 2610 466.3133509563855 L 2620 464.91210577116306 L 2630 463.5798381952198 L 2640 462.3191672695191 L 2650 461.132571286602 L 2660 460.0223829186303 L 2670 458.99078463169815 L 2680 458.0398043954267 L 2690 457.171311696276 L 2700 456.38701386241104 L 2710 455.68845270734687 L 2720 455.07700149897187 L 2730 454.5538622599058 L 2740 454.1200634045014 L 2750 453.77645771713384 L 2760 453.5237206757526 L 2770 453.36234912399203 L 2780 453.29266029445023 L 2790 453.3147911850566 L 2800 453.42869828975415 L 2810 453.63415768402604 L 2820 453.93076546509803 L 2830 454.31793854595156 L 2840 454.7949158015867 L 2850 455.3607595652811 L 2860 456.01435747190436 L 2870 456.75442464466266 L 2880 457.57950622097735 L 2890 458.487980212529 L 2900 459.4780606938464 L 2910 460.54780131317233 L 2920 461.6950991187025 L 2930 462.91769869267836 L 2940 464.2131965852045 L 2950 465.5790460390754 L 2960 467.0125619963233 L 2970 468.51092637664556 L 2980 470.0711936173331 L 2990 471.69029646381085 L 3000 473.3650519994066 L 3010 475.09216790249474 L 3020 476.86824891871316 L 3030 478.68980353553076 L 3040 480.5532508460448 L 3050 482.4549275885147 L 3060 484.39109534779163 L 3070 486.35794790449074 L 3080 488.35161871745436 L 3090 490.36818852480036 L 3100 492.4036930486117 L 3110 494.4541307881197 L 3120 496.5154708860627 L 3130 498.583661052755 L 3140 500.65463553228966 L 3150 502.7243230952123 L 3160 504.7886550419562 L 3170 506.84357320130357 L 3180 508.8850379081503 L 3190 510.90903594488987 L 3200 512.9115884308044 L 3210 514.8887586439573 L 3220 516.8366597602046 L 3230 518.7514624941172 L 3240 520.6294026267891 L 3250 522.4667884057352 L 3260 524.26000780233 L 3270 526.0055356125222 L 3280 527.6999403868641 L 3290 529.3398911762333 L 3300 530.9221640799861" fill="none" stroke="#10B981" stroke-opacity="0.04" stroke-width="1"/><path d="M -20 560 L 0 533.2972592636978 L 10 534.7508490274837 L 20 536.2592215646142 L 30 537.8191041776861 L 40 539.4271124085158 L 50 541.079757381357 L 60 542.7734533726712 L 70 544.5045255910285 L 80 546.2692181502574 L 90 548.0637022185449 L 100 549.8840843258058 L 110 551.7264148112977 L 120 553.5866963931504 L 130 555.4608928412206 L 140 557.3449377344497 L 150 559.234743283729 L 160 561.1262092011245 L 170 563.0152315962222 L 180 564.8977118802883 L 190 566.7695656589269 L 200 568.6267315939413 L 210 570.4651802151682 L 220 572.2809226631713 L 230 574.0700193438196 L 240 575.828588475977 L 250 577.5528145137553 L 260 579.2389564250568 L 270 580.8833558084466 L 280 582.4824448307404 L 290 584.0327539680894 L 300 585.530919533763 L 310 586.9736909762987 L 320 588.3579379321842 L 330 589.6806570177683 L 340 590.9389783456656 L 350 592.1301717515165 L 360 593.2516527175906 L 370 594.3009879803836 L 380 595.2759008100395 L 390 596.1742759501427 L 400 596.9941642071645 L 410 597.7337866796047 L 420 598.3915386176513 L 430 598.9659929049876 L 440 599.4559031551885 L 450 599.8602064159895 L 460 600.1780254755622 L 470 600.4086707657888 L 480 600.5516418584106 L 490 600.6066285508005 L 500 600.5735115390062 L 510 600.4523626766021 L 520 600.24344481879 L 530 599.9472112520848 L 540 599.5643047108248 L 550 599.0955559826386 L 560 598.5419821058957 L 570 597.9047841630503 L 580 597.1853446746677 L 590 596.3852245997865 L 600 595.5061599491249 L 610 594.5500580184794 L 620 593.518993250488 L 630 592.4152027337389 L 640 591.2410813489847 L 650 589.9991765730013 L 660 588.6921829513567 L 670 587.32293625209 L 680 585.8944073129794 L 690 584.4096955957523 L 700 582.872022461221 L 710 581.2847241799358 L 720 579.6512446935192 L 730 577.9751281423888 L 740 576.2600111760787 L 750 574.5096150628457 L 760 572.7277376156791 L 770 570.9182449522325 L 780 569.085063106556 L 790 567.2321695108279 L 800 565.3635843655688 L 810 563.483361917062 L 820 561.5955816609052 L 830 559.7043394907782 L 840 557.8137388116337 L 850 555.9278816365891 L 860 554.0508596868387 L 870 552.1867455138976 L 880 550.3395836634348 L 890 548.5133818998739 L 900 546.7121025107945 L 910 544.9396537100057 L 920 543.1998811579427 L 930 541.4965596177847 L 940 539.8333847653968 L 950 538.2139651708678 L 960 536.6418144690404 L 970 535.1203437360195 L 980 533.6528540882038 L 990 532.2425295198924 L 1000 530.8924299950125 L 1010 529.6054848079531 L 1020 528.3844862279101 L 1030 527.2320834405349 L 1040 526.1507768000284 L 1050 525.1429124041531 L 1060 524.2106770039337 L 1070 523.3560932590901 L 1080 522.5810153494975 L 1090 521.8871249521949 L 1100 521.2759275926711 L 1110 520.7487493783447 L 1120 520.3067341213247 L 1130 519.9508408566959 L 1140 519.6818417617118 L 1150 519.500320480411 L 1160 519.4066708572926 L 1170 519.4010960827957 L 1180 519.4836082524403 L 1190 519.6540283405833 L 1200 519.9119865888485 L 1210 520.2569233083872 L 1220 520.6880900942272 L 1230 521.2045514490787 L 1240 521.8051868130715 L 1250 522.488692995019 L 1260 523.2535869999374 L 1270 524.0982092466805 L 1280 525.0207271687137 L 1290 526.0191391902102 L 1300 527.0912790688465 L 1310 528.2348205958705 L 1320 529.4472826432494 L 1330 530.7260345469422 L 1340 532.0683018146193 L 1350 533.4711721454443 L 1360 534.9316017488577 L 1370 536.446421948652 L 1380 538.0123460580091 L 1390 539.6259765105854 L 1400 541.2838122321685 L 1410 542.9822562369163 L 1420 544.7176234316923 L 1430 546.4861486115674 L 1440 548.2839946291383 L 1450 550.1072607199401 L 1460 551.951990965886 L 1470 553.8141828783756 L 1480 555.6897960824442 L 1490 557.5747610831155 L 1500 559.4649880949346 L 1510 561.3563759155256 L 1520 563.24482082392 L 1530 565.1262254843499 L 1540 566.996507836187 L 1550 568.8516099507397 L 1560 570.6875068356909 L 1570 572.5002151680752 L 1580 574.2858019368451 L 1590 576.0403929762773 L 1600 577.7601813717023 L 1610 579.441435719321 L 1620 581.0805082221852 L 1630 582.6738426047784 L 1640 584.2179818290226 L 1650 585.7095755949722 L 1660 587.145387609918 L 1670 588.5223026101323 L 1680 589.8373331200185 L 1690 591.0876259339993 L 1700 592.2704683070835 L 1710 593.3832938406744 L 1720 594.423688050853 L 1730 595.3893936070557 L 1740 596.2783152297753 L 1750 597.0885242366641 L 1760 597.8182627271717 L 1770 598.465947396641 L 1780 599.0301729715844 L 1790 599.5097152586885 L 1800 599.9035338009317 L 1810 600.2107741350503 L 1820 600.4307696454579 L 1830 600.5630430105924 L 1840 600.6073072385549 L 1850 600.5634662897927 L 1860 600.4316152854748 L 1870 600.212040301109 L 1880 599.9052177458472 L 1890 599.5118133288263 L 1900 599.0326806147873 L 1910 598.4688591721062 L 1920 597.8215723172559 L 1930 597.09222446059 L 1940 596.2823980592127 L 1950 595.3938501835395 L 1960 594.4285087050038 L 1970 593.3884681131779 L 1980 592.2759849713843 L 1990 591.0934730206584 L 2000 589.8434979426835 L 2010 588.5287717930632 L 2020 587.1521471170079 L 2030 585.7166107602013 L 2040 584.2252773882793 L 2050 582.6813827289772 L 2060 581.088276551611 L 2070 579.4494153991246 L 2080 577.7683550884703 L 2090 576.0487429955966 L 2100 574.2943101417814 L 2110 572.5088630984802 L 2120 570.6962757282562 L 2130 568.8604807797064 L 2140 567.0054613546265 L 2150 565.1352422659229 L 2160 563.2538813050261 L 2170 561.3654604377499 L 2180 559.4740769477007 L 2190 557.5838345464509 L 2200 555.6988344697668 L 2210 553.8231665792072 L 2220 551.960900488401 L 2230 550.1160767332566 L 2240 548.2926980052605 L 2250 546.4947204668867 L 2260 544.7260451679595 L 2270 542.9905095815932 L 2280 541.2918792780744 L 2290 539.6338397547496 L 2300 538.0199884396472 L 2310 536.4538268861822 L 2320 534.938753175878 L 2330 533.478054545591 L 2340 532.0749002552333 L 2350 530.7323347114677 L 2360 529.4532708622967 L 2370 528.240483876874 L 2380 527.0966051242549 L 2390 526.0241164641466 L 2400 525.0253448620476 L 2410 524.1024573404593 L 2420 523.2574562771241 L 2430 522.4921750604905 L 2440 521.8082741118328 L 2450 521.2072372826557 L 2460 520.6903686351995 L 2470 520.2587896130326 L 2480 519.9134366078687 L 2490 519.6550589278896 L 2500 519.4842171719802 L 2510 519.4012820134039 L 2520 519.4064333955578 L 2530 519.499660141551 L 2540 519.6807599784556 L 2550 519.9493399761756 L 2560 520.3048173999822 L 2570 520.7464209748667 L 2580 521.2731925589663 L 2590 521.8839892224323 L 2600 522.5774857272316 L 2610 523.352177402499 L 2620 524.2063834092035 L 2630 525.1382503870435 L 2640 526.145756475661 L 2650 527.2267157014456 L 2660 528.3787827204169 L 2670 529.5994579068862 L 2680 530.8860927768654 L 2690 532.2358957344493 L 2700 533.6459381287079 L 2710 535.1131606079433 L 2720 536.6343797575288 L 2730 538.2062950069233 L 2740 539.82549579088 L 2750 541.4884689493068 L 2760 543.1916063497283 L 2770 544.9312127158042 L 2780 546.7035136449281 L 2790 548.5046637974992 L 2800 550.3307552401119 L 2810 552.177825924548 L 2820 554.0418682841865 L 2830 555.91883792917 L 2840 557.8046624214692 L 2850 559.6952501108004 L 2860 561.5864990122308 L 2870 563.4743057062022 L 2880 565.3545742416736 L 2890 567.2232250230524 L 2900 569.0762036616459 L 2910 570.9094897724165 L 2920 572.7191056969635 L 2930 574.501125133799 L 2940 576.2516816571958 L 2950 577.9669771061247 L 2960 579.6432898250773 L 2970 581.2769827388967 L 2980 582.8645112440944 L 2990 584.402430899534 L 3000 585.8874048997916 L 3010 587.3162113149828 L 3020 588.6857500813437 L 3030 589.9930497274017 L 3040 591.2352738211405 L 3050 592.4097271241717 L 3060 593.5138614395611 L 3070 594.5452811406197 L 3080 595.5017483686661 L 3090 596.3811878884804 L 3100 597.1816915909174 L 3110 597.9015226329068 L 3120 598.5391192058611 L 3130 599.093097924312 L 3140 599.5622568274251 L 3150 599.9455779868796 L 3160 600.2422297154546 L 3170 600.4515683715316 L 3180 600.5731397555943 L 3190 600.6066800957013 L 3200 600.5521166197876 L 3210 600.4095677135582 L 3220 600.1793426636274 L 3230 599.8619409864638 L 3240 599.4580513445954 L 3250 598.9685500524271 L 3260 598.3944991749119 L 3270 597.7371442232013 L 3280 596.9979114522763 L 3290 596.1784047664177 L 3300 595.2804022392357" fill="none" stroke="#10B981" stroke-opacity="0.04" stroke-width="1"/><path d="M -20 620 L 0 652.8084059248104 L 10 653.067281700058 L 20 653.2559541022123 L 30 653.374022571011 L 40 653.4212364416172 L 50 653.3974954767934 L 60 653.3028500797093 L 70 653.1375011869336 L 80 652.9017998418365 L 90 652.5962464493082 L 100 652.2214897133761 L 110 651.7783252599762 L 120 651.2676939478022 L 130 650.6906798708187 L 140 650.04850805668 L 150 649.3425418659386 L 160 648.5742800975686 L 170 647.745353806945 L 180 646.8575228430379 L 190 645.9126721121719 L 200 644.9128075762815 L 210 643.8600519941617 L 220 642.7566404147524 L 230 641.6049154320258 L 240 640.4073222115504 L 250 639.1664032992918 L 260 637.8847932236687 L 270 636.5652129023276 L 280 635.2104638655082 L 290 633.8234223082648 L 300 632.4070329841702 L 310 630.9643029534682 L 320 629.4982951989444 L 330 628.0121221230723 L 340 626.5089389402377 L 350 624.991936978073 L 360 623.46433690212 L 370 621.9293818782074 L 380 620.3903306870604 L 390 618.8504508057569 L 400 617.3130114707219 L 410 615.7812767369884 L 420 614.2584985484556 L 430 612.7479098338617 L 440 611.2527176431266 L 450 609.7760963386356 L 460 608.3211808559208 L 470 606.8910600480481 L 480 605.4887701278378 L 490 604.1172882218453 L 500 602.7795260497822 L 510 601.4783237428006 L 520 600.2164438137632 L 530 598.9965652922999 L 540 597.821278037104 L 550 596.6930772375415 L 560 595.614358116249 L 570 594.5874108439646 L 580 593.614415677389 L 590 592.6974383303997 L 600 591.8384255884444 L 610 591.039201175425 L 620 590.301461881848 L 630 589.6267739624583 L 640 589.0165698110088 L 650 588.4721449192213 L 660 587.9946551263977 L 670 587.5851141655198 L 680 587.2443915110468 L 690 586.9732105329807 L 700 586.7721469611187 L 710 586.6416276627513 L 720 586.5819297364038 L 730 586.5931799235437 L 740 586.6753543395016 L 750 586.8282785241802 L 760 587.051627812441 L 770 587.3449280233835 L 780 587.7075564670533 L 790 588.1387432664417 L 800 588.6375729919697 L 810 589.202986604989 L 820 589.8337837061683 L 830 590.5286250839983 L 840 591.2860355579992 L 850 592.1044071105971 L 860 592.9820023010202 L 870 593.9169579539663 L 880 594.90728911521 L 890 595.950893265753 L 900 597.0455547855693 L 910 598.188949657469 L 920 599.3786504010956 L 930 600.6121312265777 L 940 601.8867733969001 L 950 603.1998707876023 L 960 604.5486356320073 L 970 605.9302044397789 L 980 607.3416440762452 L 990 608.7799579895789 L 1000 610.2420925726163 L 1010 611.7249436458071 L 1020 613.2253630475309 L 1030 614.7401653177909 L 1040 616.2661344610933 L 1050 617.800030774155 L 1060 619.338597723943 L 1070 620.8785688614468 L 1080 622.4166747564994 L 1090 623.9496499389306 L 1100 625.4742398313109 L 1110 626.9872076585706 L 1120 628.4853413198234 L 1130 629.9654602078057 L 1140 631.4244219614533 L 1150 632.8591291372795 L 1160 634.2665357853917 L 1170 635.6436539161842 L 1180 636.9875598439786 L 1190 638.2954003941443 L 1200 639.5643989605203 L 1210 640.7918614002795 L 1220 641.9751817537183 L 1230 643.1118477768301 L 1240 644.1994462749163 L 1250 645.23566822591 L 1260 646.2183136825371 L 1270 647.1452964429068 L 1280 648.0146484796145 L 1290 648.8245241179558 L 1300 649.573203954379 L 1310 650.259098506859 L 1320 650.880751589441 L 1330 651.4368434037914 L 1340 651.9261933411901 L 1350 652.3477624890185 L 1360 652.7006558364184 L 1370 652.984124174442 L 1380 653.1975656866571 L 1390 653.3405272268313 L 1400 653.4127052809828 L 1410 653.413946611754 L 1420 653.3442485837421 L 1430 653.2037591690942 L 1440 652.9927766333549 L 1450 652.7117489022353 L 1460 652.3612726106462 L 1470 651.9420918360136 L 1480 651.4550965185684 L 1490 650.9013205719623 L 1500 650.2819396882203 L 1510 649.5982688416929 L 1520 648.8517594973034 L 1530 648.0439965290221 L 1540 647.176694855104 L 1550 646.2516957972382 L 1560 645.2709631713368 L 1570 644.2365791182624 L 1580 643.1507396833464 L 1590 642.0157501540828 L 1600 640.8340201658964 L 1610 639.6080585863743 L 1620 638.3404681888243 L 1630 637.0339401264657 L 1640 635.6912482189871 L 1650 634.3152430635974 L 1660 632.9088459830768 L 1670 631.4750428236722 L 1680 630.0168776160074 L 1690 628.5374461124649 L 1700 627.0398892147598 L 1710 625.5273863056601 L 1720 624.0031484990092 L 1730 622.4704118223825 L 1740 620.9324303468505 L 1750 619.3924692784352 L 1760 617.8537980259262 L 1770 616.3196832597738 L 1780 614.7933819767967 L 1790 613.2781345854262 L 1800 611.7771580261689 L 1810 610.2936389418928 L 1820 608.8307269124366 L 1830 607.3915277679057 L 1840 605.9790969948507 L 1850 604.5964332493277 L 1860 603.2464719906123 L 1870 601.9320792490838 L 1880 600.6560455415092 L 1890 599.4210799466468 L 1900 598.2298043537468 L 1910 597.0847478961576 L 1920 595.9883415818603 L 1930 594.9429131323236 L 1940 593.9506820406453 L 1950 593.0137548594641 L 1960 592.1341207286513 L 1970 591.313647152274 L 1980 590.5540760337983 L 1990 589.8570199779462 L 2000 589.2239588670618 L 2010 588.6562367192522 L 2020 588.155058834975 L 2030 587.7214892381286 L 2040 587.3564484170813 L 2050 587.060711370431 L 2060 586.8349059616475 L 2070 586.679511586089 L 2080 586.5948581532239 L 2090 586.5811253862172 L 2100 586.6383424403705 L 2110 586.7663878412235 L 2120 586.9649897424498 L 2130 587.2337265029997 L 2140 587.5720275822634 L 2150 587.9791747513555 L 2160 588.4543036179475 L 2170 588.9964054614138 L 2180 589.6043293743918 L 2190 590.2767847062116 L 2200 591.0123438030075 L 2210 591.8094450386932 L 2220 592.6663961303666 L 2230 593.5813777311047 L 2240 594.5524472925216 L 2250 595.5775431888892 L 2260 596.6544890940635 L 2270 597.7809986019265 L 2280 598.9546800805326 L 2290 600.1730417496537 L 2300 601.4334969709446 L 2310 602.7333697394957 L 2320 604.0699003651165 L 2330 605.4402513312848 L 2340 606.8415133193269 L 2350 608.2707113850352 L 2360 609.7248112746133 L 2370 611.200725866538 L 2380 612.6953217256604 L 2390 614.2054257556348 L 2400 615.7278319355496 L 2410 617.2593081264579 L 2420 618.7966029333588 L 2430 620.3364526080597 L 2440 621.8755879782651 L 2450 623.4107413881812 L 2460 624.9386536359003 L 2470 626.4560808928385 L 2480 627.9598015905333 L 2490 629.4466232601835 L 2500 630.9133893104083 L 2510 632.3569857288377 L 2520 633.7743476933044 L 2530 635.1624660786043 L 2540 636.5183938450083 L 2550 637.8392522949647 L 2560 639.1222371847075 L 2570 640.3646246777962 L 2580 641.5637771279464 L 2590 642.7171486788759 L 2600 643.8222906692755 L 2610 644.8768568314301 L 2620 645.8786082724545 L 2630 646.8254182275665 L 2640 647.7152765753075 L 2650 648.5462941051231 L 2660 649.3167065282456 L 2670 650.0248782233597 L 2680 650.6693057091037 L 2690 651.2486208360292 L 2700 651.7615936912464 L 2710 652.2071352095861 L 2720 652.5842994857354 L 2730 652.892285782439 L 2740 653.1304402305008 L 2750 653.2982572169792 L 2760 653.3953804586267 L 2770 653.4216037582956 L 2780 653.3768714427041 L 2790 653.2612784806335 L 2800 653.0750702813046 L 2810 652.8186421733633 L 2820 652.4925385655788 L 2830 652.0974517910388 L 2840 651.6342206372944 L 2850 651.1038285655752 L 2860 650.5074016228549 L 2870 649.8462060512023 L 2880 649.12164559949 L 2890 648.3352585431702 L 2900 647.4887144184455 L 2910 646.5838104777652 L 2920 645.6224678741751 L 2930 644.6067275826209 L 2940 643.5387460668636 L 2950 642.4207907012063 L 2960 641.2552349567541 L 2970 640.0445533624244 L 2980 638.7913162514075 L 2990 637.4981843042298 L 3000 636.1679029000054 L 3010 634.8032962878696 L 3020 633.407261590966 L 3030 631.9827626557205 L 3040 630.5328237594575 L 3050 629.0605231897188 L 3060 627.568986708916 L 3070 626.0613809181929 L 3080 624.5409065345833 L 3090 623.0107915957409 L 3100 621.4742846066654 L 3110 619.9346476429754 L 3120 618.3951494253712 L 3130 616.8590583799886 L 3140 615.3296356993785 L 3150 613.8101284188443 L 3160 612.3037625228349 L 3170 610.8137360960302 L 3180 609.3432125336591 L 3190 607.8953138254644 L 3200 606.473113927574 L 3210 605.0796322363492 L 3220 603.7178271780663 L 3230 602.3905899280403 L 3240 601.1007382725256 L 3250 599.8510106264254 L 3260 598.6440602195089 L 3270 597.4824494634827 L 3280 596.3686445118705 L 3290 595.3050100242559 L 3300 594.2938041459997" fill="none" stroke="#10B981" stroke-opacity="0.04" stroke-width="1"/><path d="M -20 680 L 0 696.0621625385735 L 10 694.7169156192563 L 20 693.3463874525652 L 30 691.952932381116 L 40 690.538944132187 L 50 689.1068517056872 L 60 687.6591152015338 L 70 686.198221593604 L 80 684.7266804575208 L 90 683.2470196596148 L 100 681.7617810144638 L 110 680.2735159184724 L 120 678.7847809669912 L 130 677.2981335625057 L 140 675.8161275214379 L 150 674.3413086871087 L 160 672.8762105563967 L 170 671.4233499276057 L 180 669.9852225770184 L 190 668.5642989715618 L 200 667.1630200249502 L 210 665.7837929045961 L 220 664.4289868964909 L 230 663.1009293351605 L 240 661.8019016056858 L 250 660.5341352246583 L 260 659.2998080067991 L 270 658.101040323832 L 280 656.9398914620311 L 290 655.818356084706 L 300 654.7383608056966 L 310 653.7017608797665 L 320 652.7103370155803 L 330 651.765792316737 L 340 650.8697493561187 L 350 650.0237473885753 L 360 649.2292397067378 L 370 648.4875911444997 L 380 647.8000757324562 L 390 647.1678745093286 L 400 646.5920734931337 L 410 646.0736618155826 L 420 645.6135300229146 L 430 645.2124685460852 L 440 644.8711663429353 L 450 644.5902097146745 L 460 644.3700812987113 L 470 644.2111592395621 L 480 644.1137165392605 L 490 644.0779205883842 L 500 644.1038328785064 L 510 644.191408896562 L 520 644.3404982013154 L 530 644.5508446817923 L 540 644.8220869972373 L 550 645.1537591978379 L 560 645.5452915251495 L 570 645.9960113908476 L 580 646.5051445321233 L 590 647.0718163417408 L 600 647.6950533704689 L 610 648.3737849993065 L 620 649.1068452786313 L 630 649.8929749311096 L 640 650.7308235149284 L 650 651.6189517436325 L 660 652.5558339585833 L 670 653.5398607497898 L 680 654.5693417206107 L 690 655.6425083915792 L 700 656.75751723836 L 710 657.9124528586224 L 720 659.1053312623869 L 730 660.3341032801949 L 740 661.5966580832455 L 750 662.8908268094536 L 760 664.2143862891987 L 770 665.5650628643662 L 780 666.9405362941186 L 790 668.3384437406894 L 800 669.7563838283504 L 810 671.1919207685813 L 820 672.6425885443554 L 830 674.1058951463518 L 840 675.5793268538192 L 850 677.0603525527355 L 860 678.5464280838468 L 870 680.0350006131158 L 880 681.5235130170718 L 890 683.0094082755295 L 900 684.4901338641304 L 910 685.9631461391608 L 920 687.425914707115 L 930 688.8759267714958 L 940 690.3106914493869 L 950 691.7277440503816 L 960 693.1246503105164 L 970 694.499010573937 L 980 695.8484639151139 L 990 697.1706921945254 L 1000 698.4634240408404 L 1010 699.7244387527627 L 1020 700.9515701138309 L 1030 702.1427101136235 L 1040 703.2958125689746 L 1050 704.4088966389817 L 1060 705.4800502277644 L 1070 706.5074332691331 L 1080 707.4892808875193 L 1090 708.4239064297432 L 1100 709.3097043624076 L 1110 710.1451530299402 L 1120 710.9288172685484 L 1130 711.659350871596 L 1140 712.3354989021645 L 1150 712.95609984883 L 1160 713.5200876209481 L 1170 714.0264933800235 L 1180 714.4744472040156 L 1190 714.863179581722 L 1200 715.192022734672 L 1210 715.4604117642613 L 1220 715.6678856221542 L 1230 715.8140879022898 L 1240 715.8987674531289 L 1250 715.921778809091 L 1260 715.8830824404407 L 1270 715.7827448211929 L 1280 715.6209383149214 L 1290 715.3979408786669 L 1300 715.1141355854518 L 1310 714.7700099662243 L 1320 714.3661551723595 L 1330 713.9032649601588 L 1340 713.3821344990901 L 1350 712.8036590058169 L 1360 712.1688322063635 L 1370 711.478744629056 L 1380 710.7345817311736 L 1390 709.9376218625281 L 1400 709.0892340694676 L 1410 708.19087574308 L 1420 707.2440901156342 L 1430 706.2505036095597 L 1440 705.2118230435198 L 1450 704.1298327003774 L 1460 703.0063912620892 L 1470 701.8434286167953 L 1480 700.6429425435878 L 1490 699.4069952806534 L 1500 698.1377099826874 L 1510 696.8372670736616 L 1520 695.5079005012134 L 1530 694.1518938990904 L 1540 692.7715766642419 L 1550 691.3693199552976 L 1560 689.9475326193049 L 1570 688.5086570537256 L 1580 687.0551650107975 L 1590 685.5895533514692 L 1600 684.1143397562024 L 1610 682.6320584000102 L 1620 681.1452555991599 L 1630 679.6564854370187 L 1640 678.1683053765584 L 1650 676.6832718670524 L 1660 675.2039359525161 L 1670 673.7328388894308 L 1680 672.2725077812826 L 1690 670.825451237412 L 1700 669.3941550636362 L 1710 667.9810779920405 L 1720 666.588647457281 L 1730 665.2192554266497 L 1740 663.875254291067 L 1750 662.5589528240598 L 1760 661.2726122156673 L 1770 660.0184421880872 L 1780 658.7985971997358 L 1790 657.6151727442415 L 1800 656.47020175073 L 1810 655.3656510915864 L 1820 654.3034182036904 L 1830 653.2853278289308 L 1840 652.3131288795989 L 1850 651.3884914340433 L 1860 650.5130038677495 L 1870 649.6881701247712 L 1880 648.9154071342015 L 1890 648.1960423761204 L 1900 647.5313116012022 L 1910 646.9223567078988 L 1920 646.3702237808443 L 1930 645.8758612938547 L 1940 645.440118480604 L 1950 645.0637438757814 L 1960 644.74738402923 L 1970 644.4915823952815 L 1980 644.2967783991901 L 1990 644.1633066822718 L 2000 644.0913965270465 L 2010 644.0811714633669 L 2020 644.1326490562155 L 2030 644.2457408755306 L 2040 644.4202526481141 L 2050 644.6558845913618 L 2060 644.9522319282402 L 2070 645.3087855826271 L 2080 645.7249330538212 L 2090 646.1999594687178 L 2100 646.733048809843 L 2110 647.3232853171386 L 2120 647.9696550610872 L 2130 648.6710476844772 L 2140 649.4262583098141 L 2150 650.2339896091025 L 2160 651.0928540324429 L 2170 652.0013761916148 L 2180 652.9579953945516 L 2190 653.9610683263539 L 2200 655.0088718722346 L 2210 656.0996060775478 L 2220 657.2313972398156 L 2230 658.4023011274415 L 2240 659.6103063195818 L 2250 660.8533376614362 L 2260 662.1292598290237 L 2270 663.4358809973191 L 2280 664.7709566054489 L 2290 666.1321932124785 L 2300 667.5172524371676 L 2310 668.9237549749263 L 2320 670.349284685069 L 2330 671.7913927413493 L 2340 673.2476018386403 L 2350 674.7154104485398 L 2360 676.1922971165851 L 2370 677.6757247936987 L 2380 679.1631451944219 L 2390 680.652003174452 L 2400 682.1397411199608 L 2410 683.6238033411557 L 2420 685.1016404625352 L 2430 686.570713802299 L 2440 688.0284997333858 L 2450 689.4724940186516 L 2460 690.9002161127376 L 2470 692.3092134232411 L 2480 693.6970655238663 L 2490 695.0613883123202 L 2500 696.3998381058093 L 2510 697.710115667102 L 2520 698.9899701542408 L 2530 700.2372029871207 L 2540 701.4496716242883 L 2550 702.6252932434768 L 2560 703.7620483195532 L 2570 704.8579840937314 L 2580 705.9112179280911 L 2590 706.9199405396415 L 2600 707.8824191083722 L 2610 708.7970002539544 L 2620 709.6621128759765 L 2630 710.4762708528375 L 2640 711.2380755946597 L 2650 711.9462184458372 L 2660 712.5994829330912 L 2670 713.1967468551717 L 2680 713.7369842106154 L 2690 714.2192669602478 L 2700 714.6427666214021 L 2710 715.006755691117 L 2720 715.310608895867 L 2730 715.5538042656799 L 2740 715.7359240307959 L 2750 715.8566553393274 L 2760 715.9157907946868 L 2770 715.9132288118604 L 2780 715.8489737919145 L 2790 715.7231361144353 L 2800 715.5359319479145 L 2810 715.2876828784075 L 2820 714.9788153571016 L 2830 714.6098599677422 L 2840 714.1814505151774 L 2850 713.694322936585 L 2860 713.1493140372535 L 2870 712.547360053087 L 2880 711.8894950423064 L 2890 711.1768491091067 L 2900 710.4106464623229 L 2910 709.5922033124405 L 2920 708.7229256105616 L 2930 707.8043066332111 L 2940 706.8379244171335 L 2950 705.8254390484838 L 2960 704.7685898110716 L 2970 703.6691921985573 L 2980 702.5291347957317 L 2990 701.3503760342368 L 3000 700.1349408283014 L 3010 698.8849170962709 L 3020 697.6024521739057 L 3030 696.2897491256108 L 3040 694.949062959932 L 3050 693.5826967558218 L 3060 692.1929977063267 L 3070 690.7823530864948 L 3080 689.3531861524293 L 3090 687.9079519785311 L 3100 686.4491332400842 L 3110 684.979235948426 L 3120 683.5007851460325 L 3130 682.0163205689072 L 3140 680.528392283733 L 3150 679.0395563072747 L 3160 677.5523702155621 L 3170 676.0693887503936 L 3180 674.5931594307087 L 3190 673.1262181763685 L 3200 671.6710849518608 L 3210 670.2302594374152 L 3220 668.8062167349615 L 3230 667.4014031163114 L 3240 666.0182318208639 L 3250 664.6590789100566 L 3260 663.3262791856811 L 3270 662.022122179077 L 3280 660.7488482180922 L 3290 659.5086445785673 L 3300 658.3036417269547" fill="none" stroke="#10B981" stroke-opacity="0.04" stroke-width="1"/><path d="M -20 740 L 0 753.0799650487685 L 10 752.1103504223196 L 20 751.1111632695086 L 30 750.0848435270332 L 40 749.0338973872481 L 50 747.9608911782395 L 60 746.8684450970535 L 70 745.7592268113799 L 80 744.6359449453172 L 90 743.5013424651246 L 100 742.3581899811137 L 110 741.2092789820349 L 120 740.0574150184814 L 130 738.9054108519535 L 140 737.756079586317 L 150 736.6122277984225 L 160 735.4766486846659 L 170 734.3521152402213 L 180 733.2413734876043 L 190 732.1471357711001 L 200 731.0720741334317 L 210 730.0188137908407 L 220 728.9899267225152 L 230 727.9879253900184 L 240 727.015256602054 L 250 726.0742955395518 L 260 725.1673399556613 L 270 724.2966045648192 L 280 723.4642156345902 L 290 722.6722057934885 L 300 721.9225090674576 L 310 721.2169561571314 L 320 720.5572699674065 L 330 719.945061400243 L 340 719.3818254209693 L 350 718.8689374076927 L 360 718.4076497927346 L 370 717.9990890042891 L 380 717.6442527157731 L 390 717.3440074095863 L 400 717.0990862612293 L 410 716.9100873489464 L 420 716.7774721932649 L 430 716.701564629999 L 440 716.6825500194676 L 450 716.7204747938588 L 460 716.8152463438468 L 470 716.9666332447358 L 480 717.1742658215817 L 490 717.4376370519086 L 500 717.7561038038187 L 510 718.1288884064696 L 520 718.5550805490852 L 530 719.0336395038639 L 540 719.5633966673539 L 550 720.1430584140912 L 560 720.771209255532 L 570 721.4463152965641 L 580 722.1667279811592 L 590 722.9306881180167 L 600 723.7363301763721 L 610 724.5816868414754 L 620 725.4646938186207 L 630 726.3831948739918 L 640 727.3349471000154 L 650 728.3176263923667 L 660 729.328833125249 L 670 730.3660980110925 L 680 731.4268881303603 L 690 732.5086131167402 L 700 733.608631482615 L 710 734.7242570693694 L 720 735.852765606778 L 730 736.9914013654599 L 740 738.1373838861535 L 750 739.2879147693808 L 760 740.4401845089185 L 770 741.591379352393 L 780 742.7386881722423 L 790 743.8793093302694 L 800 745.0104575190236 L 810 746.1293705633021 L 820 747.2333161651662 L 830 748.3195985759977 L 840 749.3855651793067 L 850 750.4286129682124 L 860 751.4461949017822 L 870 752.4358261247057 L 880 753.3950900351172 L 890 754.3216441857469 L 900 755.2132260039946 L 910 756.0676583169542 L 920 756.8828546678991 L 930 757.6568244112462 L 940 758.3876775735562 L 950 759.0736294687006 L 960 759.7130050559254 L 970 760.3042430301693 L 980 760.8458996346485 L 990 761.3366521863968 L 1000 761.7753023061545 L 1010 762.1607788447164 L 1020 762.4921404985942 L 1030 762.7685781086053 L 1040 762.9894166357773 L 1050 763.1541168097388 L 1060 763.2622764455764 L 1070 763.3136314259385 L 1080 763.3080563459888 L 1090 763.2455648196355 L 1100 763.1263094462872 L 1110 762.9505814382165 L 1120 762.7188099094436 L 1130 762.4315608278722 L 1140 762.0895356332412 L 1150 761.6935695242634 L 1160 761.2446294191359 L 1170 760.7438115944014 L 1180 760.1923390079276 L 1190 759.5915583125385 L 1200 758.9429365675953 L 1210 758.2480576565519 L 1220 757.5086184192347 L 1230 756.7264245082946 L 1240 755.9033859799434 L 1250 755.0415126297466 L 1260 754.1429090848604 L 1270 753.2097696646971 L 1280 752.2443730225688 L 1290 751.249076581395 L 1300 750.2263107770608 L 1310 749.1785731234822 L 1320 748.1084221138739 L 1330 747.0184709731088 L 1340 745.9113812764278 L 1350 744.789856450082 L 1360 743.6566351697771 L 1370 742.5144846730432 L 1380 741.3661940018561 L 1390 740.214567192017 L 1400 739.0624164259153 L 1410 737.9125551654015 L 1420 736.7677912815324 L 1430 735.6309201979705 L 1440 734.5047180647788 L 1450 733.3919349792802 L 1460 732.2952882705349 L 1470 731.2174558638359 L 1480 730.1610697414254 L 1490 729.1287095154012 L 1500 728.1228961285049 L 1510 727.1460856981786 L 1520 726.2006635189176 L 1530 725.2889382375693 L 1540 724.4131362157974 L 1550 723.5753960934824 L 1560 722.7777635663296 L 1570 722.0221863904413 L 1580 721.3105096260492 L 1590 720.6444711320212 L 1600 720.0256973221466 L 1610 719.4556991935617 L 1620 718.9358686370125 L 1630 718.4674750379669 L 1640 718.0516621768747 L 1650 717.689445436146 L 1660 717.3817093206662 L 1670 717.1292052979051 L 1680 716.9325499628914 L 1690 716.7922235325368 L 1700 716.7085686729838 L 1710 716.6817896628413 L 1720 716.7119518943528 L 1730 716.7989817137134 L 1740 716.9426666009268 L 1750 717.1426556887625 L 1760 717.3984606195455 L 1770 717.7094567376885 L 1780 718.0748846150508 L 1790 718.493851905403 L 1800 718.9653355234661 L 1810 719.4881841432062 L 1820 720.0611210092815 L 1830 720.6827470547793 L 1840 721.3515443176279 L 1850 722.0658796473407 L 1860 722.8240086930414 L 1870 723.6240801630325 L 1880 724.4641403455046 L 1890 725.3421378793471 L 1900 726.2559287634115 L 1910 727.2032815919936 L 1920 728.1818830037523 L 1930 729.1893433307557 L 1940 730.2232024338633 L 1950 731.2809357101929 L 1960 732.3599602580028 L 1970 733.4576411839355 L 1980 734.5712980372205 L 1990 735.6982113551251 L 2000 736.8356293036695 L 2010 737.9807743973892 L 2020 739.1308502817369 L 2030 740.2830485615611 L 2040 741.4345556589872 L 2050 742.5825596839534 L 2060 743.7242573006265 L 2070 744.856860572928 L 2080 745.9776037724553 L 2090 747.0837501321737 L 2100 748.1725985293873 L 2110 749.2414900816684 L 2120 750.2878146396401 L 2130 751.3090171607566 L 2140 752.3026039485168 L 2150 753.2661487418752 L 2160 754.1972986399819 L 2170 755.0937798477817 L 2180 755.953403228443 L 2190 756.7740696490589 L 2200 757.5537751065649 L 2210 758.2906156213575 L 2220 758.9827918866628 L 2230 759.6286136623029 L 2240 760.2265039021296 L 2250 760.7750026050478 L 2260 761.2727703802237 L 2270 761.7185917177719 L 2280 762.1113779569353 L 2290 762.4501699445098 L 2300 762.7341403770206 L 2310 762.9625958209331 L 2320 763.1349784059623 L 2330 763.2508671873494 L 2340 763.3099791737751 L 2350 763.3121700184025 L 2360 763.2574343713609 L 2370 763.1459058928092 L 2380 762.9778569265492 L 2390 762.7536978349825 L 2400 762.4739759970381 L 2410 762.1393744715161 L 2420 761.7507103291114 L 2430 761.3089326571908 L 2440 760.815120242197 L 2450 760.270478935336 L 2460 759.6763387079826 L 2470 759.0341504039958 L 2480 758.3454821968704 L 2490 757.6120157603816 L 2500 756.8355421620685 L 2510 756.0179574895876 L 2520 755.1612582206163 L 2530 754.26753634761 L 2540 753.3389742693207 L 2550 752.3778394615508 L 2560 751.3864789401543 L 2570 750.3673135298086 L 2580 749.3228319525501 L 2590 748.2555847505101 L 2600 747.1681780576913 L 2610 746.063267235992 L 2620 744.9435503910214 L 2630 743.8117617835367 L 2640 742.6706651525928 L 2650 741.5230469667084 L 2660 740.3717096195278 L 2670 739.2194645865958 L 2680 738.0691255599546 L 2690 736.9235015773286 L 2700 735.7853901626742 L 2710 734.6575704948457 L 2720 733.5427966210586 L 2730 732.443790731722 L 2740 731.363236513063 L 2750 730.3037725937756 L 2760 729.2679861016958 L 2770 728.2584063462385 L 2780 727.2774986420227 L 2790 726.3276582887652 L 2800 725.4112047221478 L 2810 724.5303758499364 L 2820 723.687322587186 L 2830 722.8841036038747 L 2840 722.1226802977925 L 2850 721.4049120049627 L 2860 720.7325514592882 L 2870 720.1072405125129 L 2880 719.5305061249488 L 2890 719.0037566367583 L 2900 718.528278328898 L 2910 718.1052322821212 L 2920 717.7356515417105 L 2930 717.420438594861 L 2940 717.1603631668787 L 2950 716.9560603415705 L 2960 716.8080290104198 L 2970 716.7166306543324 L 2980 716.6820884609293 L 2990 716.7044867795387 L 3000 716.7837709152222 L 3010 716.9197472623363 L 3020 717.1120837773005 L 3030 717.3603107894234 L 3040 717.6638221478005 L 3050 718.0218767014882 L 3060 718.4336001093351 L 3070 718.8979869750558 L 3080 719.4139033023288 L 3090 719.9800892639273 L 3100 720.5951622781183 L 3110 721.2576203848187 L 3120 721.9658459132639 L 3130 722.7181094322339 L 3140 723.5125739731874 L 3150 724.3472995159962 L 3160 725.2202477263214 L 3170 726.1292869330667 L 3180 727.0721973337519 L 3190 728.046676415096 L 3200 729.0503445755751 L 3210 730.080750936222 L 3220 731.1353793254808 L 3230 732.2116544235009 L 3240 733.3069480508652 L 3250 734.4185855863997 L 3260 735.543852498387 L 3270 736.6800009732416 L 3280 737.8242566254542 L 3290 738.9738252724238 L 3300 740.1258997576333" fill="none" stroke="#10B981" stroke-opacity="0.04" stroke-width="1"/></g>
  
  <defs><radialGradient id="left-glow" cx="50%" cy="50%" r="50%">
    <stop offset="0%" stop-color="#34D399" stop-opacity="0.08"/>
    <stop offset="100%" stop-color="#34D399" stop-opacity="0"/>
  </radialGradient></defs><ellipse cx="540" cy="540" rx="400" ry="400" fill="url(#left-glow)"/>
  
  <!-- Large decorative triangles -->
  <g transform="translate(300, 250) rotate(0)">
    <polygon points="0,-120 103.92,60 -103.92,60" 
             fill="none" stroke="#10B981" stroke-opacity="0.35" stroke-width="1.5"/>
    <polygon points="0,-72 62.400000000000006,36 -62.400000000000006,36" 
             fill="none" stroke="#34D399" stroke-opacity="0.25" stroke-width="1"/>
  </g>
  <g transform="translate(700, 400) rotate(30)">
    <polygon points="0,-90 77.94,45 -77.94,45" 
             fill="none" stroke="#10B981" stroke-opacity="0.35" stroke-width="1.5"/>
    <polygon points="0,-54 46.800000000000004,27 -46.800000000000004,27" 
             fill="none" stroke="#34D399" stroke-opacity="0.25" stroke-width="1"/>
  </g>
  <g transform="translate(200, 600) rotate(60)">
    <polygon points="0,-70 60.62,35 -60.62,35" 
             fill="none" stroke="#10B981" stroke-opacity="0.35" stroke-width="1.5"/>
    <polygon points="0,-42 36.4,21 -36.4,21" 
             fill="none" stroke="#34D399" stroke-opacity="0.25" stroke-width="1"/>
  </g>
  <g transform="translate(800, 750) rotate(-30)">
    <polygon points="0,-60 51.96,30 -51.96,30" 
             fill="none" stroke="#10B981" stroke-opacity="0.35" stroke-width="1.5"/>
    <polygon points="0,-36 31.200000000000003,18 -31.200000000000003,18" 
             fill="none" stroke="#34D399" stroke-opacity="0.25" stroke-width="1"/>
  </g>
  <g transform="translate(400, 850) rotate(45)">
    <polygon points="0,-50 43.3,25 -43.3,25" 
             fill="none" stroke="#10B981" stroke-opacity="0.35" stroke-width="1.5"/>
    <polygon points="0,-30 26,15 -26,15" 
             fill="none" stroke="#34D399" stroke-opacity="0.25" stroke-width="1"/>
  </g>
  
  <!-- Dot grid pattern -->
  <g><circle cx="100" cy="200" r="2.5" fill="#10B981" opacity="0.3"/><circle cx="130" cy="200" r="2.5" fill="#10B981" opacity="0.3"/><circle cx="160" cy="200" r="2.5" fill="#10B981" opacity="0.3"/><circle cx="190" cy="200" r="2.5" fill="#10B981" opacity="0.3"/><circle cx="220" cy="200" r="2.5" fill="#10B981" opacity="0.3"/><circle cx="250" cy="200" r="2.5" fill="#10B981" opacity="0.3"/><circle cx="280" cy="200" r="2.5" fill="#10B981" opacity="0.3"/><circle cx="310" cy="200" r="2.5" fill="#10B981" opacity="0.3"/><circle cx="340" cy="200" r="2.5" fill="#10B981" opacity="0.3"/><circle cx="370" cy="200" r="2.5" fill="#10B981" opacity="0.3"/><circle cx="400" cy="200" r="2.5" fill="#10B981" opacity="0.3"/><circle cx="430" cy="200" r="2.5" fill="#10B981" opacity="0.3"/><circle cx="100" cy="230" r="2.5" fill="#10B981" opacity="0.3"/><circle cx="130" cy="230" r="2.5" fill="#10B981" opacity="0.3"/><circle cx="160" cy="230" r="2.5" fill="#10B981" opacity="0.3"/><circle cx="190" cy="230" r="2.5" fill="#10B981" opacity="0.3"/><circle cx="220" cy="230" r="2.5" fill="#10B981" opacity="0.3"/><circle cx="250" cy="230" r="2.5" fill="#10B981" opacity="0.3"/><circle cx="280" cy="230" r="2.5" fill="#10B981" opacity="0.3"/><circle cx="310" cy="230" r="2.5" fill="#10B981" opacity="0.3"/><circle cx="340" cy="230" r="2.5" fill="#10B981" opacity="0.3"/><circle cx="370" cy="230" r="2.5" fill="#10B981" opacity="0.3"/><circle cx="400" cy="230" r="2.5" fill="#10B981" opacity="0.3"/><circle cx="430" cy="230" r="2.5" fill="#10B981" opacity="0.3"/><circle cx="100" cy="260" r="2.5" fill="#10B981" opacity="0.3"/><circle cx="130" cy="260" r="2.5" fill="#10B981" opacity="0.3"/><circle cx="160" cy="260" r="2.5" fill="#10B981" opacity="0.3"/><circle cx="190" cy="260" r="2.5" fill="#10B981" opacity="0.3"/><circle cx="220" cy="260" r="2.5" fill="#10B981" opacity="0.3"/><circle cx="250" cy="260" r="2.5" fill="#10B981" opacity="0.3"/><circle cx="280" cy="260" r="2.5" fill="#10B981" opacity="0.3"/><circle cx="310" cy="260" r="2.5" fill="#10B981" opacity="0.3"/><circle cx="340" cy="260" r="2.5" fill="#10B981" opacity="0.3"/><circle cx="370" cy="260" r="2.5" fill="#10B981" opacity="0.3"/><circle cx="400" cy="260" r="2.5" fill="#10B981" opacity="0.3"/><circle cx="430" cy="260" r="2.5" fill="#10B981" opacity="0.3"/><circle cx="100" cy="290" r="2.5" fill="#10B981" opacity="0.3"/><circle cx="130" cy="290" r="2.5" fill="#10B981" opacity="0.3"/><circle cx="160" cy="290" r="2.5" fill="#10B981" opacity="0.3"/><circle cx="190" cy="290" r="2.5" fill="#10B981" opacity="0.3"/><circle cx="220" cy="290" r="2.5" fill="#10B981" opacity="0.3"/><circle cx="250" cy="290" r="2.5" fill="#10B981" opacity="0.3"/><circle cx="280" cy="290" r="2.5" fill="#10B981" opacity="0.3"/><circle cx="310" cy="290" r="2.5" fill="#10B981" opacity="0.3"/><circle cx="340" cy="290" r="2.5" fill="#10B981" opacity="0.3"/><circle cx="370" cy="290" r="2.5" fill="#10B981" opacity="0.3"/><circle cx="400" cy="290" r="2.5" fill="#10B981" opacity="0.3"/><circle cx="430" cy="290" r="2.5" fill="#10B981" opacity="0.3"/><circle cx="100" cy="320" r="2.5" fill="#10B981" opacity="0.3"/><circle cx="130" cy="320" r="2.5" fill="#10B981" opacity="0.3"/><circle cx="160" cy="320" r="2.5" fill="#10B981" opacity="0.3"/><circle cx="190" cy="320" r="2.5" fill="#10B981" opacity="0.3"/><circle cx="220" cy="320" r="2.5" fill="#10B981" opacity="0.3"/><circle cx="250" cy="320" r="2.5" fill="#10B981" opacity="0.3"/><circle cx="280" cy="320" r="2.5" fill="#10B981" opacity="0.3"/><circle cx="310" cy="320" r="2.5" fill="#10B981" opacity="0.3"/><circle cx="340" cy="320" r="2.5" fill="#10B981" opacity="0.3"/><circle cx="370" cy="320" r="2.5" fill="#10B981" opacity="0.3"/><circle cx="400" cy="320" r="2.5" fill="#10B981" opacity="0.3"/><circle cx="430" cy="320" r="2.5" fill="#10B981" opacity="0.3"/><circle cx="100" cy="350" r="2.5" fill="#10B981" opacity="0.3"/><circle cx="130" cy="350" r="2.5" fill="#10B981" opacity="0.3"/><circle cx="160" cy="350" r="2.5" fill="#10B981" opacity="0.3"/><circle cx="190" cy="350" r="2.5" fill="#10B981" opacity="0.3"/><circle cx="220" cy="350" r="2.5" fill="#10B981" opacity="0.3"/><circle cx="250" cy="350" r="2.5" fill="#10B981" opacity="0.3"/><circle cx="280" cy="350" r="2.5" fill="#10B981" opacity="0.3"/><circle cx="310" cy="350" r="2.5" fill="#10B981" opacity="0.3"/><circle cx="340" cy="350" r="2.5" fill="#10B981" opacity="0.3"/><circle cx="370" cy="350" r="2.5" fill="#10B981" opacity="0.3"/><circle cx="400" cy="350" r="2.5" fill="#10B981" opacity="0.3"/><circle cx="430" cy="350" r="2.5" fill="#10B981" opacity="0.3"/><circle cx="100" cy="380" r="2.5" fill="#10B981" opacity="0.3"/><circle cx="130" cy="380" r="2.5" fill="#10B981" opacity="0.3"/><circle cx="160" cy="380" r="2.5" fill="#10B981" opacity="0.3"/><circle cx="190" cy="380" r="2.5" fill="#10B981" opacity="0.3"/><circle cx="220" cy="380" r="2.5" fill="#10B981" opacity="0.3"/><circle cx="250" cy="380" r="2.5" fill="#10B981" opacity="0.3"/><circle cx="280" cy="380" r="2.5" fill="#10B981" opacity="0.3"/><circle cx="310" cy="380" r="2.5" fill="#10B981" opacity="0.3"/><circle cx="340" cy="380" r="2.5" fill="#10B981" opacity="0.3"/><circle cx="370" cy="380" r="2.5" fill="#10B981" opacity="0.3"/><circle cx="400" cy="380" r="2.5" fill="#10B981" opacity="0.3"/><circle cx="430" cy="380" r="2.5" fill="#10B981" opacity="0.3"/><circle cx="100" cy="410" r="2.5" fill="#10B981" opacity="0.3"/><circle cx="130" cy="410" r="2.5" fill="#10B981" opacity="0.3"/><circle cx="160" cy="410" r="2.5" fill="#10B981" opacity="0.3"/><circle cx="190" cy="410" r="2.5" fill="#10B981" opacity="0.3"/><circle cx="220" cy="410" r="2.5" fill="#10B981" opacity="0.3"/><circle cx="250" cy="410" r="2.5" fill="#10B981" opacity="0.3"/><circle cx="280" cy="410" r="2.5" fill="#10B981" opacity="0.3"/><circle cx="310" cy="410" r="2.5" fill="#10B981" opacity="0.3"/><circle cx="340" cy="410" r="2.5" fill="#10B981" opacity="0.3"/><circle cx="370" cy="410" r="2.5" fill="#10B981" opacity="0.3"/><circle cx="400" cy="410" r="2.5" fill="#10B981" opacity="0.3"/><circle cx="430" cy="410" r="2.5" fill="#10B981" opacity="0.3"/></g>
  
  <!-- Circuit lines -->
  <path d="M 80 300 L 163.33333333333331 300 L 163.33333333333331 286.49295333530455 L 246.66666666666663 286.49295333530455 L 246.66666666666663 267.69284108471203 L 329.99999999999994 267.69284108471203 L 329.99999999999994 260.83689674149707 L 413.33333333333326 260.83689674149707 L 413.33333333333326 248.30166556204836 L 496.6666666666666 248.30166556204836 L 496.6666666666666 261.4696938500481 L 579.9999999999999 261.4696938500481" fill="none" stroke="#10B981" stroke-opacity="0.4" stroke-width="1.5" stroke-linecap="round"/>
  <path d="M 80 500 L 160 500 L 160 516.3923278120858 L 240 516.3923278120858 L 240 533.0426823940189 L 320 533.0426823940189 L 320 547.3659257774207 L 400 547.3659257774207 L 400 546.1372465269466 L 480 546.1372465269466" fill="none" stroke="#10B981" stroke-opacity="0.4" stroke-width="1.5" stroke-linecap="round"/>
  <path d="M 80 700 L 150 700 L 150 685.3396265159465 L 220 685.3396265159465 L 220 690.6505341478781 L 290 690.6505341478781 L 290 681.8756707413057 L 360 681.8756707413057 L 360 681.5029872556264 L 430 681.5029872556264" fill="none" stroke="#10B981" stroke-opacity="0.4" stroke-width="1.5" stroke-linecap="round"/>
  
  <!-- Horizontal accent lines -->
  <line x1="100" y1="180" x2="600" y2="180" stroke="#10B981" stroke-opacity="0.1" stroke-width="1"/>
  <line x1="100" y1="920" x2="700" y2="920" stroke="#10B981" stroke-opacity="0.1" stroke-width="1"/>
  
  <!-- Code snippet decoration -->
  <rect x="100" y="380" width="280" height="120" rx="8" fill="#111820" stroke="#10B981" stroke-opacity="0.3" stroke-width="1"/>
  <text x="120" y="410" font-family="DM Mono, monospace" font-weight="400" font-size="11" fill="#34D399" opacity="0.6">const </text>
  <text x="175" y="410" font-family="DM Mono, monospace" font-weight="400" font-size="11" fill="#8A9BB0" opacity="0.6">nexa</text>
  <text x="210" y="410" font-family="DM Mono, monospace" font-weight="400" font-size="11" fill="#34D399" opacity="0.6"> = {</text>
  <text x="140" y="435" font-family="DM Mono, monospace" font-weight="400" font-size="11" fill="#5E7085" opacity="0.5">tech: </text>
  <text x="195" y="435" font-family="DM Mono, monospace" font-weight="400" font-size="11" fill="#10B981" opacity="0.6">"premium"</text>
  <text x="290" y="435" font-family="DM Mono, monospace" font-weight="400" font-size="11" fill="#5E7085" opacity="0.5">,</text>
  <text x="140" y="460" font-family="DM Mono, monospace" font-weight="400" font-size="11" fill="#5E7085" opacity="0.5">code: </text>
  <text x="200" y="460" font-family="DM Mono, monospace" font-weight="400" font-size="11" fill="#10B981" opacity="0.6">"clean"</text>
  <text x="265" y="460" font-family="DM Mono, monospace" font-weight="400" font-size="11" fill="#5E7085" opacity="0.5">,</text>
  <text x="140" y="485" font-family="DM Mono, monospace" font-weight="400" font-size="11" fill="#5E7085" opacity="0.5">  scale: </text>
  <text x="230" y="485" font-family="DM Mono, monospace" font-weight="400" font-size="11" fill="#10B981" opacity="0.6">"∞"</text>
  <text x="250" y="485" font-family="DM Mono, monospace" font-weight="400" font-size="11" fill="#5E7085" opacity="0.5">};</text>
  
  <!-- Circular decorative elements -->
  <circle cx="850" cy="300" r="60" fill="none" stroke="#10B981" stroke-opacity="0.12" stroke-width="1.5"/>
  <circle cx="850" cy="300" r="40" fill="none" stroke="#34D399" stroke-opacity="0.08" stroke-width="1"/>
  <circle cx="850" cy="300" r="20" fill="#10B981" opacity="0.05"/>
  
  <!-- Small decorative dots -->
  <circle cx="900" cy="200" r="4" fill="#10B981" opacity="0.3"/>
  <circle cx="950" cy="250" r="3" fill="#34D399" opacity="0.25"/>
  <circle cx="920" cy="350" r="5" fill="#10B981" opacity="0.2"/>
  
  <text x="540" y="980" font-family="DM Mono, monospace" font-weight="400" font-size="10" fill="#5E7085" text-anchor="middle" opacity="0.5">1/3</text>
</svg>