<svg xmlns="http://www.w3.org/2000/svg" width="1080" height="1080" viewBox="0 0 1080 1080">
  <rect width="1080" height="1080" fill="#060A0E"/>
  <g><line x1="0" y1="0" x2="0" y2="1080" stroke="#F0F4F8" stroke-opacity="0.015" stroke-width="0.5"/><line x1="80" y1="0" x2="80" y2="1080" stroke="#F0F4F8" stroke-opacity="0.015" stroke-width="0.5"/><line x1="160" y1="0" x2="160" y2="1080" stroke="#F0F4F8" stroke-opacity="0.015" stroke-width="0.5"/><line x1="240" y1="0" x2="240" y2="1080" stroke="#F0F4F8" stroke-opacity="0.015" stroke-width="0.5"/><line x1="320" y1="0" x2="320" y2="1080" stroke="#F0F4F8" stroke-opacity="0.015" stroke-width="0.5"/><line x1="400" y1="0" x2="400" y2="1080" stroke="#F0F4F8" stroke-opacity="0.015" stroke-width="0.5"/><line x1="480" y1="0" x2="480" y2="1080" stroke="#F0F4F8" stroke-opacity="0.015" stroke-width="0.5"/><line x1="560" y1="0" x2="560" y2="1080" stroke="#F0F4F8" stroke-opacity="0.015" stroke-width="0.5"/><line x1="640" y1="0" x2="640" y2="1080" stroke="#F0F4F8" stroke-opacity="0.015" stroke-width="0.5"/><line x1="720" y1="0" x2="720" y2="1080" stroke="#F0F4F8" stroke-opacity="0.015" stroke-width="0.5"/><line x1="800" y1="0" x2="800" y2="1080" stroke="#F0F4F8" stroke-opacity="0.015" stroke-width="0.5"/><line x1="880" y1="0" x2="880" y2="1080" stroke="#F0F4F8" stroke-opacity="0.015" stroke-width="0.5"/><line x1="960" y1="0" x2="960" y2="1080" stroke="#F0F4F8" stroke-opacity="0.015" stroke-width="0.5"/><line x1="1040" y1="0" x2="1040" y2="1080" stroke="#F0F4F8" stroke-opacity="0.015" stroke-width="0.5"/><line x1="0" y1="0" x2="1080" y2="0" stroke="#F0F4F8" stroke-opacity="0.015" stroke-width="0.5"/><line x1="0" y1="80" x2="1080" y2="80" stroke="#F0F4F8" stroke-opacity="0.015" stroke-width="0.5"/><line x1="0" y1="160" x2="1080" y2="160" stroke="#F0F4F8" stroke-opacity="0.015" stroke-width="0.5"/><line x1="0" y1="240" x2="1080" y2="240" stroke="#F0F4F8" stroke-opacity="0.015" stroke-width="0.5"/><line x1="0" y1="320" x2="1080" y2="320" stroke="#F0F4F8" stroke-opacity="0.015" stroke-width="0.5"/><line x1="0" y1="400" x2="1080" y2="400" stroke="#F0F4F8" stroke-opacity="0.015" stroke-width="0.5"/><line x1="0" y1="480" x2="1080" y2="480" stroke="#F0F4F8" stroke-opacity="0.015" stroke-width="0.5"/><line x1="0" y1="560" x2="1080" y2="560" stroke="#F0F4F8" stroke-opacity="0.015" stroke-width="0.5"/><line x1="0" y1="640" x2="1080" y2="640" stroke="#F0F4F8" stroke-opacity="0.015" stroke-width="0.5"/><line x1="0" y1="720" x2="1080" y2="720" stroke="#F0F4F8" stroke-opacity="0.015" stroke-width="0.5"/><line x1="0" y1="800" x2="1080" y2="800" stroke="#F0F4F8" stroke-opacity="0.015" stroke-width="0.5"/><line x1="0" y1="880" x2="1080" y2="880" stroke="#F0F4F8" stroke-opacity="0.015" stroke-width="0.5"/><line x1="0" y1="960" x2="1080" y2="960" stroke="#F0F4F8" stroke-opacity="0.015" stroke-width="0.5"/><line x1="0" y1="1040" x2="1080" y2="1040" stroke="#F0F4F8" stroke-opacity="0.015" stroke-width="0.5"/></g>
  <g><path d="M -20 200 L 0 199.78868909706483 L 10 201.79994682093408 L 20 203.80719394532878 L 30 205.80595796907917 L 40 207.79178529286213 L 50 209.76025114260727 L 60 211.70696942867545 L 70 213.6276025188408 L 80 215.51787090330197 L 90 217.37356273018582 L 100 219.1905431902973 L 110 220.96476373020488 L 120 222.69227107313267 L 130 224.36921602755947 L 140 225.99186206389743 L 150 227.55659364014002 L 160 229.0599242579282 L 170 230.4985042310849 L 180 231.86912814930724 L 190 233.16874202038707 L 200 234.3944500750452 L 210 235.54352121921656 L 220 236.6133951194106 L 230 237.6016879075863 L 240 238.5061974928314 L 250 239.32490846800994 L 260 240.05599660044538 L 270 240.6978328966332 L 280 241.24898723192626 L 290 241.70823153710504 L 300 242.07454253473287 L 310 242.34710401919892 L 320 242.52530867536822 L 330 242.60875943178732 L 340 242.59727034542948 L 350 242.49086701600862 L 360 242.28978652893866 L 370 241.9944769270653 L 380 241.60559621234745 L 390 241.1240108797126 L 400 240.55079398635309 L 410 239.88722276076504 L 420 239.13477575685778 L 430 238.2951295594745 L 440 237.37015504866494 L 450 236.36191323103435 L 460 235.27265064745654 L 470 234.10479436738416 L 480 232.86094658090883 L 490 231.54387880062242 L 500 230.15652568619714 L 510 228.70197850544542 L 520 227.18347824642922 L 530 225.60440839596603 L 540 223.96828740062267 L 550 222.27876082699456 L 560 220.5395932387397 L 570 218.7546598084657 L 580 216.9279376831606 L 590 215.06349712240672 L 600 213.16549242912367 L 610 211.2381526930473 L 620 209.28577236757076 L 630 207.31270170094382 L 640 205.32333704315118 L 650 203.32211105006832 L 660 201.31348280672069 L 670 199.30192789165525 L 680 197.29192840456042 L 690 195.28796297935642 L 700 193.29449680500744 L 710 191.31597167629235 L 720 189.3567960967009 L 730 187.4213354555094 L 740 185.5139023009221 L 750 183.63874673095222 L 760 181.80004692345267 L 770 180.0018998263975 L 780 178.2483120291586 L 790 176.54319083511638 L 800 174.89033555549798 L 810 173.2934290438402 L 820 171.75602948994188 L 830 170.281562491588 L 840 168.87331342171296 L 850 167.53442010800913 L 860 166.26786584129263 L 870 165.07647272820435 L 880 163.9628954030577 L 890 162.9296151128446 L 900 161.97893418857882 L 910 161.11297091529576 L 920 160.33365481213914 L 930 159.6427223330517 L 940 159.04171299764877 L 950 158.53196596089697 L 960 158.11461702924004 L 970 157.79059612982172 L 980 157.5606252384436 L 990 157.42521677087566 L 1000 157.3846724411033 L 1010 157.43908258905532 L 1020 157.5883259793106 L 1030 157.83207007123215 L 1040 158.16977175992616 L 1050 158.60067858637578 L 1060 159.12383041405278 L 1070 159.7380615682712 L 1080 160.44200343351662 L 1090 161.23408750296318 L 1100 162.1125488733838 L 1110 163.0754301776666 L 1120 164.12058594617434 L 1130 165.24568738722976 L 1140 166.4482275760751 L 1150 167.72552704074292 L 1160 169.07473973239325 L 1170 170.492859366813 L 1180 171.97672612294838 L 1190 173.52303368354416 L 1200 175.12833660220286 L 1210 176.78905798044775 L 1220 178.50149743768452 L 1230 180.26183935630308 L 1240 182.06616138354735 L 1250 183.9104431712104 L 1260 185.7905753336801 L 1270 187.7023686043764 L 1280 189.64156317017728 L 1290 191.60383816303477 L 1300 193.5848212876323 L 1310 195.58009856363114 L 1320 197.58522416079808 L 1330 199.5957303051006 L 1340 201.60713723369696 L 1350 203.6149631766386 L 1360 205.61473434304582 L 1370 207.60199488950374 L 1380 209.57231684846872 L 1390 211.52130999456227 L 1400 213.44463162676863 L 1410 215.33799624473988 L 1420 217.19718509764758 L 1430 219.01805558430505 L 1440 220.79655048361428 L 1450 222.5287069947718 L 1460 224.21066556708823 L 1470 225.83867849974934 L 1480 227.40911829235566 L 1490 228.91848572763374 L 1500 230.36341766831066 L 1510 231.74069455077787 L 1520 233.04724755884774 L 1530 234.2801654616179 L 1540 235.43670110020827 L 1550 236.514277508916 L 1560 237.51049365715053 L 1570 238.42312979935377 L 1580 239.25015242098524 L 1590 239.98971876955196 L 1600 240.64018096058612 L 1610 241.20008964942315 L 1620 241.66819726059737 L 1630 242.04346076766075 L 1640 242.32504401722986 L 1650 242.5123195920835 L 1660 242.60487020915895 L 1670 242.60248964933254 L 1680 242.50518321691203 L 1690 242.31316772781787 L 1700 242.02687102647897 L 1710 241.64693103251972 L 1720 241.1741943193624 L 1730 240.60971422791204 L 1740 239.95474851952682 L 1750 239.21075657350355 L 1760 238.3793961353229 L 1770 237.46251962289944 L 1780 236.4621699990675 L 1790 235.380576219499 L 1800 234.22014826619647 L 1810 232.98347177762753 L 1820 231.67330228746528 L 1830 230.29255908477302 L 1840 228.84431870931226 L 1850 227.33180809646865 L 1860 225.75839738706995 L 1870 224.127592418117 L 1880 222.44302691115936 L 1890 220.7084543757222 L 1900 218.9277397458236 L 1910 217.10485076821917 L 1920 215.24384916156112 L 1930 213.34888156617185 L 1940 211.4241703045965 L 1950 209.47400397352277 L 1960 207.50272788802977 L 1970 205.51473439945846 L 1980 203.51445310847706 L 1990 201.50634099514787 L 2000 199.49487248798897 L 2010 197.48452949415676 L 2020 195.47979141296503 L 2030 193.48512515499215 L 2040 191.50497518901528 L 2050 189.54375363894854 L 2060 187.60583045285185 L 2070 185.6955236659146 L 2080 183.81708977911046 L 2090 181.9747142749613 L 2100 180.17250229154286 L 2110 178.41446947551142 L 2120 176.7045330345351 L 2130 175.04650300906113 L 2140 173.44407378287485 L 2150 171.90081585135817 L 2160 170.4201678657965 L 2170 169.00542897145547 L 2180 167.65975145650287 L 2190 166.38613372815362 L 2200 165.1874136316888 L 2210 164.06626212723523 L 2220 163.02517733839403 L 2230 162.06647898598086 L 2240 161.19230321927702 L 2250 160.40459785631262 L 2260 159.70511804378287 L 2270 159.09542234627213 L 2280 158.57686927349607 L 2290 158.15061425330234 L 2300 157.81760705717315 L 2310 157.57858968396658 L 2320 157.4340947066122 L 2330 157.38444408544427 L 2340 157.42974845081747 L 2350 157.56990685660287 L 2360 157.80460700511352 L 2370 158.1333259429593 L 2380 158.55533122627898 L 2390 159.06968255275484 L 2400 159.67523385677225 L 2410 160.3706358630563 L 2420 161.1543390930954 L 2430 162.02459731765313 L 2440 162.97947144767582 L 2450 164.01683385492464 L 2460 165.13437311270832 L 2470 166.32959914614875 L 2480 167.59984878050918 L 2490 168.94229167521672 L 2500 170.35393663036183 L 2510 171.83163825161978 L 2520 173.37210395874504 L 2530 174.97190132202152 L 2540 176.62746571032233 L 2550 178.33510823373814 L 2560 180.0910239630742 L 2570 181.89130040790667 L 2580 183.73192623430015 L 2590 185.6088002027706 L 2600 187.51774030656958 L 2610 189.45449308993489 L 2620 191.41474312554118 L 2630 193.3941226300344 L 2640 195.3882211962246 L 2650 197.39259562025214 L 2660 199.40277980183149 L 2670 201.41429469550997 L 2680 203.42265829077445 L 2690 205.42339559876018 L 2700 207.41204862331867 L 2710 209.38418629421895 L 2720 211.3354143403556 L 2730 213.26138508096082 L 2740 215.15780711300513 L 2750 217.02045487320152 L 2760 218.84517805330665 L 2770 220.6279108477415 L 2780 222.36468101292292 L 2790 224.05161871812595 L 2800 225.68496516814832 L 2810 227.26108097857207 L 2820 228.776454284953 L 2830 230.2277085678768 L 2840 231.61161017643943 L 2850 232.92507553339323 L 2860 234.16517800590157 L 2870 235.32915442659367 L 2880 236.41441125039006 L 2890 237.41853033337827 L 2900 238.33927432086585 L 2910 239.1745916326006 L 2920 239.92262103405483 L 2930 240.58169578358383 L 2940 241.15034734622137 L 2950 241.62730866583456 L 2960 242.0115169883489 L 2970 242.30211622975213 L 2980 242.4984588836005 L 2990 242.6001074637777 L 3000 242.60683547929108 L 3010 242.5186279389335 L 3020 242.3356813846866 L 3030 242.0584034537905 L 3040 241.68741197045586 L 3050 241.22353356924253 L 3060 240.6678018531717 L 3070 240.0214550906759 L 3080 239.2859334565179 L 3090 238.46287582282736 L 3100 237.55411610740356 L 3110 236.56167918742364 L 3120 235.4877763876572 L 3130 234.33480055324554 L 3140 233.1053207180185 L 3150 231.80207638023484 L 3160 230.4279713984947 L 3170 228.9860675214307 L 3180 227.47957756559077 L 3190 225.91185825671533 L 3200 224.28640275035954 L 3210 222.6068328485251 L 3220 220.87689092964686 L 3230 219.10043160991077 L 3240 217.28141315449022 L 3250 215.42388865782974 L 3260 213.53199701263688 L 3270 211.60995368769613 L 3280 209.66204133506113 L 3290 207.69260024754888 L 3300 205.70601868780074" fill="none" stroke="#10B981" stroke-opacity="0.04" stroke-width="1"/><path d="M -20 260 L 0 293.297457564528 L 10 293.17338451367726 L 20 292.98951696567013 L 30 292.74618633883307 L 40 292.44383123274474 L 50 292.08299663766763 L 60 291.6643329522115 L 70 291.18859481100037 L 80 290.65663972445554 L 90 290.0694265331469 L 100 289.4280136794978 L 110 288.73355729995967 L 120 287.98730914109444 L 130 287.1906143033213 L 140 286.3449088163944 L 150 285.4517170509825 L 160 284.51264897101476 L 170 283.52939723174666 L 180 282.5037341287757 L 190 281.4375084035068 L 200 280.33264191082554 L 210 279.1911261549852 L 220 278.0150186999522 L 230 276.8064394606795 L 240 275.56756688199414 L 250 274.30063401198476 L 260 273.0079244769681 L 270 271.6917683652892 L 280 270.3545380273738 L 290 268.9986437996048 L 300 267.6265296597293 L 310 266.24066882162754 L 320 264.8435592773845 L 330 263.4377192946985 L 340 262.02568287774443 L 350 260.60999519967095 L 360 259.19320801496684 L 370 257.7778750599642 L 380 256.3665474497689 L 390 254.96176907991705 L 400 253.56607204104301 L 410 252.1819720548269 L 420 250.81196393944606 L 430 249.4585171127052 L 440 248.12407114095004 L 450 246.81103134178778 L 460 245.52176444854067 L 470 244.25859434424655 L 480 243.02379787289706 L 490 241.81960073546225 L 500 240.64817347810038 L 510 239.51162757978273 L 520 238.41201164638667 L 530 237.35130771811598 L 540 236.33142769690508 L 550 235.35420990024622 L 560 234.42141574765145 L 570 233.534726585722 L 580 232.695740657548 L 590 231.9059702219004 L 600 231.166838827409 L 610 230.47967874663848 L 620 229.84572857468848 L 630 229.2661309966455 L 640 228.7419307279114 L 650 228.2740726311204 L 660 227.8634000130393 L 670 227.51065310452043 L 680 227.21646772624746 L 690 226.98137414267845 L 700 226.80579610625298 L 710 226.69005009358483 L 720 226.6343447350181 L 730 226.63878043857423 L 740 226.70334920896823 L 750 226.82793466202003 L 760 227.01231223443503 L 770 227.25614958857597 L 780 227.55900721149618 L 790 227.92033920715465 L 800 228.33949428038503 L 810 228.8157169108446 L 820 229.34814871482791 L 830 229.93582999248952 L 840 230.57770145768788 L 850 231.27260614733146 L 860 232.0192915067866 L 870 232.81641164758705 L 880 233.6625297733766 L 890 234.5561207697116 L 900 235.4955739530555 L 910 236.47919597401008 L 920 237.50521386955108 L 930 238.5717782587655 L 940 239.67696667633152 L 950 240.81878703773128 L 960 241.99518122995184 L 970 243.20402882120084 L 980 244.4431508829512 L 990 245.71031391742503 L 1000 247.00323388343764 L 1010 248.31958031334568 L 1020 249.65698051367778 L 1030 251.01302384187667 L 1040 252.38526605144423 L 1050 253.77123369765644 L 1060 255.16842859590858 L 1070 256.57433232465297 L 1080 257.9864107648137 L 1090 259.4021186674956 L 1100 260.81890424175555 L 1110 262.23421375416433 L 1120 263.6454961318707 L 1130 265.05020756086975 L 1140 266.44581607118664 L 1150 267.8298061007127 L 1160 269.1996830294657 L 1170 270.5529776761029 L 1180 271.8872507485806 L 1190 273.20009724093984 L 1200 274.48915076829087 L 1210 275.75208783218443 L 1220 276.98663200868054 L 1230 278.19055805156654 L 1240 279.3616959033278 L 1250 280.49793460664205 L 1260 281.59722610934597 L 1270 282.657588956017 L 1280 283.6771118595148 L 1290 284.65395714604614 L 1300 285.58636406754255 L 1310 286.4726519753807 L 1320 287.31122334972457 L 1330 288.1005666790298 L 1340 288.83925918451905 L 1350 289.52596938471805 L 1360 290.15945949542976 L 1370 290.7385876608207 L 1380 291.26231001159783 L 1390 291.72968254656644 L 1400 292.1398628341772 L 1410 292.4921115309956 L 1420 292.78579371435666 L 1430 293.020380026803 L 1440 293.19544763024334 L 1450 293.31068096811106 L 1460 293.36587233415037 L 1470 293.36092224680306 L 1480 293.29583962852274 L 1490 293.17074178969216 L 1500 292.9858542171731 L 1510 292.7415101678698 L 1520 292.438150068039 L 1530 292.0763207194283 L 1540 291.65667431367484 L 1550 291.17996725674027 L 1560 290.6470588055012 L 1570 290.05890951895213 L 1580 289.4165795268131 L 1590 288.7212266186632 L 1600 287.9741041570428 L 1610 287.17655881828784 L 1620 286.33002816516705 L 1630 285.436038055698 L 1640 284.4961998928124 L 1650 283.5122077198279 L 1660 282.4858351669619 L 1670 281.41893225439156 L 1680 280.3134220576217 L 1690 279.17129724117206 L 1700 277.99461646683096 L 1710 276.78550068295044 L 1720 275.5461293014705 L 1730 274.2787362695639 L 1740 272.9856060429821 L 1750 271.6690694683597 L 1760 270.3314995819009 L 1770 268.97530733201955 L 1780 267.60293723364276 L 1790 266.216862962012 L 1800 264.8195828939226 L 1810 263.4136156044396 L 1820 262.0014953272061 L 1830 260.58576738652783 L 1840 259.16898360946624 L 1850 257.7536977262111 L 1860 256.3424607670223 L 1870 254.93781646403886 L 1880 253.54229666624184 L 1890 252.1584167758371 L 1900 250.78867121428283 L 1910 249.43552892613457 L 1920 248.1014289288121 L 1930 246.78877591630925 L 1940 245.49993592477145 L 1950 244.23723206775307 L 1960 243.00294034884234 L 1970 241.79928555920117 L 1980 240.62843726741454 L 1990 239.49250590887758 L 2000 238.39353898176935 L 2010 237.33351735647022 L 2020 236.31435170507436 L 2030 235.3378790574338 L 2040 234.40585948994138 L 2050 233.519972953021 L 2060 232.68181624304398 L 2070 231.8929001241287 L 2080 231.15464660501266 L 2090 230.46838637590417 L 2100 229.83535640993455 L 2110 229.2566977335337 L 2120 228.73345336974822 L 2130 228.2665664582089 L 2140 227.85687855513657 L 2150 227.5051281164505 L 2160 227.21194916671323 L 2170 226.97787015631158 L 2180 226.80331300893306 L 2190 226.68859236105524 L 2200 226.63391499481847 L 2210 226.63937946530444 L 2220 226.70497592289217 L 2230 226.83058613101173 L 2240 227.01598367926385 L 2250 227.26083439152114 L 2260 227.564696928275 L 2270 227.92702358214325 L 2280 228.34716126510392 L 2290 228.82435268567602 L 2300 229.3577377139253 L 2310 229.94635493183472 L 2320 230.58914336624537 L 2330 231.28494440124337 L 2340 232.03250386654676 L 2350 232.83047429812746 L 2360 233.67741736699367 L 2370 234.571806471755 L 2380 235.5120294902971 L 2390 236.4963916856062 L 2400 237.52311876050544 L 2410 238.59036005579742 L 2420 239.69619188604776 L 2430 240.8386210069976 L 2440 242.01558820835464 L 2450 243.22497202548658 L 2460 244.46459256332776 L 2470 245.73221542560503 L 2480 247.02555574230158 L 2490 248.3422822880985 L 2500 249.68002168437155 L 2510 251.03636267716828 L 2520 252.40886048345476 L 2530 253.79504119779816 L 2540 255.1924062515417 L 2550 256.5984369164351 L 2560 258.0105988446021 L 2570 259.42634663666183 L 2580 260.8431284297711 L 2590 262.2583904973162 L 2600 263.6695818519645 L 2610 265.07415884377855 L 2620 266.46958974510466 L 2630 267.85335931397134 L 2640 269.2229733277733 L 2650 270.5759630790676 L 2660 271.9098898253798 L 2670 273.22234918499834 L 2680 274.51097547083384 L 2690 275.7734459545332 L 2700 277.0074850531598 L 2710 278.2108684308958 L 2720 279.38142700837193 L 2730 280.5170508723984 L 2740 281.61569307905006 L 2750 282.6753733432501 L 2760 283.69418160820226 L 2770 284.67028148823783 L 2780 285.6019135788717 L 2790 286.4873986281008 L 2800 287.32514056322896 L 2810 288.11362936776294 L 2820 288.8514438031926 L 2830 289.53725397075084 L 2840 290.16982370853526 L 2850 290.74801281966984 L 2860 291.270779127492 L 2870 291.73718035405915 L 2880 292.14637581858983 L 2890 292.49762795277746 L 2900 292.7903036302454 L 2910 293.0238753077471 L 2920 293.19792197605454 L 2930 293.31212991882046 L 2940 293.36629327804735 L 2950 293.36031442514303 L 2960 293.29420413689456 L 2970 293.1680815760434 L 2980 292.98217407649645 L 2990 292.73681673356026 L 3000 292.43245179993716 L 3010 292.0696278885716 L 3020 291.64899898378434 L 3030 291.1713232624758 L 3040 290.6374617275248 L 3050 290.0483766558438 L 3060 289.405129863891 L 3070 288.70888079376226 L 3080 287.96088442331575 L 3090 287.16248900409414 L 3100 286.3151336311227 L 3110 285.42034564896335 L 3120 284.47973789870065 L 3130 283.4950058108211 L 3140 282.46792434922713 L 3150 281.4003448118924 L 3160 280.29419149392726 L 3170 279.15145821906697 L 3180 277.9742047458366 L 3190 276.76455305486866 L 3200 275.52468352406737 L 3210 274.2568309985116 L 3220 272.96328076218265 L 3230 271.6463644187761 L 3240 270.30845568902345 L 3250 268.951966132098 L 3260 267.57934079881824 L 3270 266.19305382448226 L 3280 264.7956039692789 L 3290 263.38951011431163 L 3300 261.9773067213559" fill="none" stroke="#10B981" stroke-opacity="0.04" stroke-width="1"/><path d="M -20 320 L 0 292.9789357861946 L 10 293.7536429911068 L 20 294.5594166432973 L 30 295.3953029904158 L 40 296.26031263728174 L 50 297.15342171697966 L 60 298.0735731027577 L 70 299.01967765929277 L 80 299.9906155318442 L 90 300.985237471767 L 100 302.00236619681783 L 110 303.04079778464285 L 120 304.09930309779764 L 130 305.1766292386137 L 140 306.27150103218804 L 150 307.38262253574106 L 160 308.50867857255724 L 170 309.6483362886907 L 180 310.8002467305957 L 190 311.96304644181225 L 200 313.13535907681893 L 210 314.31579703014125 L 220 315.5029630787883 L 230 316.6954520360727 L 240 317.89185241485706 L 250 319.09074809825785 L 260 320.29072001582927 L 270 321.4903478232432 L 280 322.68821158347674 L 290 323.88289344751786 L 300 325.0729793325996 L 310 326.257060595976 L 320 327.4337357022596 L 330 328.60161188234565 L 340 329.7593067819607 L 350 330.90545009788303 L 360 332.0386851998998 L 370 333.15767073657946 L 380 334.2610822229592 L 390 335.3476136082697 L 400 336.41597882183873 L 410 337.4649132953467 L 420 338.49317545963 L 430 339.49954821426184 L 440 340.4828403681709 L 450 341.4418880495922 L 460 342.3755560836812 L 470 343.2827393361619 L 480 344.16236402141607 L 490 345.0133889734677 L 500 345.83480687835726 L 510 346.6256454664464 L 520 347.38496866324317 L 530 348.1118776973846 L 540 348.8055121644658 L 550 349.46505104545565 L 560 350.0897136784943 L 570 350.6787606829223 L 580 351.23149483444666 L 590 351.74726189040916 L 600 352.22545136417943 L 610 352.665497247756 L 620 353.0668786817206 L 630 353.4291205717525 L 640 353.75179415097267 L 650 354.03451748745306 L 660 354.27695593628954 L 670 354.4788225357034 L 680 354.6398783467034 L 690 354.7599327359054 L 700 354.8388436011748 L 710 354.8765175398259 L 720 354.8729099591776 L 730 354.82802512933534 L 740 354.7419161781371 L 750 354.6146850282684 L 760 354.4464822766219 L 770 354.2375070160437 L 780 353.9880065996774 L 790 353.6982763481852 L 800 353.36865920019204 L 810 352.99954530636705 L 820 352.5913715676226 L 830 352.1446211179773 L 840 351.6598227526954 L 850 351.13755030237934 L 860 350.5784219537564 L 870 349.9830995179633 L 880 349.3522876471945 L 890 348.68673300064233 L 900 347.9872233607154 L 910 347.25458670058106 L 920 346.48969020413733 L 930 345.69343923957194 L 940 344.86677628772514 L 950 344.01067982652467 L 960 343.1261631728116 L 970 342.2142732829303 L 980 341.2760895135009 L 990 340.3127223438405 L 1000 339.325312061547 L 1010 338.31502741279974 L 1020 337.28306421897565 L 1030 336.23064396121754 L 1040 335.15901233463035 L 1050 334.0694377738172 L 1060 332.9632099514985 L 1070 331.84163825199414 L 1080 330.70605022137306 L 1090 329.55778999610607 L 1100 328.39821671208165 L 1110 327.22870289586723 L 1120 326.050632840121 L 1130 324.8654009650768 L 1140 323.6744101680413 L 1150 322.47907016285757 L 1160 321.2807958113001 L 1170 320.08100544837635 L 1180 318.881119203518 L 1190 317.68255731964655 L 1200 316.4867384721068 L 1210 315.295078089454 L 1220 314.1089866780848 L 1230 312.9298681526945 L 1240 311.7591181745356 L 1250 310.59812249944713 L 1260 309.4482553376068 L 1270 308.3108777269501 L 1280 307.18733592218086 L 1290 306.0789598012789 L 1300 304.98706129139356 L 1310 303.91293281598286 L 1320 302.85784576503977 L 1330 301.82304899021386 L 1340 300.8097673266101 L 1350 299.8192001430161 L 1360 298.852519922271 L 1370 297.91087087345886 L 1380 296.9953675775679 L 1390 296.1070936682187 L 1400 295.2471005490237 L 1410 294.4164061490955 L 1420 293.61599371817687 L 1430 292.8468106628195 L 1440 292.1097674249879 L 1450 291.4057364044167 L 1460 290.73555092599656 L 1470 290.10000425341053 L 1480 289.4998486501896 L 1490 288.9357944892972 L 1500 288.40850941229763 L 1510 287.9186175391036 L 1520 287.4666987292379 L 1530 287.0532878954839 L 1540 286.67887437073705 L 1550 286.3439013288071 L 1560 286.0487652598563 L 1570 285.7938155010943 L 1580 285.5793538232865 L 1590 285.40563407356314 L 1600 285.27286187495383 L 1610 285.18119438300243 L 1620 285.1307400997499 L 1630 285.1215587453065 L 1640 285.1536611871637 L 1650 285.22700942733127 L 1660 285.3415166473134 L 1670 285.4970473108713 L 1680 285.6934173244502 L 1690 285.9303942550816 L 1700 286.2076976055017 L 1710 286.524999146162 L 1720 286.8819233037368 L 1730 287.27804760567057 L 1740 287.7129031802361 L 1750 288.18597531151386 L 1760 288.69670404863456 L 1770 289.2444848685636 L 1780 289.82866939164364 L 1790 290.44856614904796 L 1800 291.1034414012361 L 1810 291.7925200064431 L 1820 292.5149863381744 L 1830 293.2699852506209 L 1840 294.0566230908499 L 1850 294.87396875657623 L 1860 295.7210547982592 L 1870 296.5968785642225 L 1880 297.50040338744054 L 1890 298.4305598125875 L 1900 299.38624686189615 L 1910 300.3663333383274 L 1920 301.36965916450987 L 1930 302.3950367558629 L 1940 303.4412524262786 L 1950 304.50706782469933 L 1960 305.59122140088874 L 1970 306.6924298986637 L 1980 307.80938987481784 L 1990 308.9407792419391 L 2000 310.0852588332961 L 2010 311.24147398794025 L 2020 312.40805615414706 L 2030 313.58362450929997 L 2040 314.76678759429785 L 2050 315.9561449605533 L 2060 317.1502888276302 L 2070 318.3478057495605 L 2080 319.5472782878669 L 2090 320.74728668931016 L 2100 321.94641056637823 L 2110 323.1432305785244 L 2120 324.33633011216676 L 2130 325.5242969574607 L 2140 326.7057249798574 L 2150 327.8792157844726 L 2160 329.0433803712939 L 2170 330.1968407792674 L 2180 331.33823171731933 L 2190 332.4662021803789 L 2200 333.5794170484938 L 2210 334.6765586671416 L 2220 335.75632840686893 L 2230 336.81744820041195 L 2240 337.85866205547757 L 2250 338.8787375413966 L 2260 339.8764672478876 L 2270 340.85067021420554 L 2280 341.80019332698396 L 2290 342.7239126851148 L 2300 343.620734930052 L 2310 344.48959853996297 L 2320 345.3294750861968 L 2330 346.13937045058185 L 2340 346.91832600211154 L 2350 347.6654197316259 L 2360 348.3797673431464 L 2370 349.0605233005703 L 2380 349.70688182848846 L 2390 350.3180778659393 L 2400 350.8933879719717 L 2410 351.4321311819449 L 2420 351.9336698135502 L 2430 352.39741022160274 L 2440 352.8228035007086 L 2450 353.20934613497496 L 2460 353.55658059399633 L 2470 353.864095874409 L 2480 354.1315279863745 L 2490 354.3585603844157 L 2500 354.54492434209465 L 2510 354.6903992700906 L 2520 354.7948129772999 L 2530 354.8580418746496 L 2540 354.8800111213835 L 2550 354.8606947136473 L 2560 354.8001155152678 L 2570 354.6983452306904 L 2580 354.55550432010614 L 2590 354.3717618568694 L 2600 354.1473353273743 L 2610 353.88249037362766 L 2620 353.57754047882224 L 2630 353.23284659628297 L 2640 352.8488167222252 L 2650 352.4259054128311 L 2660 351.96461324621487 L 2670 351.4654862299146 L 2680 350.9291151546115 L 2690 350.3561348948418 L 2700 349.74722365752865 L 2710 349.1031021792239 L 2720 348.42453287301 L 2730 347.7123189260709 L 2740 346.9673033490013 L 2750 346.19036797797924 L 2760 345.38243243098174 L 2770 344.54445301928155 L 2780 343.6774216155111 L 2790 342.782364479634 L 2800 341.8603410442152 L 2810 340.9124426604252 L 2820 339.9397913062648 L 2830 338.9435382585382 L 2840 337.9248627301459 L 2850 336.8849704743126 L 2860 335.8250923573994 L 2870 334.746482901991 L 2880 333.6504188019835 L 2890 332.5381974114271 L 2900 331.41113520891673 L 2910 330.2705662393442 L 2920 329.1178405348583 L 2930 327.95432251690323 L 2940 326.7813893812225 L 2950 325.6004294677449 L 2960 324.41284061727873 L 2970 323.22002851695964 L 2980 322.0234050364128 L 2990 320.8243865565954 L 3000 319.6243922933012 L 3010 318.4248426173079 L 3020 317.2271573731579 L 3030 316.0327541985635 L 3040 314.84304684642115 L 3050 313.65944351142707 L 3060 312.48334516327 L 3070 311.31614388837573 L 3080 310.159221242168 L 3090 309.01394661379186 L 3100 307.8816756052401 L 3110 306.76374842679735 L 3120 305.6614883107023 L 3130 304.5761999449075 L 3140 303.5091679287874 L 3150 302.4616552526253 L 3160 301.4349018026774 L 3170 300.43012289358353 L 3180 299.44850782986305 L 3190 298.49121849819676 L 3200 297.55938799216165 L 3210 296.6541192710479 L 3220 295.77648385434213 L 3230 294.92752055342675 L 3240 294.1082342419923 L 3250 293.3195946666207 L 3260 292.562535298947 L 3270 291.83795223075725 L 3280 291.1467031133317 L 3290 290.48960614228713 L 3300 289.86743908912155" fill="none" stroke="#10B981" stroke-opacity="0.04" stroke-width="1"/><path d="M -20 380 L 0 386.7816641918682 L 10 387.6692886577806 L 20 388.5408449535956 L 30 389.39450705405363 L 40 390.2284864245922 L 50 391.0410357685606 L 60 391.83045268803727 L 70 392.59508325057743 L 80 393.33332545441925 L 90 394.04363258488905 L 100 394.72451645497193 L 110 395.37455052325976 L 120 395.9923728827434 L 130 396.5766891141872 L 140 397.1262749981079 L 150 397.63997907967575 L 160 398.11672508116396 L 170 398.55551415689246 L 180 398.95542698594113 L 190 399.31562569824814 L 200 399.63535563005837 L 210 399.9139469050431 L 220 400.15081583777936 L 230 400.3454661566477 L 240 400.4974900435868 L 250 400.6065689885256 L 260 400.6724744567044 L 270 400.6950683674848 L 280 400.67430338364727 L 290 400.61022301056846 L 300 400.5029615050721 L 310 400.35274359414285 L 320 400.15988400409395 L 330 399.92478680117415 L 340 399.64794454499537 L 350 399.32993725655587 L 360 398.9714312030195 L 370 398.5731775017983 L 380 398.1360105468627 L 390 397.660846260576 L 400 397.1486801747167 L 410 396.6005853447078 L 420 396.01771010142477 L 430 395.40127564529087 L 440 394.7525734877013 L 450 394.0729627451368 L 460 393.36386729163576 L 470 392.62677277559004 L 480 391.86322350711634 L 490 391.0748192225229 L 500 390.2632117326509 L 510 389.4301014621138 L 520 388.5772338866829 L 530 387.7063958762864 L 540 386.81941195128115 L 550 385.91814045984216 L 560 385.0044696844783 L 570 384.0803138858318 L 580 383.1476092920501 L 590 382.20831004213244 L 600 381.26438409175165 L 610 380.31780909012747 L 620 379.370568236591 L 630 378.42464612552084 L 640 377.4820245883563 L 650 376.54467854139966 L 660 375.61457184810615 L 670 374.69365320453136 L 680 373.7838520565562 L 690 372.8870745574439 L 700 372.0051995741974 L 710 371.1400747510855 L 720 370.2935126385851 L 730 369.4672868958488 L 740 368.66312857465545 L 750 367.88272249262843 L 760 367.12770370332106 L 770 366.3996540705639 L 780 365.7000989542514 L 790 365.0305040145124 L 800 364.3922721409587 L 810 363.7867405134467 L 820 363.2151778005093 L 830 362.6787815013284 L 840 362.17867543681604 L 850 361.7159073950619 L 860 361.29144693607896 L 870 360.9061833604476 L 880 360.56092384611367 L 890 360.25639175724467 L 900 359.99322512868605 L 910 359.77197532919445 L 920 359.5931059062475 L 930 359.4569916148507 L 940 359.36391763237634 L 950 359.3140789610794 L 960 359.30758001954194 L 970 359.3444344239028 L 980 359.4245649593295 L 990 359.5478037417938 L 1000 359.71389256981104 L 1010 359.92248346540566 L 1020 360.17313940317143 L 1030 360.46533522589715 L 1040 360.79845874484005 L 1050 361.1718120223419 L 1060 361.58461283410037 L 1070 362.03599630803217 L 1080 362.5250167362936 L 1090 363.05064955666353 L 1100 363.61179349913584 L 1110 364.2072728932254 L 1120 364.83584013115274 L 1130 365.49617828174615 L 1140 366.18690384958666 L 1150 366.90656967361275 L 1160 367.65366795911365 L 1170 368.4266334367578 L 1180 369.2238466420383 L 1190 370.04363730826446 L 1200 370.8842878659906 L 1210 371.7440370415501 L 1220 372.62108354715593 L 1230 373.513589854836 L 1240 374.41968604629614 L 1250 375.3374737306451 L 1260 376.26503002177407 L 1270 377.20041156705594 L 1280 378.14165861892525 L 1290 379.0867991408076 L 1300 380.0338529387959 L 1310 380.98083581041766 L 1320 381.9257637018003 L 1330 382.8666568645257 L 1340 383.8015440034638 L 1350 384.7284664068956 L 1360 385.64548205027234 L 1370 386.5506696650125 L 1380 387.442132763813 L 1390 388.31800361403964 L 1400 389.17644715087306 L 1410 390.01566482201156 L 1420 390.8338983558746 L 1430 391.62943344541407 L 1440 392.4006033398127 L 1450 393.145792336547 L 1460 393.8634391664971 L 1470 394.5520402650106 L 1480 395.2101529220692 L 1490 395.836398304956 L 1500 396.42946434709165 L 1510 396.98810849698685 L 1520 397.5111603215512 L 1530 397.9975239583049 L 1540 398.44618041135493 L 1550 398.85618968632576 L 1560 399.2266927597713 L 1570 399.5569133789422 L 1580 399.84615968813785 L 1590 400.0938256782347 L 1600 400.2993924563559 L 1610 400.46242933301966 L 1620 400.5825947244908 L 1630 400.65963686844333 L 1640 400.6933943514362 L 1650 400.68379644709535 L 1660 400.63086326429465 L 1670 400.5347057050256 L 1680 400.3955252320428 L 1690 400.21361344677285 L 1700 399.9893514783712 L 1710 399.7232091852061 L 1720 399.41574417044353 L 1730 399.0676006137952 L 1740 398.679507921877 L 1750 398.25227920000634 L 1760 397.7868095486389 L 1770 397.2840741880158 L 1780 396.74512641494834 L 1790 396.1710953960226 L 1800 395.56318380184666 L 1810 394.9226652872971 L 1820 394.2508818230445 L 1830 393.54924088394785 L 1840 392.81921250020935 L 1850 392.0623261774676 L 1860 391.2801676922817 L 1870 390.4743757697204 L 1880 389.6466386500172 L 1890 388.7986905514849 L 1900 387.9323080370993 L 1910 387.04930629236617 L 1920 386.15153532226816 L 1930 385.24087607526087 L 1940 384.31923650243783 L 1950 383.38854756012194 L 1960 382.450759164257 L 1970 381.5078361050776 L 1980 380.5617539306144 L 1990 379.61449480766044 L 2000 378.6680433688713 L 2010 377.7243825546976 L 2020 376.7854894588638 L 2030 375.85333118609645 L 2040 374.9298607307803 L 2050 374.01701288517813 L 2060 373.116700185786 L 2070 372.2308089063171 L 2080 371.3611951057102 L 2090 370.50968073944114 L 2100 369.6780498422868 L 2110 368.8680447905364 L 2120 368.0813626514842 L 2130 367.3196516278498 L 2140 366.58450760457634 L 2150 365.87747080524105 L 2160 365.2000225650843 L 2170 364.5535822274168 L 2180 363.9395041699088 L 2190 363.3590749669898 L 2200 362.8135106943064 L 2210 362.30395438088294 L 2220 361.8314736143255 L 2230 361.397058304085 L 2240 361.00161860746687 L 2250 360.64598302273095 L 2260 360.3308966532791 L 2270 360.0570196465651 L 2280 359.8249258109989 L 2290 359.6351014137421 L 2300 359.4879441619148 L 2310 359.38376236934613 L 2320 359.32277431061647 L 2330 359.3051077637436 L 2340 359.3307997424705 L 2350 359.3997964187172 L 2360 359.51195323535717 L 2370 359.6670352090839 L 2380 359.8647174227318 L 2390 360.1045857060205 L 2400 360.3861375032959 L 2410 360.70878292645097 L 2420 361.0718459908184 L 2430 361.47456603144826 L 2440 361.91609929680055 L 2450 362.39552071651644 L 2460 362.91182583956214 L 2470 363.46393293868636 L 2480 364.0506852767813 L 2490 364.6708535303993 L 2500 365.3231383653476 L 2510 366.00617315896426 L 2520 366.718526863373 L 2530 367.4587070037169 L 2540 368.22516280508995 L 2550 369.0162884416147 L 2560 369.8304264008588 L 2570 370.66587095654256 L 2580 371.52087174225943 L 2590 372.3936374187247 L 2600 373.2823394268672 L 2610 374.18511581890147 L 2620 375.10007515935354 L 2630 376.0253004878675 L 2640 376.9588533354902 L 2650 377.8987777860185 L 2660 378.84310457390217 L 2670 379.789855210114 L 2680 380.73704612734537 L 2690 381.6826928358407 L 2700 382.6248140811654 L 2710 383.5614359951946 L 2720 384.49059623162685 L 2730 385.41034807735844 L 2740 386.3187645311035 L 2750 387.2139423407158 L 2760 388.0940059907527 L 2770 388.95711163192686 L 2780 389.8014509442137 L 2790 390.62525492551987 L 2800 391.42679759797585 L 2810 392.2043996240868 L 2820 392.9564318251661 L 2830 393.6813185946789 L 2840 394.3775411993459 L 2850 395.04364096108924 L 2860 395.67822231315546 L 2870 396.2799557240116 L 2880 396.84758048288904 L 2890 397.37990734113845 L 2900 397.8758210038626 L 2910 398.33428246660594 L 2920 398.7543311922058 L 2930 399.1350871232445 L 2940 399.47575252588535 L 2950 399.7756136612302 L 2960 400.0340422806965 L 2970 400.2504969422809 L 2980 400.4245241449514 L 2990 400.5557592787919 L 3000 400.64392738890797 L 3010 400.68884375149355 L 3020 400.6904142608517 L 3030 400.6486356265584 L 3040 400.56359538035645 L 3050 400.435471692765 L 3060 400.2645329997886 L 3070 400.05113744050874 L 3080 399.795732106735 L 3090 399.49885210628895 L 3100 399.1611194418828 L 3110 398.7832417079418 L 3120 398.3660106081004 L 3130 397.9103002964792 L 3140 397.41706554621686 L 3150 396.8873397490943 L 3160 396.32223275044316 L 3170 395.72292852387324 L 3180 395.09068269069223 L 3190 394.4268198892132 L 3200 393.7327309994633 L 3210 393.00987022910635 L 3220 392.2597520666867 L 3230 391.48394810857593 L 3240 390.6840837662714 L 3250 389.86183486094507 L 3260 389.01892411237753 L 3270 388.15711752963284 L 3280 387.2782207110372 L 3290 386.3840750612121 L 3300 385.4765539330897" fill="none" stroke="#10B981" stroke-opacity="0.04" stroke-width="1"/><path d="M -20 440 L 0 433.99065978503006 L 10 435.26233103845647 L 20 436.5413603220592 L 30 437.8257611871982 L 40 439.11353884267976 L 50 440.40269325284777 L 60 441.6912222438212 L 70 442.97712461305167 L 80 444.2584032373732 L 90 445.53306817471537 L 100 446.79913975466434 L 110 448.05465165307083 L 120 449.2976539459299 L 130 450.5262161377903 L 140 451.738430159989 L 150 452.93241333405524 L 160 454.10631129568117 L 170 455.25830087471803 L 180 456.38659292672486 L 190 457.48943511167244 L 200 458.56511461548666 L 210 459.6119608102038 L 220 460.62834784860814 L 230 461.6126971893199 L 240 462.5634800484135 L 250 463.4792197737579 L 260 464.35849413839145 L 270 465.19993754936934 L 280 466.0022431686538 L 290 466.76416494275196 L 300 467.4845195379504 L 310 468.16218817813944 L 320 468.7961183823745 L 330 469.3853255994743 L 340 469.92889473711847 L 350 470.42598158306873 L 360 470.8758141163076 L 370 471.2776937060567 L 380 471.63099619681424 L 390 471.93517287772465 L 400 472.18975133477704 L 410 472.3943361845066 L 420 472.548609688061 L 430 472.6523322446781 L 440 472.70534276380727 L 450 472.7075589152978 L 460 472.6589772572652 L 470 472.5596732414366 L 480 472.40980109596745 L 490 472.2095935859112 L 500 471.95936165171395 L 510 471.6594939262958 L 520 471.3104561314686 L 530 470.91279035462753 L 540 470.4671142068404 L 550 469.9741198636414 L 560 469.4345729900197 L 570 468.84931155127214 L 580 468.21924451156696 L 590 467.5453504222401 L 600 466.8286759020159 L 610 466.0703340115132 L 620 465.27150252456113 L 630 464.43342209900965 L 640 463.5573943498747 L 650 462.6447798278122 L 660 461.69699590605944 L 670 460.7155145791253 L 680 459.7018601766496 L 690 458.6576069959802 L 700 457.5843768571467 L 710 456.4838365840263 L 720 455.3576954156152 L 730 454.2077023514249 L 740 453.03564343512755 L 750 451.84333898066745 L 760 450.63264074514854 L 770 449.40542905288714 L 780 448.1636098750977 L 790 446.9091118697463 L 800 445.64388338617005 L 810 444.36988943911285 L 820 443.0891086568797 L 830 441.803530208347 L 840 440.5151507136027 L 850 439.2259711430137 L 860 437.9379937095375 L 870 436.6532187591035 L 880 435.37364166389415 L 890 434.10124972335046 L 900 432.8380190777158 L 910 431.58591163891043 L 920 430.34687204350445 L 930 429.12282463251995 L 940 427.9156704627553 L 950 426.7272843542708 L 960 425.5595119786232 L 970 424.41416699237 L 980 423.29302822029587 L 990 422.19783689273663 L 1000 421.13029394129035 L 1010 420.09205735711555 L 1020 419.0847396159211 L 1030 418.1099051736444 L 1040 417.1690680367097 L 1050 416.26368941063816 L 1060 415.3951754306634 L 1070 414.56487497787543 L 1080 413.77407758428603 L 1090 413.0240114300683 L 1100 412.31584143608137 L 1110 411.65066745464253 L 1120 411.0295225613565 L 1130 410.4533714506556 L 1140 409.92310893754114 L 1150 409.43955856785493 L 1160 409.0034713392376 L 1170 408.6155245347609 L 1180 408.2763206710459 L 1190 407.9863865624996 L 1200 407.7461725031248 L 1210 407.55605156717206 L 1220 407.4163190297219 L 1230 407.3271919080955 L 1240 407.2888086248074 L 1250 407.30122879258266 L 1260 407.36443312177255 L 1270 407.47832345031367 L 1280 407.64272289618214 L 1290 407.8573761321077 L 1300 408.1219497821198 L 1310 408.43603293931136 L 1320 408.7991378040139 L 1330 409.21070044139503 L 1340 409.67008165730044 L 1350 410.1765679909805 L 1360 410.72937282315945 L 1370 411.3276375977267 L 1380 411.9704331551525 L 1390 412.6567611755569 L 1400 413.3855557291913 L 1410 414.15568493192427 L 1420 414.9659527031601 L 1430 415.81510062346086 L 1440 416.70180988898613 L 1450 417.6247033597148 L 1460 418.5823476982688 L 1470 419.57325559601645 L 1480 420.59588808299736 L 1490 421.64865691808296 L 1500 422.729927055659 L 1510 423.83801918500006 L 1520 424.97121233839124 L 1530 426.12774656394794 L 1540 427.3058256589804 L 1550 428.5036199596599 L 1560 429.71926918265285 L 1570 430.9508853143097 L 1580 432.1965555429215 L 1590 433.45434522949046 L 1600 434.7223009123999 L 1610 435.9984533413174 L 1620 437.2808205356195 L 1630 438.567410862588 L 1640 439.85622613059587 L 1650 441.14526469248057 L 1660 442.43252455428393 L 1670 443.71600648453057 L 1680 444.99371711921594 L 1690 446.2636720576817 L 1700 447.52389894456985 L 1710 448.77244053307044 L 1720 450.0073577247028 L 1730 451.22673258091214 L 1740 452.4286713018021 L 1750 453.6113071673782 L 1760 454.7728034367331 L 1770 455.9113562006724 L 1780 457.0251971833495 L 1790 458.11259648855827 L 1800 459.1718652864193 L 1810 460.2013584362857 L 1820 461.19947704179646 L 1830 462.1646709341071 L 1840 463.0954410794433 L 1850 463.990341907236 L 1860 464.8479835552239 L 1870 465.667034028036 L 1880 466.4462212659013 L 1890 467.18433512027275 L 1900 467.8802292332985 L 1910 468.5328228182194 L 1920 469.1411023379289 L 1930 469.70412307908845 L 1940 470.221010619353 L 1950 470.6909621854284 L 1960 471.1132478998512 L 1970 471.48721191455445 L 1980 471.81227342945965 L 1990 472.0879275945117 L 2000 472.31374629375733 L 2010 472.4893788102474 L 2020 472.6145523707328 L 2030 472.6890725693056 L 2040 472.7128236693296 L 2050 472.6857687831893 L 2060 472.60794992958 L 2070 472.4794879682489 L 2080 472.3005824122891 L 2090 472.0715111182772 L 2100 471.79262985473736 L 2110 471.4643717496 L 2120 471.0872466175152 L 2130 470.6618401680637 L 2140 470.1888130960975 L 2150 469.6689000556199 L 2160 469.1029085188017 L 2170 468.4917175219035 L 2180 467.83627630005236 L 2190 467.13760281299346 L 2200 466.39678216410636 L 2210 465.61496491514066 L 2220 464.7933652992894 L 2230 463.93325933537415 L 2240 463.03598284607267 L 2250 462.10292938326415 L 2260 461.13554806371695 L 2270 460.13534131847877 L 2280 459.1038625594646 L 2290 458.0427137668668 L 2300 456.9535430011349 L 2310 455.8380418433873 L 2320 454.69794276823285 L 2330 453.53501645307995 L 2340 452.35106902811395 L 2350 451.1479392712128 L 2360 449.9274957521585 L 2370 448.69163393057767 L 2380 447.4422732121212 L 2390 446.18135396745294 L 2400 444.91083451867746 L 2410 443.6326880978884 L 2420 442.34889978255956 L 2430 441.0614634125394 L 2440 439.7723784934366 L 2450 438.4836470912062 L 2460 437.19727072275964 L 2470 435.9152472474267 L 2480 434.6395677640993 L 2490 433.37221351887314 L 2500 432.1151528279932 L 2510 430.87033802087984 L 2520 429.6397024079835 L 2530 428.4251572781784 L 2540 427.22858893035715 L 2550 426.0518557438372 L 2560 424.89678529212915 L 2570 423.7651715045489 L 2580 422.6587718800827 L 2590 421.57930475783155 L 2600 420.5284466482742 L 2610 419.50782962949484 L 2620 418.51903881241685 L 2630 417.5636098789819 L 2640 416.6430266970965 L 2650 415.75871901605024 L 2660 414.91206024598534 L 2670 414.10436532486597 L 2680 413.3368886762602 L 2690 412.610822261106 L 2700 411.9272937264883 L 2710 411.28736465429984 L 2720 410.69202891250865 L 2730 410.14221111159065 L 2740 409.63876516852554 L 2750 409.18247298058634 L 2760 408.7740432109817 L 2770 408.4141101882377 L 2780 408.1032329210282 L 2790 407.84189422998327 L 2800 407.630499997825 L 2810 407.46937853899504 L 2820 407.3587800897521 L 2830 407.29887641953246 L 2840 407.28976056417656 L 2850 407.33144668143564 L 2860 407.4238700289836 L 2870 407.5668870649677 L 2880 407.7602756709423 L 2890 408.0037354968384 L 2900 408.29688842743525 L 2910 408.6392791696073 L 2920 409.0303759594356 L 2930 409.46957138808597 L 2940 409.9561833451695 L 2950 410.4894560781224 L 2960 411.06856136595815 L 2970 411.69259980556984 L 2980 412.3606022085851 L 2990 413.07153110660346 L 3000 413.8242823624792 L 3010 414.6176868851465 L 3020 415.4505124453239 L 3030 416.3214655892786 L 3040 417.22919364767733 L 3050 418.1722868364048 L 3060 419.1492804460863 L 3070 420.1586571169148 L 3080 421.19884919524804 L 3090 422.2682411683171 L 3100 423.3651721732649 L 3110 424.48793857661644 L 3120 425.63479662017687 L 3130 426.80396512924585 L 3140 427.99362827894396 L 3150 429.2019384143535 L 3160 430.4270189200945 L 3170 431.66696713487875 L 3180 432.91985730651544 L 3190 434.1837435827795 L 3200 435.45666303349685 L 3210 436.73663869915293 L 3220 438.02168266129024 L 3230 439.30979912992706 L 3240 440.59898754319966 L 3250 441.88724567441716 L 3260 443.17257274170106 L 3270 444.45297251538136 L 3280 445.72645641832264 L 3290 446.9910466143648 L 3300 448.2447790800821" fill="none" stroke="#10B981" stroke-opacity="0.04" stroke-width="1"/><path d="M -20 500 L 0 502.666002105177 L 10 501.1686812691643 L 20 499.66913498662745 L 30 498.1702187496072 L 40 496.67478685038816 L 50 495.18568694624867 L 60 493.7057546368456 L 70 492.2378080645595 L 80 490.7846425480825 L 90 489.3490252594684 L 100 487.93368995478 L 110 486.5413317683685 L 120 485.17460208069855 L 130 483.8361034694901 L 140 482.52838475379303 L 150 481.25393614043026 L 160 480.0151844820533 L 170 478.8144886558387 L 180 477.65413507162594 L 190 476.5363333180504 L 200 475.4632119549624 L 210 474.4368144601435 L 220 473.4590953380405 L 230 472.5319163979245 L 240 471.6570432085642 L 250 470.8361417361642 L 260 470.0707751719699 L 270 469.36240095558 L 280 468.71236799963566 L 290 468.1219141211712 L 300 467.5921636845159 L 310 467.1241254602381 L 320 466.71869070420604 L 330 466.3766314604256 L 340 466.09859909088505 L 350 465.8851230352072 L 360 465.7366098024709 L 370 465.65334219712105 L 380 465.6354787804418 L 390 465.6830535686185 L 400 465.7959759679625 L 410 465.97403094742316 L 420 466.21687944805814 L 430 466.52405902868185 L 440 466.89498474646336 L 450 467.3289502707965 L 460 467.8251292283207 L 470 468.38257677653235 L 480 469.00023140298885 L 490 469.6769169466805 L 500 470.4113448377201 L 510 471.20211655108585 L 520 472.04772626974517 L 530 472.9465637520873 L 540 473.89691739820597 L 550 474.89697750919146 L 560 475.94483973322724 L 570 477.03850869192763 L 580 478.1759017800117 L 590 479.35485313107847 L 600 480.5731177419301 L 610 481.8283757475913 L 620 483.11823683888247 L 630 484.44024481413595 L 640 485.791882256387 L 650 487.17057532713295 L 660 488.573698667533 L 670 489.9985803977142 L 680 491.4425072046653 L 690 492.9027295090282 L 700 494.3764667009503 L 710 495.86091243502506 L 720 497.3532399742401 L 730 498.85060757275545 L 740 500.3501638872617 L 750 501.84905340661487 L 760 503.34442188940716 L 770 504.83342179912006 L 780 506.3132177265099 L 790 507.7809917888998 L 800 509.23394899609747 L 810 510.66932257271935 L 820 512.0843792267883 L 830 513.4764243545699 L 840 514.8428071717373 L 850 516.1809257610945 L 860 517.4882320272434 L 870 518.7622365487629 L 880 520.0005133186578 L 890 521.2007043640518 L 900 522.3605242363282 L 910 523.4777643631654 L 920 524.5502972541841 L 930 525.5760805521929 L 940 526.5531609223218 L 950 527.4796777716349 L 960 528.3538667921416 L 970 529.1740633204571 L 980 529.9387055077169 L 990 530.646337293708 L 1000 531.2956111795528 L 1010 531.8852907936667 L 1020 532.4142532461035 L 1030 532.8814912668039 L 1040 533.2861151236771 L 1050 533.6273543168617 L 1060 533.9045590459403 L 1070 534.1172014473143 L 1080 534.2648765993802 L 1090 534.3473032935977 L 1100 534.3643245699772 L 1110 534.3159080159681 L 1120 534.2021458281812 L 1130 534.0232546368235 L 1140 533.7795750931834 L 1150 533.4715712209495 L 1160 533.0998295325998 L 1170 532.6650579125418 L 1180 532.1680842691339 L 1190 531.6098549581502 L 1200 530.9914329806952 L 1210 530.3139959589969 L 1220 529.5788338939351 L 1230 528.7873467085731 L 1240 527.9410415823721 L 1250 527.0415300811638 L 1260 526.0905250883466 L 1270 525.0898375431484 L 1280 524.0413729921698 L 1290 522.94712796077 L 1300 521.8091861512088 L 1310 520.6297144747833 L 1320 519.4109589255144 L 1330 518.1552403032404 L 1340 516.8649497942644 L 1350 515.5425444179672 L 1360 514.1905423480596 L 1370 512.8115181173816 L 1380 511.40809771538153 L 1390 509.9829535876077 L 1400 508.53879954673897 L 1410 507.0783856048405 L 1420 505.6044927366885 L 1430 504.11992758413373 L 1440 502.62751711158984 L 1450 501.13010322282173 L 1460 499.6305373492861 L 1470 498.13167502032985 L 1480 496.63637042558366 L 1490 495.147470979908 L 1500 493.66781190123936 L 1510 492.2002108116619 L 1520 490.74746237198707 L 1530 489.312332960055 L 1540 487.8975554028956 L 1550 486.5058237727765 L 1560 485.1397882570505 L 1570 483.8020501115693 L 1580 482.49515670727556 L 1590 481.2215966794033 L 1600 479.9837951885265 L 1610 478.7841093024773 L 1620 477.6248235079292 L 1630 476.5081453601928 L 1640 475.4362012795061 L 1650 474.4110325018257 L 1660 473.4345911918291 L 1670 472.5087367255299 L 1680 471.63523214958445 L 1690 470.8157408240325 L 1700 470.0518232548651 L 1710 469.3449341224504 L 1720 468.69641951147753 L 1730 468.1075143476912 L 1740 467.5793400463007 L 1750 467.11290237653844 L 1760 466.7090895464371 L 1770 466.36867051147067 L 1780 466.09229351028046 L 1790 465.88048483027507 L 1800 465.73364780545427 L 1810 465.6520620483653 L 1820 465.635882917654 L 1830 465.68514122222547 L 1840 465.79974316257625 L 1850 465.97947050941104 L 1860 466.223981019203 L 1870 466.53280908590665 L 1880 466.90536662758234 L 1890 467.3409442062439 L 1900 467.8387123787966 L 1910 468.3977232764943 L 1920 469.01691240990584 L 1930 469.6951006959561 L 1940 470.4309967031798 L 1950 471.22319911091347 L 1960 472.07019937774277 L 1970 472.97038461412325 L 1980 473.922040653705 L 1990 474.9233553175121 L 2000 475.9724218647617 L 2010 477.06724262375076 L 2020 478.20573279589735 L 2030 479.3857244256918 L 2040 480.60497052899905 L 2050 481.8611493718489 L 2060 483.1518688915693 L 2070 484.4746712518411 L 2080 485.8270375230019 L 2090 487.20639247868587 L 2100 488.610109499666 L 2110 490.03551557556096 L 2120 491.4798963948804 L 2130 492.94050151371925 L 2140 494.4145495932551 L 2150 495.8992336960777 L 2160 497.39172663126396 L 2170 498.8891863380206 L 2180 500.3887612976424 L 2190 501.88759596348063 L 2200 503.38283619858163 L 2210 504.8716347106409 L 2220 506.35115647392365 L 2230 507.8185841278266 L 2240 509.2711233418014 L 2250 510.70600813642284 L 2260 512.1205061504708 L 2270 513.5119238439937 L 2280 514.8776116274489 L 2290 516.2149689071493 L 2300 517.5214490374112 L 2310 518.7945641699722 L 2320 520.0318899914448 L 2330 521.2310703397843 L 2340 522.3898216909809 L 2350 523.505937507431 L 2360 524.5772924397089 L 2370 525.6018463737363 L 2380 526.5776483156441 L 2390 527.5028401069271 L 2400 528.3756599628197 L 2410 529.1944458271514 L 2420 529.957638537297 L 2430 530.6637847931918 L 2440 531.3115399247599 L 2450 531.8996704524858 L 2460 532.427056436251 L 2470 532.8926936079669 L 2480 533.2956952839392 L 2490 533.6352940533238 L 2500 533.91084323946 L 2510 534.1218181312952 L 2520 534.2678169825604 L 2530 534.3485617767898 L 2540 534.3638987567302 L 2550 534.3137987171317 L 2560 534.1983570603611 L 2570 534.0177936147328 L 2580 533.7724522159043 L 2590 533.4628000521311 L 2600 533.0894267746291 L 2610 532.6530433747394 L 2620 532.1544808300313 L 2630 531.5946885219242 L 2640 530.9747324278402 L 2650 530.2957930913294 L 2660 529.5591633740356 L 2670 528.7662459937803 L 2680 527.9185508534554 L 2690 527.0176921658091 L 2700 526.0653853796026 L 2710 525.0634439129877 L 2720 524.0137757003288 L 2730 522.9183795590424 L 2740 521.779341383375 L 2750 520.5988301723651 L 2760 519.3790938995537 L 2770 518.12245523231 L 2780 516.831307108921 L 2790 515.5081081818688 L 2800 514.1553781359731 L 2810 512.7756928903133 L 2820 511.37167969306665 L 2830 509.9460121186048 L 2840 508.501404976373 L 2850 507.04060914124915 L 2860 505.56640631522464 L 2870 504.0816037303838 L 2880 502.5890288032675 L 2890 501.0915237508012 L 2900 499.5919401780392 L 2910 498.0931336480315 L 2920 496.5979582441546 L 2930 495.1092611352589 L 2940 493.6298771539835 L 2950 492.162623398562 L 2960 490.710293868399 L 2970 489.2756541436315 L 2980 487.861436118809 L 2990 486.47033280071673 L 3000 485.10499318025205 L 3010 483.7680171881171 L 3020 482.4619507439335 L 3030 481.1892809082073 L 3040 479.952431146375 L 3050 478.75375671395074 L 3060 477.5955401715604 L 3070 476.47998703840466 L 3080 475.40922159242666 L 3090 474.3852828251828 L 3100 473.41012055911887 L 3110 472.4855917346451 L 3120 471.6134568740812 L 3130 470.7953767292038 L 3140 470.0329091187809 L 3150 469.3275059621151 L 3160 468.680510514245 L 3170 468.0931548080682 L 3180 467.5665573082589 L 3190 467.101720781445 L 3200 466.6995303867032 L 3210 466.36075199000516 L 3220 466.08603070582774 L 3230 465.87588966870135 L 3240 465.73072903703786 L 3250 465.6508252311339 L 3260 465.63633040680133 L 3270 465.6872721656259 L 3280 465.8035535024078 L 3290 465.9849529898823 L 3300 466.23112520036983" fill="none" stroke="#10B981" stroke-opacity="0.04" stroke-width="1"/><path d="M -20 560 L 0 536.2047157108257 L 10 535.0022216845169 L 20 533.8305776369738 L 30 532.6912295044523 L 40 531.585583366535 L 50 530.5150037108754 L 60 529.4808117492718 L 70 528.4842837871482 L 80 527.5266496484551 L 90 526.6090911579315 L 100 525.7327406826059 L 110 524.898679734332 L 120 524.1079376350842 L 130 523.361490246664 L 140 522.6602587663789 L 150 522.0051085901854 L 160 521.3968482446961 L 170 520.83622838937 L 180 520.3239408901165 L 190 519.8606179654585 L 200 519.4468314063046 L 210 519.0830918702984 L 220 518.7698482516104 L 230 518.507487126954 L 240 518.296332278508 L 250 518.1366442943336 L 260 518.0286202467811 L 270 517.9723934492806 L 280 517.968033291819 L 290 518.0155451553051 L 300 518.1148704049288 L 310 518.2658864625234 L 320 518.46840695784 L 330 518.7221819585482 L 340 519.026898278681 L 350 519.382179865139 L 360 519.7875882617822 L 370 520.2426231505312 L 380 520.7467229688154 L 390 521.2992656026015 L 400 521.8995691541502 L 410 522.5468927835523 L 420 523.2404376230056 L 430 523.9793477627051 L 440 524.7627113071278 L 450 525.5895615004125 L 460 526.4588779194407 L 470 527.3695877331498 L 480 528.320567026524 L 490 529.3106421876271 L 500 530.3385913559678 L 510 531.4031459304081 L 520 532.5029921347555 L 530 533.6367726391057 L 540 534.8030882349354 L 550 536.0004995618779 L 560 537.2275288840499 L 570 538.4826619137397 L 580 539.7643496802015 L 590 541.0710104412548 L 600 542.4010316353264 L 610 543.7527718715263 L 620 545.124562955303 L 630 546.5147119471773 L 640 547.9215032520134 L 650 549.3432007362505 L 660 550.7780498704802 L 670 552.2242798947267 L 680 553.6801060037575 L 690 555.1437315497272 L 700 556.6133502594367 L 710 558.08714846347 L 720 559.5633073344611 L 730 561.0400051317235 L 740 562.5154194494772 L 750 563.9877294658958 L 760 565.455118190198 L 770 566.9157747050132 L 780 568.3678964012495 L 790 569.80969120271 L 800 571.2393797777099 L 810 572.6551977349651 L 820 574.0553978010432 L 830 575.4382519766893 L 840 576.8020536693648 L 850 578.1451197993684 L 860 579.4657928769396 L 870 580.7624430477816 L 880 582.0334701044787 L 890 583.2773054613265 L 900 584.492414090137 L 910 585.677296414631 L 920 586.830490161078 L 930 587.9505721629014 L 940 589.0361601170206 L 950 590.0859142897638 L 960 591.0985391702445 L 970 592.072785069164 L 980 593.0074496610628 L 990 593.9013794681218 L 1000 594.7534712836795 L 1010 595.5626735337084 L 1020 596.3279875745727 L 1030 597.0484689254622 L 1040 597.7232284339854 L 1050 598.3514333734795 L 1060 598.9323084706864 L 1070 599.4651368625238 L 1080 599.9492609807721 L 1090 600.384083363586 L 1100 600.7690673928265 L 1110 601.1037379563066 L 1120 601.3876820341311 L 1130 601.6205492084085 L 1140 601.8020520957045 L 1150 601.9319667017046 L 1160 602.0101326976474 L 1170 602.0364536181874 L 1180 602.0108969804445 L 1190 601.9334943240909 L 1200 601.8043411724277 L 1210 601.6235969144988 L 1220 601.3914846083874 L 1230 601.1082907059385 L 1240 600.7743646992456 L 1250 600.3901186893396 L 1260 599.9560268776115 L 1270 599.4726249805959 L 1280 598.9405095688388 L 1290 598.3603373306646 L 1300 597.7328242617509 L 1310 597.0587447815126 L 1320 596.3389307773833 L 1330 595.5742705781762 L 1340 594.7657078577894 L 1350 593.9142404706098 L 1360 593.0209192200522 L 1370 592.0868465617533 L 1380 591.1131752430217 L 1390 590.1011068802222 L 1400 589.0518904758504 L 1410 587.9668208771279 L 1420 586.8472371780197 L 1430 585.6945210666464 L 1440 584.5100951201313 L 1450 583.2954210489844 L 1460 582.0519978931939 L 1470 580.7813601722463 L 1480 579.4850759913637 L 1490 578.1647451062902 L 1500 576.82199694902 L 1510 575.4584886169005 L 1520 574.0759028275941 L 1530 572.6759458424216 L 1540 571.2603453606495 L 1550 569.8308483873218 L 1560 568.3892190772652 L 1570 566.9372365579304 L 1580 565.4766927337546 L 1590 564.0093900747572 L 1600 562.537139392095 L 1610 561.0617576033248 L 1620 559.5850654901288 L 1630 558.1088854512724 L 1640 556.6350392535651 L 1650 555.1653457836029 L 1660 553.7016188030635 L 1670 552.2456647103277 L 1680 550.7992803111865 L 1690 549.364250601388 L 1700 547.9423465637577 L 1710 546.5353229826136 L 1720 545.1449162781706 L 1730 543.7728423636099 L 1740 542.4207945274546 L 1750 541.0904413438682 L 1760 539.7834246134515 L 1770 538.5013573370832 L 1780 537.2458217252998 L 1790 536.0183672456774 L 1800 534.8205087106185 L 1810 533.6537244079094 L 1820 532.5194542763525 L 1830 531.419098128724 L 1840 530.3540139242542 L 1850 529.3255160927564 L 1860 528.3348739124785 L 1870 527.3833099436755 L 1880 526.4719985198363 L 1890 525.6020642984295 L 1900 524.7745808729527 L 1910 523.990569448002 L 1920 523.2509975789939 L 1930 522.5567779780969 L 1940 521.9087673878454 L 1950 521.3077655238259 L 1960 520.7545140877413 L 1970 520.2496958520699 L 1980 519.7939338174504 L 1990 519.3877904438305 L 2000 519.0317669563309 L 2010 518.7263027266787 L 2020 518.4717747309746 L 2030 518.2684970844639 L 2040 518.1167206538834 L 2050 518.0166327478651 L 2060 517.9683568857771 L 2070 517.9719526452865 L 2080 518.027415588835 L 2090 518.1346772691144 L 2100 518.2936053135388 L 2110 518.5040035876065 L 2120 518.7656124369511 L 2130 519.0781090077836 L 2140 519.4411076453289 L 2150 519.8541603697659 L 2160 520.3167574290828 L 2170 520.8283279281677 L 2180 521.3882405333542 L 2190 521.9958042515563 L 2200 522.650269283029 L 2210 523.350827946703 L 2220 524.0966156769505 L 2230 524.8867120905538 L 2240 525.7201421225583 L 2250 526.5958772296083 L 2260 527.5128366592819 L 2270 528.4698887838571 L 2280 529.4658524968629 L 2290 530.4994986706944 L 2300 531.5695516734887 L 2310 532.6746909433946 L 2320 533.8135526182887 L 2330 534.9847312189303 L 2340 536.1867813834754 L 2350 537.4182196512106 L 2360 538.6775262933054 L 2370 539.9631471883222 L 2380 541.2734957401718 L 2390 542.6069548361459 L 2400 543.9618788426093 L 2410 545.3365956358916 L 2420 546.7294086658698 L 2430 548.138599049695 L 2440 549.562427693082 L 2450 550.99913743654 L 2460 552.4469552238988 L 2470 553.9040942904537 L 2480 555.3687563680268 L 2490 556.8391339042258 L 2500 558.313412293161 L 2510 559.7897721148653 L 2520 561.2663913806573 L 2530 562.7414477816736 L 2540 564.2131209377957 L 2550 565.6795946441976 L 2560 567.13905911274 L 2570 568.5897132054461 L 2580 570.0297666573013 L 2590 571.4574422856356 L 2600 572.8709781833604 L 2610 574.268629893353 L 2620 575.6486725613072 L 2630 577.0094030643908 L 2640 578.3491421130847 L 2650 579.6662363236088 L 2660 580.9590602583778 L 2670 582.2260184319676 L 2680 583.4655472801184 L 2690 584.6761170893425 L 2700 585.8562338847581 L 2710 587.004441273816 L 2720 588.1193222436475 L 2730 589.1995009098113 L 2740 590.2436442142855 L 2750 591.2504635706058 L 2760 592.218716454122 L 2770 593.1472079354079 L 2780 594.0347921549347 L 2790 594.8803737371862 L 2800 595.6829091424715 L 2810 596.4414079547665 L 2820 597.154934103995 L 2830 597.822607021241 L 2840 598.4436027254666 L 2850 599.0171548403944 L 2860 599.5425555402993 L 2870 600.019156423542 L 2880 600.4463693127676 L 2890 600.8236669807804 L 2900 601.1505838011997 L 2910 601.4267163230927 L 2920 601.6517237688784 L 2930 601.8253284548824 L 2940 601.9473161340304 L 2950 602.0175362602511 L 2960 602.0359021742672 L 2970 602.0023912105423 L 2980 601.9170447252524 L 2990 601.7799680452476 L 3000 601.5913303380687 L 3010 601.3513644031739 L 3020 601.0603663846408 L 3030 600.7186954056914 L 3040 600.3267731254953 L 3050 599.8850832187962 L 3060 599.394170779005 L 3070 598.8546416454946 L 3080 598.2671616559287 L 3090 597.6324558245458 L 3100 596.9513074474121 L 3110 596.2245571357493 L 3120 595.4531017785288 L 3130 594.6378934356134 L 3140 593.7799381628112 L 3150 592.880294770294 L 3160 591.9400735159096 L 3170 590.9604347350033 L 3180 589.9425874084376 L 3190 588.8877876705784 L 3200 587.7973372590883 L 3210 586.6725819084406 L 3220 585.5149096891372 L 3230 584.3257492946773 L 3240 583.1065682783955 L 3250 581.8588712423402 L 3260 580.5841979804319 L 3270 579.2841215781887 L 3280 577.9602464713689 L 3290 576.6142064659219 L 3300 575.2476627216943" fill="none" stroke="#10B981" stroke-opacity="0.04" stroke-width="1"/><path d="M -20 620 L 0 583.9434192888593 L 10 584.0040847680572 L 20 584.1325000607377 L 30 584.3284234696955 L 40 584.591486237133 L 50 584.92119323872 L 60 585.3169239154922 L 70 585.7779334418394 L 80 586.30335412738 L 90 586.8921970500869 L 100 587.5433539175909 L 110 588.2555991531555 L 120 589.0275922023992 L 130 589.8578800564253 L 140 590.7448999866048 L 150 591.6869824858718 L 160 592.6823544109907 L 170 593.729142319882 L 180 594.8253759977277 L 190 595.9689921652163 L 200 597.1578383619487 L 210 598.3896769976998 L 220 599.662189563903 L 230 600.9729809974393 L 240 602.3195841885112 L 250 603.6994646241205 L 260 605.1100251584098 L 270 606.5486109008867 L 280 608.0125142133344 L 290 609.4989798060004 L 300 611.0052099234725 L 310 612.5283696104827 L 320 614.0655920477254 L 330 615.6139839476505 L 340 617.1706310000717 L 350 618.7326033573445 L 360 620.2969611487864 L 370 621.8607600139638 L 380 623.4210566444274 L 390 624.9749143234689 L 400 626.5194084534703 L 410 628.0516320604446 L 420 629.5687012654038 L 430 631.0677607122606 L 440 632.5459889420446 L 450 634.0006037033196 L 460 635.4288671888057 L 470 636.8280911883516 L 480 638.1956421485555 L 490 639.5289461295171 L 500 640.8254936493838 L 510 642.0828444075809 L 520 643.2986318778286 L 530 644.4705677623073 L 540 645.5964462985831 L 550 646.6741484111906 L 560 647.7016457000553 L 570 648.6770042582543 L 580 649.5983883119236 L 590 650.464063675465 L 600 651.2724010155489 L 610 652.0218789177685 L 620 652.7110867501741 L 630 653.3387273182981 L 640 653.9036193066731 L 650 654.4046995022483 L 660 654.8410247955189 L 670 655.2117739556023 L 680 655.51624917592 L 690 655.7538773875765 L 700 655.9242113379623 L 710 656.0269304325519 L 720 656.0618413383112 L 730 656.0288783475805 L 740 655.9281035017458 L 750 655.7597064744677 L 760 655.5240042146866 L 770 655.2214403500763 L 780 654.8525843520684 L 790 654.4181304640215 L 800 653.9188963945473 L 810 653.3558217784594 L 820 652.7299664082359 L 830 652.0425082393291 L 840 651.2947411730723 L 850 650.4880726213609 L 860 649.6240208576867 L 870 648.7042121595161 L 880 647.7303777473876 L 890 646.7043505264893 L 900 645.628061636852 L 910 644.5035368186478 L 920 643.3328925994384 L 930 642.1183323105461 L 940 640.8621419400478 L 950 639.5666858301959 L 960 638.2344022273651 L 970 636.8677986929 L 980 635.4694473835013 L 990 634.0419802100342 L 1000 632.5880838838694 L 1010 631.110494860082 L 1020 629.611994187025 L 1030 628.0954022719708 L 1040 626.5635735726742 L 1050 625.0193912248466 L 1060 623.4657616156536 L 1070 621.9056089134507 L 1080 620.3418695640512 L 1090 618.7774867638864 L 1100 617.2154049204606 L 1110 615.6585641105256 L 1120 614.1098945464074 L 1130 612.5723110608985 L 1140 611.0487076210973 L 1150 609.5419518815196 L 1160 608.0548797867349 L 1170 606.5902902336848 L 1180 605.1509398037316 L 1190 603.739537574351 L 1200 602.3587400202335 L 1210 601.0111460133946 L 1220 599.6992919316987 L 1230 598.4256468850095 L 1240 597.1926080679476 L 1250 596.0024962480038 L 1260 594.8575513975002 L 1270 593.7599284776197 L 1280 592.7116933824398 L 1290 591.7148190506045 L 1300 590.7711817519523 L 1310 589.8825575560886 L 1320 589.0506189895527 L 1330 588.2769318878667 L 1340 587.562952448393 L 1350 586.9100244895498 L 1360 586.319376921538 L 1370 585.7921214333455 L 1380 585.3292504003781 L 1390 584.9316350166572 L 1400 584.6000236550998 L 1410 584.3350404589665 L 1420 584.137184167128 L 1430 584.0068271753624 L 1440 583.9442148354501 L 1450 583.9494649933833 L 1460 584.0225677675625 L 1470 584.1633855673947 L 1480 584.3716533522605 L 1490 584.6469791303606 L 1500 584.9888446965043 L 1510 585.3966066074513 L 1520 585.8694973929694 L 1530 586.4066270003317 L 1540 587.0069844695311 L 1550 587.6694398360619 L 1560 588.3927462576858 L 1570 589.1755423611789 L 1580 590.0163548046453 L 1590 590.9136010505704 L 1600 591.8655923443991 L 1610 592.87053689303 L 1620 593.9265432372438 L 1630 595.0316238117179 L 1640 596.1836986859292 L 1650 597.3805994789006 L 1660 598.6200734404251 L 1670 599.8997876910869 L 1680 601.2173336130957 L 1690 602.5702313836746 L 1700 603.9559346424651 L 1710 605.3718352841662 L 1720 606.8152683673876 L 1730 608.2835171304765 L 1740 609.7738181048779 L 1750 611.2833663164052 L 1760 612.8093205646304 L 1770 614.3488087704565 L 1780 615.8989333818107 L 1790 617.456776827279 L 1800 619.0194070074222 L 1810 620.583882813435 L 1820 622.1472596627619 L 1830 623.7065950412522 L 1840 625.2589540414205 L 1850 626.8014148863919 L 1860 628.3310744291321 L 1870 629.845053616614 L 1880 631.3405029086354 L 1890 632.8146076410891 L 1900 634.264593323591 L 1910 635.687730861495 L 1920 637.0813416924661 L 1930 638.4428028279442 L 1940 639.7695517900091 L 1950 641.0590914343562 L 1960 642.3089946503029 L 1970 643.5169089289826 L 1980 644.6805607911251 L 1990 645.7977600660928 L 2000 646.866404014116 L 2010 647.8844812839709 L 2020 648.8500756986494 L 2030 649.761369861898 L 2040 650.6166485788343 L 2050 651.4143020842064 L 2060 652.1528290722173 L 2070 652.8308395222111 L 2080 653.4470573149055 L 2090 654.0003226342419 L 2100 654.4895941503374 L 2110 654.9139509794268 L 2120 655.2725944171059 L 2130 655.5648494416162 L 2140 655.7901659843378 L 2150 655.948119965104 L 2160 656.0384140903838 L 2170 656.0608784128343 L 2180 656.0154706511678 L 2190 655.9022762697309 L 2200 655.7215083176483 L 2210 655.4735070278314 L 2220 655.1587391766079 L 2230 654.7777972051779 L 2240 654.3313981045483 L 2250 653.8203820660466 L 2260 653.2457108999527 L 2270 652.6084662252242 L 2280 651.9098474337247 L 2290 651.1511694327854 L 2300 650.3338601703475 L 2310 649.4594579473469 L 2320 648.5296085223965 L 2330 647.5460620142165 L 2340 646.5106696076443 L 2350 645.4253800694214 L 2360 644.292236080316 L 2370 643.1133703904866 L 2380 641.8910018053197 L 2390 640.6274310092988 L 2400 639.3250362357654 L 2410 637.9862687907197 L 2420 636.6136484390879 L 2430 635.2097586621405 L 2440 633.7772417949845 L 2450 632.3187940532863 L 2460 630.8371604585805 L 2470 629.3351296717202 L 2480 627.8155287441922 L 2490 626.2812177971723 L 2500 624.7350846383413 L 2510 623.1800393265895 L 2520 621.6190086948409 L 2530 620.0549308413061 L 2540 618.4907495995335 L 2550 616.9294089976631 L 2560 615.3738477173171 L 2570 613.8269935625513 L 2580 612.2917579492802 L 2590 610.7710304255478 L 2600 609.2676732329568 L 2610 607.7845159194912 L 2620 606.3243500138765 L 2630 604.8899237714944 L 2640 603.4839370017465 L 2650 602.1090359866017 L 2660 600.7678084998869 L 2670 599.4627789367032 L 2680 598.1964035621277 L 2690 596.9710658881468 L 2700 595.7890721875232 L 2710 594.6526471530378 L 2720 593.5639297102776 L 2730 592.5249689918516 L 2740 591.5377204806091 L 2750 590.6040423291229 L 2760 589.7256918623619 L 2770 588.9043222701373 L 2780 588.1414794955458 L 2790 587.4385993252695 L 2800 586.7970046872052 L 2810 586.2179031605126 L 2820 585.702384702765 L 2830 585.2514195984833 L 2840 584.8658566329116 L 2850 584.5464214944742 L 2860 584.2937154089188 L 2870 584.1082140077178 L 2880 583.9902664328572 L 2890 583.940094679698 L 2900 583.9577931791471 L 2910 584.0433286199237 L 2920 584.1965400112566 L 2930 584.417138985893 L 2940 584.7047103428498 L 2950 585.0587128288857 L 2960 585.4784801572223 L 2970 585.9632222615971 L 2980 586.51202678329 L 2990 587.1238607883209 L 3000 587.79757271159 L 3010 588.5318945242984 L 3020 589.3254441205736 L 3030 590.176727918802 L 3040 591.0841436727796 L 3050 592.0459834873831 L 3060 593.0604370330897 L 3070 594.1255949532941 L 3080 595.2394524580097 L 3090 596.3999130971893 L 3100 597.604792706564 L 3110 598.8518235185758 L 3120 600.1386584306606 L 3130 601.4628754228556 L 3140 602.8219821164103 L 3150 604.213420464824 L 3160 605.6345715684811 L 3170 607.082760603819 L 3180 608.5552618577564 L 3190 610.0493038579007 L 3200 611.5620745888831 L 3210 613.090726785001 L 3220 614.6323832892082 L 3230 616.1841424683621 L 3240 617.7430836745426 L 3250 619.3062727421571 L 3260 620.8707675104887 L 3270 622.4336233612919 L 3280 623.9918987610148 L 3290 625.5426607972139 L 3300 627.0829906987449" fill="none" stroke="#10B981" stroke-opacity="0.04" stroke-width="1"/><path d="M -20 680 L 0 652.2708121514288 L 10 652.1267048537815 L 20 652.0279784916469 L 30 651.9747938029159 L 40 651.9672373783887 L 50 652.0053215207951 L 60 652.0889842247636 L 70 652.2180892777745 L 80 652.3924264819283 L 90 652.611711996173 L 100 652.8755887984297 L 110 653.1836272668655 L 120 653.5353258793676 L 130 653.9301120300793 L 140 654.3673429616674 L 150 654.8463068118062 L 160 655.366223772171 L 170 655.9262473580555 L 180 656.5254657865471 L 190 657.1629034610138 L 200 657.8375225594885 L 210 658.5482247243629 L 220 659.2938528506388 L 230 660.0731929698304 L 240 660.8849762264433 L 250 661.7278809438179 L 260 662.6005347759714 L 270 663.5015169419348 L 280 664.4293605389487 L 290 665.382554930749 L 300 666.3595482070576 L 310 667.3587497102706 L 320 668.3785326252323 L 330 669.4172366278779 L 340 670.4731705884318 L 350 671.5446153247624 L 360 672.6298264014079 L 370 673.7270369697187 L 380 674.8344606444908 L 390 675.9502944124059 L 400 677.0727215675453 L 410 678.1999146691962 L 420 679.3300385171364 L 430 680.4612531395504 L 440 681.5917167887168 L 450 682.7195889395847 L 460 683.8430332863611 L 470 684.9602207322284 L 480 686.0693323673244 L 490 687.1685624301367 L 500 688.2561212474916 L 510 689.330238148347 L 520 690.3891643466497 L 530 691.4311757885604 L 540 692.4545759594112 L 550 693.4576986458278 L 560 694.438910648517 L 570 695.396614441302 L 580 696.3292507720804 L 590 697.2353012014656 L 600 698.1132905749814 L 610 698.9617894247828 L 620 699.7794162969948 L 630 700.5648400008788 L 640 701.3167817761635 L 650 702.0340173750149 L 660 702.7153790552521 L 670 703.3597574815666 L 680 703.9661035316478 L 690 704.5334300042748 L 700 705.0608132265938 L 710 705.5473945579644 L 720 705.9923817879244 L 730 706.395050426001 L 740 706.7547448812637 L 750 707.0708795297024 L 760 707.3429396676906 L 770 707.5704823499823 L 780 707.7531371108777 L 790 707.890606567384 L 800 707.9826669033896 L 810 708.0291682340621 L 820 708.0300348498782 L 830 707.9852653398875 L 840 707.8949325940097 L 850 707.7591836843615 L 860 707.5782396258062 L 870 707.3523950161157 L 880 707.0820175563323 L 890 706.7675474521078 L 900 706.4094966969992 L 910 706.0084482388834 L 920 705.565055030851 L 930 705.0800389681239 L 940 704.554189712726 L 950 703.9883634078235 L 960 703.383481283824 L 970 702.740528158508 L 980 702.0605508336321 L 990 701.3446563906148 L 1000 700.5940103880805 L 1010 699.8098349641963 L 1020 698.9934068468896 L 1030 698.1460552751879 L 1040 697.2691598350655 L 1050 696.3641482133174 L 1060 695.4324938731218 L 1070 694.4757136550711 L 1080 693.4953653075821 L 1090 692.4930449507009 L 1100 691.470384477436 L 1110 690.4290488968492 L 1120 689.3707336232276 L 1130 688.2971617157551 L 1140 687.2100810731731 L 1150 686.1112615879997 L 1160 685.0024922649413 L 1170 683.8855783081865 L 1180 682.7623381823257 L 1190 681.6346006516817 L 1200 680.50420180287 L 1210 679.3729820554391 L 1220 678.2427831654546 L 1230 677.115445226909 L 1240 675.9928036758356 L 1250 674.8766863020087 L 1260 673.7689102730899 L 1270 672.6712791760705 L 1280 671.5855800808239 L 1290 670.5135806305505 L 1300 669.4570261638497 L 1310 668.4176368731089 L 1320 667.3971050038317 L 1330 666.3970920994667 L 1340 665.4192262962242 L 1350 664.4650996722823 L 1360 663.5362656557008 L 1370 662.6342364952606 L 1380 661.7604807983489 L 1390 660.9164211398975 L 1400 660.1034317462661 L 1410 659.3228362578444 L 1420 658.5759055740125 L 1430 657.8638557839704 L 1440 657.1878461868046 L 1450 656.5489774040158 L 1460 655.9482895875806 L 1470 655.3867607264633 L 1480 654.8653050543384 L 1490 654.3847715611118 L 1500 653.9459426106685 L 1510 653.5495326670926 L 1520 653.1961871314392 L 1530 652.8864812909457 L 1540 652.6209193823987 L 1550 652.3999337711782 L 1560 652.223884247317 L 1570 652.0930574397206 L 1580 652.0076663495033 L 1590 651.9678500031971 L 1600 651.9736732264005 L 1610 652.0251265382353 L 1620 652.1221261667826 L 1630 652.2645141854724 L 1640 652.4520587702074 L 1650 652.6844545767983 L 1660 652.9613232380999 L 1670 653.2822139800362 L 1680 653.6466043555126 L 1690 654.05390109502 L 1700 654.5034410725457 L 1710 654.9944923852189 L 1720 655.5262555449335 L 1730 656.0978647800061 L 1740 656.7083894447524 L 1750 657.3568355346854 L 1760 658.0421473048696 L 1770 658.7632089887948 L 1780 659.5188466149731 L 1790 660.3078299182991 L 1800 661.1288743430641 L 1810 661.9806431343599 L 1820 662.8617495144699 L 1830 663.7707589407038 L 1840 664.7061914409971 L 1850 665.6665240234775 L 1860 666.6501931560696 L 1870 667.6555973121068 L 1880 668.6810995778001 L 1890 669.7250303173225 L 1900 670.7856898911689 L 1910 671.8613514233647 L 1920 672.9502636130188 L 1930 674.0506535856434 L 1940 675.1607297795975 L 1950 676.2786848629565 L 1960 677.4026986760555 L 1970 678.53094119492 L 1980 679.6615755107555 L 1990 680.7927608206459 L 2000 681.922655424594 L 2010 683.0494197240203 L 2020 684.1712192168415 L 2030 685.2862274842514 L 2040 686.3926291643414 L 2050 687.4886229077186 L 2060 688.5724243103097 L 2070 689.6422688185768 L 2080 690.696414602414 L 2090 691.7331453910474 L 2100 692.750773267321 L 2110 693.7476414158214 L 2120 694.7221268203629 L 2130 695.672642906446 L 2140 696.5976421243827 L 2150 697.4956184688859 L 2160 698.3651099310196 L 2170 699.2047008785175 L 2180 700.013024360596 L 2190 700.7887643335071 L 2200 701.5306578032092 L 2210 702.2374968816673 L 2220 702.9081307534336 L 2230 703.5414675493075 L 2240 704.1364761240247 L 2250 704.6921877350803 L 2260 705.2076976199533 L 2270 705.6821664691641 L 2280 706.1148217927673 L 2290 706.504959178054 L 2300 706.8519434364171 L 2310 707.1552096375109 L 2320 707.4142640290239 L 2330 707.6286848405636 L 2340 707.7981229703472 L 2350 707.9223025535803 L 2360 708.0010214115957 L 2370 708.0341513810242 L 2380 708.0216385224589 L 2390 707.9635032082753 L 2400 707.8598400894617 L 2410 707.7108179415178 L 2420 707.5166793896678 L 2430 707.277740513839 L 2440 706.9943903340471 L 2450 706.6670901770269 L 2460 706.2963729251389 L 2470 705.8828421487763 L 2480 705.4271711236817 L 2490 704.9301017347774 L 2500 704.3924432682912 L 2510 703.8150710941451 L 2520 703.1989252407519 L 2530 702.5450088645415 L 2540 701.8543866167055 L 2550 701.1281829098234 L 2560 700.367580087189 L 2570 699.5738164978195 L 2580 698.7481844802799 L 2590 697.8920282586081 L 2600 697.0067417537625 L 2610 696.0937663141583 L 2620 695.1545883689864 L 2630 694.1907370081351 L 2640 693.203781492656 L 2650 692.1953286998261 L 2660 691.167020506966 L 2670 690.1205311182753 L 2680 689.0575643390349 L 2690 687.9798508016155 L 2700 686.8891451478091 L 2710 685.7872231720697 L 2720 684.6758789303159 L 2730 683.5569218190003 L 2740 682.4321736292047 L 2750 681.3034655805533 L 2760 680.172635339777 L 2770 679.0415240287799 L 2780 677.9119732270807 L 2790 676.7858219735094 L 2800 675.6649037720398 L 2810 674.5510436066342 L 2820 673.4460549699588 L 2830 672.3517369108094 L 2840 671.2698711050524 L 2850 670.2022189548504 L 2860 669.1505187208984 L 2870 668.1164826923333 L 2880 667.1017943989309 L 2890 666.1081058701257 L 2900 665.1370349453155 L 2910 664.1901626398338 L 2920 663.2690305708743 L 2930 662.3751384475595 L 2940 661.5099416292433 L 2950 660.6748487560168 L 2960 659.8712194552805 L 2970 659.1003621281146 L 2980 658.3635318190509 L 2990 657.6619281727154 L 3000 656.9966934806696 L 3010 656.3689108216273 L 3020 655.7796022980783 L 3030 655.2297273721875 L 3040 654.7201813036802 L 3050 654.2517936922557 L 3060 653.8253271269037 L 3070 653.441475944322 L 3080 653.1008650984554 L 3090 652.8040491429997 L 3100 652.5515113285235 L 3110 652.3436628156813 L 3120 652.1808420057964 L 3130 652.063313989904 L 3140 651.9912701171536 L 3150 651.9648276832692 L 3160 651.9840297395795 L 3170 652.0488450229248 L 3180 652.1591680065568 L 3190 652.3148190719493 L 3200 652.5155448012364 L 3210 652.7610183898074 L 3220 653.0508401783813 L 3230 653.3845383036987 L 3240 653.7615694667696 L 3250 654.1813198174262 L 3260 654.6431059537424 L 3270 655.1461760346901 L 3280 655.6897110042239 L 3290 656.2728259247976 L 3300 656.8945714181459" fill="none" stroke="#10B981" stroke-opacity="0.04" stroke-width="1"/><path d="M -20 740 L 0 703.5772245776988 L 10 704.1497609178548 L 20 704.8014813060062 L 30 705.530946257792 L 40 706.3365445709098 L 50 707.2164968838513 L 60 708.1688596060583 L 70 709.1915292108199 L 80 710.2822468814269 L 90 711.4386035003228 L 100 712.6580449702308 L 110 713.9378778555043 L 120 715.2752753312407 L 130 716.6672834270165 L 140 718.1108275514572 L 150 719.6027192832255 L 160 721.1396634134327 L 170 722.7182652239151 L 180 724.3350379853031 L 190 725.9864106583171 L 200 727.6687357812849 L 210 729.3782975264548 L 220 731.1113199073136 L 230 732.863975118778 L 240 734.6323919918424 L 250 736.4126645440047 L 260 738.2008606065867 L 270 739.9930305098942 L 280 741.7852158070305 L 290 743.5734580170976 L 300 745.3538073684732 L 310 747.1223315228493 L 320 748.8751242607667 L 330 750.6083141094588 L 340 752.3180728939489 L 350 754.0006241925136 L 360 755.6522516778372 L 370 757.2693073254318 L 380 758.8482194711944 L 390 760.3855007003036 L 400 761.8777555500304 L 410 763.3216880094509 L 420 764.7141087994945 L 430 766.0519424172503 L 440 767.3322339289683 L 450 768.5521554967568 L 460 769.7090126245549 L 470 770.8002501095897 L 480 771.8234576861665 L 490 772.7763753493338 L 500 773.656898346657 L 510 774.4630818270819 L 520 775.1931451366144 L 530 775.8454757513321 L 540 776.4186328390391 L 550 776.9113504416971 L 560 777.3225402716042 L 570 777.6512941151459 L 580 777.8968858388067 L 590 778.0587729930152 L 600 778.1365980102761 L 610 778.1301889949464 L 620 778.0395601029087 L 630 777.8649115103046 L 640 777.6066289713968 L 650 777.2652829665357 L 660 776.841627442114 L 670 776.336598145291 L 680 775.7513105571651 L 690 775.0870574289611 L 700 774.3453059266707 L 710 773.5276943904573 L 720 772.6360287159799 L 730 771.672278365629 L 740 770.638572018486 L 750 769.537192868613 L 760 768.3705735820594 L 770 767.1412909237209 L 780 765.8520600659232 L 790 764.5057285912968 L 800 763.1052702031933 L 810 761.6537781575311 L 820 760.154458430581 L 830 758.6106226377821 L 840 757.0256807192247 L 850 755.4031334079631 L 860 753.7465644977866 L 870 752.0596329275321 L 880 750.3460646994201 L 890 748.6096446492646 L 900 746.8542080867347 L 910 745.0836323241325 L 920 743.301828112397 L 930 741.5127310032522 L 940 739.7202926565751 L 950 737.9284721121852 L 960 736.1412270453345 L 970 734.3625050252101 L 980 732.5962347957595 L 990 730.8463175980959 L 1000 729.1166185536497 L 1010 727.4109581271002 L 1020 725.7331036879417 L 1030 724.0867611893237 L 1040 722.4755669825444 L 1050 720.9030797852766 L 1060 719.3727728212673 L 1070 717.8880261488695 L 1080 716.4521191953559 L 1090 715.068223513498 L 1100 713.7393957764144 L 1110 712.4685710261577 L 1120 711.2585561909551 L 1130 710.1120238854176 L 1140 709.0315065074155 L 1150 708.0193906446572 L 1160 707.0779118033232 L 1170 706.2091494704035 L 1180 705.4150225206403 L 1190 704.6972849782215 L 1200 704.0575221425893 L 1210 703.497147086916 L 1220 703.0173975369868 L 1230 702.6193331373773 L 1240 702.3038331109697 L 1250 702.0715943169723 L 1260 701.9231297117359 L 1270 701.8587672157634 L 1280 701.8786489894168 L 1290 701.9827311189215 L 1300 702.1707837133606 L 1310 702.442391412445 L 1320 702.796954303939 L 1330 703.2336892487134 L 1340 703.7516316105003 L 1350 704.3496373865294 L 1360 705.0263857343379 L 1370 705.780381889176 L 1380 706.6099604655614 L 1390 707.513289135691 L 1400 708.4883726765872 L 1410 709.533057377037 L 1420 710.6450357945916 L 1430 711.8218518521189 L 1440 713.0609062626527 L 1450 714.3594622705556 L 1460 715.7146516963151 L 1470 717.1234812716217 L 1480 718.5828392507361 L 1490 720.0895022835439 L 1500 721.6401425351139 L 1510 723.2313350360386 L 1520 724.8595652473194 L 1530 726.5212368230884 L 1540 728.2126795540196 L 1550 729.9301574738876 L 1560 731.6698771113649 L 1570 733.4279958688345 L 1580 735.2006305097087 L 1590 736.9838657355107 L 1600 738.7737628337708 L 1610 740.56636837764 L 1620 742.3577229580023 L 1630 744.1438699288021 L 1640 745.9208641462667 L 1650 747.6847806827245 L 1660 749.4317234957708 L 1670 751.1578340336332 L 1680 752.8592997577297 L 1690 754.5323625635954 L 1700 756.1733270815783 L 1710 757.77856883897 L 1720 759.3445422655423 L 1730 760.867788524809 L 1740 762.3449431537153 L 1750 763.7727434938794 L 1760 765.148035897974 L 1770 766.4677826953301 L 1780 767.7290689013781 L 1790 768.9291086561062 L 1800 770.0652513773155 L 1810 771.1349876150811 L 1820 772.1359545944883 L 1830 773.0659414344005 L 1840 773.9228940307318 L 1850 774.7049195934409 L 1860 775.4102908272215 L 1870 776.0374497466584 L 1880 776.5850111174196 L 1890 777.0517655158873 L 1900 777.4366820004652 L 1910 777.7389103886676 L 1920 777.9577831349546 L 1930 778.0928168051711 L 1940 778.143713144329 L 1950 778.1103597353772 L 1960 777.9928302475017 L 1970 777.7913842734097 L 1980 777.5064667559548 L 1990 777.1387070053715 L 2000 776.6889173092904 L 2010 776.1580911385998 L 2020 775.5474009531233 L 2030 774.8581956119532 L 2040 774.0919973941652 L 2050 773.2504986364916 L 2060 772.3355579953796 L 2070 771.3491963416938 L 2080 770.293592297126 L 2090 769.1710774221754 L 2100 767.9841310663248 L 2110 766.7353748917898 L 2120 765.4275670829336 L 2130 764.0635962541407 L 2140 762.6464750696038 L 2150 761.1793335891148 L 2160 759.6654123545609 L 2170 758.1080552323922 L 2180 756.5107020278729 L 2190 754.8768808874264 L 2200 753.21020050586 L 2210 751.5143421556756 L 2220 749.7930515560772 L 2230 748.0501305996306 L 2240 746.2894289548515 L 2250 744.5148355632673 L 2260 742.7302700497368 L 2270 740.9396740649962 L 2280 739.147002579557 L 2290 737.356215148183 L 2300 735.5712671642424 L 2310 733.7961011232511 L 2320 732.0346379149047 L 2330 730.2907681628305 L 2340 728.5683436311923 L 2350 726.8711687171228 L 2360 725.2029920477804 L 2370 723.5674982005859 L 2380 721.9682995649291 L 2390 720.4089283633215 L 2400 718.8928288496154 L 2410 717.423349701525 L 2420 716.0037366242498 L 2430 714.6371251815383 L 2440 713.3265338700267 L 2450 712.074857452148 L 2460 710.8848605623394 L 2470 709.7591716006689 L 2480 708.7002769273685 L 2490 707.7105153710984 L 2500 706.7920730630692 L 2510 705.946978608436 L 2520 705.1770986056249 L 2530 704.4841335234936 L 2540 703.8696139454279 L 2550 703.3348971886735 L 2560 702.8811643063674 L 2570 702.5094174788924 L 2580 702.220477800316 L 2590 702.0149834648028 L 2600 701.8933883570056 L 2610 701.8559610495505 L 2620 701.9027842098278 L 2630 702.0337544174013 L 2640 702.2485823924369 L 2650 702.5467936346492 L 2660 702.927729471351 L 2670 703.3905485122932 L 2680 703.9342285080829 L 2690 704.5575686080706 L 2700 705.2591920127242 L 2710 706.0375490146283 L 2720 706.8909204213933 L 2730 707.8174213529134 L 2740 708.8150054045869 L 2750 709.8814691673031 L 2760 711.0144570942106 L 2770 712.2114667035222 L 2780 713.4698541058585 L 2790 714.7868398439267 L 2800 716.1595150316341 L 2810 717.5848477790762 L 2820 719.0596898892095 L 2830 720.5807838114172 L 2840 722.1447698366088 L 2850 723.7481935179619 L 2860 725.3875133009152 L 2870 727.059108345561 L 2880 728.759286524158 L 2890 730.4842925761016 L 2900 732.2303164023376 L 2910 733.9935014809017 L 2920 735.7699533849933 L 2930 737.555748384773 L 2940 739.3469421138824 L 2950 741.1395782815451 L 2960 742.9296974110053 L 2970 744.7133455850035 L 2980 746.4865831789728 L 2990 748.2454935626661 L 3000 749.9861917509953 L 3010 751.7048329849737 L 3020 753.3976212238093 L 3030 755.0608175293922 L 3040 756.6907483246569 L 3050 758.2838135075782 L 3060 759.83649440288 L 3070 761.3453615338925 L 3080 762.8070821973932 L 3090 764.2184278246991 L 3100 765.576281112753 L 3110 766.8776429094522 L 3120 768.1196388380113 L 3130 769.2995256457284 L 3140 770.4146972631323 L 3150 771.4626905601259 L 3160 772.441190786413 L 3170 773.3480366841928 L 3180 774.1812252618274 L 3190 774.9389162179407 L 3200 775.619436006175 L 3210 776.221281531629 L 3220 776.7431234708117 L 3230 777.1838092077793 L 3240 777.54236537997 L 3250 777.8180000281146 L 3260 778.0101043454724 L 3270 778.1182540225304 L 3280 778.142210184195 L 3290 778.0819199174061 L 3300 777.9375163880086" fill="none" stroke="#10B981" stroke-opacity="0.04" stroke-width="1"/></g>
  
  <defs><radialGradient id="right-glow" cx="50%" cy="50%" r="50%">
    <stop offset="0%" stop-color="#34D399" stop-opacity="0.08"/>
    <stop offset="100%" stop-color="#34D399" stop-opacity="0"/>
  </radialGradient></defs><ellipse cx="540" cy="540" rx="400" ry="400" fill="url(#right-glow)"/>
  
  <!-- Large decorative triangles -->
  <g transform="translate(780, 250) rotate(0)">
    <polygon points="0,-120 103.92,60 -103.92,60" 
             fill="none" stroke="#10B981" stroke-opacity="0.35" stroke-width="1.5"/>
    <polygon points="0,-72 62.400000000000006,36 -62.400000000000006,36" 
             fill="none" stroke="#34D399" stroke-opacity="0.25" stroke-width="1"/>
  </g>
  <g transform="translate(380, 400) rotate(-30)">
    <polygon points="0,-90 77.94,45 -77.94,45" 
             fill="none" stroke="#10B981" stroke-opacity="0.35" stroke-width="1.5"/>
    <polygon points="0,-54 46.800000000000004,27 -46.800000000000004,27" 
             fill="none" stroke="#34D399" stroke-opacity="0.25" stroke-width="1"/>
  </g>
  <g transform="translate(880, 600) rotate(-60)">
    <polygon points="0,-70 60.62,35 -60.62,35" 
             fill="none" stroke="#10B981" stroke-opacity="0.35" stroke-width="1.5"/>
    <polygon points="0,-42 36.4,21 -36.4,21" 
             fill="none" stroke="#34D399" stroke-opacity="0.25" stroke-width="1"/>
  </g>
  <g transform="translate(280, 750) rotate(30)">
    <polygon points="0,-60 51.96,30 -51.96,30" 
             fill="none" stroke="#10B981" stroke-opacity="0.35" stroke-width="1.5"/>
    <polygon points="0,-36 31.200000000000003,18 -31.200000000000003,18" 
             fill="none" stroke="#34D399" stroke-opacity="0.25" stroke-width="1"/>
  </g>
  <g transform="translate(680, 850) rotate(-45)">
    <polygon points="0,-50 43.3,25 -43.3,25" 
             fill="none" stroke="#10B981" stroke-opacity="0.35" stroke-width="1.5"/>
    <polygon points="0,-30 26,15 -26,15" 
             fill="none" stroke="#34D399" stroke-opacity="0.25" stroke-width="1"/>
  </g>
  
  <!-- Dot grid pattern -->
  <g><circle cx="880" cy="200" r="2.5" fill="#10B981" opacity="0.3"/><circle cx="910" cy="200" r="2.5" fill="#10B981" opacity="0.3"/><circle cx="940" cy="200" r="2.5" fill="#10B981" opacity="0.3"/><circle cx="970" cy="200" r="2.5" fill="#10B981" opacity="0.3"/><circle cx="1000" cy="200" r="2.5" fill="#10B981" opacity="0.3"/><circle cx="1030" cy="200" r="2.5" fill="#10B981" opacity="0.3"/><circle cx="1060" cy="200" r="2.5" fill="#10B981" opacity="0.3"/><circle cx="1090" cy="200" r="2.5" fill="#10B981" opacity="0.3"/><circle cx="1120" cy="200" r="2.5" fill="#10B981" opacity="0.3"/><circle cx="1150" cy="200" r="2.5" fill="#10B981" opacity="0.3"/><circle cx="1180" cy="200" r="2.5" fill="#10B981" opacity="0.3"/><circle cx="1210" cy="200" r="2.5" fill="#10B981" opacity="0.3"/><circle cx="880" cy="230" r="2.5" fill="#10B981" opacity="0.3"/><circle cx="910" cy="230" r="2.5" fill="#10B981" opacity="0.3"/><circle cx="940" cy="230" r="2.5" fill="#10B981" opacity="0.3"/><circle cx="970" cy="230" r="2.5" fill="#10B981" opacity="0.3"/><circle cx="1000" cy="230" r="2.5" fill="#10B981" opacity="0.3"/><circle cx="1030" cy="230" r="2.5" fill="#10B981" opacity="0.3"/><circle cx="1060" cy="230" r="2.5" fill="#10B981" opacity="0.3"/><circle cx="1090" cy="230" r="2.5" fill="#10B981" opacity="0.3"/><circle cx="1120" cy="230" r="2.5" fill="#10B981" opacity="0.3"/><circle cx="1150" cy="230" r="2.5" fill="#10B981" opacity="0.3"/><circle cx="1180" cy="230" r="2.5" fill="#10B981" opacity="0.3"/><circle cx="1210" cy="230" r="2.5" fill="#10B981" opacity="0.3"/><circle cx="880" cy="260" r="2.5" fill="#10B981" opacity="0.3"/><circle cx="910" cy="260" r="2.5" fill="#10B981" opacity="0.3"/><circle cx="940" cy="260" r="2.5" fill="#10B981" opacity="0.3"/><circle cx="970" cy="260" r="2.5" fill="#10B981" opacity="0.3"/><circle cx="1000" cy="260" r="2.5" fill="#10B981" opacity="0.3"/><circle cx="1030" cy="260" r="2.5" fill="#10B981" opacity="0.3"/><circle cx="1060" cy="260" r="2.5" fill="#10B981" opacity="0.3"/><circle cx="1090" cy="260" r="2.5" fill="#10B981" opacity="0.3"/><circle cx="1120" cy="260" r="2.5" fill="#10B981" opacity="0.3"/><circle cx="1150" cy="260" r="2.5" fill="#10B981" opacity="0.3"/><circle cx="1180" cy="260" r="2.5" fill="#10B981" opacity="0.3"/><circle cx="1210" cy="260" r="2.5" fill="#10B981" opacity="0.3"/><circle cx="880" cy="290" r="2.5" fill="#10B981" opacity="0.3"/><circle cx="910" cy="290" r="2.5" fill="#10B981" opacity="0.3"/><circle cx="940" cy="290" r="2.5" fill="#10B981" opacity="0.3"/><circle cx="970" cy="290" r="2.5" fill="#10B981" opacity="0.3"/><circle cx="1000" cy="290" r="2.5" fill="#10B981" opacity="0.3"/><circle cx="1030" cy="290" r="2.5" fill="#10B981" opacity="0.3"/><circle cx="1060" cy="290" r="2.5" fill="#10B981" opacity="0.3"/><circle cx="1090" cy="290" r="2.5" fill="#10B981" opacity="0.3"/><circle cx="1120" cy="290" r="2.5" fill="#10B981" opacity="0.3"/><circle cx="1150" cy="290" r="2.5" fill="#10B981" opacity="0.3"/><circle cx="1180" cy="290" r="2.5" fill="#10B981" opacity="0.3"/><circle cx="1210" cy="290" r="2.5" fill="#10B981" opacity="0.3"/><circle cx="880" cy="320" r="2.5" fill="#10B981" opacity="0.3"/><circle cx="910" cy="320" r="2.5" fill="#10B981" opacity="0.3"/><circle cx="940" cy="320" r="2.5" fill="#10B981" opacity="0.3"/><circle cx="970" cy="320" r="2.5" fill="#10B981" opacity="0.3"/><circle cx="1000" cy="320" r="2.5" fill="#10B981" opacity="0.3"/><circle cx="1030" cy="320" r="2.5" fill="#10B981" opacity="0.3"/><circle cx="1060" cy="320" r="2.5" fill="#10B981" opacity="0.3"/><circle cx="1090" cy="320" r="2.5" fill="#10B981" opacity="0.3"/><circle cx="1120" cy="320" r="2.5" fill="#10B981" opacity="0.3"/><circle cx="1150" cy="320" r="2.5" fill="#10B981" opacity="0.3"/><circle cx="1180" cy="320" r="2.5" fill="#10B981" opacity="0.3"/><circle cx="1210" cy="320" r="2.5" fill="#10B981" opacity="0.3"/><circle cx="880" cy="350" r="2.5" fill="#10B981" opacity="0.3"/><circle cx="910" cy="350" r="2.5" fill="#10B981" opacity="0.3"/><circle cx="940" cy="350" r="2.5" fill="#10B981" opacity="0.3"/><circle cx="970" cy="350" r="2.5" fill="#10B981" opacity="0.3"/><circle cx="1000" cy="350" r="2.5" fill="#10B981" opacity="0.3"/><circle cx="1030" cy="350" r="2.5" fill="#10B981" opacity="0.3"/><circle cx="1060" cy="350" r="2.5" fill="#10B981" opacity="0.3"/><circle cx="1090" cy="350" r="2.5" fill="#10B981" opacity="0.3"/><circle cx="1120" cy="350" r="2.5" fill="#10B981" opacity="0.3"/><circle cx="1150" cy="350" r="2.5" fill="#10B981" opacity="0.3"/><circle cx="1180" cy="350" r="2.5" fill="#10B981" opacity="0.3"/><circle cx="1210" cy="350" r="2.5" fill="#10B981" opacity="0.3"/><circle cx="880" cy="380" r="2.5" fill="#10B981" opacity="0.3"/><circle cx="910" cy="380" r="2.5" fill="#10B981" opacity="0.3"/><circle cx="940" cy="380" r="2.5" fill="#10B981" opacity="0.3"/><circle cx="970" cy="380" r="2.5" fill="#10B981" opacity="0.3"/><circle cx="1000" cy="380" r="2.5" fill="#10B981" opacity="0.3"/><circle cx="1030" cy="380" r="2.5" fill="#10B981" opacity="0.3"/><circle cx="1060" cy="380" r="2.5" fill="#10B981" opacity="0.3"/><circle cx="1090" cy="380" r="2.5" fill="#10B981" opacity="0.3"/><circle cx="1120" cy="380" r="2.5" fill="#10B981" opacity="0.3"/><circle cx="1150" cy="380" r="2.5" fill="#10B981" opacity="0.3"/><circle cx="1180" cy="380" r="2.5" fill="#10B981" opacity="0.3"/><circle cx="1210" cy="380" r="2.5" fill="#10B981" opacity="0.3"/><circle cx="880" cy="410" r="2.5" fill="#10B981" opacity="0.3"/><circle cx="910" cy="410" r="2.5" fill="#10B981" opacity="0.3"/><circle cx="940" cy="410" r="2.5" fill="#10B981" opacity="0.3"/><circle cx="970" cy="410" r="2.5" fill="#10B981" opacity="0.3"/><circle cx="1000" cy="410" r="2.5" fill="#10B981" opacity="0.3"/><circle cx="1030" cy="410" r="2.5" fill="#10B981" opacity="0.3"/><circle cx="1060" cy="410" r="2.5" fill="#10B981" opacity="0.3"/><circle cx="1090" cy="410" r="2.5" fill="#10B981" opacity="0.3"/><circle cx="1120" cy="410" r="2.5" fill="#10B981" opacity="0.3"/><circle cx="1150" cy="410" r="2.5" fill="#10B981" opacity="0.3"/><circle cx="1180" cy="410" r="2.5" fill="#10B981" opacity="0.3"/><circle cx="1210" cy="410" r="2.5" fill="#10B981" opacity="0.3"/></g>
  
  <!-- Circuit lines -->
  <path d="M 500 300 L 583.3333333333334 300 L 583.3333333333334 316.3843962846076 L 666.6666666666667 316.3843962846076 L 666.6666666666667 304.8874759324318 L 750.0000000000001 304.8874759324318 L 750.0000000000001 312.86858759374627 L 833.3333333333335 312.86858759374627 L 833.3333333333335 318.8778665438905 L 916.6666666666669 318.8778665438905 L 916.6666666666669 300.12429061182723 L 1000.0000000000002 300.12429061182723" fill="none" stroke="#10B981" stroke-opacity="0.4" stroke-width="1.5" stroke-linecap="round"/>
  <path d="M 600 500 L 700 500 L 700 490.1799883319545 L 800 490.1799883319545 L 800 501.96762948201336 L 900 501.96762948201336 L 900 484.0453354744565 L 1000 484.0453354744565" fill="none" stroke="#10B981" stroke-opacity="0.4" stroke-width="1.5" stroke-linecap="round"/>
  <path d="M 650 700 L 720 700 L 720 691.8648948369021 L 790 691.8648948369021 L 790 688.5093329862747 L 860 688.5093329862747 L 860 680.471615306757 L 930 680.471615306757 L 930 669.2076443109834 L 1000 669.2076443109834" fill="none" stroke="#10B981" stroke-opacity="0.4" stroke-width="1.5" stroke-linecap="round"/>
  
  <!-- Horizontal accent lines -->
  <line x1="480" y1="180" x2="980" y2="180" stroke="#10B981" stroke-opacity="0.1" stroke-width="1"/>
  <line x1="380" y1="920" x2="980" y2="920" stroke="#10B981" stroke-opacity="0.1" stroke-width="1"/>
  
  <!-- Code snippet decoration -->
  <rect x="700" y="380" width="280" height="120" rx="8" fill="#111820" stroke="#10B981" stroke-opacity="0.3" stroke-width="1"/>
  <text x="720" y="410" font-family="DM Mono, monospace" font-weight="400" font-size="11" fill="#34D399" opacity="0.6">// </text>
  <text x="745" y="410" font-family="DM Mono, monospace" font-weight="400" font-size="11" fill="#8A9BB0" opacity="0.6">future-proof</text>
  <text x="860" y="410" font-family="DM Mono, monospace" font-weight="400" font-size="11" fill="#34D399" opacity="0.6"> //</text>
  <text x="720" y="435" font-family="DM Mono, monospace" font-weight="400" font-size="11" fill="#5E7085" opacity="0.5">function </text>
  <text x="800" y="435" font-family="DM Mono, monospace" font-weight="400" font-size="11" fill="#10B981" opacity="0.6">build</text>
  <text x="840" y="435" font-family="DM Mono, monospace" font-weight="400" font-size="11" fill="#5E7085" opacity="0.5">() {</text>
  <text x="740" y="460" font-family="DM Mono, monospace" font-weight="400" font-size="11" fill="#5E7085" opacity="0.5">  return </text>
  <text x="830" y="460" font-family="DM Mono, monospace" font-weight="400" font-size="11" fill="#10B981" opacity="0.6">"excellence"</text>
  <text x="720" y="485" font-family="DM Mono, monospace" font-weight="400" font-size="11" fill="#5E7085" opacity="0.5">}</text>
  
  <!-- Circular decorative elements -->
  <circle cx="230" cy="300" r="60" fill="none" stroke="#10B981" stroke-opacity="0.12" stroke-width="1.5"/>
  <circle cx="230" cy="300" r="40" fill="none" stroke="#34D399" stroke-opacity="0.08" stroke-width="1"/>
  <circle cx="230" cy="300" r="20" fill="#10B981" opacity="0.05"/>
  
  <!-- Small decorative dots -->
  <circle cx="180" cy="200" r="4" fill="#10B981" opacity="0.3"/>
  <circle cx="130" cy="250" r="3" fill="#34D399" opacity="0.25"/>
  <circle cx="160" cy="350" r="5" fill="#10B981" opacity="0.2"/>
  
  <text x="540" y="980" font-family="DM Mono, monospace" font-weight="400" font-size="10" fill="#5E7085" text-anchor="middle" opacity="0.5">3/3</text>
</svg>