<svg xmlns="http://www.w3.org/2000/svg" width="1500" height="500" viewBox="0 0 1500 500">
  <defs>
    <linearGradient id="grad1" x1="0%" y1="0%" x2="100%" y2="100%">
      <stop offset="0%" stop-color="#34D399"/>
      <stop offset="100%" stop-color="#10B981"/>
    </linearGradient>
    <linearGradient id="bg-grad" x1="0%" y1="0%" x2="0%" y2="100%">
      <stop offset="0%" stop-color="#060A0E"/>
      <stop offset="50%" stop-color="#0A1118"/>
      <stop offset="100%" stop-color="#060A0E"/>
    </linearGradient>
  </defs>
  <rect x="0" y="0" width="1500" height="500" fill="url(#bg-grad)"/>
  <!-- Patrón de puntos sutil -->
  <g fill="#10B981" opacity="0.03">
    <circle cx="50" cy="50" r="1.5"/><circle cx="100" cy="80" r="1"/><circle cx="180" cy="30" r="1.5"/>
    <circle cx="250" cy="90" r="1"/><circle cx="320" cy="40" r="1.5"/><circle cx="400" cy="70" r="1"/>
    <circle cx="480" cy="25" r="1.5"/><circle cx="550" cy="85" r="1"/><circle cx="620" cy="45" r="1.5"/>
    <circle cx="700" cy="75" r="1"/><circle cx="780" cy="35" r="1.5"/><circle cx="850" cy="95" r="1"/>
    <circle cx="920" cy="20" r="1.5"/><circle cx="1000" cy="65" r="1"/><circle cx="1080" cy="50" r="1.5"/>
    <circle cx="1150" cy="80" r="1"/><circle cx="1220" cy="30" r="1.5"/><circle cx="1300" cy="90" r="1"/>
    <circle cx="1380" cy="40" r="1.5"/><circle cx="1450" cy="70" r="1"/>
    <circle cx="50" cy="130" r="1"/><circle cx="150" cy="150" r="1.5"/><circle cx="250" cy="120" r="1"/>
    <circle cx="350" cy="160" r="1.5"/><circle cx="450" cy="110" r="1"/><circle cx="550" cy="140" r="1.5"/>
    <circle cx="650" cy="125" r="1"/><circle cx="750" cy="155" r="1.5"/><circle cx="850" cy="115" r="1"/>
    <circle cx="950" cy="145" r="1.5"/><circle cx="1050" cy="105" r="1"/><circle cx="1150" cy="135" r="1.5"/>
    <circle cx="1250" cy="120" r="1"/><circle cx="1350" cy="150" r="1.5"/><circle cx="1450" cy="110" r="1"/>
    <circle cx="80" cy="190" r="1.5"/><circle cx="200" cy="210" r="1"/><circle cx="350" cy="180" r="1.5"/>
    <circle cx="500" cy="220" r="1"/><circle cx="650" cy="185" r="1.5"/><circle cx="800" cy="215" r="1"/>
    <circle cx="950" cy="195" r="1.5"/><circle cx="1100" cy="225" r="1"/><circle cx="1250" cy="175" r="1.5"/>
    <circle cx="1400" cy="200" r="1"/>
  </g>
  <!-- Logo + nombre centrado -->
  <g transform="translate(750, 220)">
    <g transform="scale(2.8)">
      <polygon points="-20,-30 -5,-35 -5,20 -20,25" fill="url(#grad1)"/>
      <polygon points="-20,-30 -5,-35 -20,-15 -35,-10" fill="#34D399"/>
      <polygon points="-20,25 -5,20 -20,40 -35,35" fill="#059669"/>
      <polygon points="-5,-35 10,-15 10,20 -5,20" fill="#10B981"/>
      <polygon points="10,-15 25,-20 25,25 10,20" fill="#059669"/>
      <polygon points="10,-15 25,-20 10,0 -5,5" fill="#34D399"/>
      <polygon points="10,20 25,25 10,45 -5,40" fill="#059669"/>
    </g>
    <text x="-120" y="105" font-family="Syne, sans-serif" font-size="80" font-weight="800" fill="#F0F4F8" letter-spacing="8" text-anchor="middle">NEXA</text>
  </g>
  <text x="750" y="365" font-family="'DM Sans', sans-serif" font-size="24" font-weight="400" fill="#8A9BB0" letter-spacing="8" text-anchor="middle">TECNOLOGÍA QUE TRASCIENDE</text>
  <line x1="450" y1="395" x2="1050" y2="395" stroke="#10B981" stroke-width="0.8" opacity="0.25"/>
  <text x="750" y="425" font-family="'DM Sans', sans-serif" font-size="14" fill="#5E7085" letter-spacing="4" text-anchor="middle">DESARROLLO DE SOFTWARE · PÁGINAS WEB · APPS A MEDIDA</text>
</svg>
