<svg xmlns="http://www.w3.org/2000/svg" width="600" height="200" viewBox="0 0 600 200">
  <defs>
    <linearGradient id="grad1" x1="0%" y1="0%" x2="100%" y2="100%">
      <stop offset="0%" stop-color="#34D399"/>
      <stop offset="100%" stop-color="#10B981"/>
    </linearGradient>
  </defs>
  <rect x="0" y="0" width="600" height="200" fill="#060A0E"/>
  <line x1="155" y1="50" x2="155" y2="155" stroke="#10B981" stroke-width="0.8" opacity="0.25"/>
  <g transform="translate(85, 100)">
    <g transform="scale(1.2)">
      <polygon points="-20,-30 -5,-35 -5,20 -20,25" fill="url(#grad1)"/>
      <polygon points="-20,-30 -5,-35 -20,-15 -35,-10" fill="#34D399"/>
      <polygon points="-20,25 -5,20 -20,40 -35,35" fill="#059669"/>
      <polygon points="-5,-35 10,-15 10,20 -5,20" fill="#10B981"/>
      <polygon points="10,-15 25,-20 25,25 10,20" fill="#059669"/>
      <polygon points="10,-15 25,-20 10,0 -5,5" fill="#34D399"/>
      <polygon points="10,20 25,25 10,45 -5,40" fill="#059669"/>
    </g>
  </g>
  <text x="185" y="72" font-family="Syne, sans-serif" font-size="32" font-weight="800" fill="#F0F4F8" letter-spacing="3">NEXA</text>
  <line x1="185" y1="88" x2="350" y2="88" stroke="#10B981" stroke-width="0.5" opacity="0.3"/>
  <g font-family="'DM Sans', sans-serif" font-size="13" fill="#5E7085">
    <text x="185" y="108">Tecnología que trasciende</text>
  </g>
  <text x="185" y="138" font-family="'DM Sans', sans-serif" font-size="11" fill="#8A9BB0">nexa.design</text>
</svg>
