<svg xmlns="http://www.w3.org/2000/svg" width="400" height="100" viewBox="0 0 400 100">
  <defs>
    <linearGradient id="grad1" x1="0%" y1="0%" x2="100%" y2="100%">
      <stop offset="0%" stop-color="#34D399"/>
      <stop offset="100%" stop-color="#10B981"/>
    </linearGradient>
  </defs>
  <g transform="translate(10, 45)">
    <polygon points="-20,-30 -5,-35 -5,20 -20,25" fill="url(#grad1)"/>
    <polygon points="-20,-30 -5,-35 -20,-15 -35,-10" fill="#34D399"/>
    <polygon points="-20,25 -5,20 -20,40 -35,35" fill="#059669"/>
    <polygon points="-5,-35 10,-15 10,20 -5,20" fill="#10B981"/>
    <polygon points="10,-15 25,-20 25,25 10,20" fill="#059669"/>
    <polygon points="10,-15 25,-20 10,0 -5,5" fill="#34D399"/>
    <polygon points="10,20 25,25 10,45 -5,40" fill="#059669"/>
  </g>
  <text x="55" y="58" font-family="Syne, sans-serif" font-size="48" font-weight="800" fill="#F0F4F8" letter-spacing="4">NEXA</text>
</svg>
