<svg xmlns="http://www.w3.org/2000/svg" width="1080" height="1080" viewBox="0 0 1080 1080">
  <defs>
    <radialGradient id="bg-grad" cx="50%" cy="50%" r="50%">
      <stop offset="0%" stop-color="#111820"/>
      <stop offset="100%" stop-color="#060A0E"/>
    </radialGradient>
    <radialGradient id="glow" cx="50%" cy="50%" r="50%">
      <stop offset="0%" stop-color="#10B981" stop-opacity="0.15"/>
      <stop offset="100%" stop-color="#10B981" stop-opacity="0"/>
    </radialGradient>
  </defs>
  
  <rect width="1080" height="1080" fill="url(#bg-grad)"/>
  
  <!-- Glow effect -->
  <ellipse cx="540" cy="440" rx="300" ry="300" fill="url(#glow)"/>
  
  <!-- Subtle grid -->
  <g opacity="0.03">
    <line x1="0" y1="0" x2="0" y2="1080" stroke="#F0F4F8" stroke-width="0.5"/><line x1="80" y1="0" x2="80" y2="1080" stroke="#F0F4F8" stroke-width="0.5"/><line x1="160" y1="0" x2="160" y2="1080" stroke="#F0F4F8" stroke-width="0.5"/><line x1="240" y1="0" x2="240" y2="1080" stroke="#F0F4F8" stroke-width="0.5"/><line x1="320" y1="0" x2="320" y2="1080" stroke="#F0F4F8" stroke-width="0.5"/><line x1="400" y1="0" x2="400" y2="1080" stroke="#F0F4F8" stroke-width="0.5"/><line x1="480" y1="0" x2="480" y2="1080" stroke="#F0F4F8" stroke-width="0.5"/><line x1="560" y1="0" x2="560" y2="1080" stroke="#F0F4F8" stroke-width="0.5"/><line x1="640" y1="0" x2="640" y2="1080" stroke="#F0F4F8" stroke-width="0.5"/><line x1="720" y1="0" x2="720" y2="1080" stroke="#F0F4F8" stroke-width="0.5"/><line x1="800" y1="0" x2="800" y2="1080" stroke="#F0F4F8" stroke-width="0.5"/><line x1="880" y1="0" x2="880" y2="1080" stroke="#F0F4F8" stroke-width="0.5"/><line x1="960" y1="0" x2="960" y2="1080" stroke="#F0F4F8" stroke-width="0.5"/><line x1="1040" y1="0" x2="1040" y2="1080" stroke="#F0F4F8" stroke-width="0.5"/>
    <line x1="0" y1="0" x2="1080" y2="0" stroke="#F0F4F8" stroke-width="0.5"/><line x1="0" y1="80" x2="1080" y2="80" stroke="#F0F4F8" stroke-width="0.5"/><line x1="0" y1="160" x2="1080" y2="160" stroke="#F0F4F8" stroke-width="0.5"/><line x1="0" y1="240" x2="1080" y2="240" stroke="#F0F4F8" stroke-width="0.5"/><line x1="0" y1="320" x2="1080" y2="320" stroke="#F0F4F8" stroke-width="0.5"/><line x1="0" y1="400" x2="1080" y2="400" stroke="#F0F4F8" stroke-width="0.5"/><line x1="0" y1="480" x2="1080" y2="480" stroke="#F0F4F8" stroke-width="0.5"/><line x1="0" y1="560" x2="1080" y2="560" stroke="#F0F4F8" stroke-width="0.5"/><line x1="0" y1="640" x2="1080" y2="640" stroke="#F0F4F8" stroke-width="0.5"/><line x1="0" y1="720" x2="1080" y2="720" stroke="#F0F4F8" stroke-width="0.5"/><line x1="0" y1="800" x2="1080" y2="800" stroke="#F0F4F8" stroke-width="0.5"/><line x1="0" y1="880" x2="1080" y2="880" stroke="#F0F4F8" stroke-width="0.5"/><line x1="0" y1="960" x2="1080" y2="960" stroke="#F0F4F8" stroke-width="0.5"/><line x1="0" y1="1040" x2="1080" y2="1040" stroke="#F0F4F8" stroke-width="0.5"/>
  </g>
  
  <!-- Icon -->
  <g transform="translate(540, 440)">
    <rect x="-50" y="-35" width="100" height="70" rx="6" fill="none" stroke="#10B981" stroke-width="3"/>
    <path d="M -50 -35 L 0 10 L 50 -35" fill="none" stroke="#34D399" stroke-width="2"/>
    <circle cx="0" cy="0" r="8" fill="#10B981" opacity="0.6"/>
  </g>
  
  <!-- Label -->
  <text x="540" y="580" font-family="Syne, sans-serif" font-weight="700" font-size="32" fill="#F0F4F8" text-anchor="middle" letter-spacing="4">CONTACTO</text>
  
  <!-- Decorative corners -->
  <line x1="100" y1="100" x2="180" y2="100" stroke="#10B981" stroke-opacity="0.3" stroke-width="1.5"/>
  <line x1="100" y1="100" x2="100" y2="180" stroke="#10B981" stroke-opacity="0.3" stroke-width="1.5"/>
  <line x1="980" y1="980" x2="900" y2="980" stroke="#10B981" stroke-opacity="0.3" stroke-width="1.5"/>
  <line x1="980" y1="980" x2="980" y2="900" stroke="#10B981" stroke-opacity="0.3" stroke-width="1.5"/>
</svg>