<svg xmlns="http://www.w3.org/2000/svg" width="1080" height="1920" viewBox="0 0 1080 1920">
  <defs>
    <radialGradient id="bg-grad" cx="50%" cy="20%" r="70%">
      <stop offset="0%" stop-color="#111820"/>
      <stop offset="100%" stop-color="#060A0E"/>
    </radialGradient>
    <radialGradient id="glow" cx="50%" cy="30%" r="50%">
      <stop offset="0%" stop-color="#10B981" stop-opacity="0.1"/>
      <stop offset="100%" stop-color="#10B981" stop-opacity="0"/>
    </radialGradient>
  </defs>
  
  <rect width="1080" height="1920" fill="url(#bg-grad)"/>
  <ellipse cx="540" cy="500" rx="500" ry="400" fill="url(#glow)"/>
  
  <!-- Subtle grid -->
  <g opacity="0.02">
    <line x1="0" y1="0" x2="0" y2="1920" stroke="#F0F4F8" stroke-width="0.5"/><line x1="80" y1="0" x2="80" y2="1920" stroke="#F0F4F8" stroke-width="0.5"/><line x1="160" y1="0" x2="160" y2="1920" stroke="#F0F4F8" stroke-width="0.5"/><line x1="240" y1="0" x2="240" y2="1920" stroke="#F0F4F8" stroke-width="0.5"/><line x1="320" y1="0" x2="320" y2="1920" stroke="#F0F4F8" stroke-width="0.5"/><line x1="400" y1="0" x2="400" y2="1920" stroke="#F0F4F8" stroke-width="0.5"/><line x1="480" y1="0" x2="480" y2="1920" stroke="#F0F4F8" stroke-width="0.5"/><line x1="560" y1="0" x2="560" y2="1920" stroke="#F0F4F8" stroke-width="0.5"/><line x1="640" y1="0" x2="640" y2="1920" stroke="#F0F4F8" stroke-width="0.5"/><line x1="720" y1="0" x2="720" y2="1920" stroke="#F0F4F8" stroke-width="0.5"/><line x1="800" y1="0" x2="800" y2="1920" stroke="#F0F4F8" stroke-width="0.5"/><line x1="880" y1="0" x2="880" y2="1920" stroke="#F0F4F8" stroke-width="0.5"/><line x1="960" y1="0" x2="960" y2="1920" stroke="#F0F4F8" stroke-width="0.5"/><line x1="1040" y1="0" x2="1040" y2="1920" stroke="#F0F4F8" stroke-width="0.5"/>
    <line x1="0" y1="0" x2="1080" y2="0" stroke="#F0F4F8" stroke-width="0.5"/><line x1="0" y1="80" x2="1080" y2="80" stroke="#F0F4F8" stroke-width="0.5"/><line x1="0" y1="160" x2="1080" y2="160" stroke="#F0F4F8" stroke-width="0.5"/><line x1="0" y1="240" x2="1080" y2="240" stroke="#F0F4F8" stroke-width="0.5"/><line x1="0" y1="320" x2="1080" y2="320" stroke="#F0F4F8" stroke-width="0.5"/><line x1="0" y1="400" x2="1080" y2="400" stroke="#F0F4F8" stroke-width="0.5"/><line x1="0" y1="480" x2="1080" y2="480" stroke="#F0F4F8" stroke-width="0.5"/><line x1="0" y1="560" x2="1080" y2="560" stroke="#F0F4F8" stroke-width="0.5"/><line x1="0" y1="640" x2="1080" y2="640" stroke="#F0F4F8" stroke-width="0.5"/><line x1="0" y1="720" x2="1080" y2="720" stroke="#F0F4F8" stroke-width="0.5"/><line x1="0" y1="800" x2="1080" y2="800" stroke="#F0F4F8" stroke-width="0.5"/><line x1="0" y1="880" x2="1080" y2="880" stroke="#F0F4F8" stroke-width="0.5"/><line x1="0" y1="960" x2="1080" y2="960" stroke="#F0F4F8" stroke-width="0.5"/><line x1="0" y1="1040" x2="1080" y2="1040" stroke="#F0F4F8" stroke-width="0.5"/><line x1="0" y1="1120" x2="1080" y2="1120" stroke="#F0F4F8" stroke-width="0.5"/><line x1="0" y1="1200" x2="1080" y2="1200" stroke="#F0F4F8" stroke-width="0.5"/><line x1="0" y1="1280" x2="1080" y2="1280" stroke="#F0F4F8" stroke-width="0.5"/><line x1="0" y1="1360" x2="1080" y2="1360" stroke="#F0F4F8" stroke-width="0.5"/><line x1="0" y1="1440" x2="1080" y2="1440" stroke="#F0F4F8" stroke-width="0.5"/><line x1="0" y1="1520" x2="1080" y2="1520" stroke="#F0F4F8" stroke-width="0.5"/><line x1="0" y1="1600" x2="1080" y2="1600" stroke="#F0F4F8" stroke-width="0.5"/><line x1="0" y1="1680" x2="1080" y2="1680" stroke="#F0F4F8" stroke-width="0.5"/><line x1="0" y1="1760" x2="1080" y2="1760" stroke="#F0F4F8" stroke-width="0.5"/><line x1="0" y1="1840" x2="1080" y2="1840" stroke="#F0F4F8" stroke-width="0.5"/>
  </g>
  
  <!-- Top bar -->
  <rect x="0" y="0" width="1080" height="6" fill="#10B981" opacity="0.6"/>
  
  <!-- Header -->
  <text x="540" y="150" font-family="Syne, sans-serif" font-weight="800" font-size="48" fill="#F0F4F8" text-anchor="middle" letter-spacing="-0.02em">NUESTROS SERVICIOS</text>
  <rect x="420" y="180" width="240" height="3" rx="1.5" fill="#10B981" opacity="0.5"/>
  
  <text x="540" y="230" font-family="DM Sans, sans-serif" font-weight="400" font-size="16" fill="#8A9BB0" text-anchor="middle">Soluciones completas para tu negocio</text>
  
  <!-- Services list -->
  
    <g transform="translate(80, 280)">
      <rect x="0" y="0" width="920" height="135" rx="12" fill="#0B1117" stroke="#10B981" stroke-opacity="0.15" stroke-width="1"/>
      <rect x="0" y="0" width="4" height="135" rx="2" fill="#10B981"/>
      <rect x="25" y="20" width="60" height="60" rx="8" fill="#10B981" opacity="0.12"/>
      <text x="55" y="58" font-family="DM Mono, monospace" font-weight="500" font-size="14" fill="#34D399" text-anchor="middle">WEB</text>
      <text x="110" y="45" font-family="Syne, sans-serif" font-weight="700" font-size="20" fill="#F0F4F8">Desarrollo Web</text>
      <text x="110" y="78" font-family="DM Sans, sans-serif" font-weight="400" font-size="15" fill="#8A9BB0">Apps modernas, React, Next.js, escalables</text>
    </g>
    <g transform="translate(80, 435)">
      <rect x="0" y="0" width="920" height="135" rx="12" fill="#0B1117" stroke="#10B981" stroke-opacity="0.15" stroke-width="1"/>
      <rect x="0" y="0" width="4" height="135" rx="2" fill="#10B981"/>
      <rect x="25" y="20" width="60" height="60" rx="8" fill="#10B981" opacity="0.12"/>
      <text x="55" y="58" font-family="DM Mono, monospace" font-weight="500" font-size="14" fill="#34D399" text-anchor="middle">MOV</text>
      <text x="110" y="45" font-family="Syne, sans-serif" font-weight="700" font-size="20" fill="#F0F4F8">Apps Móviles</text>
      <text x="110" y="78" font-family="DM Sans, sans-serif" font-weight="400" font-size="15" fill="#8A9BB0">iOS, Android, React Native, Flutter</text>
    </g>
    <g transform="translate(80, 590)">
      <rect x="0" y="0" width="920" height="135" rx="12" fill="#0B1117" stroke="#10B981" stroke-opacity="0.15" stroke-width="1"/>
      <rect x="0" y="0" width="4" height="135" rx="2" fill="#10B981"/>
      <rect x="25" y="20" width="60" height="60" rx="8" fill="#10B981" opacity="0.12"/>
      <text x="55" y="58" font-family="DM Mono, monospace" font-weight="500" font-size="14" fill="#34D399" text-anchor="middle">API</text>
      <text x="110" y="45" font-family="Syne, sans-serif" font-weight="700" font-size="20" fill="#F0F4F8">APIs y Backend</text>
      <text x="110" y="78" font-family="DM Sans, sans-serif" font-weight="400" font-size="15" fill="#8A9BB0">Node.js, Python, microservicios</text>
    </g>
    <g transform="translate(80, 745)">
      <rect x="0" y="0" width="920" height="135" rx="12" fill="#0B1117" stroke="#10B981" stroke-opacity="0.15" stroke-width="1"/>
      <rect x="0" y="0" width="4" height="135" rx="2" fill="#10B981"/>
      <rect x="25" y="20" width="60" height="60" rx="8" fill="#10B981" opacity="0.12"/>
      <text x="55" y="58" font-family="DM Mono, monospace" font-weight="500" font-size="14" fill="#34D399" text-anchor="middle">SAAS</text>
      <text x="110" y="45" font-family="Syne, sans-serif" font-weight="700" font-size="20" fill="#F0F4F8">SaaS</text>
      <text x="110" y="78" font-family="DM Sans, sans-serif" font-weight="400" font-size="15" fill="#8A9BB0">Software como servicio, multi-tenant</text>
    </g>
    <g transform="translate(80, 900)">
      <rect x="0" y="0" width="920" height="135" rx="12" fill="#0B1117" stroke="#10B981" stroke-opacity="0.15" stroke-width="1"/>
      <rect x="0" y="0" width="4" height="135" rx="2" fill="#10B981"/>
      <rect x="25" y="20" width="60" height="60" rx="8" fill="#10B981" opacity="0.12"/>
      <text x="55" y="58" font-family="DM Mono, monospace" font-weight="500" font-size="14" fill="#34D399" text-anchor="middle">AUT</text>
      <text x="110" y="45" font-family="Syne, sans-serif" font-weight="700" font-size="20" fill="#F0F4F8">Automatizaciones</text>
      <text x="110" y="78" font-family="DM Sans, sans-serif" font-weight="400" font-size="15" fill="#8A9BB0">IA, workflows, procesos inteligentes</text>
    </g>
    <g transform="translate(80, 1055)">
      <rect x="0" y="0" width="920" height="135" rx="12" fill="#0B1117" stroke="#10B981" stroke-opacity="0.15" stroke-width="1"/>
      <rect x="0" y="0" width="4" height="135" rx="2" fill="#10B981"/>
      <rect x="25" y="20" width="60" height="60" rx="8" fill="#10B981" opacity="0.12"/>
      <text x="55" y="58" font-family="DM Mono, monospace" font-weight="500" font-size="14" fill="#34D399" text-anchor="middle">CLOUD</text>
      <text x="110" y="45" font-family="Syne, sans-serif" font-weight="700" font-size="20" fill="#F0F4F8">Cloud &amp; DevOps</text>
      <text x="110" y="78" font-family="DM Sans, sans-serif" font-weight="400" font-size="15" fill="#8A9BB0">AWS, Docker, CI/CD, escalabilidad</text>
    </g>
  
  <!-- CTA -->
  <g transform="translate(80, 1250)">
    <rect x="0" y="0" width="920" height="70" rx="35" fill="#10B981" opacity="0.15" stroke="#10B981" stroke-width="2"/>
    <text x="460" y="44" font-family="Syne, sans-serif" font-weight="700" font-size="18" fill="#34D399" text-anchor="middle" letter-spacing="2">¿NECESITAS ALGO MÁS? HABLANOS</text>
  </g>
  
  <!-- Bottom -->
  <text x="540" y="1850" font-family="DM Mono, monospace" font-weight="400" font-size="12" fill="#5E7085" text-anchor="middle" opacity="0.5">NEXA — TECNOLOGÍA QUE TRASCIENDE</text>
</svg>