<svg xmlns="http://www.w3.org/2000/svg" width="1080" height="1920" viewBox="0 0 1080 1920">
  <defs>
    <radialGradient id="bg-grad" cx="50%" cy="20%" r="70%">
      <stop offset="0%" stop-color="#111820"/>
      <stop offset="100%" stop-color="#060A0E"/>
    </radialGradient>
    <radialGradient id="glow" cx="50%" cy="30%" r="50%">
      <stop offset="0%" stop-color="#E85D04" stop-opacity="0.12"/>
      <stop offset="100%" stop-color="#E85D04" stop-opacity="0"/>
    </radialGradient>
  </defs>
  
  <rect width="1080" height="1920" fill="url(#bg-grad)"/>
  <ellipse cx="540" cy="400" rx="500" ry="400" fill="url(#glow)"/>
  
  <!-- Subtle grid -->
  <g opacity="0.02">
    <line x1="0" y1="0" x2="0" y2="1920" stroke="#F0F4F8" stroke-width="0.5"/><line x1="80" y1="0" x2="80" y2="1920" stroke="#F0F4F8" stroke-width="0.5"/><line x1="160" y1="0" x2="160" y2="1920" stroke="#F0F4F8" stroke-width="0.5"/><line x1="240" y1="0" x2="240" y2="1920" stroke="#F0F4F8" stroke-width="0.5"/><line x1="320" y1="0" x2="320" y2="1920" stroke="#F0F4F8" stroke-width="0.5"/><line x1="400" y1="0" x2="400" y2="1920" stroke="#F0F4F8" stroke-width="0.5"/><line x1="480" y1="0" x2="480" y2="1920" stroke="#F0F4F8" stroke-width="0.5"/><line x1="560" y1="0" x2="560" y2="1920" stroke="#F0F4F8" stroke-width="0.5"/><line x1="640" y1="0" x2="640" y2="1920" stroke="#F0F4F8" stroke-width="0.5"/><line x1="720" y1="0" x2="720" y2="1920" stroke="#F0F4F8" stroke-width="0.5"/><line x1="800" y1="0" x2="800" y2="1920" stroke="#F0F4F8" stroke-width="0.5"/><line x1="880" y1="0" x2="880" y2="1920" stroke="#F0F4F8" stroke-width="0.5"/><line x1="960" y1="0" x2="960" y2="1920" stroke="#F0F4F8" stroke-width="0.5"/><line x1="1040" y1="0" x2="1040" y2="1920" stroke="#F0F4F8" stroke-width="0.5"/>
    <line x1="0" y1="0" x2="1080" y2="0" stroke="#F0F4F8" stroke-width="0.5"/><line x1="0" y1="80" x2="1080" y2="80" stroke="#F0F4F8" stroke-width="0.5"/><line x1="0" y1="160" x2="1080" y2="160" stroke="#F0F4F8" stroke-width="0.5"/><line x1="0" y1="240" x2="1080" y2="240" stroke="#F0F4F8" stroke-width="0.5"/><line x1="0" y1="320" x2="1080" y2="320" stroke="#F0F4F8" stroke-width="0.5"/><line x1="0" y1="400" x2="1080" y2="400" stroke="#F0F4F8" stroke-width="0.5"/><line x1="0" y1="480" x2="1080" y2="480" stroke="#F0F4F8" stroke-width="0.5"/><line x1="0" y1="560" x2="1080" y2="560" stroke="#F0F4F8" stroke-width="0.5"/><line x1="0" y1="640" x2="1080" y2="640" stroke="#F0F4F8" stroke-width="0.5"/><line x1="0" y1="720" x2="1080" y2="720" stroke="#F0F4F8" stroke-width="0.5"/><line x1="0" y1="800" x2="1080" y2="800" stroke="#F0F4F8" stroke-width="0.5"/><line x1="0" y1="880" x2="1080" y2="880" stroke="#F0F4F8" stroke-width="0.5"/><line x1="0" y1="960" x2="1080" y2="960" stroke="#F0F4F8" stroke-width="0.5"/><line x1="0" y1="1040" x2="1080" y2="1040" stroke="#F0F4F8" stroke-width="0.5"/><line x1="0" y1="1120" x2="1080" y2="1120" stroke="#F0F4F8" stroke-width="0.5"/><line x1="0" y1="1200" x2="1080" y2="1200" stroke="#F0F4F8" stroke-width="0.5"/><line x1="0" y1="1280" x2="1080" y2="1280" stroke="#F0F4F8" stroke-width="0.5"/><line x1="0" y1="1360" x2="1080" y2="1360" stroke="#F0F4F8" stroke-width="0.5"/><line x1="0" y1="1440" x2="1080" y2="1440" stroke="#F0F4F8" stroke-width="0.5"/><line x1="0" y1="1520" x2="1080" y2="1520" stroke="#F0F4F8" stroke-width="0.5"/><line x1="0" y1="1600" x2="1080" y2="1600" stroke="#F0F4F8" stroke-width="0.5"/><line x1="0" y1="1680" x2="1080" y2="1680" stroke="#F0F4F8" stroke-width="0.5"/><line x1="0" y1="1760" x2="1080" y2="1760" stroke="#F0F4F8" stroke-width="0.5"/><line x1="0" y1="1840" x2="1080" y2="1840" stroke="#F0F4F8" stroke-width="0.5"/>
  </g>
  
  <!-- Top bar -->
  <rect x="0" y="0" width="1080" height="6" fill="#E85D04" opacity="0.8"/>
  
  <!-- Project badge -->
  <rect x="80" y="80" width="120" height="32" rx="16" fill="#E85D04" opacity="0.15"/>
  <text x="140" y="102" font-family="DM Mono, monospace" font-weight="500" font-size="12" fill="#F97316" text-anchor="middle" letter-spacing="1">PROYECTO</text>
  
  <!-- Client name -->
  <text x="80" y="170" font-family="Syne, sans-serif" font-weight="800" font-size="52" fill="#F0F4F8" letter-spacing="-0.02em">CAySI SA</text>
  <text x="80" y="210" font-family="DM Sans, sans-serif" font-weight="400" font-size="16" fill="#8A9BB0">Control, Automatización y Sistemas Informáticos</text>
  
  <!-- Divider -->
  <rect x="80" y="240" width="100" height="3" rx="1.5" fill="#E85D04" opacity="0.6"/>
  
  <!-- Description -->
  <text x="80" y="290" font-family="DM Sans, sans-serif" font-weight="400" font-size="16" fill="#8A9BB0">Modernización completa del sitio web corporativo con estética industrial SCADA.</text>
  
  <!-- Problem section -->
  <text x="80" y="370" font-family="Syne, sans-serif" font-weight="700" font-size="22" fill="#F0F4F8">EL PROBLEMA</text>
  <text x="80" y="400" font-family="DM Sans, sans-serif" font-weight="400" font-size="15" fill="#5E7085">Sitio original en PHP sin responsive, tipografías genéricas, sin animaciones y tiempo de carga de 5.5s.</text>
  
  <!-- Improvements -->
  <text x="80" y="480" font-family="Syne, sans-serif" font-weight="700" font-size="22" fill="#F0F4F8">MEJORAS IMPLEMENTADAS</text>
  
    <g transform="translate(80, 520)">
      <circle cx="12" cy="12" r="6" fill="#10B981" opacity="0.8"/>
      <text x="30" y="17" font-family="DM Sans, sans-serif" font-weight="400" font-size="15" fill="#8A9BB0">Diseño responsive completo (desktop, tablet, mobile)</text>
    </g>
    <g transform="translate(80, 585)">
      <circle cx="12" cy="12" r="6" fill="#10B981" opacity="0.8"/>
      <text x="30" y="17" font-family="DM Sans, sans-serif" font-weight="400" font-size="15" fill="#8A9BB0">Identidad de marca con paleta de 22 colores</text>
    </g>
    <g transform="translate(80, 650)">
      <circle cx="12" cy="12" r="6" fill="#10B981" opacity="0.8"/>
      <text x="30" y="17" font-family="DM Sans, sans-serif" font-weight="400" font-size="15" fill="#8A9BB0">Animaciones fluidas con Framer Motion</text>
    </g>
    <g transform="translate(80, 715)">
      <circle cx="12" cy="12" r="6" fill="#10B981" opacity="0.8"/>
      <text x="30" y="17" font-family="DM Sans, sans-serif" font-weight="400" font-size="15" fill="#8A9BB0">Tiempo de carga reducido de 5.5s a 3.0s</text>
    </g>
    <g transform="translate(80, 780)">
      <circle cx="12" cy="12" r="6" fill="#10B981" opacity="0.8"/>
      <text x="30" y="17" font-family="DM Sans, sans-serif" font-weight="400" font-size="15" fill="#8A9BB0">Estética industrial SCADA con HUD en tiempo real</text>
    </g>
    <g transform="translate(80, 845)">
      <circle cx="12" cy="12" r="6" fill="#10B981" opacity="0.8"/>
      <text x="30" y="17" font-family="DM Sans, sans-serif" font-weight="400" font-size="15" fill="#8A9BB0">Código modular con componentes reutilizables</text>
    </g>
    <g transform="translate(80, 910)">
      <circle cx="12" cy="12" r="6" fill="#10B981" opacity="0.8"/>
      <text x="30" y="17" font-family="DM Sans, sans-serif" font-weight="400" font-size="15" fill="#8A9BB0">Galería interactiva con lightbox</text>
    </g>
    <g transform="translate(80, 975)">
      <circle cx="12" cy="12" r="6" fill="#10B981" opacity="0.8"/>
      <text x="30" y="17" font-family="DM Sans, sans-serif" font-weight="400" font-size="15" fill="#8A9BB0">Accesibilidad mejorada (ARIA, teclado)</text>
    </g>
    <g transform="translate(80, 1040)">
      <circle cx="12" cy="12" r="6" fill="#10B981" opacity="0.8"/>
      <text x="30" y="17" font-family="DM Sans, sans-serif" font-weight="400" font-size="15" fill="#8A9BB0">Formulario con validación en tiempo real</text>
    </g>
  
  <!-- Tech stack -->
  <text x="80" y="980" font-family="Syne, sans-serif" font-weight="700" font-size="22" fill="#F0F4F8">TECNOLOGÍAS</text>
  
    <g transform="translate(80, 1020)">
      <rect x="0" y="0" width="440" height="55" rx="8" fill="#111820" stroke="#10B981" stroke-opacity="0.2" stroke-width="1"/>
      <text x="220" y="35" font-family="DM Mono, monospace" font-weight="400" font-size="14" fill="#34D399" text-anchor="middle">React 19</text>
    </g>
    <g transform="translate(550, 1020)">
      <rect x="0" y="0" width="440" height="55" rx="8" fill="#111820" stroke="#10B981" stroke-opacity="0.2" stroke-width="1"/>
      <text x="220" y="35" font-family="DM Mono, monospace" font-weight="400" font-size="14" fill="#34D399" text-anchor="middle">Vite</text>
    </g>
    <g transform="translate(80, 1090)">
      <rect x="0" y="0" width="440" height="55" rx="8" fill="#111820" stroke="#10B981" stroke-opacity="0.2" stroke-width="1"/>
      <text x="220" y="35" font-family="DM Mono, monospace" font-weight="400" font-size="14" fill="#34D399" text-anchor="middle">Framer Motion</text>
    </g>
    <g transform="translate(550, 1090)">
      <rect x="0" y="0" width="440" height="55" rx="8" fill="#111820" stroke="#10B981" stroke-opacity="0.2" stroke-width="1"/>
      <text x="220" y="35" font-family="DM Mono, monospace" font-weight="400" font-size="14" fill="#34D399" text-anchor="middle">Netlify CI/CD</text>
    </g>
    <g transform="translate(80, 1160)">
      <rect x="0" y="0" width="440" height="55" rx="8" fill="#111820" stroke="#10B981" stroke-opacity="0.2" stroke-width="1"/>
      <text x="220" y="35" font-family="DM Mono, monospace" font-weight="400" font-size="14" fill="#34D399" text-anchor="middle">Responsive Design</text>
    </g>
    <g transform="translate(550, 1160)">
      <rect x="0" y="0" width="440" height="55" rx="8" fill="#111820" stroke="#10B981" stroke-opacity="0.2" stroke-width="1"/>
      <text x="220" y="35" font-family="DM Mono, monospace" font-weight="400" font-size="14" fill="#34D399" text-anchor="middle">SCADA Aesthetic</text>
    </g>
  
  <!-- Results -->
  <g transform="translate(80, 1250)">
    <rect x="0" y="0" width="920" height="100" rx="12" fill="#0B1117" stroke="#E85D04" stroke-opacity="0.2" stroke-width="1"/>
    <text x="460" y="35" font-family="Syne, sans-serif" font-weight="700" font-size="18" fill="#F97316" text-anchor="middle">RESULTADO</text>
    <text x="460" y="65" font-family="DM Sans, sans-serif" font-weight="400" font-size="15" fill="#8A9BB0" text-anchor="middle">Sitio moderno, rápido y profesional que refleja la identidad técnica de la empresa.</text>
  </g>
  
  <!-- Bottom -->
  <text x="540" y="1850" font-family="DM Mono, monospace" font-weight="400" font-size="12" fill="#5E7085" text-anchor="middle" opacity="0.5">NEXA — TECNOLOGÍA QUE TRASCIENDE</text>
</svg>