<svg xmlns="http://www.w3.org/2000/svg" width="91mm" height="61mm" viewBox="0 0 91 61">
  <defs>
    <!-- Iconos redes a 7mm nativo, escalados a 4.5mm -->
    <g id="icon-ig">
      <rect x="-3.5" y="-3.5" width="7" height="7" rx="1.8" fill="none" stroke="#5E7085" stroke-width="0.5"/>
      <circle cx="0" cy="0" r="1.8" fill="none" stroke="#5E7085" stroke-width="0.5"/>
      <circle cx="2.2" cy="-2.2" r="0.5" fill="#5E7085"/>
    </g>
    <g id="icon-li">
      <rect x="-3.5" y="-3.5" width="7" height="7" rx="1" fill="none" stroke="#5E7085" stroke-width="0.5"/>
      <rect x="-2" y="-1.2" width="1" height="2.8" fill="#5E7085"/>
      <circle cx="-1.5" cy="-2.2" r="0.7" fill="#5E7085"/>
      <rect x="0.6" y="-1.2" width="1" height="2.8" fill="#5E7085"/>
      <rect x="0.6" y="-1.8" width="1" height="1" fill="#5E7085"/>
    </g>
    <g id="icon-gh">
      <path d="M8 0C3.58 0 0 3.58 0 8c0 3.54 2.29 6.53 5.47 7.59.4.07.55-.17.55-.38 0-.19-.01-.82-.01-1.49-2.01.37-2.53-.49-2.69-.94-.09-.23-.48-.94-.82-1.13-.28-.15-.68-.52-.01-.53.63-.01 1.08.58 1.23.82.72 1.21 1.87.87 2.33.66.07-.52.28-.87.51-1.07-1.78-.2-3.64-.89-3.64-3.95 0-.87.31-1.59.82-2.15-.08-.2-.36-1.02.08-2.12 0 0 .67-.21 2.2.82.64-.18 1.32-.27 2-.27.68 0 1.36.09 2 .27 1.53-1.04 2.2-.82 2.2-.82.44 1.1.16 1.92.08 2.12.51.56.82 1.27.82 2.15 0 3.07-1.87 3.75-3.65 3.95.29.25.54.73.54 1.48 0 1.07-.01 1.93-.01 2.2 0 .21.15.46.55.38A8.013 8.013 0 0 0 16 8c0-4.42-3.58-8-8-8z" fill="#5E7085" stroke="none" transform="scale(0.4375) translate(-8,-8)"/>
    </g>
  </defs>
  <!-- Guías de corte -->
  <g stroke="#000" stroke-width="0.15" fill="none">
    <line x1="0" y1="0" x2="-3" y2="0"/><line x1="0" y1="0" x2="0" y2="-3"/>
    <line x1="88" y1="0" x2="91" y2="0"/><line x1="88" y1="0" x2="88" y2="-3"/>
    <line x1="0" y1="58" x2="-3" y2="58"/><line x1="0" y1="58" x2="0" y2="61"/>
    <line x1="88" y1="58" x2="91" y2="58"/><line x1="88" y1="58" x2="88" y2="61"/>
    <line x1="1.5" y1="0" x2="1.5" y2="1.5"/><line x1="0" y1="1.5" x2="1.5" y2="1.5"/>
    <line x1="86.5" y1="0" x2="86.5" y2="1.5"/><line x1="88" y1="1.5" x2="86.5" y2="1.5"/>
    <line x1="1.5" y1="58" x2="1.5" y2="59.5"/><line x1="0" y1="59.5" x2="1.5" y2="59.5"/>
    <line x1="86.5" y1="58" x2="86.5" y2="59.5"/><line x1="88" y1="59.5" x2="86.5" y2="59.5"/>
  </g>
  <!-- Bleed -->
  <rect x="0" y="0" width="91" height="61" fill="#060A0E"/>
  <!-- Patrón topográfico de fondo (full-width) -->
  <g fill="none" stroke-linecap="round" opacity="0.05">
    <path d="M-15,3 C12,15 38,-3 62,8 C88,19 105,2 125,10" stroke="#10B981" stroke-width="0.3"/>
    <path d="M-15,10 C12,22 38,4 62,15 C88,26 105,9 125,17" stroke="#34D399" stroke-width="0.3"/>
    <path d="M-15,17 C12,29 38,11 62,22 C88,33 105,16 125,24" stroke="#10B981" stroke-width="0.3"/>
    <path d="M-15,24 C12,36 38,18 62,29 C88,40 105,23 125,31" stroke="#059669" stroke-width="0.3"/>
    <path d="M-15,31 C12,43 38,25 62,36 C88,47 105,30 125,38" stroke="#34D399" stroke-width="0.3"/>
    <path d="M-15,38 C12,50 38,32 62,43 C88,54 105,37 125,45" stroke="#10B981" stroke-width="0.3"/>
    <path d="M-15,45 C12,57 38,39 62,50 C88,61 105,44 125,52" stroke="#10B981" stroke-width="0.3"/>
    <path d="M-15,52 C12,64 38,46 62,57 C88,68 105,51 125,59" stroke="#34D399" stroke-width="0.25"/>
  </g>
  <!-- Isotipo semi-transparente pequeño detrás del nombre -->
  <g transform="translate(25, 7)" opacity="0.08">
    <g transform="scale(0.3)">
      <polygon points="-20,-30 -5,-35 -5,20 -20,25" fill="#10B981"/>
      <polygon points="-20,-30 -5,-35 -20,-15 -35,-10" fill="#34D399"/>
      <polygon points="-20,25 -5,20 -20,40 -35,35" fill="#059669"/>
      <polygon points="-5,-35 10,-15 10,20 -5,20" fill="#10B981"/>
      <polygon points="10,-15 25,-20 25,25 10,20" fill="#059669"/>
      <polygon points="10,-15 25,-20 10,0 -5,5" fill="#34D399"/>
      <polygon points="10,20 25,25 10,45 -5,40" fill="#059669"/>
    </g>
  </g>
  <!-- Nombre -->
  <text x="18" y="12" font-family="'Syne',sans-serif" font-size="6" font-weight="700" fill="#F0F4F8" letter-spacing="0.3">Aramis Rebai</text>
  <!-- Cargo -->
  <text x="18" y="19" font-family="'DM Sans',sans-serif" font-size="3.2" font-weight="500" fill="#10B981" letter-spacing="0.3">FUNDADOR · DESARROLLADOR</text>
  <!-- Separador → gap 2.3mm al teléfono ✓ -->
  <line x1="18" y1="23" x2="75" y2="23" stroke="#10B981" stroke-width="0.25" opacity="0.5"/>
  <!-- Contacto (solo teléfono) -->
  <g font-family="'DM Sans',sans-serif" font-size="3.2" fill="#8A9BB0">
    <text x="18" y="28.5">+54 9 3435 085 737</text>
  </g>
  <!-- Separador redes -->
  <text x="18" y="33" font-family="'DM Sans',sans-serif" font-size="2.6" font-weight="600" fill="#5E7085" letter-spacing="1.5">REDES</text>
  <line x1="18" y1="34.5" x2="45" y2="34.5" stroke="#5E7085" stroke-width="0.15" opacity="0.4"/>
  <!-- Redes sociales: icono + > prompt en DM Mono -->
  <g transform="translate(18, 37.5)">
    <!-- Instagram -->
    <g transform="translate(0, 0)">
      <use href="#icon-ig" transform="scale(0.643)"/>
    </g>
    <text x="9" y="1.2" font-family="'DM Mono',monospace" font-size="3.2" fill="#8A9BB0">
      <tspan fill="#10B981">&gt; </tspan>@aramis.rebai
    </text>
    <!-- LinkedIn (handle largo, fuente reducida a 2.8mm) -->
    <g transform="translate(0, 7)">
      <use href="#icon-li" transform="scale(0.643)"/>
    </g>
    <text x="9" y="8.2" font-family="'DM Mono',monospace" font-size="2.8" fill="#8A9BB0">
      <tspan fill="#10B981" font-size="2.8">&gt; </tspan>aramis-rebai-schine-3331083a0
    </text>
    <!-- GitHub -->
    <g transform="translate(0, 14)">
      <use href="#icon-gh" transform="scale(0.643)"/>
    </g>
    <text x="9" y="15.2" font-family="'DM Mono',monospace" font-size="3.2" fill="#8A9BB0">
      <tspan fill="#10B981">&gt; </tspan>aramis70
    </text>
  </g>
  <!-- NEXA mini logo bottom-right -->
  <g transform="translate(78, 53)" opacity="0.08">
    <polygon points="-5,-8 -1.5,-9 -1.5,5 -5,6.5" fill="#10B981"/>
    <polygon points="-1.5,-9 2.5,-4 2.5,5 -1.5,5" fill="#10B981"/>
    <polygon points="2.5,-4 6,-5.5 6,5 2.5,5" fill="#059669"/>
  </g>
</svg>
