<svg xmlns="http://www.w3.org/2000/svg" width="1080" height="1080" viewBox="0 0 1080 1080">
  <rect width="1080" height="1080" fill="#060A0E"/>
  <g opacity="0.015" stroke="#10B981" stroke-width="0.5" fill="none"><line x1="0" y1="0" x2="0" y2="1080"/><line x1="60" y1="0" x2="60" y2="1080"/><line x1="120" y1="0" x2="120" y2="1080"/><line x1="180" y1="0" x2="180" y2="1080"/><line x1="240" y1="0" x2="240" y2="1080"/><line x1="300" y1="0" x2="300" y2="1080"/><line x1="360" y1="0" x2="360" y2="1080"/><line x1="420" y1="0" x2="420" y2="1080"/><line x1="480" y1="0" x2="480" y2="1080"/><line x1="540" y1="0" x2="540" y2="1080"/><line x1="600" y1="0" x2="600" y2="1080"/><line x1="660" y1="0" x2="660" y2="1080"/><line x1="720" y1="0" x2="720" y2="1080"/><line x1="780" y1="0" x2="780" y2="1080"/><line x1="840" y1="0" x2="840" y2="1080"/><line x1="900" y1="0" x2="900" y2="1080"/><line x1="960" y1="0" x2="960" y2="1080"/><line x1="1020" y1="0" x2="1020" y2="1080"/><line x1="1080" y1="0" x2="1080" y2="1080"/><line x1="0" y1="0" x2="1080" y2="0"/><line x1="0" y1="60" x2="1080" y2="60"/><line x1="0" y1="120" x2="1080" y2="120"/><line x1="0" y1="180" x2="1080" y2="180"/><line x1="0" y1="240" x2="1080" y2="240"/><line x1="0" y1="300" x2="1080" y2="300"/><line x1="0" y1="360" x2="1080" y2="360"/><line x1="0" y1="420" x2="1080" y2="420"/><line x1="0" y1="480" x2="1080" y2="480"/><line x1="0" y1="540" x2="1080" y2="540"/><line x1="0" y1="600" x2="1080" y2="600"/><line x1="0" y1="660" x2="1080" y2="660"/><line x1="0" y1="720" x2="1080" y2="720"/><line x1="0" y1="780" x2="1080" y2="780"/><line x1="0" y1="840" x2="1080" y2="840"/><line x1="0" y1="900" x2="1080" y2="900"/><line x1="0" y1="960" x2="1080" y2="960"/><line x1="0" y1="1020" x2="1080" y2="1020"/><line x1="0" y1="1080" x2="1080" y2="1080"/></g>

  <text x="60" y="85" font-family="Syne, sans-serif" font-weight="800" font-size="32" fill="#F0F4F8" letter-spacing="-0.01em">Nuestros servicios</text>
  <rect x="60" y="100" width="70" height="3" rx="1.5" fill="#10B981" opacity="0.5"/>

  <g>
      <rect x="60" y="125" width="460" height="135" rx="12" fill="#0B1117" stroke="#10B981" stroke-opacity="0.08" stroke-width="1"/>
      <text x="84" y="165" font-family="Syne, sans-serif" font-weight="700" font-size="19" fill="#34D399">Desarrollo Web</text>
      <text x="84" y="193" font-family="DM Sans, sans-serif" font-weight="400" font-size="14" fill="#8A9BB0">React, Next.</text>
    </g><g>
      <rect x="560" y="125" width="460" height="135" rx="12" fill="#0B1117" stroke="#10B981" stroke-opacity="0.08" stroke-width="1"/>
      <text x="584" y="165" font-family="Syne, sans-serif" font-weight="700" font-size="19" fill="#34D399">Apps Móviles</text>
      <text x="584" y="193" font-family="DM Sans, sans-serif" font-weight="400" font-size="14" fill="#8A9BB0">React Native, Flutter.</text>
    </g><g>
      <rect x="60" y="280" width="460" height="135" rx="12" fill="#0B1117" stroke="#10B981" stroke-opacity="0.08" stroke-width="1"/>
      <text x="84" y="320" font-family="Syne, sans-serif" font-weight="700" font-size="19" fill="#34D399">Software a Medida</text>
      <text x="84" y="348" font-family="DM Sans, sans-serif" font-weight="400" font-size="14" fill="#8A9BB0">ERP, CRM, SaaS.</text>
    </g><g>
      <rect x="560" y="280" width="460" height="135" rx="12" fill="#0B1117" stroke="#10B981" stroke-opacity="0.08" stroke-width="1"/>
      <text x="584" y="320" font-family="Syne, sans-serif" font-weight="700" font-size="19" fill="#34D399">APIs &amp; Backend</text>
      <text x="584" y="348" font-family="DM Sans, sans-serif" font-weight="400" font-size="14" fill="#8A9BB0">Node, Go, Python.</text>
    </g><g>
      <rect x="60" y="435" width="460" height="135" rx="12" fill="#0B1117" stroke="#10B981" stroke-opacity="0.08" stroke-width="1"/>
      <text x="84" y="475" font-family="Syne, sans-serif" font-weight="700" font-size="19" fill="#34D399">UI/UX Design</text>
      <text x="84" y="503" font-family="DM Sans, sans-serif" font-weight="400" font-size="14" fill="#8A9BB0">Interfaces que se sienten premium.</text>
    </g><g>
      <rect x="560" y="435" width="460" height="135" rx="12" fill="#0B1117" stroke="#10B981" stroke-opacity="0.08" stroke-width="1"/>
      <text x="584" y="475" font-family="Syne, sans-serif" font-weight="700" font-size="19" fill="#34D399">DevOps &amp; Cloud</text>
      <text x="584" y="503" font-family="DM Sans, sans-serif" font-weight="400" font-size="14" fill="#8A9BB0">AWS, Docker, CI/CD automatizado.</text>
    </g>

  <text x="60" y="620" font-family="Syne, sans-serif" font-weight="800" font-size="32" fill="#F0F4F8" letter-spacing="-0.01em">Stack tecnológico</text>
  <rect x="60" y="635" width="70" height="3" rx="1.5" fill="#10B981" opacity="0.5"/>

  <g transform="translate(60, 660)">
    <rect x="0" y="0" width="180" height="32" rx="8" fill="#111820" stroke="#10B981" stroke-opacity="0.08" stroke-width="1"/>
      <text x="90" y="21" font-family="DM Sans, sans-serif" font-size="12" fill="#34D399" text-anchor="middle" letter-spacing="0.3">React</text><rect x="200" y="0" width="180" height="32" rx="8" fill="#111820" stroke="#10B981" stroke-opacity="0.08" stroke-width="1"/>
      <text x="290" y="21" font-family="DM Sans, sans-serif" font-size="12" fill="#34D399" text-anchor="middle" letter-spacing="0.3">Next.js</text><rect x="400" y="0" width="180" height="32" rx="8" fill="#111820" stroke="#10B981" stroke-opacity="0.08" stroke-width="1"/>
      <text x="490" y="21" font-family="DM Sans, sans-serif" font-size="12" fill="#34D399" text-anchor="middle" letter-spacing="0.3">Node.js</text><rect x="600" y="0" width="180" height="32" rx="8" fill="#111820" stroke="#10B981" stroke-opacity="0.08" stroke-width="1"/>
      <text x="690" y="21" font-family="DM Sans, sans-serif" font-size="12" fill="#34D399" text-anchor="middle" letter-spacing="0.3">TypeScript</text><rect x="800" y="0" width="180" height="32" rx="8" fill="#111820" stroke="#10B981" stroke-opacity="0.08" stroke-width="1"/>
      <text x="890" y="21" font-family="DM Sans, sans-serif" font-size="12" fill="#34D399" text-anchor="middle" letter-spacing="0.3">Tailwind</text><rect x="0" y="42" width="180" height="32" rx="8" fill="#111820" stroke="#10B981" stroke-opacity="0.08" stroke-width="1"/>
      <text x="90" y="63" font-family="DM Sans, sans-serif" font-size="12" fill="#34D399" text-anchor="middle" letter-spacing="0.3">PostgreSQL</text><rect x="200" y="42" width="180" height="32" rx="8" fill="#111820" stroke="#10B981" stroke-opacity="0.08" stroke-width="1"/>
      <text x="290" y="63" font-family="DM Sans, sans-serif" font-size="12" fill="#34D399" text-anchor="middle" letter-spacing="0.3">Redis</text><rect x="400" y="42" width="180" height="32" rx="8" fill="#111820" stroke="#10B981" stroke-opacity="0.08" stroke-width="1"/>
      <text x="490" y="63" font-family="DM Sans, sans-serif" font-size="12" fill="#34D399" text-anchor="middle" letter-spacing="0.3">Docker</text><rect x="600" y="42" width="180" height="32" rx="8" fill="#111820" stroke="#10B981" stroke-opacity="0.08" stroke-width="1"/>
      <text x="690" y="63" font-family="DM Sans, sans-serif" font-size="12" fill="#34D399" text-anchor="middle" letter-spacing="0.3">AWS</text>
  </g>

  <g>
    <rect x="0" y="1008" width="1080" height="72" fill="#0B1117" opacity="0.85"/>
    <line x1="0" y1="1008" x2="1080" y2="1008" stroke="#10B981" stroke-opacity="0.1" stroke-width="1"/>
    <g transform="translate(60, 1032)">
      <g transform="translate(0, -17.1) scale(0.38)"><defs><linearGradient id="logoGrad" x1="0%" y1="0%" x2="100%" y2="100%"><stop offset="0%" stop-color="#34D399"/><stop offset="100%" stop-color="#10B981"/></linearGradient></defs><polygon points="-20,-30 -5,-35 -5,20 -20,25" fill="url(#logoGrad)" opacity="0.85"/><polygon points="-20,-30 -5,-35 -20,-15 -35,-10" fill="#34D399" opacity="0.85"/><polygon points="-20,25 -5,20 -20,40 -35,35" fill="#059669" opacity="0.85"/><polygon points="-5,-35 10,-15 10,20 -5,20" fill="#10B981" opacity="0.85"/><polygon points="10,-15 25,-20 25,25 10,20" fill="#059669" opacity="0.85"/><polygon points="10,-15 25,-20 10,0 -5,5" fill="#34D399" opacity="0.85"/><polygon points="10,20 25,25 10,45 -5,40" fill="#059669" opacity="0.85"/></g>
      <text x="40.4" y="6" font-family="Syne, sans-serif" font-weight="800" font-size="15" fill="#F0F4F8" letter-spacing="2">NEXA</text>
      <text x="105.4" y="6" font-family="DM Sans, sans-serif" font-weight="400" font-size="12" fill="#5E7085" letter-spacing="0.5">Tecnología que trasciende</text>
    </g>
    <text x="1020" y="1038" font-family="DM Sans, sans-serif" font-size="12" fill="#5E7085" text-anchor="end" letter-spacing="0.5">nexa.design</text>
  </g>
</svg>